<?xml version="1.0" encoding="utf-8"?>
<!-- Generator: Adobe Illustrator 26.2.1, SVG Export Plug-In . SVG Version: 6.00 Build 0)  -->
<svg version="1.1" id="Layer_1" xmlns="http://www.w3.org/2000/svg" xmlns:xlink="http://www.w3.org/1999/xlink" x="0px" y="0px"
	 viewBox="0 0 98 96" style="enable-background:new 0 0 98 96;" xml:space="preserve">
<style type="text/css">
	.st0{fill-rule:evenodd;clip-rule:evenodd;fill:#FFFFFF;stroke:#606060;stroke-width:4;stroke-miterlimit:10;}
</style>
<path class="st0" d="M49,2.8C23.6,2.8,3,23.5,3,49.1c0,20.5,13.2,37.9,31.5,44c2.3,0.5,3.1-1,3.1-2.2c0-1.1-0.1-4.8-0.1-8.6
	C24.7,85.1,22,76.8,22,76.8C20,71.4,16.9,70,16.9,70c-4.2-2.8,0.3-2.8,0.3-2.8c4.7,0.3,7.1,4.8,7.1,4.8c4.1,7.1,10.7,5.1,13.4,3.8
	c0.4-3,1.6-5.1,2.9-6.2c-10.2-1.1-21-5.1-21-22.9c0-5.1,1.8-9.2,4.7-12.4c-0.5-1.2-2.1-5.9,0.5-12.3c0,0,3.9-1.2,12.7,4.8
	c3.8-1,7.6-1.5,11.5-1.5c3.9,0,7.9,0.5,11.5,1.5c8.8-6,12.7-4.8,12.7-4.8c2.5,6.4,0.9,11.1,0.5,12.3c3,3.2,4.7,7.4,4.7,12.4
	c0,17.8-10.7,21.7-21,22.9c1.7,1.5,3.1,4.2,3.1,8.6c0,6.2-0.1,11.2-0.1,12.7c0,1.2,0.8,2.7,3.1,2.2C81.8,87,95,69.7,95,49.1
	C95.1,23.5,74.4,2.8,49,2.8z"/>
</svg>
