<svg id="Layer_5" data-name="Layer 5" xmlns="http://www.w3.org/2000/svg" viewBox="0 0 13830.87 8189.41"><defs><style>.cls-1{fill:#343435;stroke:#2d2d2d;stroke-miterlimit:10;stroke-width:20px;}</style></defs><path class="cls-1" d="M108.5,5397.07q-22-7.5-40-15.25a122.84,122.84,0,0,1-31-18.75,77.62,77.62,0,0,1-20.25-26.25Q10,5321.57,10,5299.57q0-42.49,32.75-68t91.75-25.5a250.35,250.35,0,0,1,40,3q18.5,3,31.75,9.25t20.75,16a36.25,36.25,0,0,1,7.5,22.75q0,13-6,22.25a62.37,62.37,0,0,1-14.5,15.75q-11-7-29.5-12.25a148,148,0,0,0-40.5-5.25q-22.5,0-33,6.25t-10.5,15.75q0,7.5,6.5,12.25t19.5,8.75l26.5,8.5q47,15,72.25,38.25t25.25,63.25q0,42.49-33.5,68.75t-98.5,26.25a229.22,229.22,0,0,1-42.75-3.75,135.39,135.39,0,0,1-34.5-11q-14.76-7.24-23-18A39.55,39.55,0,0,1,10,5468.07q0-14.51,8.5-24.75A64.76,64.76,0,0,1,37,5427.57q14,11,34.25,19a119.46,119.46,0,0,0,44.25,8q24.5,0,34.5-7.5t10-17.5q0-10-8-15.25t-22.5-10.25Z"/><path class="cls-1" d="M376.5,5434.07q0,13,8.25,18.5t23.25,5.5a100.87,100.87,0,0,0,15.5-1.25,87.22,87.22,0,0,0,14-3.25,61.37,61.37,0,0,1,7.75,12.25,37.28,37.28,0,0,1,3.25,16.25q0,19-14.25,31t-50.25,12q-44,0-67.75-20t-23.75-65v-214q5.49-1.5,15.75-3.25a128.8,128.8,0,0,1,21.75-1.75q22,0,34.25,7.75t12.25,32.75v32H442a86.32,86.32,0,0,1,5.75,13.75,57.53,57.53,0,0,1,2.75,18.25q0,17.51-7.75,25.25T422,5358.57H376.5Z"/><path class="cls-1" d="M576.49,5517.07a115.69,115.69,0,0,1-15.75,3,160.89,160.89,0,0,1-22.25,1.5,117.6,117.6,0,0,1-19.75-1.5,33.66,33.66,0,0,1-14.75-6,28.87,28.87,0,0,1-9.25-12.25q-3.25-7.76-3.25-20.25v-150q0-11.51,4.25-19.75A46.35,46.35,0,0,1,508,5297.07a88.49,88.49,0,0,1,19.75-11.75,204.08,204.08,0,0,1,25.25-9.25,213.25,213.25,0,0,1,28-6.25,188.86,188.86,0,0,1,29-2.25q24,0,38,9.25t14,30.25a48.25,48.25,0,0,1-2,13.75,62.6,62.6,0,0,1-5,12.25q-10.5,0-21.5,1t-21.5,3q-10.5,2-19.75,4.25a86.74,86.74,0,0,0-15.75,5.25Z"/><path class="cls-1" d="M816,5525.57a175.3,175.3,0,0,1-54.75-8.25,124.09,124.09,0,0,1-44-24.75q-18.75-16.5-29.5-41.5T677,5392.57q0-33,10.75-56.75t28.25-39a112.85,112.85,0,0,1,40-22.5,149.18,149.18,0,0,1,46-7.25q26.5,0,48.25,8a116.06,116.06,0,0,1,37.5,22,97.84,97.84,0,0,1,24.5,33.5,102.68,102.68,0,0,1,8.75,42.5q0,17-9.5,26t-26.5,11.5l-123.5,18.5q5.5,16.5,22.5,24.75t39,8.25a139.53,139.53,0,0,0,38.75-5.25q18.25-5.25,29.75-12.25a41.9,41.9,0,0,1,13.5,14,35.83,35.83,0,0,1,5.5,19q0,22.5-21,33.5a111.3,111.3,0,0,1-36,11.5A253.48,253.48,0,0,1,816,5525.57Zm-14-196.5q-12,0-20.75,4A41.84,41.84,0,0,0,767,5343.32a42.45,42.45,0,0,0-8.25,14,57.7,57.7,0,0,0-3.25,15.75l85.5-14q-1.5-10-11-20T802,5329.07Z"/><path class="cls-1" d="M1062,5267.07q27,0,49.25,5.5t38,16.75a75.61,75.61,0,0,1,24.25,28.5q8.51,17.25,8.5,40.75v112q0,13-7.25,21.25a72.09,72.09,0,0,1-17.25,14.25q-32.51,19.5-91.5,19.5-26.51,0-47.75-5t-36.5-15a68.87,68.87,0,0,1-23.5-25.5q-8.25-15.49-8.25-36,0-34.5,20.5-53t63.5-23l65.5-7v-3.5q0-14.51-12.75-20.75t-36.75-6.25a169.82,169.82,0,0,0-37,4,197,197,0,0,0-32.5,10q-6.5-4.5-11-13.75a43.49,43.49,0,0,1-4.5-19.25q0-13,6.25-20.75t19.25-13.25q14.5-5.51,34.25-8A296.7,296.7,0,0,1,1062,5267.07Zm4,196.5a111.74,111.74,0,0,0,18.75-1.75q10.24-1.76,15.25-4.75v-40l-36,3q-14,1-23,6t-9,15a19.89,19.89,0,0,0,7.75,16.25Q1047.5,5463.58,1066,5463.57Z"/><path class="cls-1" d="M1350.49,5267.07a143.45,143.45,0,0,1,40.25,5.75,98.92,98.92,0,0,1,34.25,17.25,147.51,147.51,0,0,1,33.75-16.5q18.75-6.49,45.25-6.5a140.53,140.53,0,0,1,37.25,5,95,95,0,0,1,32.5,15.75q14.25,10.76,22.75,28.5t8.5,43.25v157.5a116.33,116.33,0,0,1-15.75,3,161,161,0,0,1-22.25,1.5,117.52,117.52,0,0,1-19.75-1.5,33.61,33.61,0,0,1-14.75-6,28.79,28.79,0,0,1-9.25-12.25q-3.26-7.76-3.25-20.25v-119.5q0-15-8.5-21.75t-23-6.75a39.89,39.89,0,0,0-15,3.25q-8,3.26-12,6.75a15.63,15.63,0,0,1,.5,3.75v169.75a140.3,140.3,0,0,1-16.25,3,157.27,157.27,0,0,1-21.75,1.5,117.52,117.52,0,0,1-19.75-1.5,33.61,33.61,0,0,1-14.75-6,28.79,28.79,0,0,1-9.25-12.25q-3.26-7.76-3.25-20.25v-119.5q0-15-9.25-21.75t-22.25-6.75a39.69,39.69,0,0,0-15.5,2.75,113.8,113.8,0,0,0-11,5.25v175.5a116.33,116.33,0,0,1-15.75,3,161,161,0,0,1-22.25,1.5,117.52,117.52,0,0,1-19.75-1.5,33.61,33.61,0,0,1-14.75-6,28.79,28.79,0,0,1-9.25-12.25q-3.26-7.76-3.25-20.25v-151q0-13.5,5.75-21.5a65,65,0,0,1,15.75-15q17-12,42.25-19.5A184.23,184.23,0,0,1,1350.49,5267.07Z"/><path class="cls-1" d="M1743.48,5517.07q-5.51,1-16.25,2.75a136,136,0,0,1-21.75,1.75,117.6,117.6,0,0,1-19.75-1.5,33.66,33.66,0,0,1-14.75-6,28.87,28.87,0,0,1-9.25-12.25q-3.26-7.76-3.25-20.25v-290q5.51-1,16.25-2.75a134.83,134.83,0,0,1,21.75-1.75,117.6,117.6,0,0,1,19.75,1.5,33.66,33.66,0,0,1,14.75,6,28.87,28.87,0,0,1,9.25,12.25q3.26,7.76,3.25,20.25Z"/><path class="cls-1" d="M1795,5207.07q0-19,12.75-32t33.75-13q21,0,33.75,13t12.75,32q0,19-12.75,32t-33.75,13q-21,0-33.75-13T1795,5207.07Zm89,310q-5.51,1-16.25,2.75a136,136,0,0,1-21.75,1.75,117.6,117.6,0,0,1-19.75-1.5,33.66,33.66,0,0,1-14.75-6,28.87,28.87,0,0,1-9.25-12.25q-3.26-7.76-3.25-20.25v-203.5q5.51-1,16.25-2.75a134.83,134.83,0,0,1,21.75-1.75,117.6,117.6,0,0,1,19.75,1.5,33.66,33.66,0,0,1,14.75,6,28.87,28.87,0,0,1,9.25,12.25q3.26,7.76,3.25,20.25Z"/><path class="cls-1" d="M2092,5363.57q0-15.49-8.75-22.75t-23.75-7.25a79,79,0,0,0-19.75,2.5,50,50,0,0,0-16.75,7.5v173.5a115.69,115.69,0,0,1-15.75,3,160.89,160.89,0,0,1-22.25,1.5,117.6,117.6,0,0,1-19.75-1.5,33.66,33.66,0,0,1-14.75-6,28.87,28.87,0,0,1-9.25-12.25q-3.26-7.76-3.25-20.25v-150q0-13.5,5.75-22a60.57,60.57,0,0,1,15.75-15.5q17-12,42.75-19.5t57.25-7.5q56.51,0,87,24.75t30.5,68.75v156.5a115.69,115.69,0,0,1-15.75,3,160.89,160.89,0,0,1-22.25,1.5,117.6,117.6,0,0,1-19.75-1.5,33.66,33.66,0,0,1-14.75-6,28.87,28.87,0,0,1-9.25-12.25q-3.26-7.76-3.25-20.25Z"/><path class="cls-1" d="M2227.48,5207.07q0-19,12.75-32t33.75-13q21,0,33.75,13t12.75,32q0,19-12.75,32t-33.75,13q-21,0-33.75-13T2227.48,5207.07Zm89,310q-5.51,1-16.25,2.75a136,136,0,0,1-21.75,1.75,117.52,117.52,0,0,1-19.75-1.5,33.61,33.61,0,0,1-14.75-6,28.79,28.79,0,0,1-9.25-12.25q-3.26-7.76-3.25-20.25v-203.5q5.49-1,16.25-2.75a134.64,134.64,0,0,1,21.75-1.75,117.69,117.69,0,0,1,19.75,1.5,33.66,33.66,0,0,1,14.75,6,28.87,28.87,0,0,1,9.25,12.25q3.24,7.76,3.25,20.25Z"/><path class="cls-1" d="M2524.48,5363.57q0-15.49-8.75-22.75t-23.75-7.25a79,79,0,0,0-19.75,2.5,49.87,49.87,0,0,0-16.75,7.5v173.5a116.33,116.33,0,0,1-15.75,3,161.1,161.1,0,0,1-22.25,1.5,117.43,117.43,0,0,1-19.75-1.5,33.61,33.61,0,0,1-14.75-6,28.79,28.79,0,0,1-9.25-12.25c-2.18-5.17-3.25-11.92-3.25-20.25v-150q0-13.5,5.75-22a60.26,60.26,0,0,1,15.75-15.5q17-12,42.75-19.5t57.25-7.5q56.49,0,87,24.75t30.5,68.75v156.5a116.33,116.33,0,0,1-15.75,3,161.1,161.1,0,0,1-22.25,1.5,117.43,117.43,0,0,1-19.75-1.5,33.61,33.61,0,0,1-14.75-6,28.79,28.79,0,0,1-9.25-12.25c-2.18-5.17-3.25-11.92-3.25-20.25Z"/><path class="cls-1" d="M2780.47,5267.07q28.5,0,51.75,7.25t39.25,18.75a60.57,60.57,0,0,1,15.75,15.5q5.75,8.51,5.75,22v175q0,26.49-10,45.75a92,92,0,0,1-27.25,32q-17.25,12.75-40.5,18.75a198.5,198.5,0,0,1-49.75,6q-45.49,0-71.5-12.25t-26-39.75a41.73,41.73,0,0,1,4.75-20.25q4.76-8.76,10.75-13.25a168.41,168.41,0,0,0,32.75,13.5,130.35,130.35,0,0,0,37.75,5.5q27,0,43-9t16-29v-8q-20.5,9-50,9a134.3,134.3,0,0,1-42.75-6.75,95.65,95.65,0,0,1-35.5-21q-15.25-14.25-24.5-36.75t-9.25-53.5q0-30.49,9.75-53a100.9,100.9,0,0,1,27-37.25,113,113,0,0,1,41-22A176.61,176.61,0,0,1,2780.47,5267.07Zm31,72.5a50.34,50.34,0,0,0-10.25-4,59.94,59.94,0,0,0-16.75-2q-24.49,0-36.75,13.75t-12.25,39.25q0,29,12.25,41.75t31.25,12.75q20.51,0,32.5-9.5Z"/><path class="cls-1" d="M3139,5419.57v96a139.09,139.09,0,0,1-17.25,3,183.38,183.38,0,0,1-23.25,1.5,104.61,104.61,0,0,1-20.25-1.75,34,34,0,0,1-14.5-6.25,27.85,27.85,0,0,1-8.75-12.5q-3-8-3-21v-235.5q0-10.5,5.75-16.25t15.75-9.25a187.27,187.27,0,0,1,39.5-8.75,396.91,396.91,0,0,1,48-2.75q69,0,104,29t35,78.5q0,31-16,53t-38,34q18,24.49,35.5,46t27.5,39q-5,17.51-18.25,26.75a50.8,50.8,0,0,1-29.75,9.25,64.26,64.26,0,0,1-19-2.5,46.07,46.07,0,0,1-14-7,57.28,57.28,0,0,1-11-11,147,147,0,0,1-9.5-14l-42-67.5Zm31.5-66.5q19,0,30-9.75t11-28.75q0-19-12.25-28.75t-38.75-9.75a114.72,114.72,0,0,0-12,.5q-4.5.49-10,1.5v75Z"/><path class="cls-1" d="M3471,5525.57a175.3,175.3,0,0,1-54.75-8.25,124.09,124.09,0,0,1-44-24.75q-18.75-16.5-29.5-41.5t-10.75-58.5q0-33,10.75-56.75t28.25-39a112.85,112.85,0,0,1,40-22.5,149.18,149.18,0,0,1,46-7.25q26.51,0,48.25,8a116.06,116.06,0,0,1,37.5,22,97.84,97.84,0,0,1,24.5,33.5,102.68,102.68,0,0,1,8.75,42.5q0,17-9.5,26t-26.5,11.5l-123.5,18.5q5.51,16.5,22.5,24.75t39,8.25a139.53,139.53,0,0,0,38.75-5.25q18.26-5.25,29.75-12.25a41.9,41.9,0,0,1,13.5,14,35.83,35.83,0,0,1,5.5,19q0,22.5-21,33.5a111.3,111.3,0,0,1-36,11.5A253.48,253.48,0,0,1,3471,5525.57Zm-14-196.5q-12,0-20.75,4a41.84,41.84,0,0,0-14.25,10.25,42.45,42.45,0,0,0-8.25,14,57.7,57.7,0,0,0-3.25,15.75l85.5-14q-1.5-10-11-20T3457,5329.07Z"/><path class="cls-1" d="M3717,5267.07a205.15,205.15,0,0,1,49.25,5.5q22.24,5.51,38,16.75a75.61,75.61,0,0,1,24.25,28.5q8.49,17.25,8.5,40.75v112q0,13-7.25,21.25a72.48,72.48,0,0,1-17.25,14.25q-32.51,19.5-91.5,19.5-26.51,0-47.75-5t-36.5-15a68.87,68.87,0,0,1-23.5-25.5q-8.25-15.49-8.25-36,0-34.5,20.5-53t63.5-23l65.5-7v-3.5q0-14.51-12.75-20.75t-36.75-6.25a169.82,169.82,0,0,0-37,4,196.75,196.75,0,0,0-32.5,10q-6.51-4.5-11-13.75a43.49,43.49,0,0,1-4.5-19.25q0-13,6.25-20.75t19.25-13.25q14.49-5.51,34.25-8A296.58,296.58,0,0,1,3717,5267.07Zm4,196.5a111.92,111.92,0,0,0,18.75-1.75q10.24-1.76,15.25-4.75v-40l-36,3q-14,1-23,6t-9,15a19.89,19.89,0,0,0,7.75,16.25Q3702.45,5463.58,3721,5463.57Z"/><path class="cls-1" d="M4026,5334.07a70.25,70.25,0,0,0-23.75,4,55,55,0,0,0-19.5,11.75,57.22,57.22,0,0,0-13.25,19.25q-5,11.51-5,27,0,31,17.75,46.5t43.25,15.5q15,0,26-3.5a160.34,160.34,0,0,0,19.5-7.5q10,7,15,15.25t5,19.75q0,20.51-19.5,31.75t-54,11.25q-31.5,0-57-9.25t-43.75-26a114.8,114.8,0,0,1-28.25-40.25q-10-23.51-10-52,0-33,10.75-57.75t29.25-40.75a123.61,123.61,0,0,1,42.75-24,162.6,162.6,0,0,1,51.25-8q36,0,55.5,13t19.5,33.5a36.5,36.5,0,0,1-4.5,17.75,61.9,61.9,0,0,1-10.5,14.25,162.8,162.8,0,0,0-20.5-7.75A86.82,86.82,0,0,0,4026,5334.07Z"/><path class="cls-1" d="M4218.46,5434.07q0,13,8.25,18.5t23.25,5.5a100.87,100.87,0,0,0,15.5-1.25,87.47,87.47,0,0,0,14-3.25,61.82,61.82,0,0,1,7.75,12.25,37.28,37.28,0,0,1,3.25,16.25q0,19-14.25,31t-50.25,12q-44,0-67.75-20t-23.75-65v-214q5.49-1.5,15.75-3.25a128.63,128.63,0,0,1,21.75-1.75q22,0,34.25,7.75t12.25,32.75v32H4284a86.32,86.32,0,0,1,5.75,13.75,57.81,57.81,0,0,1,2.75,18.25q0,17.51-7.75,25.25t-20.75,7.75h-45.5Z"/><path class="cls-1" d="M4555,5525.57q-8.51,0-19.5-.5t-22.75-2q-11.76-1.5-23.5-3.75a117.89,117.89,0,0,1-21.75-6.25q-27.51-10.5-27.5-36.5v-233.5q0-10.5,5.75-16.25t15.75-9.25a209.54,209.54,0,0,1,45.5-9.25q24-2.25,43-2.25,39,0,70.75,9.5t54.5,29.25q22.74,19.76,35.25,49.75t12.5,71q0,40-12,69.75t-34.25,50q-22.26,20.25-53.25,30.25T4555,5525.57Zm-28-73q5.49,1,13.5,1.75t15,.75a93.91,93.91,0,0,0,31.25-5,62.78,62.78,0,0,0,24.5-15.5q10.24-10.5,16-27.25t5.75-40.25q0-45-21-67.75t-56-22.75q-7,0-14.25.5t-14.75,1.5Z"/><path class="cls-1" d="M4894.94,5525.57a175.3,175.3,0,0,1-54.75-8.25,124.09,124.09,0,0,1-44-24.75q-18.75-16.5-29.5-41.5t-10.75-58.5q0-33,10.75-56.75t28.25-39a112.85,112.85,0,0,1,40-22.5,149.18,149.18,0,0,1,46-7.25q26.51,0,48.25,8a116.06,116.06,0,0,1,37.5,22,97.84,97.84,0,0,1,24.5,33.5,102.68,102.68,0,0,1,8.75,42.5q0,17-9.5,26t-26.5,11.5l-123.5,18.5q5.51,16.5,22.5,24.75t39,8.25a139.53,139.53,0,0,0,38.75-5.25q18.26-5.25,29.75-12.25a41.9,41.9,0,0,1,13.5,14,35.83,35.83,0,0,1,5.5,19q0,22.5-21,33.5a111.3,111.3,0,0,1-36,11.5A253.48,253.48,0,0,1,4894.94,5525.57Zm-14-196.5q-12,0-20.75,4a41.84,41.84,0,0,0-14.25,10.25,42.45,42.45,0,0,0-8.25,14,57.7,57.7,0,0,0-3.25,15.75l85.5-14q-1.5-10-11-20T4880.94,5329.07Z"/><path class="cls-1" d="M5201.44,5511.07q-7,5.51-20.5,9a121.93,121.93,0,0,1-30.5,3.5q-19.5,0-33.75-5t-19.75-16q-4.5-8.51-10.75-23.75t-13.25-34q-7-18.75-14.5-40.25t-14.25-42.5q-6.75-21-12.25-40.5t-9-34.5q7-7,18.75-12.25a62.4,62.4,0,0,1,25.75-5.25q17.51,0,28.75,7.25t16.75,27.25l19.5,76.5q5.51,22.5,10.5,40.75t7.5,28.25h2.5q9.5-37,20-82t19-88.5a79.58,79.58,0,0,1,19.25-7,91.35,91.35,0,0,1,20.75-2.5q17.51,0,29.5,7.5t12,26q0,8-3.75,23.25t-9.5,34.5q-5.74,19.24-13.5,40.75t-15.75,42q-8,20.51-15.75,38.25T5201.44,5511.07Z"/><path class="cls-1" d="M5437.45,5525.57a175.21,175.21,0,0,1-54.75-8.25,124,124,0,0,1-44-24.75q-18.75-16.5-29.5-41.5t-10.75-58.5q0-33,10.75-56.75t28.25-39a112.77,112.77,0,0,1,40-22.5,149.13,149.13,0,0,1,46-7.25q26.49,0,48.25,8a116.06,116.06,0,0,1,37.5,22,98,98,0,0,1,24.5,33.5,102.83,102.83,0,0,1,8.75,42.5q0,17-9.5,26t-26.5,11.5l-123.5,18.5q5.49,16.5,22.5,24.75t39,8.25a139.64,139.64,0,0,0,38.75-5.25q18.24-5.25,29.75-12.25a42.09,42.09,0,0,1,13.5,14,35.92,35.92,0,0,1,5.5,19q0,22.5-21,33.5a111.46,111.46,0,0,1-36,11.5A253.69,253.69,0,0,1,5437.45,5525.57Zm-14-196.5q-12,0-20.75,4a41.65,41.65,0,0,0-14.25,10.25,42.11,42.11,0,0,0-8.25,14,57,57,0,0,0-3.25,15.75l85.5-14q-1.5-10-11-20T5423.45,5329.07Z"/><path class="cls-1" d="M5669.94,5517.07q-5.5,1-16.25,2.75a136,136,0,0,1-21.75,1.75,117.6,117.6,0,0,1-19.75-1.5,33.66,33.66,0,0,1-14.75-6,28.87,28.87,0,0,1-9.25-12.25q-3.25-7.76-3.25-20.25v-290q5.51-1,16.25-2.75a134.83,134.83,0,0,1,21.75-1.75,117.6,117.6,0,0,1,19.75,1.5,33.66,33.66,0,0,1,14.75,6,28.87,28.87,0,0,1,9.25,12.25q3.26,7.76,3.25,20.25Z"/><path class="cls-1" d="M5974.94,5396.07q0,31-9.5,55.25t-26.75,40.75a113.81,113.81,0,0,1-41.25,25q-24,8.49-53.5,8.5t-53.5-9a117.69,117.69,0,0,1-41.25-25.75,114.86,114.86,0,0,1-26.75-40.75q-9.49-24-9.5-54,0-29.51,9.5-53.5a114.86,114.86,0,0,1,26.75-40.75,117.69,117.69,0,0,1,41.25-25.75q24-9,53.5-9t53.5,9.25a120.75,120.75,0,0,1,41.25,26,114.86,114.86,0,0,1,26.75,40.75Q5974.94,5367.07,5974.94,5396.07Zm-175,0q0,30.49,11.75,46.75t32.75,16.25q21,0,32.25-16.5t11.25-46.5q0-30-11.5-46.25t-32.5-16.25q-21,0-32.5,16.25T5799.94,5396.07Z"/><path class="cls-1" d="M6127.94,5267.07a192.53,192.53,0,0,1,55.75,7.75q25.76,7.76,44.25,23.75t29,40.25q10.5,24.26,10.5,57.75,0,32-9,56t-25.5,40.25a104,104,0,0,1-39.75,24.25q-23.25,8-51.75,8a119.94,119.94,0,0,1-40-6.5v83a136.59,136.59,0,0,1-16,3.25,143.74,143.74,0,0,1-22.5,1.75,117.6,117.6,0,0,1-19.75-1.5,33.66,33.66,0,0,1-14.75-6,27.17,27.17,0,0,1-9-12.25q-3-7.76-3-20.25v-240q0-13.5,5.75-22a60.57,60.57,0,0,1,15.75-15.5q15.5-10,38.5-16T6127.94,5267.07Zm1,191q51.5,0,51.5-61.5,0-32-12.75-47.5t-36.75-15.5a59.17,59.17,0,0,0-17,2.25,68.1,68.1,0,0,0-13,5.25v110a74.82,74.82,0,0,0,13,5A54.54,54.54,0,0,0,6128.94,5458.07Z"/><path class="cls-1" d="M6425.44,5267.07a143.45,143.45,0,0,1,40.25,5.75,98.92,98.92,0,0,1,34.25,17.25,147.51,147.51,0,0,1,33.75-16.5q18.75-6.49,45.25-6.5a140.53,140.53,0,0,1,37.25,5,95,95,0,0,1,32.5,15.75q14.25,10.76,22.75,28.5t8.5,43.25v157.5a116.33,116.33,0,0,1-15.75,3,161,161,0,0,1-22.25,1.5,117.52,117.52,0,0,1-19.75-1.5,33.61,33.61,0,0,1-14.75-6,28.79,28.79,0,0,1-9.25-12.25q-3.25-7.76-3.25-20.25v-119.5q0-15-8.5-21.75t-23-6.75a39.89,39.89,0,0,0-15,3.25q-8,3.26-12,6.75a15.63,15.63,0,0,1,.5,3.75v169.75a140.3,140.3,0,0,1-16.25,3,157.27,157.27,0,0,1-21.75,1.5,117.52,117.52,0,0,1-19.75-1.5,33.61,33.61,0,0,1-14.75-6,28.79,28.79,0,0,1-9.25-12.25q-3.25-7.76-3.25-20.25v-119.5q0-15-9.25-21.75t-22.25-6.75a39.69,39.69,0,0,0-15.5,2.75,113.8,113.8,0,0,0-11,5.25v175.5a116.33,116.33,0,0,1-15.75,3,161,161,0,0,1-22.25,1.5,117.52,117.52,0,0,1-19.75-1.5,33.61,33.61,0,0,1-14.75-6,28.79,28.79,0,0,1-9.25-12.25q-3.25-7.76-3.25-20.25v-151q0-13.5,5.75-21.5a65,65,0,0,1,15.75-15q17-12,42.25-19.5A184.23,184.23,0,0,1,6425.44,5267.07Z"/><path class="cls-1" d="M6860.44,5525.57a175.21,175.21,0,0,1-54.75-8.25,124,124,0,0,1-44-24.75q-18.75-16.5-29.5-41.5t-10.75-58.5q0-33,10.75-56.75t28.25-39a112.77,112.77,0,0,1,40-22.5,149.13,149.13,0,0,1,46-7.25q26.49,0,48.25,8a116.06,116.06,0,0,1,37.5,22,98,98,0,0,1,24.5,33.5,102.83,102.83,0,0,1,8.75,42.5q0,17-9.5,26t-26.5,11.5l-123.5,18.5q5.49,16.5,22.5,24.75t39,8.25a139.64,139.64,0,0,0,38.75-5.25q18.24-5.25,29.75-12.25a42.09,42.09,0,0,1,13.5,14,35.92,35.92,0,0,1,5.5,19q0,22.5-21,33.5a111.46,111.46,0,0,1-36,11.5A253.69,253.69,0,0,1,6860.44,5525.57Zm-14-196.5q-12,0-20.75,4a41.65,41.65,0,0,0-14.25,10.25,42.11,42.11,0,0,0-8.25,14,57,57,0,0,0-3.25,15.75l85.5-14q-1.5-10-11-20T6846.44,5329.07Z"/><path class="cls-1" d="M7160.43,5363.57q0-15.49-8.75-22.75t-23.75-7.25a79,79,0,0,0-19.75,2.5,50,50,0,0,0-16.75,7.5v173.5a115.69,115.69,0,0,1-15.75,3,160.89,160.89,0,0,1-22.25,1.5,117.6,117.6,0,0,1-19.75-1.5,33.66,33.66,0,0,1-14.75-6,28.87,28.87,0,0,1-9.25-12.25q-3.26-7.76-3.25-20.25v-150q0-13.5,5.75-22a60.57,60.57,0,0,1,15.75-15.5q17-12,42.75-19.5t57.25-7.5q56.51,0,87,24.75t30.5,68.75v156.5a115.69,115.69,0,0,1-15.75,3,160.89,160.89,0,0,1-22.25,1.5,117.6,117.6,0,0,1-19.75-1.5,33.66,33.66,0,0,1-14.75-6,28.87,28.87,0,0,1-9.25-12.25q-3.26-7.76-3.25-20.25Z"/><path class="cls-1" d="M7382.93,5434.07q0,13,8.25,18.5t23.25,5.5a100.87,100.87,0,0,0,15.5-1.25,87.22,87.22,0,0,0,14-3.25,61.37,61.37,0,0,1,7.75,12.25,37.28,37.28,0,0,1,3.25,16.25q0,19-14.25,31t-50.25,12q-44,0-67.75-20t-23.75-65v-214q5.49-1.5,15.75-3.25a128.8,128.8,0,0,1,21.75-1.75q22,0,34.25,7.75t12.25,32.75v32h65.5a86.32,86.32,0,0,1,5.75,13.75,57.53,57.53,0,0,1,2.75,18.25q0,17.51-7.75,25.25t-20.75,7.75h-45.5Z"/><path class="cls-1" d="M7598.93,5274.57q0-25.5,8.75-43.75a82.83,82.83,0,0,1,23.75-30,98.25,98.25,0,0,1,35.25-17.25,164.24,164.24,0,0,1,43.25-5.5q37,0,54.5,9.75t17.5,33.25a37.9,37.9,0,0,1-4.25,18q-4.26,8-9.25,12-9.51-2.51-19.75-4.25a142.26,142.26,0,0,0-23.75-1.75q-21.51,0-33.5,7.25t-12,25.25v16h82a86.32,86.32,0,0,1,5.75,13.75,57.81,57.81,0,0,1,2.75,18.25q0,17.51-7.75,25.25t-20.75,7.75h-57.5v158.5a116.33,116.33,0,0,1-15.75,3,161.1,161.1,0,0,1-22.25,1.5,117.43,117.43,0,0,1-19.75-1.5,33.61,33.61,0,0,1-14.75-6,28.79,28.79,0,0,1-9.25-12.25c-2.18-5.17-3.25-11.92-3.25-20.25Z"/><path class="cls-1" d="M7887.93,5517.07a116.33,116.33,0,0,1-15.75,3,161,161,0,0,1-22.25,1.5,117.52,117.52,0,0,1-19.75-1.5,33.61,33.61,0,0,1-14.75-6,28.79,28.79,0,0,1-9.25-12.25q-3.26-7.76-3.25-20.25v-150q0-11.51,4.25-19.75a46.22,46.22,0,0,1,12.25-14.75,88.26,88.26,0,0,1,19.75-11.75,204.08,204.08,0,0,1,25.25-9.25,213.25,213.25,0,0,1,28-6.25,188.76,188.76,0,0,1,29-2.25q24,0,38,9.25t14,30.25a48.25,48.25,0,0,1-2,13.75,63.22,63.22,0,0,1-5,12.25q-10.5,0-21.5,1t-21.5,3q-10.5,2-19.75,4.25a86.74,86.74,0,0,0-15.75,5.25Z"/><path class="cls-1" d="M8250.43,5396.07q0,31-9.5,55.25t-26.75,40.75a113.81,113.81,0,0,1-41.25,25q-24,8.49-53.5,8.5t-53.5-9a117.69,117.69,0,0,1-41.25-25.75,114.73,114.73,0,0,1-26.75-40.75q-9.51-24-9.5-54,0-29.51,9.5-53.5a114.73,114.73,0,0,1,26.75-40.75,117.69,117.69,0,0,1,41.25-25.75q24-9,53.5-9t53.5,9.25a120.75,120.75,0,0,1,41.25,26,115,115,0,0,1,26.75,40.75Q8250.41,5367.07,8250.43,5396.07Zm-175,0q0,30.49,11.75,46.75t32.75,16.25q21,0,32.25-16.5t11.25-46.5q0-30-11.5-46.25t-32.5-16.25q-21,0-32.5,16.25T8075.43,5396.07Z"/><path class="cls-1" d="M8408.43,5267.07a143.5,143.5,0,0,1,40.25,5.75,99,99,0,0,1,34.25,17.25,147.51,147.51,0,0,1,33.75-16.5q18.75-6.49,45.25-6.5a140.59,140.59,0,0,1,37.25,5,95,95,0,0,1,32.5,15.75q14.25,10.76,22.75,28.5t8.5,43.25v157.5a116.33,116.33,0,0,1-15.75,3,161.1,161.1,0,0,1-22.25,1.5,117.43,117.43,0,0,1-19.75-1.5,33.61,33.61,0,0,1-14.75-6,28.79,28.79,0,0,1-9.25-12.25c-2.18-5.17-3.25-11.92-3.25-20.25v-119.5q0-15-8.5-21.75t-23-6.75a39.81,39.81,0,0,0-15,3.25q-8,3.26-12,6.75a16.15,16.15,0,0,1,.5,3.75v169.75a140.72,140.72,0,0,1-16.25,3,157.48,157.48,0,0,1-21.75,1.5,117.43,117.43,0,0,1-19.75-1.5,33.61,33.61,0,0,1-14.75-6,28.79,28.79,0,0,1-9.25-12.25c-2.18-5.17-3.25-11.92-3.25-20.25v-119.5q0-15-9.25-21.75t-22.25-6.75a39.66,39.66,0,0,0-15.5,2.75,113.8,113.8,0,0,0-11,5.25v175.5a116.33,116.33,0,0,1-15.75,3,161.1,161.1,0,0,1-22.25,1.5,117.43,117.43,0,0,1-19.75-1.5,33.61,33.61,0,0,1-14.75-6,28.79,28.79,0,0,1-9.25-12.25c-2.18-5.17-3.25-11.92-3.25-20.25v-151q0-13.5,5.75-21.5a64.62,64.62,0,0,1,15.75-15q17-12,42.25-19.5A184.18,184.18,0,0,1,8408.43,5267.07Z"/><path class="cls-1" d="M8936.42,5525.57q-8.5,0-19.5-.5t-22.75-2q-11.76-1.5-23.5-3.75a117.89,117.89,0,0,1-21.75-6.25q-27.51-10.5-27.5-36.5v-233.5q0-10.5,5.75-16.25t15.75-9.25a209.54,209.54,0,0,1,45.5-9.25q24-2.25,43-2.25,39,0,70.75,9.5t54.5,29.25q22.74,19.76,35.25,49.75t12.5,71q0,40-12,69.75t-34.25,50q-22.26,20.25-53.25,30.25T8936.42,5525.57Zm-28-73q5.49,1,13.5,1.75t15,.75a93.91,93.91,0,0,0,31.25-5,62.78,62.78,0,0,0,24.5-15.5q10.25-10.5,16-27.25t5.75-40.25q0-45-21-67.75t-56-22.75q-7,0-14.25.5t-14.75,1.5Z"/><path class="cls-1" d="M9276.41,5525.57a175.3,175.3,0,0,1-54.75-8.25,124.09,124.09,0,0,1-44-24.75q-18.75-16.5-29.5-41.5t-10.75-58.5q0-33,10.75-56.75t28.25-39a112.85,112.85,0,0,1,40-22.5,149.18,149.18,0,0,1,46-7.25q26.51,0,48.25,8a116.06,116.06,0,0,1,37.5,22,97.84,97.84,0,0,1,24.5,33.5,102.68,102.68,0,0,1,8.75,42.5q0,17-9.5,26t-26.5,11.5l-123.5,18.5q5.51,16.5,22.5,24.75t39,8.25a139.53,139.53,0,0,0,38.75-5.25q18.26-5.25,29.75-12.25a41.9,41.9,0,0,1,13.5,14,35.83,35.83,0,0,1,5.5,19q0,22.5-21,33.5a111.3,111.3,0,0,1-36,11.5A253.48,253.48,0,0,1,9276.41,5525.57Zm-14-196.5q-12,0-20.75,4a41.84,41.84,0,0,0-14.25,10.25,42.45,42.45,0,0,0-8.25,14,57.7,57.7,0,0,0-3.25,15.75l85.5-14q-1.5-10-11-20T9262.41,5329.07Z"/><path class="cls-1" d="M9627.41,5445.07q0,38-28.5,59.5t-84,21.5a237.59,237.59,0,0,1-39-3q-18-3-30.75-9.25t-20-15.75a36,36,0,0,1-7.25-22.5q0-12,5-20.25a50.56,50.56,0,0,1,12-13.75,199.66,199.66,0,0,0,33.25,14.25q18.75,6.26,43.25,6.25,15.49,0,23.75-4.5t8.25-12a12.55,12.55,0,0,0-6-11q-6-4-20-6.5l-15-3q-43.5-8.51-64.75-26.75t-21.25-52.25a69,69,0,0,1,30.5-58.5q14.49-10,34.75-15.5a170.35,170.35,0,0,1,44.75-5.5,208.78,208.78,0,0,1,34.75,2.75,112.92,112.92,0,0,1,28.25,8.25q12,5.51,19,14.25a32.23,32.23,0,0,1,7,20.75q0,11.51-4.25,19.75a44.54,44.54,0,0,1-10.75,13.75,61.09,61.09,0,0,0-12-5.25q-8-2.74-17.5-5t-19.25-3.75a117.64,117.64,0,0,0-17.75-1.5q-16.5,0-25.5,3.75t-9,11.75q0,5.51,5,9t19,6.5l15.5,3.5q48,11,68.25,30.25T9627.41,5445.07Z"/><path class="cls-1" d="M9666.4,5207.07q0-19,12.75-32t33.75-13q21,0,33.75,13t12.75,32q0,19-12.75,32t-33.75,13q-21,0-33.75-13T9666.4,5207.07Zm89,310q-5.5,1-16.25,2.75a136,136,0,0,1-21.75,1.75,117.6,117.6,0,0,1-19.75-1.5,33.66,33.66,0,0,1-14.75-6,28.87,28.87,0,0,1-9.25-12.25q-3.25-7.76-3.25-20.25v-203.5q5.5-1,16.25-2.75a134.83,134.83,0,0,1,21.75-1.75,117.6,117.6,0,0,1,19.75,1.5,33.66,33.66,0,0,1,14.75,6,28.87,28.87,0,0,1,9.25,12.25q3.25,7.76,3.25,20.25Z"/><path class="cls-1" d="M9927.9,5267.07q28.5,0,51.75,7.25t39.25,18.75a60.57,60.57,0,0,1,15.75,15.5q5.75,8.51,5.75,22v175q0,26.49-10,45.75a92,92,0,0,1-27.25,32q-17.25,12.75-40.5,18.75a198.5,198.5,0,0,1-49.75,6q-45.5,0-71.5-12.25t-26-39.75a41.73,41.73,0,0,1,4.75-20.25q4.75-8.76,10.75-13.25a168.41,168.41,0,0,0,32.75,13.5,130.35,130.35,0,0,0,37.75,5.5q27,0,43-9t16-29v-8q-20.5,9-50,9a134.3,134.3,0,0,1-42.75-6.75,95.65,95.65,0,0,1-35.5-21q-15.25-14.25-24.5-36.75t-9.25-53.5q0-30.49,9.75-53a100.9,100.9,0,0,1,27-37.25,113,113,0,0,1,41-22A176.61,176.61,0,0,1,9927.9,5267.07Zm31,72.5a50.34,50.34,0,0,0-10.25-4,59.94,59.94,0,0,0-16.75-2q-24.5,0-36.75,13.75t-12.25,39.25q0,29,12.25,41.75t31.25,12.75q20.5,0,32.5-9.5Z"/><path class="cls-1" d="M10246.9,5363.57q0-15.49-8.75-22.75t-23.75-7.25a79,79,0,0,0-19.75,2.5,49.87,49.87,0,0,0-16.75,7.5v173.5a116.33,116.33,0,0,1-15.75,3,161.1,161.1,0,0,1-22.25,1.5,117.43,117.43,0,0,1-19.75-1.5,33.61,33.61,0,0,1-14.75-6,28.79,28.79,0,0,1-9.25-12.25c-2.18-5.17-3.25-11.92-3.25-20.25v-150q0-13.5,5.75-22a60.26,60.26,0,0,1,15.75-15.5q17-12,42.75-19.5t57.25-7.5q56.49,0,87,24.75t30.5,68.75v156.5a116.33,116.33,0,0,1-15.75,3,161.1,161.1,0,0,1-22.25,1.5,117.43,117.43,0,0,1-19.75-1.5,33.61,33.61,0,0,1-14.75-6,28.79,28.79,0,0,1-9.25-12.25c-2.18-5.17-3.25-11.92-3.25-20.25Z"/><path class="cls-1" d="M10569.39,5434.07q0,13,8.25,18.5t23.25,5.5a100.87,100.87,0,0,0,15.5-1.25,87.22,87.22,0,0,0,14-3.25,61.37,61.37,0,0,1,7.75,12.25,37.28,37.28,0,0,1,3.25,16.25q0,19-14.25,31t-50.25,12q-44,0-67.75-20t-23.75-65v-214q5.49-1.5,15.75-3.25a128.8,128.8,0,0,1,21.75-1.75q22,0,34.25,7.75t12.25,32.75v32h65.5a86.32,86.32,0,0,1,5.75,13.75,57.53,57.53,0,0,1,2.75,18.25q0,17.51-7.75,25.25t-20.75,7.75h-45.5Z"/><path class="cls-1" d="M10932.89,5396.07q0,31-9.5,55.25t-26.75,40.75a113.81,113.81,0,0,1-41.25,25q-24,8.49-53.5,8.5t-53.5-9a117.69,117.69,0,0,1-41.25-25.75,114.86,114.86,0,0,1-26.75-40.75q-9.51-24-9.5-54,0-29.51,9.5-53.5a114.86,114.86,0,0,1,26.75-40.75,117.69,117.69,0,0,1,41.25-25.75q24-9,53.5-9t53.5,9.25a120.75,120.75,0,0,1,41.25,26,115,115,0,0,1,26.75,40.75Q10932.88,5367.07,10932.89,5396.07Zm-175,0q0,30.49,11.75,46.75t32.75,16.25q21,0,32.25-16.5t11.25-46.5q0-30-11.5-46.25t-32.5-16.25q-21,0-32.5,16.25T10757.89,5396.07Z"/><path class="cls-1" d="M11195.89,5525.57q-8.52,0-19.5-.5t-22.75-2q-11.76-1.5-23.5-3.75a117.89,117.89,0,0,1-21.75-6.25q-27.51-10.5-27.5-36.5v-233.5q0-10.5,5.75-16.25t15.75-9.25a209.42,209.42,0,0,1,45.5-9.25q24-2.25,43-2.25,39,0,70.75,9.5t54.5,29.25q22.74,19.76,35.25,49.75t12.5,71q0,40-12,69.75t-34.25,50q-22.26,20.25-53.25,30.25T11195.89,5525.57Zm-28-73q5.49,1,13.5,1.75t15,.75a94,94,0,0,0,31.25-5,62.78,62.78,0,0,0,24.5-15.5q10.23-10.5,16-27.25t5.75-40.25q0-45-21-67.75t-56-22.75q-7,0-14.25.5t-14.75,1.5Z"/><path class="cls-1" d="M11535.88,5525.57a175.3,175.3,0,0,1-54.75-8.25,124,124,0,0,1-44-24.75q-18.75-16.5-29.5-41.5t-10.75-58.5q0-33,10.75-56.75t28.25-39a112.77,112.77,0,0,1,40-22.5,149.18,149.18,0,0,1,46-7.25q26.49,0,48.25,8a116.06,116.06,0,0,1,37.5,22,98,98,0,0,1,24.5,33.5,102.68,102.68,0,0,1,8.75,42.5q0,17-9.5,26t-26.5,11.5l-123.5,18.5q5.49,16.5,22.5,24.75t39,8.25a139.58,139.58,0,0,0,38.75-5.25q18.24-5.25,29.75-12.25a41.9,41.9,0,0,1,13.5,14,35.92,35.92,0,0,1,5.5,19q0,22.5-21,33.5a111.3,111.3,0,0,1-36,11.5A253.69,253.69,0,0,1,11535.88,5525.57Zm-14-196.5q-12,0-20.75,4a41.65,41.65,0,0,0-14.25,10.25,42.45,42.45,0,0,0-8.25,14,57.33,57.33,0,0,0-3.25,15.75l85.5-14q-1.5-10-11-20T11521.88,5329.07Z"/><path class="cls-1" d="M11793.38,5267.07a192.53,192.53,0,0,1,55.75,7.75q25.74,7.76,44.25,23.75t29,40.25q10.5,24.26,10.5,57.75,0,32-9,56t-25.5,40.25a104,104,0,0,1-39.75,24.25q-23.25,8-51.75,8a119.89,119.89,0,0,1-40-6.5v83a137,137,0,0,1-16,3.25,143.93,143.93,0,0,1-22.5,1.75,117.52,117.52,0,0,1-19.75-1.5,33.61,33.61,0,0,1-14.75-6,27.17,27.17,0,0,1-9-12.25q-3-7.76-3-20.25v-240q0-13.5,5.75-22a60.57,60.57,0,0,1,15.75-15.5q15.5-10,38.5-16T11793.38,5267.07Zm1,191q51.5,0,51.5-61.5,0-32-12.75-47.5t-36.75-15.5a59.12,59.12,0,0,0-17,2.25,67.83,67.83,0,0,0-13,5.25v110a74.82,74.82,0,0,0,13,5A54.44,54.44,0,0,0,11794.38,5458.07Z"/><path class="cls-1" d="M12060.87,5517.07q-5.5,1-16.25,2.75a136,136,0,0,1-21.75,1.75,117.6,117.6,0,0,1-19.75-1.5,33.66,33.66,0,0,1-14.75-6,28.87,28.87,0,0,1-9.25-12.25q-3.25-7.76-3.25-20.25v-290q5.5-1,16.25-2.75a134.83,134.83,0,0,1,21.75-1.75,117.6,117.6,0,0,1,19.75,1.5,33.66,33.66,0,0,1,14.75,6,28.87,28.87,0,0,1,9.25,12.25q3.25,7.76,3.25,20.25Z"/><path class="cls-1" d="M12365.87,5396.07q0,31-9.5,55.25t-26.75,40.75a113.81,113.81,0,0,1-41.25,25q-24,8.49-53.5,8.5t-53.5-9a117.69,117.69,0,0,1-41.25-25.75,114.86,114.86,0,0,1-26.75-40.75q-9.5-24-9.5-54,0-29.51,9.5-53.5a114.86,114.86,0,0,1,26.75-40.75,117.69,117.69,0,0,1,41.25-25.75q24-9,53.5-9t53.5,9.25a120.75,120.75,0,0,1,41.25,26,114.86,114.86,0,0,1,26.75,40.75Q12365.87,5367.07,12365.87,5396.07Zm-175,0q0,30.49,11.75,46.75t32.75,16.25q21,0,32.25-16.5t11.25-46.5q0-30-11.5-46.25t-32.5-16.25q-21,0-32.5,16.25T12190.87,5396.07Z"/><path class="cls-1" d="M12438.88,5455.57q-5.5-12.49-11.75-28t-13-35.5q-6.75-20-14-45.75t-15.25-59.25q7-7,18.75-12.25a62.37,62.37,0,0,1,25.75-5.25q17.49,0,29,7.25t17,27.25l39.5,137.5h2q6-17,11.75-37t11.25-41.25q5.49-21.26,10.25-42.5t8.25-41.75a83.33,83.33,0,0,1,39.5-9.5q17.49,0,29,7.5t11.5,26a164.25,164.25,0,0,1-3.5,31.25q-3.51,17.74-9.25,37.75t-13.5,41.25q-7.75,21.26-16.25,41.75t-17.5,38.75q-9,18.26-17.5,32.75-14,24.49-26,40t-23,24.25q-11,8.74-22,12a81,81,0,0,1-23,3.25q-21,0-34-12.5t-15.5-32.5q16-12.51,32-27.75a337,337,0,0,0,29-31.25q-8.5-2.51-18.25-11.75T12438.88,5455.57Z"/><path class="cls-1" d="M12789.38,5267.07a143.45,143.45,0,0,1,40.25,5.75,98.92,98.92,0,0,1,34.25,17.25,147.51,147.51,0,0,1,33.75-16.5q18.75-6.49,45.25-6.5a140.53,140.53,0,0,1,37.25,5,95,95,0,0,1,32.5,15.75q14.25,10.76,22.75,28.5t8.5,43.25v157.5a116.33,116.33,0,0,1-15.75,3,161,161,0,0,1-22.25,1.5,117.52,117.52,0,0,1-19.75-1.5,33.61,33.61,0,0,1-14.75-6,28.79,28.79,0,0,1-9.25-12.25q-3.25-7.76-3.25-20.25v-119.5q0-15-8.5-21.75t-23-6.75a39.89,39.89,0,0,0-15,3.25q-8,3.26-12,6.75a15.63,15.63,0,0,1,.5,3.75v169.75a140.3,140.3,0,0,1-16.25,3,157.27,157.27,0,0,1-21.75,1.5,117.52,117.52,0,0,1-19.75-1.5,33.61,33.61,0,0,1-14.75-6,28.79,28.79,0,0,1-9.25-12.25q-3.25-7.76-3.25-20.25v-119.5q0-15-9.25-21.75t-22.25-6.75a39.69,39.69,0,0,0-15.5,2.75,113.8,113.8,0,0,0-11,5.25v175.5a116.33,116.33,0,0,1-15.75,3,161,161,0,0,1-22.25,1.5,117.52,117.52,0,0,1-19.75-1.5,33.61,33.61,0,0,1-14.75-6,28.79,28.79,0,0,1-9.25-12.25q-3.25-7.76-3.25-20.25v-151q0-13.5,5.75-21.5a65,65,0,0,1,15.75-15q17-12,42.25-19.5A184.23,184.23,0,0,1,12789.38,5267.07Z"/><path class="cls-1" d="M13224.38,5525.57a175.3,175.3,0,0,1-54.75-8.25,124,124,0,0,1-44-24.75q-18.75-16.5-29.5-41.5t-10.75-58.5q0-33,10.75-56.75t28.25-39a112.77,112.77,0,0,1,40-22.5,149.18,149.18,0,0,1,46-7.25q26.49,0,48.25,8a116.06,116.06,0,0,1,37.5,22,98,98,0,0,1,24.5,33.5,102.68,102.68,0,0,1,8.75,42.5q0,17-9.5,26t-26.5,11.5l-123.5,18.5q5.49,16.5,22.5,24.75t39,8.25a139.58,139.58,0,0,0,38.75-5.25q18.24-5.25,29.75-12.25a41.9,41.9,0,0,1,13.5,14,35.92,35.92,0,0,1,5.5,19q0,22.5-21,33.5a111.3,111.3,0,0,1-36,11.5A253.69,253.69,0,0,1,13224.38,5525.57Zm-14-196.5q-12,0-20.75,4a41.65,41.65,0,0,0-14.25,10.25,42.45,42.45,0,0,0-8.25,14,57.33,57.33,0,0,0-3.25,15.75l85.5-14q-1.5-10-11-20T13210.38,5329.07Z"/><path class="cls-1" d="M13524.38,5363.57q0-15.49-8.76-22.75t-23.74-7.25a79.06,79.06,0,0,0-19.76,2.5,49.81,49.81,0,0,0-16.74,7.5v173.5a116.23,116.23,0,0,1-15.76,3,160.85,160.85,0,0,1-22.24,1.5,117.64,117.64,0,0,1-19.76-1.5,33.62,33.62,0,0,1-14.74-6,28.89,28.89,0,0,1-9.26-12.25q-3.25-7.76-3.24-20.25v-150q0-13.5,5.74-22a60.46,60.46,0,0,1,15.76-15.5q17-12,42.74-19.5t57.26-7.5q56.49,0,87,24.75t30.5,68.75v156.5a116.23,116.23,0,0,1-15.76,3,160.85,160.85,0,0,1-22.24,1.5,117.64,117.64,0,0,1-19.76-1.5,33.62,33.62,0,0,1-14.74-6,28.89,28.89,0,0,1-9.26-12.25q-3.25-7.76-3.24-20.25Z"/><path class="cls-1" d="M13746.87,5434.07q0,13,8.25,18.5t23.25,5.5a100.77,100.77,0,0,0,15.5-1.25,87.22,87.22,0,0,0,14-3.25,61.37,61.37,0,0,1,7.75,12.25,37.14,37.14,0,0,1,3.25,16.25q0,19-14.25,31t-50.25,12q-44,0-67.75-20t-23.75-65v-214q5.5-1.5,15.75-3.25a128.8,128.8,0,0,1,21.75-1.75q22,0,34.25,7.75t12.25,32.75v32h65.5a85.4,85.4,0,0,1,5.75,13.75,57.53,57.53,0,0,1,2.75,18.25q0,17.51-7.75,25.25t-20.75,7.75h-45.5Z"/></svg>