<svg xmlns="http://www.w3.org/2000/svg" xmlns:xlink="http://www.w3.org/1999/xlink" zoomAndPan="magnify" preserveAspectRatio="xMidYMid meet" version="1.0" viewBox="0 0 52 52.05"><defs><clipPath id="6f5d6a375a"><path d="M 0 0 L 51.75 0 L 51.75 51.75 L 0 51.75 Z M 0 0 " clip-rule="nonzero"/></clipPath></defs><g clip-path="url(#6f5d6a375a)"><path fill="#000000" d="M 47.707031 0 L 4.375 0 C 1.980469 0 0.0507812 1.953125 0.0507812 4.324219 L 0.0507812 47.730469 C 0.0507812 50.128906 2.003906 52.054688 4.375 52.054688 L 47.679688 52.054688 C 50.074219 52.054688 52.003906 50.101562 52.003906 47.730469 L 52.003906 4.324219 C 52.027344 1.953125 50.101562 0 47.707031 0 Z M 15.441406 42.941406 L 7.761719 42.941406 L 7.761719 19.867188 L 15.441406 19.867188 Z M 11.589844 17.082031 C 9.167969 17.082031 7.214844 15.128906 7.214844 12.707031 C 7.214844 10.285156 9.167969 8.332031 11.589844 8.332031 C 14.007812 8.332031 15.960938 10.285156 15.960938 12.707031 C 15.960938 15.128906 14.007812 17.082031 11.589844 17.082031 Z M 44.347656 42.941406 L 36.640625 42.941406 L 36.457031 29.242188 C 36.457031 29.242188 36.640625 25.597656 32.65625 25.625 C 28.671875 25.648438 28.125 29.242188 28.125 29.242188 L 28.125 42.941406 L 20.363281 42.941406 L 20.363281 19.867188 L 27.8125 19.867188 L 27.8125 23.046875 C 27.8125 23.046875 28.125 22.003906 29.84375 20.78125 C 31.5625 19.554688 34.398438 19.296875 35.625 19.347656 C 36.847656 19.398438 38.515625 19.191406 41.300781 21.117188 C 44.292969 23.175781 44.371094 28.566406 44.371094 28.566406 Z M 44.347656 42.941406 " fill-opacity="1" fill-rule="nonzero"/></g></svg>