<?xml version="1.0" encoding="utf-8"?>
<!-- Generator: Adobe Illustrator 26.2.1, SVG Export Plug-In . SVG Version: 6.00 Build 0)  -->
<svg version="1.1" id="Layer_1" xmlns="http://www.w3.org/2000/svg" xmlns:xlink="http://www.w3.org/1999/xlink" x="0px" y="0px"
	 viewBox="0 0 3656 3453" style="enable-background:new 0 0 3656 3453;" xml:space="preserve">
<style type="text/css">
	.st0{fill:#343435;stroke:#2D2D2D;stroke-width:54;stroke-miterlimit:1;}
	.st1{fill:none;stroke:#2D2D2D;stroke-width:2;stroke-miterlimit:1;}
	.st2{fill:none;stroke:#2D2D2D;stroke-width:20;stroke-miterlimit:10;}
	.st3{fill:none;stroke:#2D2D2D;stroke-width:100;stroke-miterlimit:10;}
</style>
<g id="Layer_1-2">
	
		<image style="overflow:visible;opacity:0.6;enable-background:new    ;" width="3656" height="3453" xlink:href="927A9E39D4B294B0.png" >
	</image>
	<path class="st0" d="M1354.7,40.5c-169.1,12.1-328.8,70.7-498.6,183.1c-109.5,72.5-194.2,149.6-258,235.1
		c-41.9,56-77.3,119.4-94.7,169.2c-13,37-18.6,67.8-19.5,106.5c-1.3,50.1,5.3,88.7,23,136.1c12.8,34.3,22.9,53.6,61.7,117.3
		c14,23.1,25.8,42.8,26.2,43.7c0.5,1.4-11.2,1.5-60.3,1.2c-74.1-0.8-98.4,1-137.1,9.6c-31.2,6.9-52,14.1-80.3,28
		c-51.4,25.2-94.3,63-133,116.8c-25.8,36.1-57.6,97.5-80.3,155.6c-47.4,121-69.1,263.3-63.9,418.6c4.4,127.7,20,223.3,52.2,317.8
		c24.2,70.9,61.8,145.3,98.3,194.3c14.5,19.4,19.2,24.7,37.1,43.1c51.5,52.3,114.6,84.8,190.4,97.9c30.7,5.4,43.3,6.2,112.7,6.9
		l68.5,0.8l-38.9,64.9c-38.4,64.2-50.4,86-59.1,108.6c-5.3,13.8-11.6,38.4-14.5,57.2c-2.8,18.4-3.8,66-1.9,85.6
		c7.7,75.9,38.8,146.6,104.6,237.6c30.4,41.9,61,77.4,101.4,116.9c79,77.9,169.1,141.9,289.9,205.6c104.5,55.1,200.8,88.3,302.2,104
		c68,10.5,139.9,12.2,191.5,4.6c102.4-15,185.3-68.9,246.2-160c5.6-8.5,31.6-51,57.6-94.4s47.8-79.5,48.3-80.1s24.2,37.5,52.6,84.8
		c62.8,104.6,73,119.1,104.9,151.2c57.7,58.2,125.2,90.2,211.4,100.5c22.6,2.8,82.5,3.1,113.1,0.6
		c147.9-11.7,282.3-58.9,443.8-155.4c119.5-71.4,219-157.3,293.2-252.8c71.2-91.5,108.2-165.4,121.5-242.9c2.6-14.8,3-21.2,3-54.6
		c0-35.9-0.3-39.1-3.6-58.2c-4.4-24.7-9.1-41-17.7-60.9c-9-21.3-19.1-39.4-59-105.2l-34.8-57.7l70.4-0.8
		c70.9-0.8,83.4-1.5,112.8-6.4c78.5-13.2,147.6-50.4,198.9-107.2c65.7-72.7,124.3-196.2,151.9-320.5c10.9-49.6,17.7-96.5,21.8-151.1
		c17-228.9-14.6-414-99.1-581.4c-25.1-49.9-49.5-85.6-80.7-118c-47.3-49.1-113.7-86.1-173.6-96.6c-24.5-4.4-43-5.1-121.6-5.1
		c-42.1,0-76.8-0.3-77.2-0.6s12.1-21.7,27.6-47.3c39.3-64.5,54.7-95.2,67-133c12.1-37.3,16.2-61.9,17.1-100.9
		c1.2-47.5-4.1-80.8-19.5-125.5c-19.5-56-62.6-129.9-110.4-189.5c-29.8-37.3-82.6-91.5-119.5-122.7
		c-90.1-76.7-205.7-149.6-310.5-196c-96.8-42.9-187.7-67.1-290.4-77.4c-32.2-3.2-103.2-3.2-126.6,0.1
		C2094.3,55.8,2020,97.3,1959.3,173c-20,25.1-29.9,40.5-83.5,131.8c-26.7,45.5-49,82.2-49.5,81.6s-23.4-39.2-50.8-85.8
		s-53.3-90-57.7-96.2c-39.6-58.1-82.8-97.8-135.7-125.3c-37-19.1-74-30.5-120.8-36.9C1443.8,39.8,1378.9,38.8,1354.7,40.5z
		 M1450.1,145.1c44.3,5.4,79.4,17.7,111.5,38.9c18.5,12.5,46.4,39.5,61.6,60.1c11.2,15.3,146.2,239.3,145.6,241.4
		s-140.3,234.4-220,365.7c-40.5,66.8-82.1,135.3-92.4,152.4l-18.8,31l-178.6,0.8c-98.2,0.5-259.9,0.5-359.4,0
		c-162.9-0.8-181-1-182.6-2.8c-4.5-5.3-106.5-174.8-113.3-188.4c-8.7-17.3-15.3-35.7-19.5-54.6c-3.3-15.4-3.3-54,0-69.4
		c4.8-22,19.2-62.3,33.5-93.4c28.5-62.3,78.2-131.5,136.1-189.5c70.2-70.7,151.4-128.6,261.8-186.8c128.6-67.7,225.1-98.9,332.2-107
		C1369.7,141.7,1430.4,142.8,1450.1,145.1z M2326.2,145.2c101.5,10.9,192,41.6,313.9,106.1c148.3,78.5,253.5,163.6,330.6,267.5
		c43.3,58.2,70.9,110.6,90.9,172.4c9.8,30.2,10.5,35.2,10.5,64.2c0,23.6-0.3,26.9-3.5,39.4c-4.4,17.3-10.6,34-18.4,50
		c-6.4,12.6-110.4,184.5-113.6,187.6c-1.8,1.8-35.9,1.9-361.5,1.4l-359.4-0.5l-46.5-76.7c-186.7-307.4-284.2-470.2-283.5-473
		c1.3-5.1,135.6-226.9,145.2-239.9c13.1-17.6,41.6-46,57.4-57.2c9.3-6.3,18.9-12,28.9-17c32.1-15.9,62.3-23.1,113.1-27
		C2244.8,141.6,2308.6,143.3,2326.2,145.2L2326.2,145.2z M1935.5,760.7c58.2,96.8,119,197.8,135,224.3l29,48.3l-272.4,0.9
		c-149.8,0.4-272.5,0.6-272.8,0.4s14.5-25.3,32.8-55.6c144.9-240.8,224.6-373.3,231.4-384.5c6.6-10.8,8.4-13,9.6-11.6
		C1829,583.9,1877.3,663.8,1935.5,760.7L1935.5,760.7z M716.1,1230.6c164,269.8,301.1,496.5,301.1,497.7c0,0.6-2.4,5.3-5.5,10.3
		c-7.1,11.4-244.9,405.5-303.2,502.4c-24.2,40.2-45,74.3-46,75.4c-1.8,2.2-8.5,2.3-105.6,2.3c-61.4,0-109.2-0.5-117.1-1.3
		c-56.9-5.6-98.3-26.5-133.1-67.2c-34.3-39.8-58-75-79.2-117.4c-76.8-153.4-100.4-331.9-74.1-563.2c13.9-121.7,48.7-221.7,109-312.6
		c48.8-73.8,102.8-110.5,178.2-120.9c21.1-3,17.5-3,120.3-3.1l95.9-0.3L716.1,1230.6z M1376.2,1134.5c0.3,0.1-28.6,48.3-64.2,106.9
		s-102.7,169.7-149.3,247s-85.1,140.3-85.4,140.3s-29.9-48.8-65.8-108.3s-102.9-170.8-149.2-247.2s-83.9-139.3-83.8-139.4
		C778.9,1133.2,1375.7,1134,1376.2,1134.5z M2228,1246.5c37.1,61.4,117.5,194.5,178.6,295.7c61.2,101.1,111,184.3,111,184.6
		c0,0.6-175.3,291.4-288.2,477.9l-68.3,112.8h-668.2l-51.9-85.8c-56.3-92.9-242.9-401.8-281.3-465.7l-23.6-39.3l104.6-173.3
		c57.6-95.2,138.1-228.6,178.9-296.3l74.3-123l333.4,0.3l333.5,0.4L2228,1246.5z M2854,1170.3c-45,74.3-205.6,340.3-240.5,398.3
		c-19.8,33-36.4,60-36.8,60.1c-0.4,0.1-41.4-67.5-91.2-150s-116.4-192.7-148.2-245c-31.7-52.3-58.1-96-58.9-97.3
		c-1.2-2.4,5.3-2.4,298.1-2.4H2876L2854,1170.3z M3233.7,1137c45.9,9.5,75.3,24.9,104.6,55c10.9,11.3,32.8,38.6,47.9,59.8
		c49.7,69.8,85.2,157.9,105.2,261.5c17.4,90.3,24.7,211.9,18.1,301.8c-8.9,120.7-36.5,225.1-85.6,323.8
		c-27.8,55.8-45.9,82.9-74.3,111.1c-20,19.9-35.3,31.1-58,42.4c-29.2,14.5-61.2,23.1-98.6,26.2c-10.8,0.9-47,1.2-108.2,0.5
		c-81.7-0.8-92.1-1-93.7-2.8c-1-1.2-37.8-61.9-81.9-135.1c-44.1-73.1-122.8-203.8-175.1-290.4s-95.6-158.8-96.4-160.6
		c-1.3-3.5-3.2-0.1,221.7-370.7c44.2-72.9,92.9-153.3,108.4-178.9l28.1-46.6l113.7,0.4C3208.6,1134.8,3225,1135.1,3233.7,1137
		L3233.7,1137z M1160.1,1963.4c179.6,297.5,212.9,352.9,212.4,353.5c-0.4,0.3-134,0.4-297,0.3l-296.3-0.4l116.9-193.4
		c64.4-106.4,131.2-216.9,148.5-245.7c27.2-45,31.9-52,33.1-50.1C1078.7,1828.8,1115.7,1889.9,1160.1,1963.4z M2695.1,2019.3
		c63.7,105.6,130.4,215.8,147.9,244.8l31.9,52.7l-296.4,0.4c-162.9,0.1-296.6,0-297-0.3c-0.4-0.5,76.3-128.1,245.3-407.7
		c27.9-46.1,51-83.4,51.4-82.9S2631.2,1913.7,2695.1,2019.3L2695.1,2019.3z M1436.7,2422.4c2.7,3.9,113.2,187.4,248.3,412.3
		l82,136.3l-20.3,33.9c-11,18.6-39.6,66.6-63.2,106.5s-46,77.1-49.7,82.6c-17.9,26.5-44.2,54.2-67.1,70.7
		c-31.6,22.6-73,37.4-118,42.1c-18.8,1.9-78.1,0.8-104.9-2.1c-166.7-17.6-319.4-81.9-481.2-202.5c-95.3-71.1-164-142.9-212.9-222.6
		c-26.3-43.2-57.2-116.9-64.1-153.8c-3.1-16.6-3.1-46.5,0-62.3c3.5-17.5,11.6-41,19.8-57.3c5.4-10.8,106.8-180.5,110.5-184.9
		c0.3-0.4,128.4-0.9,284.6-1.3s317.9-0.8,359-1l74.8-0.3L1436.7,2422.4z M2098.7,2419.6c0,0.4-25.8,43.3-57.4,95.5
		c-55.8,92.1-119,196.9-181.9,301.6c-17,28.3-31.2,51.9-31.7,52.4s-4.2-4.6-8.4-11.6c-17.2-28.8-136.9-227.2-198.1-328.4
		c-36.2-60-65.9-109.2-65.9-109.6s122.3-0.5,271.8-0.5S2098.7,2419.2,2098.7,2419.6L2098.7,2419.6z M2935.9,2421
		c3.2,0.6,105.2,169.2,114.9,189.5c7.6,16.1,13.4,33,17.1,50.4c4,18.4,4,49.9,0,68.5c-4.6,21.7-20.3,64.6-36.2,99.5
		c-19.9,43.3-50.2,89.6-89.6,136.2c-16.8,19.9-62.2,65.1-85.2,84.9c-88.4,76.1-193.9,143.9-289.1,185.9
		c-111.3,49.1-227.4,74-334.6,71.8c-25.4-0.5-35.6-1.2-48.3-3.5c-38.3-6.8-70.8-20.3-100.5-41.8c-13.9-10-41.8-37.9-53.2-53.3
		c-12.9-17.2-16.4-22.9-56.4-90.6c-19.7-33.3-47.3-79.8-61.4-103.4c-22.6-38-25.4-43.4-24.4-46.3s76.6-128.6,309.8-515.9
		c10.1-17,19-31.5,19.7-32.2c0.9-1.2,94.8-1.3,358.1-0.9C2772.7,2420.1,2934.5,2420.6,2935.9,2421L2935.9,2421z M1768.8,485.6
		l57.6-99.1"/>
	<line class="st1" x1="1437.6" y1="1034.7" x2="1554.4" y2="1034.7"/>
	<line class="st1" x1="1885.8" y1="483.8" x2="1828.2" y2="583"/>
	<line class="st1" x1="2936.7" y1="1032.6" x2="3058.4" y2="1032.6"/>
	<line class="st1" x1="2876" y1="1134" x2="2996.3" y2="1134"/>
	<line class="st1" x1="594.8" y1="1031.6" x2="656.6" y2="1132.7"/>
	<line class="st1" x1="717" y1="1032.6" x2="778.4" y2="1133.7"/>
	<line class="st1" x1="1376.2" y1="1134.5" x2="1493.8" y2="1134.5"/>
	<line class="st1" x1="2099.6" y1="1033.4" x2="2160.7" y2="1134.6"/>
	<line class="st1" x1="2215.8" y1="1033.5" x2="2278.5" y2="1136.4"/>
	<line class="st2" x1="2576.7" y1="1628.7" x2="2517.6" y2="1726.8"/>
	<line class="st2" x1="2638" y1="1730.2" x2="2578.1" y2="1826.3"/>
	<line class="st2" x1="2874.8" y1="2316.8" x2="2935.9" y2="2421"/>
	<line class="st2" x1="2991.4" y1="2316.3" x2="3054.6" y2="2422.2"/>
	<line class="st2" x1="2161" y1="2317.4" x2="2281.4" y2="2316.9"/>
	<line class="st2" x1="2098.7" y1="2419.6" x2="2218.3" y2="2420.8"/>
	<line class="st2" x1="1888.9" y1="2968.9" x2="1826.3" y2="3072.6"/>
	<line class="st2" x1="1827.6" y1="2869.1" x2="1766.9" y2="2971.1"/>
	<line class="st2" x1="1492.8" y1="2317.4" x2="1555.2" y2="2419.5"/>
	<line class="st2" x1="1372.4" y1="2316.9" x2="1436.7" y2="2422.4"/>
	<line class="st2" x1="779.2" y1="2316.8" x2="662.4" y2="2316.4"/>
	<line class="st2" x1="715.8" y1="2421.5" x2="599.2" y2="2422.2"/>
	<line class="st2" x1="1011.6" y1="1738.6" x2="1077.2" y2="1628.7"/>
	<line class="st2" x1="1077.8" y1="1827.6" x2="1136" y2="1726.6"/>
</g>
<image style="overflow:visible;opacity:0.7;enable-background:new    ;" width="682" height="742" xlink:href="927A9E39D4B294B3.png"  transform="matrix(1 0 0 1 1522.9999 1376)">
</image>
<path class="st3" d="M1966.5,2081.8l-158.9-209.2h-91.1v209.2h-166.6v-678.1h294.5c187.9,0,301.3,87.2,301.3,235.4
	c0,105.6-57.2,179.2-157.9,213.1l172.4,229.6H1966.5z M1716.6,1542.2v196.7h123c88.2,0,139.5-27.1,139.5-96.9
	c0-67.8-51.3-99.8-139.5-99.8L1716.6,1542.2z"/>
</svg>
