<?xml version="1.0" encoding="utf-8"?>
<!-- Generator: Adobe Illustrator 26.2.1, SVG Export Plug-In . SVG Version: 6.00 Build 0)  -->
<svg version="1.1" id="Layer_3" xmlns="http://www.w3.org/2000/svg" xmlns:xlink="http://www.w3.org/1999/xlink" x="0px" y="0px"
	 viewBox="0 0 3025.2 704.8" style="enable-background:new 0 0 3025.2 704.8;" xml:space="preserve">
<style type="text/css">
	.st0{stroke:#878962;stroke-width:0.1;stroke-miterlimit:10;}
</style>
<g>
	<path class="st0" d="M2536.1,115.8c-52.5,9.5-86.7,42.1-95.6,90.8c-1,5.4-1.8,17.6-2.1,31.9l-0.6,23.3h-22.3h-22.4v34v34h22.5h22.5
		v128v128h48.5h48.5v-128v-128l40.3-0.2l40.2-0.3l0.3-33.8l0.2-33.7h-40.5h-40.5V247c0-18.1,1.2-25.9,5-33.9
		c5.1-10.5,14.6-16.6,28.7-18.6c12.8-1.9,29.8,2,42.7,9.8c3.2,1.9,6.1,3.5,6.5,3.4c1.2,0,34.3-69,33.8-70.3c-0.8-2-17.1-10-28.6-14
		c-19.1-6.7-31.8-8.7-55.6-9.2C2550,113.9,2544.9,114.2,2536.1,115.8z"/>
	<path class="st0" d="M1541.8,141.8c-50.7,3.9-98.9,22.5-135.5,52.2c-35.7,29-61.6,69.3-73.1,114.1c-4.4,16.7-6.2,30.2-6.8,50.2
		c-2.2,73.2,29.1,140.7,85.8,184.5c37.6,29,84.3,45.4,135.9,47.6c62.7,2.8,129.1-23.5,181.5-71.8l6.9-6.5l-3.4-4
		c-1.9-2.2-15.1-16.6-29.4-32.1l-25.9-28.1l-8.6,7.5c-16.9,14.7-40,28.4-59.6,35.4c-65.5,23.1-134.9-3.2-165.2-62.6
		c-10.7-21-14.2-34.7-15-59.4c-0.9-27.4,2.8-45.5,13.7-67.5c18.7-37.8,53.1-63.5,95.3-71.2c12.5-2.3,36.3-2.2,47.2,0.1
		c31.4,6.8,63.7,25.1,86.4,49c2.9,3.1,5.6,5.4,6.1,5.1c0.7-0.4,52.1-62.7,56.3-68.3c2-2.6-17.4-19.8-36.5-32.5
		C1651.7,152.9,1594.8,137.7,1541.8,141.8z"/>
	<path class="st0" d="M152.1,365.3v220.5h50h50v-63v-63h50.8l50.7,0.1l34.9,62.9l34.8,63h56.4c31,0,56.4-0.2,56.4-0.5
		c0-0.3-20.9-33-46.5-72.6c-25.6-39.7-46.4-72.3-46.3-72.4c0.2-0.1,4-2.2,8.6-4.5c23-12.2,44-33.8,56.1-57.7
		c12.9-25.7,17.8-51.3,16.8-87.1c-0.6-21.4-2.4-32.3-7.7-48.4c-15.3-45.8-51-76.7-104.3-90.2c-28.4-7.2-22.8-7-147.9-7.3l-112.8-0.4
		V365.3z M377.5,231.1c30,8.1,47.2,26.1,51.6,53.9c1.6,9.8,0.8,32.1-1.4,40.3c-3.1,11.3-8.3,20.4-16.5,28.6
		c-8.3,8.2-14.7,12.2-25.9,16.3c-15.3,5.5-19.2,5.8-78.4,6.3l-54.8,0.5v-74.7v-74.6l57.8,0.3l57.7,0.4L377.5,231.1z"/>
	<path class="st0" d="M2678.8,168.5c-0.4,0.3-0.7,21.5-0.7,47v46.3h-23.5h-23.5v33.5v33.5h23.5h23.5V411c0,53.9,0.4,85.4,1.1,91.3
		c4.5,36.8,22.6,63.2,53.4,77.6c35.1,16.5,85.9,13.7,130.3-7.1c5.6-2.7,10.2-5.4,10.2-6c0-1.6-19.2-69.4-19.9-70.1
		c-0.3-0.4-4.9,1.1-10.1,3.2c-15.7,6.3-20.9,7.4-35.5,7.4c-12.4,0-13.2-0.1-17.7-2.8c-5.8-3.4-9.2-7.7-12.1-15.3
		c-2.2-5.9-2.2-6.2-2.5-82.7l-0.3-76.7h46.1h46v-34v-34h-46h-46v-47v-47h-47.8C2701,167.8,2679.1,168.1,2678.8,168.5z"/>
	<path class="st0" d="M1107.6,243.5c-40.7,3.3-73.2,12.1-113.8,30.8c-8.1,3.7-15,7.1-15.2,7.5c-0.4,0.7,28,64.6,29.4,66.2
		c0.4,0.5,5.5-1.6,11.3-4.5c19.5-9.8,37.9-16.3,59.2-20.9c8.6-1.9,13.2-2.2,30.6-2.2c18,0,21.5,0.3,28.5,2.2
		c21.3,5.9,34.5,17.7,39.8,35.9c0.9,2.8,1.9,9.2,2.2,14.2l0.8,9.1h-48.5c-61.9,0-77.5,1.2-100.1,7.6c-50.1,14.2-77,50.5-74.4,100.7
		c1.5,29.2,11.4,51.7,30.8,70.3c19.4,18.4,46.3,28.6,79.3,30.1c42.4,1.9,81-11.1,105.2-35.4l7.4-7.3v19v19h48.2h48.1l-0.6-116.7
		c-0.7-124.4-0.7-124.3-5.7-142.3c-2.6-9.3-9.4-23.7-15-32.1c-8.6-12.6-24.9-26.7-39.2-34c-24-12.2-52.9-18.1-87.3-17.7
		C1119.3,243.1,1109.8,243.3,1107.6,243.5z M1179.9,456.6l-0.3,16.9l-4.3,8.6c-11.7,23.6-40.6,38.7-74.2,38.7
		c-28.7,0-48.2-13.3-52.1-35.4c-2-12,0.7-23.6,7.4-31.2c6.7-7.6,16.5-11.5,34.2-13.7c1.7-0.2,22.5-0.5,46.3-0.6l43.4-0.1
		L1179.9,456.6z"/>
	<path class="st0" d="M1985.2,243.9c-21.7,2.8-43.3,11.2-59.2,23c-9.1,6.7-22.6,21-29.3,31l-5.6,8.4v-29.8v-29.7h-49h-49v169.5
		v169.5h49h49v-86.4c0-94.9,0.1-96,6.1-111.6c11.5-29.9,38.4-48.7,76-53.1c5.6-0.6,14.7-0.9,20.1-0.7l9.8,0.5v-45.9v-45.8l-5.7,0.1
		C1994.2,243,1988.7,243.4,1985.2,243.9z"/>
	<path class="st0" d="M2168.1,243.5c-36.5,3.5-60.3,9.1-90.5,21c-15,5.9-38.5,16.8-38.5,17.8c0,0.9,29,64.9,29.9,65.7
		c0.4,0.5,3.6-0.8,7.3-2.7c18.1-9.6,43.5-18.8,63.2-22.7c14.9-3,44.9-3.3,56.7-0.5c27.9,6.5,43.9,25.3,43.9,51.4v8.3h-48.4
		c-52.6,0-67.8,0.8-86.2,4.5c-27.3,5.5-48.1,15.9-62.6,31.4c-11.3,12-17.3,22.8-22,40.1c-2,7.5-2.3,10.6-2.2,27
		c0,16.7,0.3,19.5,2.7,28.2c9.1,34.1,32.1,58.6,65.7,70.1c15.9,5.5,26.8,7.1,48,7.1c21,0,31.7-1.4,48-6.1
		c19.8-5.7,34.4-14,48.6-27.6l9.4-8.9v19.1v19.1h48.1h48l-0.6-115.3c-0.7-124.5-0.8-128.1-6.2-145.1c-5.7-18.3-13.9-32-26.4-44.6
		c-20.7-20.7-49.7-32.9-88.1-37C2207,242.9,2176.4,242.6,2168.1,243.5z M2239.9,457.6l-0.3,17.8l-3.4,6.9
		c-5.1,10.4-16.8,21.7-28.6,27.7c-10.8,5.5-16.2,7.3-27.9,9.3c-42.6,7.3-72.6-11.7-70.3-44.6c1.3-19.9,14-31,38.7-33.9
		c3.6-0.4,25.8-0.8,49.3-0.9l42.8-0.1L2239.9,457.6z"/>
	<path class="st0" d="M722.9,245.4c-29.9,4.4-57.7,15.4-80.1,32c-10.8,7.9-28,26.1-35.5,37.4c-34.8,52.2-39,130.7-10.1,187.7
		c21.8,43,60.9,72,111.6,82.7c16.3,3.4,28.5,4.6,47,4.6c42.8,0,80.7-10.7,111.8-31.4c11.3-7.6,29.6-23.1,31.5-26.7
		c1-1.7-1.7-4.9-24.1-27.9l-25.2-25.9l-5.6,5c-12.6,11.4-31,21.6-47.1,26.2c-18.6,5.4-41.9,6.1-58.4,1.8
		c-30.2-7.9-52.1-30.2-62.1-62.9l-0.6-2.2h122.1h122.2l-0.5-27.3c-0.4-21.3-0.9-29.8-2.5-39.2c-6.9-39.7-19.8-67.5-41.8-90.5
		c-23.3-24.2-53.3-38.4-92.2-43.5C769.1,243.4,736.3,243.5,722.9,245.4z M775.7,317.8c13.2,3.4,21.8,8.3,31.4,18
		c6.9,6.8,9.4,10.2,12.7,17c4.8,9.9,7.3,18.5,8,28.7l0.6,7.3h-77.2h-77.1l0.6-2.8c6.5-29.5,19.7-49.5,40.4-61.5
		c5.9-3.4,17.9-7.4,26-8.6C750,314.5,766.4,315.5,775.7,317.8z"/>
</g>
</svg>
