<?xml version="1.0" encoding="utf-8"?>
<!-- Generator: Adobe Illustrator 26.2.1, SVG Export Plug-In . SVG Version: 6.00 Build 0)  -->
<svg version="1.1" xmlns="http://www.w3.org/2000/svg" xmlns:xlink="http://www.w3.org/1999/xlink" x="0px" y="0px"
	 viewBox="0 0 2845.6 3231.7" style="enable-background:new 0 0 2845.6 3231.7;" xml:space="preserve">
<style type="text/css">
	.st0{display:none;}
	.st1{display:inline;fill:#778DA9;stroke:#878962;stroke-width:0.1;stroke-miterlimit:10;}
	.st2{display:inline;}
	.st3{fill:#343435;stroke:#2D2D2D;stroke-width:20;stroke-miterlimit:10;}
	.st4{display:none;fill:#343435;stroke:#2D2D2D;stroke-width:20;stroke-miterlimit:10;}
	.st5{display:inline;fill:#343435;stroke:#2D2D2D;stroke-width:20;stroke-miterlimit:10;}
	.st6{fill:none;stroke:#2D2D2D;stroke-width:15;stroke-miterlimit:10;}
	.st7{stroke:#878962;stroke-width:0.1;stroke-miterlimit:10;}
</style>
<g id="Layer_2" class="st0">
	<rect x="-1738.7" y="-352.3" class="st1" width="7893.5" height="4653.9"/>
</g>
<g id="Layer_1" class="st0">
	<g transform="translate(0.000000,3180.000000) scale(0.100000,-0.100000)" class="st2">
		
			<image style="overflow:visible;opacity:0.6;" width="3656" height="3453" xlink:href="BE62E41BE23C1E0E.png"  transform="matrix(10 0 0 -10 -9769.2012 70974.4688)">
		</image>
		<g>
			<g>
				<path class="st3" d="M3778.2,70569.7C2087.2,70449,490,69863-1207.5,68738.7c-1094.8-724.7-1941.6-1495.7-2580.2-2351.5
					c-418.9-560.2-773.5-1193.7-947-1692.3c-129.8-370.1-186.3-678.5-195.3-1065.2c-12.8-501.1,52.7-886.6,230-1360.8
					c128.5-343.1,228.7-535.8,616.8-1173.2c140.1-231.3,258.3-427.9,262.1-436.9c5.1-14.1-111.8-15.4-602.6-11.6
					c-741.4,7.7-984.3-10.3-1371.1-96.4c-312.2-69.4-520.4-141.3-803.1-280.1c-514-251.9-943.2-629.6-1329.9-1168
					c-258.3-361.1-575.7-975.3-803.1-1556.1c-474.2-1210.4-691.3-2632.9-638.6-4186.4c43.7-1277.3,200.5-2233.3,521.7-3177.7
					c241.6-709.3,618.1-1453.3,983-1942.9c145.2-194,191.5-246.7,371.4-430.5c515.3-523,1146.2-848.1,1904.3-979.1
					c307.1-54,433-61.7,1126.9-69.4l684.9-7.7l-389.3-648.9c-384.2-642.5-503.7-859.6-591.1-1085.8
					c-52.7-137.5-115.6-384.2-145.2-571.8c-28.3-183.8-38.5-660.5-19.3-855.8c77.1-759.4,388.1-1466.1,1046-2375.9
					c304.5-418.9,610.4-773.5,1013.8-1169.3c790.3-778.7,1691-1418.6,2898.9-2055.9c1044.7-551.2,2008.4-882.8,3022.2-1039.5
					c679.7-105.4,1399.3-122.1,1914.6-46.3c1024.1,150.3,1852.9,688.7,2462,1599.8c56.5,84.8,316.1,510.1,575.7,944.4
					c260.8,434.3,478,795.4,483.1,800.5c5.1,6.4,241.6-375.2,525.5-848.1c628.3-1046,729.9-1191.2,1048.5-1512.4
					c576.9-582.1,1251.6-902,2113.8-1004.8c226.2-28.3,824.9-30.8,1130.8-6.4c1479,116.9,2823.1,588.5,4438.3,1553.5
					c1195,714.4,2189.6,1572.8,2932.3,2527.5c711.9,914.9,1081.9,1653.8,1215.6,2428.6c25.7,147.8,29.6,212,29.6,546.1
					c0,358.5-2.6,390.6-36,582.1c-43.7,246.7-91.2,409.9-177.3,609.1c-89.9,213.3-191.5,394.5-589.8,1052.4l-348.2,576.9l704.2,7.7
					c709.3,7.7,833.9,15.4,1128.2,64.2c785.1,132.4,1476.4,503.7,1989.1,1071.7c656.6,727.3,1242.6,1962.1,1518.8,3204.7
					c109.2,496,177.3,965,218.4,1511.1c169.6,2288.5-146.5,4140.2-990.7,5814.5c-250.6,498.6-494.7,855.8-807,1179.6
					c-472.9,490.9-1137.2,860.9-1736,966.3c-245.4,43.7-430.5,51.4-1215.6,51.4c-421.5,0-768.4,2.6-772.3,6.4
					c-3.9,5.1,120.8,217.2,276.3,472.9c393.2,645.1,547.4,952.2,669.5,1329.9c120.8,372.6,161.9,619.4,170.9,1008.7
					c11.6,475.4-41.1,808.2-195.3,1255.4c-195.3,560.2-625.8,1299.1-1103.8,1895.3c-298.1,372.6-826.2,914.9-1195,1227.1
					c-900.8,767.1-2057.2,1495.7-3104.5,1959.6c-967.6,429.2-1877.3,670.8-2904,773.5c-322.5,32.1-1031.8,32.1-1265.7-1.3
					c-989.4-136.2-1732.1-551.2-2338.6-1308.1c-200.5-250.6-299.4-404.8-835.2-1318.4c-267.3-454.9-489.6-822.4-494.7-816
					c-5.1,5.1-233.9,391.9-507.6,858.4c-273.7,466.4-533.3,899.5-576.9,962.4c-395.8,580.8-827.5,977.9-1356.9,1252.8
					c-370.1,191.5-740.1,304.5-1207.9,368.8C4668.7,70576.2,4019.8,70586.4,3778.2,70569.7z M4731.6,69523.8
					c443.3-54,794.1-177.3,1115.3-389.3c185-124.6,463.9-394.5,615.5-601.4c111.8-152.9,1462.3-2392.6,1455.9-2414.5
					c-7.7-21.8-1403.2-2343.8-2199.9-3657c-404.8-668.2-821.1-1353.1-923.9-1524L4607,60628l-1786.1-7.7
					c-981.7-5.1-2599.5-5.1-3594,0c-1629.3,7.7-1810.5,10.3-1825.9,28.3c-45,52.7-1065.2,1747.6-1133.3,1883.8
					c-84.8,167-158.1,372.6-195.3,546.1c-33.4,154.2-33.4,539.7,0,693.9c47.5,219.7,191.5,623.2,335.4,934.2
					c285.3,623.2,782.5,1314.5,1360.8,1895.3c701.6,706.7,1513.7,1286.2,2617.5,1868.3c1286.2,677.2,2251.3,989.4,3321.6,1070.4
					C3927.2,69557.2,4535,69546.9,4731.6,69523.8z M13492.5,69522.5c1015.1-109.2,1919.7-416.3,3139.2-1061.4
					c1482.8-785.1,2535.2-1635.8,3306.2-2675.3c433-582.1,709.3-1106.4,908.5-1724.4c97.7-302,105.4-352.1,105.4-642.5
					c0-236.4-2.6-268.6-34.7-394.5c-42.4-168.3-110.5-353.4-183.7-499.9c-64.2-125.9-1103.8-1845.2-1135.9-1876
					c-18-18-358.5-19.3-3614.6-14.1l-3594,5.1l-465.2,767.1c-1867.1,3073.6-2842.3,4701.7-2834.6,4729.9
					c12.8,51.4,1355.6,2269.2,1452,2399c131.1,176,416.3,460,574.4,571.8c66.8,47.5,197.9,124.6,289.1,169.6
					c321.2,159.3,623.2,231.3,1130.8,269.8C12679.1,69558.5,13316.5,69541.8,13492.5,69522.5z M9586.2,63367.5
					c582.1-967.6,1189.9-1977.6,1350.5-2243.5l290.4-483.1l-2724.1-9c-1498.3-3.9-2725.4-6.4-2728-3.9s145.2,253.1,327.7,556.4
					c1449.4,2408,2246.1,3732.8,2314.2,3844.6c65.5,107.9,83.5,129.8,96.4,115.6C8521,65135.6,9004.1,64336.4,9586.2,63367.5z
					 M-2608.1,58668.4C-968.5,55970,402.6,53703.3,402.6,53691.7c0-6.4-24.4-52.7-55.3-102.8
					c-70.7-114.4-2449.1-4055.3-3032.5-5024.2c-241.6-402.2-449.7-742.7-460-754.3c-18-21.8-84.8-23.1-1056.2-23.1
					c-614.2,0-1092.2,5.1-1170.6,12.8c-569.2,56.5-983,264.7-1331.2,672c-343.1,398.3-579.5,750.4-791.5,1174.5
					c-768.4,1534.2-1003.6,3319.1-741.4,5632c138.8,1216.9,487,2216.6,1089.6,3126.3c488.3,737.6,1028,1105.1,1782.2,1209.2
					c210.7,29.6,174.8,29.6,1202.7,30.8l958.6,2.6L-2608.1,58668.4z M3992.8,59629.6c2.6-1.3-286.5-483.1-642.5-1069.1
					c-354.6-585.9-1026.7-1697.4-1493.1-2469.7c-465.2-771-850.6-1403.2-854.5-1403.2c-3.9,1.3-299.4,488.3-657.9,1083.2
					s-1029.3,1707.7-1491.8,2472.3c-462.6,764.6-839.1,1392.9-837.8,1394.2C-1979.7,59642.4,3987.6,59634.7,3992.8,59629.6z
					 M12510.8,58510.4c371.4-614.2,1174.5-1945.4,1786.1-2956.7c610.4-1011.3,1110.2-1842.6,1110.2-1846.5
					c0-6.4-1752.7-2914.3-2882.2-4778.8l-683.6-1128.2H8500.4H5159.5l-519.1,858.4c-562.8,929-2428.6,4018.1-2812.8,4656.7
					l-236.4,393.2l1046,1733.4c575.7,952.2,1381.3,2285.9,1788.7,2963.1l742.7,1229.7l3334.5-2.6l3334.5-3.9L12510.8,58510.4z
					 M18771.1,59272.3c-449.7-742.7-2055.9-3402.6-2405.5-3983.4c-197.9-330.2-363.6-600.1-367.5-601.4
					c-3.9,0-413.8,674.6-912.3,1499.6c-498.6,826.2-1164.2,1927.4-1481.6,2450.4c-316.1,521.7-580.8,959.9-588.5,972.7
					c-11.6,24.4,52.7,24.4,2981.1,24.4h2994L18771.1,59272.3z M22568.2,59605.1c458.7-95.1,753-249.3,1046-550
					c109.2-113.1,327.7-385.5,479.3-597.5c497.3-697.7,851.9-1579.2,1052.4-2614.9c173.5-903.3,246.7-2118.9,181.2-3018.4
					c-88.7-1206.6-364.9-2251.3-855.8-3238.1c-277.6-557.7-458.7-828.8-742.7-1111.5c-200.5-199.2-353.4-311-579.5-424
					c-291.7-145.2-611.6-231.3-985.6-262.1c-107.9-9-470.3-11.6-1081.9-5.1c-817.2,7.7-921.3,10.3-936.7,28.3
					c-10.3,11.6-377.8,619.4-818.5,1350.5c-440.7,731.1-1228.4,2038-1751.4,2904c-523,866.1-956,1588.2-963.7,1606.2
					c-12.8,34.7-32.1,1.3,2216.6,3707.1c442,728.6,929,1533,1084.5,1788.7l281.4,466.4l1137.2-3.9
					C22316.3,59627,22480.8,59623.1,22568.2,59605.1z M1831.5,51340.3c1796.4-2974.7,2129.2-3528.5,2124-3534.9
					c-3.9-2.6-1340.2-3.9-2969.6-2.6l-2963.1,3.9l1169.3,1933.9c643.8,1063.9,1311.9,2169,1485.4,2456.8
					c272.4,449.7,318.7,520.4,331.5,501.1C1018.1,52686.9,1388.1,52075.3,1831.5,51340.3z M17181.6,50781.3
					c637.3-1056.2,1304.2-2157.5,1479-2447.9l318.7-526.8l-2964.4-3.9c-1629.3-1.3-2965.7,0-2969.6,2.6
					c-3.9,5.1,763.3,1281.1,2453,4077.2c278.8,461.3,510.1,833.9,514,828.8C16016.2,52706.2,16543,51837.5,17181.6,50781.3z
					 M4598,46750.4c27-38.6,1132.1-1873.5,2482.5-4123.4l819.8-1363.3l-203-339.2c-110.5-186.3-395.8-665.6-632.2-1065.2
					c-236.4-399.6-460-771-497.3-826.2c-178.6-264.7-442-542.3-670.8-706.7c-316.1-226.2-729.9-373.9-1179.6-421.5
					c-187.6-19.3-781.3-7.7-1048.5,20.6c-1666.6,176-3194.4,818.5-4812.2,2025.1c-953.4,710.6-1639.6,1428.9-2129.2,2225.6
					c-263.4,431.8-571.8,1169.3-641.2,1538.1c-30.8,165.8-30.8,465.2,0,623.2c34.7,174.8,115.6,409.9,197.9,573.1
					c54,107.9,1067.8,1805.4,1105.1,1849.1c2.6,3.9,1283.7,9,2846.2,12.9c1563.8,3.9,3179,7.7,3590.2,10.3l747.8,2.6L4598,46750.4z
					 M11218.1,46778.6c0-3.9-258.3-433-574.4-954.7c-557.7-921.3-1189.9-1968.6-1819.5-3015.8c-169.6-282.7-312.2-519.1-317.4-524.3
					s-42.4,46.3-83.5,115.6c-172.2,287.8-1368.5,2271.8-1981.4,3284.4c-362.4,600.1-659.2,1092.2-659.2,1096.1
					c0,2.6,1223.3,5.1,2717.7,5.1S11218.1,46782.5,11218.1,46778.6z M19589.7,46764.5c32.1-6.4,1052.4-1692.3,1148.8-1895.3
					c77.1-164.5,133.6-329,170.9-503.7c39.8-183.8,39.8-498.6,0-684.9c-46.3-217.2-203-646.3-362.4-994.6
					c-199.2-433-502.4-895.6-895.6-1362.1c-168.3-199.2-621.9-651.5-851.9-849.4c-884.1-760.7-1939-1439.2-2891.2-1859.3
					c-1112.8-490.9-2274.4-740.1-3346-718.3c-254.4,5.1-355.9,11.6-483.1,34.7c-382.9,68.1-708,203-1004.8,417.6
					c-138.8,100.2-417.6,379.1-532,533.3c-128.5,172.2-164.5,228.7-564.1,905.9c-196.6,332.8-472.9,798-614.2,1034.4
					c-226.2,380.4-254.4,434.3-244.1,462.6c10.3,27,765.8,1286.2,3098,5159.1c101.5,169.6,190.2,314.8,196.6,322.5
					c9,11.6,948.3,12.8,3581.2,9C17957.8,46773.5,19575.5,46768.4,19589.7,46764.5z M7918.3,66118.6l575.7,990.7"/>
				<path class="st4" d="M6804.3,56003.4c-293-63-529.4-299.4-591.1-589.8c-28.3-134.9-28.3-3257.4,0-3392.3
					c64.2-307.1,314.8-547.4,627.1-602.6l47.5-9V53287v1877.3l999.7-5.1c872.5-3.9,1012.6-7.7,1107.6-27
					c519.1-102.8,842.9-321.2,1017.7-687.5c79.7-167,114.4-320,122.1-547.4c11.6-314.8-27-520.4-143.9-758.1
					c-107.9-221-260.8-385.5-467.7-501.1c-64.2-36-88.7-56.5-83.5-70.7c20.6-56.5,733.7-1143.6,750.4-1143.6
					c42.4,1.3,200.5,65.5,267.3,109.2c142.6,96.4,239,218.4,305.8,391.9l37.3,96.4l3.9,1651.2c2.6,1476.4,1.3,1661.5-16.7,1745
					c-59.1,262.1-258.3,481.9-520.4,571.8l-83.5,28.3l-1644.8,2.6C7120.4,56021.4,6881.4,56020.1,6804.3,56003.4z"/>
				<path class="st4" d="M7761.6,53795.8v-650.2h469c530.7,0,603.9,7.7,760.7,84.8c210.7,101.5,317.4,291.7,317.4,564.1
					c0,328.9-150.3,526.8-463.9,612.9c-91.2,24.4-142.6,27-591.1,33.4l-492.1,5.1V53795.8z"/>
				<path class="st4" d="M7761.6,51912.1v-501.1h718.3h718.3l-277.6,501.1l-278.8,501.1h-439.5h-440.7V51912.1z"/>
				<line class="st3" x1="4607" y1="60628" x2="5775" y2="60628"/>
				<g>
					<line class="st3" x1="9088.9" y1="66136.6" x2="8513.3" y2="65144.6"/>
					<line class="st3" x1="19597.4" y1="60648.5" x2="20814.2" y2="60648.5"/>
					<line class="st3" x1="18990.9" y1="59634.7" x2="20193.6" y2="59634.7"/>
					<line class="st3" x1="-3821.1" y1="60658.8" x2="-3203" y2="59647.6"/>
					<line class="st3" x1="-2599.1" y1="60648.5" x2="-1984.9" y2="59637.3"/>
					<line class="st3" x1="3992.8" y1="59629.6" x2="5168.5" y2="59629.6"/>
					<line class="st3" x1="11227.1" y1="60640.8" x2="11837.5" y2="59628.3"/>
					<line class="st3" x1="12388.7" y1="60639.5" x2="13015.8" y2="59610.3"/>
				</g>
			</g>
		</g>
	</g>
	<line class="st5" x1="1599.8" y1="-2288.8" x2="1540.7" y2="-2190.7"/>
	<line class="st5" x1="1661.1" y1="-2187.2" x2="1601.2" y2="-2091.1"/>
	<line class="st5" x1="1897.9" y1="-1600.7" x2="1959" y2="-1496.5"/>
	<line class="st5" x1="2014.5" y1="-1601.2" x2="2077.7" y2="-1495.3"/>
	<line class="st5" x1="1184.1" y1="-1600" x2="1304.5" y2="-1600.5"/>
	<line class="st5" x1="1121.8" y1="-1497.9" x2="1241.4" y2="-1496.7"/>
	<line class="st5" x1="912" y1="-946.5" x2="849.4" y2="-842.8"/>
	<line class="st5" x1="850.7" y1="-1046.4" x2="790" y2="-944.4"/>
	<line class="st5" x1="516" y1="-1600" x2="578.3" y2="-1498"/>
	<line class="st5" x1="395.6" y1="-1600.5" x2="459.8" y2="-1495"/>
	<line class="st5" x1="-197.7" y1="-1600.7" x2="-314.5" y2="-1601"/>
	<line class="st5" x1="-261.1" y1="-1495.9" x2="-377.7" y2="-1495.3"/>
	<line class="st5" x1="34.7" y1="-2178.9" x2="100.3" y2="-2288.8"/>
	<line class="st5" x1="100.9" y1="-2089.8" x2="159.1" y2="-2190.8"/>
</g>
<g id="Layer_5" class="st0">
	<g>
		
			<image style="display:inline;overflow:visible;opacity:0.7;" width="682" height="742" xlink:href="BE62E41BE23C1E12.png"  transform="matrix(1 0 0 1 546.0799 -2541.4473)">
		</image>
		<g class="st2">
			<g>
				<path class="st6" d="M989.6-1835.7l-158.9-209.2h-91.1v209.2H573.1v-678.1h294.5c187.9,0,301.3,87.2,301.3,235.4
					c0,105.6-57.2,179.2-157.9,213.1l172.4,229.6H989.6z M739.7-2375.2v196.7h123c88.2,0,139.5-27.1,139.5-96.9
					c0-67.8-51.3-99.8-139.5-99.8H739.7z"/>
			</g>
		</g>
	</g>
	<g class="st2">
		<path d="M-5536,1509.3c-14.7-5-28-10.1-40-15.2c-12-5.2-22.3-11.4-31-18.8c-8.7-7.3-15.4-16.1-20.2-26.2
			c-4.8-10.2-7.2-22.6-7.2-37.2c0-28.3,10.9-51,32.8-68c21.8-17,52.4-25.5,91.8-25.5c14.3,0,27.7,1,40,3c12.3,2,22.9,5.1,31.8,9.2
			c8.8,4.2,15.8,9.5,20.8,16s7.5,14.1,7.5,22.8c0,8.7-2,16.1-6,22.2c-4,6.2-8.8,11.4-14.5,15.8c-7.3-4.7-17.2-8.8-29.5-12.2
			c-12.3-3.5-25.8-5.2-40.5-5.2c-15,0-26,2.1-33,6.2c-7,4.2-10.5,9.4-10.5,15.8c0,5,2.2,9.1,6.5,12.2c4.3,3.2,10.8,6.1,19.5,8.8
			l26.5,8.5c31.3,10,55.4,22.8,72.2,38.2c16.8,15.5,25.2,36.6,25.2,63.2c0,28.3-11.2,51.2-33.5,68.8c-22.3,17.5-55.2,26.2-98.5,26.2
			c-15.3,0-29.6-1.2-42.8-3.8c-13.2-2.5-24.7-6.2-34.5-11c-9.8-4.8-17.5-10.8-23-18c-5.5-7.2-8.2-15.4-8.2-24.8
			c0-9.7,2.8-17.9,8.5-24.8c5.7-6.8,11.8-12.1,18.5-15.8c9.3,7.3,20.8,13.7,34.2,19c13.5,5.3,28.2,8,44.2,8
			c16.3,0,27.8-2.5,34.5-7.5c6.7-5,10-10.8,10-17.5c0-6.7-2.7-11.8-8-15.2c-5.3-3.5-12.8-6.9-22.5-10.2L-5536,1509.3z"/>
		<path d="M-5268,1546.3c0,8.7,2.8,14.8,8.2,18.5c5.5,3.7,13.2,5.5,23.2,5.5c5,0,10.2-0.4,15.5-1.2c5.3-0.8,10-1.9,14-3.2
			c3,3.7,5.6,7.8,7.8,12.2c2.2,4.5,3.2,9.9,3.2,16.2c0,12.7-4.8,23-14.2,31s-26.2,12-50.2,12c-29.3,0-51.9-6.7-67.8-20
			c-15.8-13.3-23.8-35-23.8-65v-214c3.7-1,8.9-2.1,15.8-3.2c6.8-1.2,14.1-1.8,21.8-1.8c14.7,0,26.1,2.6,34.2,7.8
			c8.2,5.2,12.2,16.1,12.2,32.8v32h65.5c2,3.7,3.9,8.2,5.8,13.8c1.8,5.5,2.8,11.6,2.8,18.2c0,11.7-2.6,20.1-7.8,25.2
			c-5.2,5.2-12.1,7.8-20.8,7.8h-45.5V1546.3z"/>
		<path d="M-5068,1629.3c-3.3,1-8.6,2-15.8,3c-7.2,1-14.6,1.5-22.2,1.5c-7.3,0-13.9-0.5-19.8-1.5c-5.8-1-10.8-3-14.8-6
			s-7.1-7.1-9.2-12.2c-2.2-5.2-3.2-11.9-3.2-20.2v-150c0-7.7,1.4-14.2,4.2-19.8c2.8-5.5,6.9-10.4,12.2-14.8
			c5.3-4.3,11.9-8.2,19.8-11.8c7.8-3.5,16.2-6.6,25.2-9.2c9-2.7,18.3-4.8,28-6.2c9.7-1.5,19.3-2.2,29-2.2c16,0,28.7,3.1,38,9.2
			c9.3,6.2,14,16.2,14,30.2c0,4.7-0.7,9.2-2,13.8c-1.3,4.5-3,8.6-5,12.2c-7,0-14.2,0.3-21.5,1c-7.3,0.7-14.5,1.7-21.5,3
			c-7,1.3-13.6,2.8-19.8,4.2c-6.2,1.5-11.4,3.2-15.8,5.2V1629.3z"/>
		<path d="M-4828.5,1637.8c-19.7,0-37.9-2.8-54.8-8.2c-16.8-5.5-31.5-13.8-44-24.8s-22.3-24.8-29.5-41.5
			c-7.2-16.7-10.8-36.2-10.8-58.5c0-22,3.6-40.9,10.8-56.8c7.2-15.8,16.6-28.8,28.2-39c11.7-10.2,25-17.7,40-22.5
			c15-4.8,30.3-7.2,46-7.2c17.7,0,33.8,2.7,48.2,8c14.5,5.3,27,12.7,37.5,22c10.5,9.3,18.7,20.5,24.5,33.5c5.8,13,8.8,27.2,8.8,42.5
			c0,11.3-3.2,20-9.5,26c-6.3,6-15.2,9.8-26.5,11.5l-123.5,18.5c3.7,11,11.2,19.2,22.5,24.8c11.3,5.5,24.3,8.2,39,8.2
			c13.7,0,26.6-1.8,38.8-5.2c12.2-3.5,22.1-7.6,29.8-12.2c5.3,3.3,9.8,8,13.5,14c3.7,6,5.5,12.3,5.5,19c0,15-7,26.2-21,33.5
			c-10.7,5.7-22.7,9.5-36,11.5C-4804.3,1636.8-4816.8,1637.8-4828.5,1637.8z M-4842.5,1441.3c-8,0-14.9,1.3-20.8,4
			c-5.8,2.7-10.6,6.1-14.2,10.2c-3.7,4.2-6.4,8.8-8.2,14c-1.8,5.2-2.9,10.4-3.2,15.8l85.5-14c-1-6.7-4.7-13.3-11-20
			C-4820.8,1444.6-4830.2,1441.3-4842.5,1441.3z"/>
		<path d="M-4582.5,1379.3c18,0,34.4,1.8,49.2,5.5c14.8,3.7,27.5,9.2,38,16.8s18.6,17,24.2,28.5c5.7,11.5,8.5,25.1,8.5,40.8v112
			c0,8.7-2.4,15.8-7.2,21.2c-4.8,5.5-10.6,10.2-17.2,14.2c-21.7,13-52.2,19.5-91.5,19.5c-17.7,0-33.6-1.7-47.8-5
			c-14.2-3.3-26.3-8.3-36.5-15c-10.2-6.7-18-15.2-23.5-25.5c-5.5-10.3-8.2-22.3-8.2-36c0-23,6.8-40.7,20.5-53
			c13.7-12.3,34.8-20,63.5-23l65.5-7v-3.5c0-9.7-4.2-16.6-12.8-20.8c-8.5-4.2-20.8-6.2-36.8-6.2c-12.7,0-25,1.3-37,4
			c-12,2.7-22.8,6-32.5,10c-4.3-3-8-7.6-11-13.8c-3-6.2-4.5-12.6-4.5-19.2c0-8.7,2.1-15.6,6.2-20.8c4.2-5.2,10.6-9.6,19.2-13.2
			c9.7-3.7,21.1-6.3,34.2-8C-4606.6,1380.1-4594.2,1379.3-4582.5,1379.3z M-4578.5,1575.8c5.7,0,11.9-0.6,18.8-1.8
			c6.8-1.2,11.9-2.8,15.2-4.8v-40l-36,3c-9.3,0.7-17,2.7-23,6c-6,3.3-9,8.3-9,15c0,6.7,2.6,12.1,7.8,16.2
			C-4599.6,1573.7-4590.8,1575.8-4578.5,1575.8z"/>
		<path d="M-4294,1379.3c13.7,0,27.1,1.9,40.2,5.8c13.2,3.8,24.6,9.6,34.2,17.2c10-6.7,21.2-12.2,33.8-16.5
			c12.5-4.3,27.6-6.5,45.2-6.5c12.7,0,25.1,1.7,37.2,5c12.2,3.3,23,8.6,32.5,15.8c9.5,7.2,17.1,16.7,22.8,28.5
			c5.7,11.8,8.5,26.2,8.5,43.2v157.5c-3.3,1-8.6,2-15.8,3c-7.2,1-14.6,1.5-22.2,1.5c-7.3,0-13.9-0.5-19.8-1.5c-5.8-1-10.8-3-14.8-6
			s-7.1-7.1-9.2-12.2c-2.2-5.2-3.2-11.9-3.2-20.2v-119.5c0-10-2.8-17.2-8.5-21.8c-5.7-4.5-13.3-6.8-23-6.8c-4.7,0-9.7,1.1-15,3.2
			c-5.3,2.2-9.3,4.4-12,6.8c0.3,1.3,0.5,2.6,0.5,3.8c0,1.2,0,2.2,0,3.2v166.5c-3.7,1-9.1,2-16.2,3c-7.2,1-14.4,1.5-21.8,1.5
			c-7.3,0-13.9-0.5-19.8-1.5c-5.8-1-10.8-3-14.8-6s-7.1-7.1-9.2-12.2c-2.2-5.2-3.2-11.9-3.2-20.2v-119.5c0-10-3.1-17.2-9.2-21.8
			c-6.2-4.5-13.6-6.8-22.2-6.8c-6,0-11.2,0.9-15.5,2.8c-4.3,1.8-8,3.6-11,5.2v175.5c-3.3,1-8.6,2-15.8,3c-7.2,1-14.6,1.5-22.2,1.5
			c-7.3,0-13.9-0.5-19.8-1.5c-5.8-1-10.8-3-14.8-6s-7.1-7.1-9.2-12.2c-2.2-5.2-3.2-11.9-3.2-20.2v-151c0-9,1.9-16.2,5.8-21.5
			c3.8-5.3,9.1-10.3,15.8-15c11.3-8,25.4-14.5,42.2-19.5C-4329.9,1381.8-4312.4,1379.3-4294,1379.3z"/>
		<path d="M-3901,1629.3c-3.7,0.7-9.1,1.6-16.2,2.8c-7.2,1.2-14.4,1.8-21.8,1.8c-7.3,0-13.9-0.5-19.8-1.5c-5.8-1-10.8-3-14.8-6
			s-7.1-7.1-9.2-12.2c-2.2-5.2-3.2-11.9-3.2-20.2v-290c3.7-0.7,9.1-1.6,16.2-2.8c7.2-1.2,14.4-1.8,21.8-1.8c7.3,0,13.9,0.5,19.8,1.5
			c5.8,1,10.8,3,14.8,6s7.1,7.1,9.2,12.2c2.2,5.2,3.2,11.9,3.2,20.2V1629.3z"/>
		<path d="M-3849.5,1319.3c0-12.7,4.2-23.3,12.8-32c8.5-8.7,19.8-13,33.8-13s25.2,4.3,33.8,13c8.5,8.7,12.8,19.3,12.8,32
			c0,12.7-4.2,23.3-12.8,32c-8.5,8.7-19.8,13-33.8,13s-25.2-4.3-33.8-13C-3845.3,1342.6-3849.5,1331.9-3849.5,1319.3z
			 M-3760.5,1629.3c-3.7,0.7-9.1,1.6-16.2,2.8c-7.2,1.2-14.4,1.8-21.8,1.8c-7.3,0-13.9-0.5-19.8-1.5c-5.8-1-10.8-3-14.8-6
			s-7.1-7.1-9.2-12.2c-2.2-5.2-3.2-11.9-3.2-20.2v-203.5c3.7-0.7,9.1-1.6,16.2-2.8c7.2-1.2,14.4-1.8,21.8-1.8
			c7.3,0,13.9,0.5,19.8,1.5c5.8,1,10.8,3,14.8,6s7.1,7.1,9.2,12.2c2.2,5.2,3.2,11.9,3.2,20.2V1629.3z"/>
		<path d="M-3552.5,1475.8c0-10.3-2.9-17.9-8.8-22.8c-5.8-4.8-13.8-7.2-23.8-7.2c-6.7,0-13.2,0.8-19.8,2.5
			c-6.5,1.7-12.1,4.2-16.8,7.5v173.5c-3.3,1-8.6,2-15.8,3c-7.2,1-14.6,1.5-22.2,1.5c-7.3,0-13.9-0.5-19.8-1.5c-5.8-1-10.8-3-14.8-6
			s-7.1-7.1-9.2-12.2c-2.2-5.2-3.2-11.9-3.2-20.2v-150c0-9,1.9-16.3,5.8-22c3.8-5.7,9.1-10.8,15.8-15.5c11.3-8,25.6-14.5,42.8-19.5
			c17.2-5,36.2-7.5,57.2-7.5c37.7,0,66.7,8.2,87,24.8c20.3,16.5,30.5,39.4,30.5,68.8v156.5c-3.3,1-8.6,2-15.8,3
			c-7.2,1-14.6,1.5-22.2,1.5c-7.3,0-13.9-0.5-19.8-1.5c-5.8-1-10.8-3-14.8-6s-7.1-7.1-9.2-12.2c-2.2-5.2-3.2-11.9-3.2-20.2V1475.8z"
			/>
		<path d="M-3417,1319.3c0-12.7,4.2-23.3,12.8-32c8.5-8.7,19.8-13,33.8-13s25.2,4.3,33.8,13c8.5,8.7,12.8,19.3,12.8,32
			c0,12.7-4.2,23.3-12.8,32c-8.5,8.7-19.8,13-33.8,13s-25.2-4.3-33.8-13C-3412.8,1342.6-3417,1331.9-3417,1319.3z M-3328,1629.3
			c-3.7,0.7-9.1,1.6-16.2,2.8c-7.2,1.2-14.4,1.8-21.8,1.8c-7.3,0-13.9-0.5-19.8-1.5c-5.8-1-10.8-3-14.8-6s-7.1-7.1-9.2-12.2
			c-2.2-5.2-3.2-11.9-3.2-20.2v-203.5c3.7-0.7,9.1-1.6,16.2-2.8c7.2-1.2,14.4-1.8,21.8-1.8c7.3,0,13.9,0.5,19.8,1.5
			c5.8,1,10.8,3,14.8,6s7.1,7.1,9.2,12.2c2.2,5.2,3.2,11.9,3.2,20.2V1629.3z"/>
		<path d="M-3120,1475.8c0-10.3-2.9-17.9-8.8-22.8c-5.8-4.8-13.8-7.2-23.8-7.2c-6.7,0-13.2,0.8-19.8,2.5c-6.5,1.7-12.1,4.2-16.8,7.5
			v173.5c-3.3,1-8.6,2-15.8,3c-7.2,1-14.6,1.5-22.2,1.5c-7.3,0-13.9-0.5-19.8-1.5c-5.8-1-10.8-3-14.8-6s-7.1-7.1-9.2-12.2
			c-2.2-5.2-3.2-11.9-3.2-20.2v-150c0-9,1.9-16.3,5.8-22c3.8-5.7,9.1-10.8,15.8-15.5c11.3-8,25.6-14.5,42.8-19.5
			c17.2-5,36.2-7.5,57.2-7.5c37.7,0,66.7,8.2,87,24.8c20.3,16.5,30.5,39.4,30.5,68.8v156.5c-3.3,1-8.6,2-15.8,3
			c-7.2,1-14.6,1.5-22.2,1.5c-7.3,0-13.9-0.5-19.8-1.5c-5.8-1-10.8-3-14.8-6s-7.1-7.1-9.2-12.2c-2.2-5.2-3.2-11.9-3.2-20.2V1475.8z"
			/>
		<path d="M-2864,1379.3c19,0,36.2,2.4,51.8,7.2c15.5,4.8,28.6,11.1,39.2,18.8c6.7,4.7,11.9,9.8,15.8,15.5c3.8,5.7,5.8,13,5.8,22
			v175c0,17.7-3.3,32.9-10,45.8c-6.7,12.8-15.8,23.5-27.2,32s-25,14.8-40.5,18.8s-32.1,6-49.8,6c-30.3,0-54.2-4.1-71.5-12.2
			c-17.3-8.2-26-21.4-26-39.8c0-7.7,1.6-14.4,4.8-20.2c3.2-5.8,6.8-10.2,10.8-13.2c9.7,5.3,20.6,9.8,32.8,13.5
			c12.2,3.7,24.8,5.5,37.8,5.5c18,0,32.3-3,43-9c10.7-6,16-15.7,16-29v-8c-13.7,6-30.3,9-50,9c-15,0-29.2-2.2-42.8-6.8
			s-25.3-11.5-35.5-21c-10.2-9.5-18.3-21.8-24.5-36.8c-6.2-15-9.2-32.8-9.2-53.5c0-20.3,3.2-38,9.8-53s15.5-27.4,27-37.2
			c11.5-9.8,25.2-17.2,41-22C-2899.9,1381.7-2882.7,1379.3-2864,1379.3z M-2833,1451.8c-2.3-1.3-5.8-2.7-10.2-4
			c-4.5-1.3-10.1-2-16.8-2c-16.3,0-28.6,4.6-36.8,13.8c-8.2,9.2-12.2,22.2-12.2,39.2c0,19.3,4.1,33.2,12.2,41.8
			c8.2,8.5,18.6,12.8,31.2,12.8c13.7,0,24.5-3.2,32.5-9.5V1451.8z"/>
		<path d="M-2505.5,1531.8v96c-3.7,1-9.4,2-17.2,3c-7.8,1-15.6,1.5-23.2,1.5c-7.7,0-14.4-0.6-20.2-1.8c-5.8-1.2-10.7-3.2-14.5-6.2
			c-3.8-3-6.8-7.2-8.8-12.5c-2-5.3-3-12.3-3-21v-235.5c0-7,1.9-12.4,5.8-16.2c3.8-3.8,9.1-6.9,15.8-9.2c11.3-4,24.5-6.9,39.5-8.8
			c15-1.8,31-2.8,48-2.8c46,0,80.7,9.7,104,29c23.3,19.3,35,45.5,35,78.5c0,20.7-5.3,38.3-16,53c-10.7,14.7-23.3,26-38,34
			c12,16.3,23.8,31.7,35.5,46c11.7,14.3,20.8,27.3,27.5,39c-3.3,11.7-9.4,20.6-18.2,26.8c-8.8,6.2-18.8,9.2-29.8,9.2
			c-7.3,0-13.7-0.8-19-2.5c-5.3-1.7-10-4-14-7s-7.7-6.7-11-11c-3.3-4.3-6.5-9-9.5-14l-42-67.5H-2505.5z M-2474,1465.3
			c12.7,0,22.7-3.2,30-9.8c7.3-6.5,11-16.1,11-28.8c0-12.7-4.1-22.2-12.2-28.8c-8.2-6.5-21.1-9.8-38.8-9.8c-5,0-9,0.2-12,0.5
			c-3,0.3-6.3,0.8-10,1.5v75H-2474z"/>
		<path d="M-2173.5,1637.8c-19.7,0-37.9-2.8-54.8-8.2c-16.8-5.5-31.5-13.8-44-24.8s-22.3-24.8-29.5-41.5
			c-7.2-16.7-10.8-36.2-10.8-58.5c0-22,3.6-40.9,10.8-56.8c7.2-15.8,16.6-28.8,28.2-39c11.7-10.2,25-17.7,40-22.5
			c15-4.8,30.3-7.2,46-7.2c17.7,0,33.8,2.7,48.2,8c14.5,5.3,27,12.7,37.5,22c10.5,9.3,18.7,20.5,24.5,33.5c5.8,13,8.8,27.2,8.8,42.5
			c0,11.3-3.2,20-9.5,26c-6.3,6-15.2,9.8-26.5,11.5l-123.5,18.5c3.7,11,11.2,19.2,22.5,24.8c11.3,5.5,24.3,8.2,39,8.2
			c13.7,0,26.6-1.8,38.8-5.2c12.2-3.5,22.1-7.6,29.8-12.2c5.3,3.3,9.8,8,13.5,14c3.7,6,5.5,12.3,5.5,19c0,15-7,26.2-21,33.5
			c-10.7,5.7-22.7,9.5-36,11.5C-2149.4,1636.8-2161.9,1637.8-2173.5,1637.8z M-2187.5,1441.3c-8,0-14.9,1.3-20.8,4
			c-5.8,2.7-10.6,6.1-14.2,10.2c-3.7,4.2-6.4,8.8-8.2,14c-1.8,5.2-2.9,10.4-3.2,15.8l85.5-14c-1-6.7-4.7-13.3-11-20
			C-2165.9,1444.6-2175.2,1441.3-2187.5,1441.3z"/>
		<path d="M-1927.5,1379.3c18,0,34.4,1.8,49.2,5.5c14.8,3.7,27.5,9.2,38,16.8s18.6,17,24.2,28.5c5.7,11.5,8.5,25.1,8.5,40.8v112
			c0,8.7-2.4,15.8-7.2,21.2c-4.8,5.5-10.6,10.2-17.2,14.2c-21.7,13-52.2,19.5-91.5,19.5c-17.7,0-33.6-1.7-47.8-5
			c-14.2-3.3-26.3-8.3-36.5-15c-10.2-6.7-18-15.2-23.5-25.5c-5.5-10.3-8.2-22.3-8.2-36c0-23,6.8-40.7,20.5-53
			c13.7-12.3,34.8-20,63.5-23l65.5-7v-3.5c0-9.7-4.2-16.6-12.8-20.8c-8.5-4.2-20.8-6.2-36.8-6.2c-12.7,0-25,1.3-37,4
			c-12,2.7-22.8,6-32.5,10c-4.3-3-8-7.6-11-13.8c-3-6.2-4.5-12.6-4.5-19.2c0-8.7,2.1-15.6,6.2-20.8c4.2-5.2,10.6-9.6,19.2-13.2
			c9.7-3.7,21.1-6.3,34.2-8C-1951.6,1380.1-1939.2,1379.3-1927.5,1379.3z M-1923.5,1575.8c5.7,0,11.9-0.6,18.8-1.8
			c6.8-1.2,11.9-2.8,15.2-4.8v-40l-36,3c-9.3,0.7-17,2.7-23,6c-6,3.3-9,8.3-9,15c0,6.7,2.6,12.1,7.8,16.2
			C-1944.6,1573.7-1935.9,1575.8-1923.5,1575.8z"/>
		<path d="M-1618.5,1446.3c-8.3,0-16.2,1.3-23.8,4c-7.5,2.7-14,6.6-19.5,11.8c-5.5,5.2-9.9,11.6-13.2,19.2c-3.3,7.7-5,16.7-5,27
			c0,20.7,5.9,36.2,17.8,46.5c11.8,10.3,26.2,15.5,43.2,15.5c10,0,18.7-1.2,26-3.5c7.3-2.3,13.8-4.8,19.5-7.5
			c6.7,4.7,11.7,9.8,15,15.2c3.3,5.5,5,12.1,5,19.8c0,13.7-6.5,24.2-19.5,31.8s-31,11.2-54,11.2c-21,0-40-3.1-57-9.2
			s-31.6-14.8-43.8-26c-12.2-11.2-21.6-24.6-28.2-40.2c-6.7-15.7-10-33-10-52c0-22,3.6-41.2,10.8-57.8c7.2-16.5,16.9-30.1,29.2-40.8
			c12.3-10.7,26.6-18.7,42.8-24c16.2-5.3,33.2-8,51.2-8c24,0,42.5,4.3,55.5,13c13,8.7,19.5,19.8,19.5,33.5c0,6.3-1.5,12.2-4.5,17.8
			s-6.5,10.2-10.5,14.2c-5.7-2.7-12.5-5.2-20.5-7.8S-1609.2,1446.3-1618.5,1446.3z"/>
		<path d="M-1426,1546.3c0,8.7,2.8,14.8,8.2,18.5c5.5,3.7,13.2,5.5,23.2,5.5c5,0,10.2-0.4,15.5-1.2c5.3-0.8,10-1.9,14-3.2
			c3,3.7,5.6,7.8,7.8,12.2c2.2,4.5,3.2,9.9,3.2,16.2c0,12.7-4.8,23-14.2,31s-26.2,12-50.2,12c-29.3,0-51.9-6.7-67.8-20
			c-15.8-13.3-23.8-35-23.8-65v-214c3.7-1,8.9-2.1,15.8-3.2c6.8-1.2,14.1-1.8,21.8-1.8c14.7,0,26.1,2.6,34.2,7.8
			c8.2,5.2,12.2,16.1,12.2,32.8v32h65.5c2,3.7,3.9,8.2,5.8,13.8c1.8,5.5,2.8,11.6,2.8,18.2c0,11.7-2.6,20.1-7.8,25.2
			c-5.2,5.2-12.1,7.8-20.8,7.8h-45.5V1546.3z"/>
		<path d="M-1089.6,1637.8c-5.7,0-12.2-0.2-19.5-0.5c-7.3-0.3-14.9-1-22.8-2c-7.8-1-15.7-2.2-23.5-3.8c-7.8-1.5-15.1-3.6-21.8-6.2
			c-18.3-7-27.5-19.2-27.5-36.5v-233.5c0-7,1.9-12.4,5.8-16.2c3.8-3.8,9.1-6.9,15.8-9.2c14.3-4.7,29.5-7.8,45.5-9.2s30.3-2.2,43-2.2
			c26,0,49.6,3.2,70.8,9.5c21.2,6.3,39.3,16.1,54.5,29.2c15.2,13.2,26.9,29.8,35.2,49.8c8.3,20,12.5,43.7,12.5,71
			c0,26.7-4,49.9-12,69.8c-8,19.8-19.4,36.5-34.2,50c-14.8,13.5-32.6,23.6-53.2,30.2C-1041.7,1634.4-1064.6,1637.8-1089.6,1637.8z
			 M-1117.6,1564.8c3.7,0.7,8.2,1.2,13.5,1.8c5.3,0.5,10.3,0.8,15,0.8c11.3,0,21.8-1.7,31.2-5c9.5-3.3,17.7-8.5,24.5-15.5
			c6.8-7,12.2-16.1,16-27.2c3.8-11.2,5.8-24.6,5.8-40.2c0-30-7-52.6-21-67.8c-14-15.2-32.7-22.8-56-22.8c-4.7,0-9.4,0.2-14.2,0.5
			c-4.8,0.3-9.8,0.8-14.8,1.5V1564.8z"/>
		<path d="M-749.6,1637.8c-19.7,0-37.9-2.8-54.8-8.2c-16.8-5.5-31.5-13.8-44-24.8s-22.3-24.8-29.5-41.5
			c-7.2-16.7-10.8-36.2-10.8-58.5c0-22,3.6-40.9,10.8-56.8c7.2-15.8,16.6-28.8,28.2-39c11.7-10.2,25-17.7,40-22.5
			c15-4.8,30.3-7.2,46-7.2c17.7,0,33.8,2.7,48.2,8c14.5,5.3,27,12.7,37.5,22c10.5,9.3,18.7,20.5,24.5,33.5c5.8,13,8.8,27.2,8.8,42.5
			c0,11.3-3.2,20-9.5,26c-6.3,6-15.2,9.8-26.5,11.5l-123.5,18.5c3.7,11,11.2,19.2,22.5,24.8c11.3,5.5,24.3,8.2,39,8.2
			c13.7,0,26.6-1.8,38.8-5.2c12.2-3.5,22.1-7.6,29.8-12.2c5.3,3.3,9.8,8,13.5,14c3.7,6,5.5,12.3,5.5,19c0,15-7,26.2-21,33.5
			c-10.7,5.7-22.7,9.5-36,11.5C-725.4,1636.8-737.9,1637.8-749.6,1637.8z M-763.6,1441.3c-8,0-14.9,1.3-20.8,4
			c-5.8,2.7-10.6,6.1-14.2,10.2c-3.7,4.2-6.4,8.8-8.2,14c-1.8,5.2-2.9,10.4-3.2,15.8l85.5-14c-1-6.7-4.7-13.3-11-20
			C-741.9,1444.6-751.2,1441.3-763.6,1441.3z"/>
		<path d="M-443.1,1623.3c-4.7,3.7-11.5,6.7-20.5,9c-9,2.3-19.2,3.5-30.5,3.5c-13,0-24.2-1.7-33.8-5s-16.1-8.7-19.8-16
			c-3-5.7-6.6-13.6-10.8-23.8c-4.2-10.2-8.6-21.5-13.2-34c-4.7-12.5-9.5-25.9-14.5-40.2c-5-14.3-9.8-28.5-14.2-42.5
			s-8.6-27.5-12.2-40.5c-3.7-13-6.7-24.5-9-34.5c4.7-4.7,10.9-8.8,18.8-12.2c7.8-3.5,16.4-5.2,25.8-5.2c11.7,0,21.2,2.4,28.8,7.2
			c7.5,4.8,13.1,13.9,16.8,27.2l19.5,76.5c3.7,15,7.2,28.6,10.5,40.8c3.3,12.2,5.8,21.6,7.5,28.2h2.5c6.3-24.7,13-52,20-82
			s13.3-59.5,19-88.5c5.7-3,12.1-5.3,19.2-7c7.2-1.7,14.1-2.5,20.8-2.5c11.7,0,21.5,2.5,29.5,7.5s12,13.7,12,26
			c0,5.3-1.2,13.1-3.8,23.2c-2.5,10.2-5.7,21.7-9.5,34.5c-3.8,12.8-8.3,26.4-13.5,40.8c-5.2,14.3-10.4,28.3-15.8,42
			c-5.3,13.7-10.6,26.4-15.8,38.2C-434.5,1605.9-439.1,1615.6-443.1,1623.3z"/>
		<path d="M-207.1,1637.8c-19.7,0-37.9-2.8-54.8-8.2c-16.8-5.5-31.5-13.8-44-24.8s-22.3-24.8-29.5-41.5
			c-7.2-16.7-10.8-36.2-10.8-58.5c0-22,3.6-40.9,10.8-56.8c7.2-15.8,16.6-28.8,28.2-39c11.7-10.2,25-17.7,40-22.5
			c15-4.8,30.3-7.2,46-7.2c17.7,0,33.8,2.7,48.2,8c14.5,5.3,27,12.7,37.5,22c10.5,9.3,18.7,20.5,24.5,33.5c5.8,13,8.8,27.2,8.8,42.5
			c0,11.3-3.2,20-9.5,26c-6.3,6-15.2,9.8-26.5,11.5l-123.5,18.5c3.7,11,11.2,19.2,22.5,24.8c11.3,5.5,24.3,8.2,39,8.2
			c13.7,0,26.6-1.8,38.8-5.2c12.2-3.5,22.1-7.6,29.8-12.2c5.3,3.3,9.8,8,13.5,14c3.7,6,5.5,12.3,5.5,19c0,15-7,26.2-21,33.5
			c-10.7,5.7-22.7,9.5-36,11.5C-182.9,1636.8-195.4,1637.8-207.1,1637.8z M-221.1,1441.3c-8,0-14.9,1.3-20.8,4
			c-5.8,2.7-10.6,6.1-14.2,10.2c-3.7,4.2-6.4,8.8-8.2,14c-1.8,5.2-2.9,10.4-3.2,15.8l85.5-14c-1-6.7-4.7-13.3-11-20
			C-199.4,1444.6-208.7,1441.3-221.1,1441.3z"/>
		<path d="M25.4,1629.3c-3.7,0.7-9.1,1.6-16.2,2.8c-7.2,1.2-14.4,1.8-21.8,1.8c-7.3,0-13.9-0.5-19.8-1.5c-5.8-1-10.8-3-14.8-6
			s-7.1-7.1-9.2-12.2c-2.2-5.2-3.2-11.9-3.2-20.2v-290c3.7-0.7,9.1-1.6,16.2-2.8c7.2-1.2,14.4-1.8,21.8-1.8c7.3,0,13.9,0.5,19.8,1.5
			c5.8,1,10.8,3,14.8,6s7.1,7.1,9.2,12.2c2.2,5.2,3.2,11.9,3.2,20.2V1629.3z"/>
		<path d="M330.4,1508.3c0,20.7-3.2,39.1-9.5,55.2c-6.3,16.2-15.2,29.8-26.8,40.8s-25.2,19.3-41.2,25s-33.8,8.5-53.5,8.5
			c-19.7,0-37.5-3-53.5-9s-29.8-14.6-41.2-25.8c-11.5-11.2-20.4-24.8-26.8-40.8c-6.3-16-9.5-34-9.5-54c0-19.7,3.2-37.5,9.5-53.5
			c6.3-16,15.2-29.6,26.8-40.8c11.5-11.2,25.2-19.8,41.2-25.8s33.8-9,53.5-9c19.7,0,37.5,3.1,53.5,9.2c16,6.2,29.8,14.8,41.2,26
			c11.5,11.2,20.4,24.8,26.8,40.8C327.3,1471.3,330.4,1488.9,330.4,1508.3z M155.4,1508.3c0,20.3,3.9,35.9,11.8,46.8
			c7.8,10.8,18.8,16.2,32.8,16.2s24.8-5.5,32.2-16.5s11.2-26.5,11.2-46.5s-3.8-35.4-11.5-46.2c-7.7-10.8-18.5-16.2-32.5-16.2
			s-24.8,5.4-32.5,16.2C159.3,1472.9,155.4,1488.3,155.4,1508.3z"/>
		<path d="M483.4,1379.3c20,0,38.6,2.6,55.8,7.8c17.2,5.2,31.9,13.1,44.2,23.8c12.3,10.7,22,24.1,29,40.2
			c7,16.2,10.5,35.4,10.5,57.8c0,21.3-3,40-9,56s-14.5,29.4-25.5,40.2c-11,10.8-24.2,18.9-39.8,24.2s-32.8,8-51.8,8
			c-14.3,0-27.7-2.2-40-6.5v83c-3.3,1-8.7,2.1-16,3.2c-7.3,1.2-14.8,1.8-22.5,1.8c-7.3,0-13.9-0.5-19.8-1.5c-5.8-1-10.8-3-14.8-6
			s-7-7.1-9-12.2c-2-5.2-3-11.9-3-20.2v-240c0-9,1.9-16.3,5.8-22c3.8-5.7,9.1-10.8,15.8-15.5c10.3-6.7,23.2-12,38.5-16
			C447.3,1381.3,464.4,1379.3,483.4,1379.3z M484.4,1570.3c34.3,0,51.5-20.5,51.5-61.5c0-21.3-4.2-37.2-12.8-47.5
			c-8.5-10.3-20.8-15.5-36.8-15.5c-6.3,0-12,0.8-17,2.2s-9.3,3.2-13,5.2v110c4,2,8.3,3.7,13,5
			C474.1,1569.6,479.1,1570.3,484.4,1570.3z"/>
		<path d="M780.9,1379.3c13.7,0,27.1,1.9,40.2,5.8c13.2,3.8,24.6,9.6,34.2,17.2c10-6.7,21.2-12.2,33.8-16.5
			c12.5-4.3,27.6-6.5,45.2-6.5c12.7,0,25.1,1.7,37.2,5c12.2,3.3,23,8.6,32.5,15.8c9.5,7.2,17.1,16.7,22.7,28.5
			c5.7,11.8,8.5,26.2,8.5,43.2v157.5c-3.3,1-8.6,2-15.7,3c-7.2,1-14.6,1.5-22.2,1.5c-7.3,0-13.9-0.5-19.8-1.5c-5.8-1-10.8-3-14.8-6
			s-7.1-7.1-9.2-12.2c-2.2-5.2-3.2-11.9-3.2-20.2v-119.5c0-10-2.8-17.2-8.5-21.8c-5.7-4.5-13.3-6.8-23-6.8c-4.7,0-9.7,1.1-15,3.2
			c-5.3,2.2-9.3,4.4-12,6.8c0.3,1.3,0.5,2.6,0.5,3.8c0,1.2,0,2.2,0,3.2v166.5c-3.7,1-9.1,2-16.2,3c-7.2,1-14.4,1.5-21.8,1.5
			c-7.3,0-13.9-0.5-19.8-1.5c-5.8-1-10.8-3-14.8-6s-7.1-7.1-9.2-12.2c-2.2-5.2-3.2-11.9-3.2-20.2v-119.5c0-10-3.1-17.2-9.2-21.8
			c-6.2-4.5-13.6-6.8-22.2-6.8c-6,0-11.2,0.9-15.5,2.8c-4.3,1.8-8,3.6-11,5.2v175.5c-3.3,1-8.6,2-15.8,3c-7.2,1-14.6,1.5-22.2,1.5
			c-7.3,0-13.9-0.5-19.8-1.5c-5.8-1-10.8-3-14.8-6s-7.1-7.1-9.2-12.2c-2.2-5.2-3.2-11.9-3.2-20.2v-151c0-9,1.9-16.2,5.8-21.5
			c3.8-5.3,9.1-10.3,15.8-15c11.3-8,25.4-14.5,42.2-19.5C745,1381.8,762.6,1379.3,780.9,1379.3z"/>
		<path d="M1215.9,1637.8c-19.7,0-37.9-2.8-54.8-8.2c-16.8-5.5-31.5-13.8-44-24.8s-22.3-24.8-29.5-41.5
			c-7.2-16.7-10.8-36.2-10.8-58.5c0-22,3.6-40.9,10.8-56.8c7.2-15.8,16.6-28.8,28.2-39c11.7-10.2,25-17.7,40-22.5
			c15-4.8,30.3-7.2,46-7.2c17.7,0,33.8,2.7,48.2,8c14.5,5.3,27,12.7,37.5,22c10.5,9.3,18.7,20.5,24.5,33.5c5.8,13,8.8,27.2,8.8,42.5
			c0,11.3-3.2,20-9.5,26c-6.3,6-15.2,9.8-26.5,11.5l-123.5,18.5c3.7,11,11.2,19.2,22.5,24.8c11.3,5.5,24.3,8.2,39,8.2
			c13.7,0,26.6-1.8,38.8-5.2c12.2-3.5,22.1-7.6,29.8-12.2c5.3,3.3,9.8,8,13.5,14c3.7,6,5.5,12.3,5.5,19c0,15-7,26.2-21,33.5
			c-10.7,5.7-22.7,9.5-36,11.5C1240.1,1636.8,1227.6,1637.8,1215.9,1637.8z M1201.9,1441.3c-8,0-14.9,1.3-20.8,4
			c-5.8,2.7-10.6,6.1-14.2,10.2c-3.7,4.2-6.4,8.8-8.2,14c-1.8,5.2-2.9,10.4-3.2,15.8l85.5-14c-1-6.7-4.7-13.3-11-20
			C1223.6,1444.6,1214.3,1441.3,1201.9,1441.3z"/>
		<path d="M1515.9,1475.8c0-10.3-2.9-17.9-8.8-22.8c-5.8-4.8-13.8-7.2-23.8-7.2c-6.7,0-13.2,0.8-19.8,2.5
			c-6.5,1.7-12.1,4.2-16.8,7.5v173.5c-3.3,1-8.6,2-15.8,3c-7.2,1-14.6,1.5-22.2,1.5c-7.3,0-13.9-0.5-19.8-1.5c-5.8-1-10.8-3-14.8-6
			s-7.1-7.1-9.2-12.2c-2.2-5.2-3.2-11.9-3.2-20.2v-150c0-9,1.9-16.3,5.8-22c3.8-5.7,9.1-10.8,15.8-15.5c11.3-8,25.6-14.5,42.8-19.5
			c17.2-5,36.2-7.5,57.2-7.5c37.7,0,66.7,8.2,87,24.8c20.3,16.5,30.5,39.4,30.5,68.8v156.5c-3.3,1-8.6,2-15.8,3
			c-7.2,1-14.6,1.5-22.2,1.5c-7.3,0-13.9-0.5-19.8-1.5c-5.8-1-10.8-3-14.8-6s-7.1-7.1-9.2-12.2c-2.2-5.2-3.2-11.9-3.2-20.2V1475.8z"
			/>
		<path d="M1738.4,1546.3c0,8.7,2.8,14.8,8.2,18.5c5.5,3.7,13.2,5.5,23.2,5.5c5,0,10.2-0.4,15.5-1.2c5.3-0.8,10-1.9,14-3.2
			c3,3.7,5.6,7.8,7.8,12.2c2.2,4.5,3.2,9.9,3.2,16.2c0,12.7-4.8,23-14.2,31s-26.2,12-50.2,12c-29.3,0-51.9-6.7-67.8-20
			c-15.8-13.3-23.8-35-23.8-65v-214c3.7-1,8.9-2.1,15.8-3.2c6.8-1.2,14.1-1.8,21.8-1.8c14.7,0,26.1,2.6,34.2,7.8
			c8.2,5.2,12.2,16.1,12.2,32.8v32h65.5c2,3.7,3.9,8.2,5.8,13.8c1.8,5.5,2.8,11.6,2.8,18.2c0,11.7-2.6,20.1-7.8,25.2
			c-5.2,5.2-12.1,7.8-20.8,7.8h-45.5V1546.3z"/>
		<path d="M1954.4,1386.8c0-17,2.9-31.6,8.8-43.8c5.8-12.2,13.8-22.2,23.8-30c10-7.8,21.8-13.6,35.2-17.2
			c13.5-3.7,27.9-5.5,43.2-5.5c24.7,0,42.8,3.2,54.5,9.8c11.7,6.5,17.5,17.6,17.5,33.2c0,6.7-1.4,12.7-4.2,18
			c-2.8,5.3-5.9,9.3-9.2,12c-6.3-1.7-12.9-3.1-19.8-4.2c-6.8-1.2-14.8-1.8-23.8-1.8c-14.3,0-25.5,2.4-33.5,7.2
			c-8,4.8-12,13.2-12,25.2v16h82c2,3.7,3.9,8.2,5.8,13.8c1.8,5.5,2.8,11.6,2.8,18.2c0,11.7-2.6,20.1-7.8,25.2
			c-5.2,5.2-12.1,7.8-20.8,7.8h-57.5v158.5c-3.3,1-8.6,2-15.8,3c-7.2,1-14.6,1.5-22.2,1.5c-7.3,0-13.9-0.5-19.8-1.5
			c-5.8-1-10.8-3-14.8-6s-7.1-7.1-9.2-12.2c-2.2-5.2-3.2-11.9-3.2-20.2V1386.8z"/>
		<path d="M2243.4,1629.3c-3.3,1-8.6,2-15.8,3c-7.2,1-14.6,1.5-22.2,1.5c-7.3,0-13.9-0.5-19.8-1.5c-5.8-1-10.8-3-14.8-6
			s-7.1-7.1-9.2-12.2c-2.2-5.2-3.2-11.9-3.2-20.2v-150c0-7.7,1.4-14.2,4.2-19.8c2.8-5.5,6.9-10.4,12.2-14.8
			c5.3-4.3,11.9-8.2,19.8-11.8c7.8-3.5,16.2-6.6,25.2-9.2c9-2.7,18.3-4.8,28-6.2c9.7-1.5,19.3-2.2,29-2.2c16,0,28.7,3.1,38,9.2
			c9.3,6.2,14,16.2,14,30.2c0,4.7-0.7,9.2-2,13.8c-1.3,4.5-3,8.6-5,12.2c-7,0-14.2,0.3-21.5,1c-7.3,0.7-14.5,1.7-21.5,3
			c-7,1.3-13.6,2.8-19.8,4.2c-6.2,1.5-11.4,3.2-15.8,5.2V1629.3z"/>
		<path d="M2605.9,1508.3c0,20.7-3.2,39.1-9.5,55.2c-6.3,16.2-15.2,29.8-26.8,40.8s-25.2,19.3-41.2,25s-33.8,8.5-53.5,8.5
			c-19.7,0-37.5-3-53.5-9s-29.8-14.6-41.2-25.8c-11.5-11.2-20.4-24.8-26.8-40.8c-6.3-16-9.5-34-9.5-54c0-19.7,3.2-37.5,9.5-53.5
			c6.3-16,15.2-29.6,26.8-40.8c11.5-11.2,25.2-19.8,41.2-25.8s33.8-9,53.5-9c19.7,0,37.5,3.1,53.5,9.2c16,6.2,29.8,14.8,41.2,26
			c11.5,11.2,20.4,24.8,26.8,40.8C2602.8,1471.3,2605.9,1488.9,2605.9,1508.3z M2430.9,1508.3c0,20.3,3.9,35.9,11.8,46.8
			c7.8,10.8,18.8,16.2,32.8,16.2s24.8-5.5,32.2-16.5s11.2-26.5,11.2-46.5s-3.8-35.4-11.5-46.2c-7.7-10.8-18.5-16.2-32.5-16.2
			s-24.8,5.4-32.5,16.2C2434.8,1472.9,2430.9,1488.3,2430.9,1508.3z"/>
		<path d="M2763.9,1379.3c13.7,0,27.1,1.9,40.2,5.8c13.2,3.8,24.6,9.6,34.2,17.2c10-6.7,21.2-12.2,33.8-16.5
			c12.5-4.3,27.6-6.5,45.2-6.5c12.7,0,25.1,1.7,37.2,5c12.2,3.3,23,8.6,32.5,15.8c9.5,7.2,17.1,16.7,22.8,28.5
			c5.7,11.8,8.5,26.2,8.5,43.2v157.5c-3.3,1-8.6,2-15.8,3c-7.2,1-14.6,1.5-22.2,1.5c-7.3,0-13.9-0.5-19.8-1.5c-5.8-1-10.8-3-14.8-6
			s-7.1-7.1-9.2-12.2c-2.2-5.2-3.2-11.9-3.2-20.2v-119.5c0-10-2.8-17.2-8.5-21.8c-5.7-4.5-13.3-6.8-23-6.8c-4.7,0-9.7,1.1-15,3.2
			c-5.3,2.2-9.3,4.4-12,6.8c0.3,1.3,0.5,2.6,0.5,3.8c0,1.2,0,2.2,0,3.2v166.5c-3.7,1-9.1,2-16.2,3c-7.2,1-14.4,1.5-21.8,1.5
			c-7.3,0-13.9-0.5-19.8-1.5c-5.8-1-10.8-3-14.8-6s-7.1-7.1-9.2-12.2c-2.2-5.2-3.2-11.9-3.2-20.2v-119.5c0-10-3.1-17.2-9.2-21.8
			c-6.2-4.5-13.6-6.8-22.2-6.8c-6,0-11.2,0.9-15.5,2.8c-4.3,1.8-8,3.6-11,5.2v175.5c-3.3,1-8.6,2-15.8,3c-7.2,1-14.6,1.5-22.2,1.5
			c-7.3,0-13.9-0.5-19.8-1.5c-5.8-1-10.8-3-14.8-6s-7.1-7.1-9.2-12.2c-2.2-5.2-3.2-11.9-3.2-20.2v-151c0-9,1.9-16.2,5.8-21.5
			c3.8-5.3,9.1-10.3,15.8-15c11.3-8,25.4-14.5,42.2-19.5C2728,1381.8,2745.6,1379.3,2763.9,1379.3z"/>
		<path d="M3291.9,1637.8c-5.7,0-12.2-0.2-19.5-0.5c-7.3-0.3-14.9-1-22.8-2c-7.8-1-15.7-2.2-23.5-3.8c-7.8-1.5-15.1-3.6-21.8-6.2
			c-18.3-7-27.5-19.2-27.5-36.5v-233.5c0-7,1.9-12.4,5.8-16.2c3.8-3.8,9.1-6.9,15.8-9.2c14.3-4.7,29.5-7.8,45.5-9.2s30.3-2.2,43-2.2
			c26,0,49.6,3.2,70.8,9.5c21.2,6.3,39.3,16.1,54.5,29.2c15.2,13.2,26.9,29.8,35.2,49.8c8.3,20,12.5,43.7,12.5,71
			c0,26.7-4,49.9-12,69.8c-8,19.8-19.4,36.5-34.2,50c-14.8,13.5-32.6,23.6-53.2,30.2C3339.7,1634.4,3316.9,1637.8,3291.9,1637.8z
			 M3263.9,1564.8c3.7,0.7,8.2,1.2,13.5,1.8c5.3,0.5,10.3,0.8,15,0.8c11.3,0,21.8-1.7,31.2-5c9.5-3.3,17.7-8.5,24.5-15.5
			c6.8-7,12.2-16.1,16-27.2c3.8-11.2,5.8-24.6,5.8-40.2c0-30-7-52.6-21-67.8c-14-15.2-32.7-22.8-56-22.8c-4.7,0-9.4,0.2-14.2,0.5
			c-4.8,0.3-9.8,0.8-14.8,1.5V1564.8z"/>
		<path d="M3631.9,1637.8c-19.7,0-37.9-2.8-54.8-8.2c-16.8-5.5-31.5-13.8-44-24.8s-22.3-24.8-29.5-41.5
			c-7.2-16.7-10.8-36.2-10.8-58.5c0-22,3.6-40.9,10.8-56.8c7.2-15.8,16.6-28.8,28.2-39c11.7-10.2,25-17.7,40-22.5
			c15-4.8,30.3-7.2,46-7.2c17.7,0,33.8,2.7,48.2,8c14.5,5.3,27,12.7,37.5,22c10.5,9.3,18.7,20.5,24.5,33.5c5.8,13,8.8,27.2,8.8,42.5
			c0,11.3-3.2,20-9.5,26c-6.3,6-15.2,9.8-26.5,11.5l-123.5,18.5c3.7,11,11.2,19.2,22.5,24.8c11.3,5.5,24.3,8.2,39,8.2
			c13.7,0,26.6-1.8,38.8-5.2c12.2-3.5,22.1-7.6,29.8-12.2c5.3,3.3,9.8,8,13.5,14c3.7,6,5.5,12.3,5.5,19c0,15-7,26.2-21,33.5
			c-10.7,5.7-22.7,9.5-36,11.5C3656.1,1636.8,3643.6,1637.8,3631.9,1637.8z M3617.9,1441.3c-8,0-14.9,1.3-20.8,4
			c-5.8,2.7-10.6,6.1-14.2,10.2c-3.7,4.2-6.4,8.8-8.2,14c-1.8,5.2-2.9,10.4-3.2,15.8l85.5-14c-1-6.7-4.7-13.3-11-20
			C3639.6,1444.6,3630.2,1441.3,3617.9,1441.3z"/>
		<path d="M3982.9,1557.3c0,25.3-9.5,45.2-28.5,59.5s-47,21.5-84,21.5c-14,0-27-1-39-3s-22.2-5.1-30.8-9.2s-15.2-9.4-20-15.8
			c-4.8-6.3-7.2-13.8-7.2-22.5c0-8,1.7-14.8,5-20.2c3.3-5.5,7.3-10.1,12-13.8c9.7,5.3,20.8,10.1,33.2,14.2
			c12.5,4.2,26.9,6.2,43.2,6.2c10.3,0,18.2-1.5,23.8-4.5s8.2-7,8.2-12c0-4.7-2-8.3-6-11c-4-2.7-10.7-4.8-20-6.5l-15-3
			c-29-5.7-50.6-14.6-64.8-26.8c-14.2-12.2-21.2-29.6-21.2-52.2c0-12.3,2.7-23.5,8-33.5c5.3-10,12.8-18.3,22.5-25
			c9.7-6.7,21.2-11.8,34.8-15.5c13.5-3.7,28.4-5.5,44.8-5.5c12.3,0,23.9,0.9,34.8,2.8c10.8,1.8,20.2,4.6,28.2,8.2
			c8,3.7,14.3,8.4,19,14.2c4.7,5.8,7,12.8,7,20.8c0,7.7-1.4,14.2-4.2,19.8c-2.8,5.5-6.4,10.1-10.8,13.8c-2.7-1.7-6.7-3.4-12-5.2
			c-5.3-1.8-11.2-3.5-17.5-5c-6.3-1.5-12.8-2.8-19.2-3.8s-12.4-1.5-17.8-1.5c-11,0-19.5,1.2-25.5,3.8s-9,6.4-9,11.8
			c0,3.7,1.7,6.7,5,9c3.3,2.3,9.7,4.5,19,6.5l15.5,3.5c32,7.3,54.8,17.4,68.2,30.2C3976.2,1520.4,3982.9,1536.9,3982.9,1557.3z"/>
		<path d="M4021.9,1319.3c0-12.7,4.2-23.3,12.8-32c8.5-8.7,19.8-13,33.8-13s25.2,4.3,33.8,13c8.5,8.7,12.8,19.3,12.8,32
			c0,12.7-4.2,23.3-12.8,32c-8.5,8.7-19.8,13-33.8,13s-25.2-4.3-33.8-13C4026.2,1342.6,4021.9,1331.9,4021.9,1319.3z M4110.9,1629.3
			c-3.7,0.7-9.1,1.6-16.2,2.8c-7.2,1.2-14.4,1.8-21.8,1.8c-7.3,0-13.9-0.5-19.8-1.5c-5.8-1-10.8-3-14.8-6s-7.1-7.1-9.2-12.2
			c-2.2-5.2-3.2-11.9-3.2-20.2v-203.5c3.7-0.7,9.1-1.6,16.2-2.8c7.2-1.2,14.4-1.8,21.8-1.8c7.3,0,13.9,0.5,19.8,1.5
			c5.8,1,10.8,3,14.8,6s7.1,7.1,9.2,12.2c2.2,5.2,3.2,11.9,3.2,20.2V1629.3z"/>
		<path d="M4283.4,1379.3c19,0,36.2,2.4,51.8,7.2c15.5,4.8,28.6,11.1,39.2,18.8c6.7,4.7,11.9,9.8,15.8,15.5c3.8,5.7,5.8,13,5.8,22
			v175c0,17.7-3.3,32.9-10,45.8c-6.7,12.8-15.8,23.5-27.2,32s-25,14.8-40.5,18.8s-32.1,6-49.8,6c-30.3,0-54.2-4.1-71.5-12.2
			c-17.3-8.2-26-21.4-26-39.8c0-7.7,1.6-14.4,4.8-20.2c3.2-5.8,6.8-10.2,10.8-13.2c9.7,5.3,20.6,9.8,32.8,13.5
			c12.2,3.7,24.8,5.5,37.8,5.5c18,0,32.3-3,43-9c10.7-6,16-15.7,16-29v-8c-13.7,6-30.3,9-50,9c-15,0-29.2-2.2-42.8-6.8
			s-25.3-11.5-35.5-21c-10.2-9.5-18.3-21.8-24.5-36.8c-6.2-15-9.2-32.8-9.2-53.5c0-20.3,3.2-38,9.8-53s15.5-27.4,27-37.2
			c11.5-9.8,25.2-17.2,41-22C4247.5,1381.7,4264.7,1379.3,4283.4,1379.3z M4314.4,1451.8c-2.3-1.3-5.8-2.7-10.2-4
			c-4.5-1.3-10.1-2-16.8-2c-16.3,0-28.6,4.6-36.8,13.8c-8.2,9.2-12.2,22.2-12.2,39.2c0,19.3,4.1,33.2,12.2,41.8
			c8.2,8.5,18.6,12.8,31.2,12.8c13.7,0,24.5-3.2,32.5-9.5V1451.8z"/>
		<path d="M4602.4,1475.8c0-10.3-2.9-17.9-8.8-22.8c-5.8-4.8-13.8-7.2-23.8-7.2c-6.7,0-13.2,0.8-19.8,2.5
			c-6.5,1.7-12.1,4.2-16.8,7.5v173.5c-3.3,1-8.6,2-15.8,3c-7.2,1-14.6,1.5-22.2,1.5c-7.3,0-13.9-0.5-19.8-1.5c-5.8-1-10.8-3-14.8-6
			s-7.1-7.1-9.2-12.2c-2.2-5.2-3.2-11.9-3.2-20.2v-150c0-9,1.9-16.3,5.8-22c3.8-5.7,9.1-10.8,15.8-15.5c11.3-8,25.6-14.5,42.8-19.5
			c17.2-5,36.2-7.5,57.2-7.5c37.7,0,66.7,8.2,87,24.8c20.3,16.5,30.5,39.4,30.5,68.8v156.5c-3.3,1-8.6,2-15.8,3
			c-7.2,1-14.6,1.5-22.2,1.5c-7.3,0-13.9-0.5-19.8-1.5c-5.8-1-10.8-3-14.8-6s-7.1-7.1-9.2-12.2c-2.2-5.2-3.2-11.9-3.2-20.2V1475.8z"
			/>
		<path d="M4924.9,1546.3c0,8.7,2.8,14.8,8.2,18.5c5.5,3.7,13.2,5.5,23.2,5.5c5,0,10.2-0.4,15.5-1.2c5.3-0.8,10-1.9,14-3.2
			c3,3.7,5.6,7.8,7.8,12.2c2.2,4.5,3.2,9.9,3.2,16.2c0,12.7-4.8,23-14.2,31s-26.2,12-50.2,12c-29.3,0-51.9-6.7-67.8-20
			c-15.8-13.3-23.8-35-23.8-65v-214c3.7-1,8.9-2.1,15.8-3.2c6.8-1.2,14.1-1.8,21.8-1.8c14.7,0,26.1,2.6,34.2,7.8
			c8.2,5.2,12.2,16.1,12.2,32.8v32h65.5c2,3.7,3.9,8.2,5.8,13.8c1.8,5.5,2.8,11.6,2.8,18.2c0,11.7-2.6,20.1-7.8,25.2
			c-5.2,5.2-12.1,7.8-20.8,7.8h-45.5V1546.3z"/>
		<path d="M5288.4,1508.3c0,20.7-3.2,39.1-9.5,55.2c-6.3,16.2-15.2,29.8-26.8,40.8s-25.2,19.3-41.2,25s-33.8,8.5-53.5,8.5
			c-19.7,0-37.5-3-53.5-9s-29.8-14.6-41.2-25.8c-11.5-11.2-20.4-24.8-26.8-40.8c-6.3-16-9.5-34-9.5-54c0-19.7,3.2-37.5,9.5-53.5
			c6.3-16,15.2-29.6,26.8-40.8c11.5-11.2,25.2-19.8,41.2-25.8s33.8-9,53.5-9c19.7,0,37.5,3.1,53.5,9.2c16,6.2,29.8,14.8,41.2,26
			c11.5,11.2,20.4,24.8,26.8,40.8C5285.2,1471.3,5288.4,1488.9,5288.4,1508.3z M5113.4,1508.3c0,20.3,3.9,35.9,11.8,46.8
			c7.8,10.8,18.8,16.2,32.8,16.2s24.8-5.5,32.2-16.5s11.2-26.5,11.2-46.5s-3.8-35.4-11.5-46.2c-7.7-10.8-18.5-16.2-32.5-16.2
			s-24.8,5.4-32.5,16.2C5117.2,1472.9,5113.4,1488.3,5113.4,1508.3z"/>
		<path d="M5551.4,1637.8c-5.7,0-12.2-0.2-19.5-0.5c-7.3-0.3-14.9-1-22.8-2c-7.8-1-15.7-2.2-23.5-3.8c-7.8-1.5-15.1-3.6-21.8-6.2
			c-18.3-7-27.5-19.2-27.5-36.5v-233.5c0-7,1.9-12.4,5.8-16.2c3.8-3.8,9.1-6.9,15.8-9.2c14.3-4.7,29.5-7.8,45.5-9.2s30.3-2.2,43-2.2
			c26,0,49.6,3.2,70.8,9.5c21.2,6.3,39.3,16.1,54.5,29.2c15.2,13.2,26.9,29.8,35.2,49.8c8.3,20,12.5,43.7,12.5,71
			c0,26.7-4,49.9-12,69.8c-8,19.8-19.4,36.5-34.2,50c-14.8,13.5-32.6,23.6-53.2,30.2C5599.2,1634.4,5576.4,1637.8,5551.4,1637.8z
			 M5523.4,1564.8c3.7,0.7,8.2,1.2,13.5,1.8c5.3,0.5,10.3,0.8,15,0.8c11.3,0,21.8-1.7,31.2-5c9.5-3.3,17.7-8.5,24.5-15.5
			c6.8-7,12.2-16.1,16-27.2c3.8-11.2,5.8-24.6,5.8-40.2c0-30-7-52.6-21-67.8c-14-15.2-32.7-22.8-56-22.8c-4.7,0-9.4,0.2-14.2,0.5
			c-4.8,0.3-9.8,0.8-14.8,1.5V1564.8z"/>
		<path d="M5891.4,1637.8c-19.7,0-37.9-2.8-54.8-8.2c-16.8-5.5-31.5-13.8-44-24.8s-22.3-24.8-29.5-41.5
			c-7.2-16.7-10.8-36.2-10.8-58.5c0-22,3.6-40.9,10.8-56.8c7.2-15.8,16.6-28.8,28.2-39c11.7-10.2,25-17.7,40-22.5
			c15-4.8,30.3-7.2,46-7.2c17.7,0,33.8,2.7,48.2,8c14.5,5.3,27,12.7,37.5,22c10.5,9.3,18.7,20.5,24.5,33.5c5.8,13,8.8,27.2,8.8,42.5
			c0,11.3-3.2,20-9.5,26c-6.3,6-15.2,9.8-26.5,11.5l-123.5,18.5c3.7,11,11.2,19.2,22.5,24.8c11.3,5.5,24.3,8.2,39,8.2
			c13.7,0,26.6-1.8,38.8-5.2c12.2-3.5,22.1-7.6,29.8-12.2c5.3,3.3,9.8,8,13.5,14c3.7,6,5.5,12.3,5.5,19c0,15-7,26.2-21,33.5
			c-10.7,5.7-22.7,9.5-36,11.5C5915.5,1636.8,5903,1637.8,5891.4,1637.8z M5877.4,1441.3c-8,0-14.9,1.3-20.8,4
			c-5.8,2.7-10.6,6.1-14.2,10.2c-3.7,4.2-6.4,8.8-8.2,14c-1.8,5.2-2.9,10.4-3.2,15.8l85.5-14c-1-6.7-4.7-13.3-11-20
			C5899,1444.6,5889.7,1441.3,5877.4,1441.3z"/>
		<path d="M6148.9,1379.3c20,0,38.6,2.6,55.8,7.8c17.2,5.2,31.9,13.1,44.2,23.8c12.3,10.7,22,24.1,29,40.2
			c7,16.2,10.5,35.4,10.5,57.8c0,21.3-3,40-9,56s-14.5,29.4-25.5,40.2c-11,10.8-24.2,18.9-39.8,24.2s-32.8,8-51.8,8
			c-14.3,0-27.7-2.2-40-6.5v83c-3.3,1-8.7,2.1-16,3.2c-7.3,1.2-14.8,1.8-22.5,1.8c-7.3,0-13.9-0.5-19.8-1.5c-5.8-1-10.8-3-14.8-6
			s-7-7.1-9-12.2c-2-5.2-3-11.9-3-20.2v-240c0-9,1.9-16.3,5.8-22c3.8-5.7,9.1-10.8,15.8-15.5c10.3-6.7,23.2-12,38.5-16
			C6112.7,1381.3,6129.9,1379.3,6148.9,1379.3z M6149.9,1570.3c34.3,0,51.5-20.5,51.5-61.5c0-21.3-4.2-37.2-12.8-47.5
			c-8.5-10.3-20.8-15.5-36.8-15.5c-6.3,0-12,0.8-17,2.2s-9.3,3.2-13,5.2v110c4,2,8.3,3.7,13,5
			C6139.5,1569.6,6144.5,1570.3,6149.9,1570.3z"/>
		<path d="M6416.4,1629.3c-3.7,0.7-9.1,1.6-16.2,2.8c-7.2,1.2-14.4,1.8-21.8,1.8c-7.3,0-13.9-0.5-19.8-1.5c-5.8-1-10.8-3-14.8-6
			s-7.1-7.1-9.2-12.2c-2.2-5.2-3.2-11.9-3.2-20.2v-290c3.7-0.7,9.1-1.6,16.2-2.8c7.2-1.2,14.4-1.8,21.8-1.8c7.3,0,13.9,0.5,19.8,1.5
			c5.8,1,10.8,3,14.8,6s7.1,7.1,9.2,12.2c2.2,5.2,3.2,11.9,3.2,20.2V1629.3z"/>
		<path d="M6721.4,1508.3c0,20.7-3.2,39.1-9.5,55.2c-6.3,16.2-15.2,29.8-26.8,40.8s-25.2,19.3-41.2,25s-33.8,8.5-53.5,8.5
			c-19.7,0-37.5-3-53.5-9s-29.8-14.6-41.2-25.8c-11.5-11.2-20.4-24.8-26.8-40.8c-6.3-16-9.5-34-9.5-54c0-19.7,3.2-37.5,9.5-53.5
			c6.3-16,15.2-29.6,26.8-40.8c11.5-11.2,25.2-19.8,41.2-25.8s33.8-9,53.5-9c19.7,0,37.5,3.1,53.5,9.2c16,6.2,29.8,14.8,41.2,26
			c11.5,11.2,20.4,24.8,26.8,40.8C6718.2,1471.3,6721.4,1488.9,6721.4,1508.3z M6546.4,1508.3c0,20.3,3.9,35.9,11.8,46.8
			c7.8,10.8,18.8,16.2,32.8,16.2s24.8-5.5,32.2-16.5s11.2-26.5,11.2-46.5s-3.8-35.4-11.5-46.2c-7.7-10.8-18.5-16.2-32.5-16.2
			s-24.8,5.4-32.5,16.2C6550.2,1472.9,6546.4,1488.3,6546.4,1508.3z"/>
		<path d="M6794.4,1567.8c-3.7-8.3-7.6-17.7-11.8-28c-4.2-10.3-8.5-22.2-13-35.5c-4.5-13.3-9.2-28.6-14-45.8
			c-4.8-17.2-9.9-36.9-15.2-59.2c4.7-4.7,10.9-8.8,18.8-12.2c7.8-3.5,16.4-5.2,25.8-5.2c11.7,0,21.3,2.4,29,7.2
			c7.7,4.8,13.3,13.9,17,27.2l39.5,137.5h2c4-11.3,7.9-23.7,11.8-37c3.8-13.3,7.6-27.1,11.2-41.2c3.7-14.2,7.1-28.3,10.2-42.5
			c3.2-14.2,5.9-28.1,8.2-41.8c12-6.3,25.2-9.5,39.5-9.5c11.7,0,21.3,2.5,29,7.5c7.7,5,11.5,13.7,11.5,26c0,9-1.2,19.4-3.5,31.2
			c-2.3,11.8-5.4,24.4-9.2,37.8c-3.8,13.3-8.3,27.1-13.5,41.2c-5.2,14.2-10.6,28.1-16.2,41.8c-5.7,13.7-11.5,26.6-17.5,38.8
			c-6,12.2-11.8,23.1-17.5,32.8c-9.3,16.3-18,29.7-26,40c-8,10.3-15.7,18.4-23,24.2c-7.3,5.8-14.7,9.8-22,12c-7.3,2.2-15,3.2-23,3.2
			c-14,0-25.3-4.2-34-12.5c-8.7-8.3-13.8-19.2-15.5-32.5c10.7-8.3,21.3-17.6,32-27.8c10.7-10.2,20.3-20.6,29-31.2
			c-5.7-1.7-11.8-5.6-18.2-11.8C6809.1,1596.4,6802,1584.8,6794.4,1567.8z"/>
		<path d="M7144.9,1379.3c13.7,0,27.1,1.9,40.2,5.8c13.2,3.8,24.6,9.6,34.2,17.2c10-6.7,21.2-12.2,33.8-16.5
			c12.5-4.3,27.6-6.5,45.2-6.5c12.7,0,25.1,1.7,37.2,5c12.2,3.3,23,8.6,32.5,15.8c9.5,7.2,17.1,16.7,22.8,28.5
			c5.7,11.8,8.5,26.2,8.5,43.2v157.5c-3.3,1-8.6,2-15.8,3c-7.2,1-14.6,1.5-22.2,1.5c-7.3,0-13.9-0.5-19.8-1.5c-5.8-1-10.8-3-14.8-6
			s-7.1-7.1-9.2-12.2c-2.2-5.2-3.2-11.9-3.2-20.2v-119.5c0-10-2.8-17.2-8.5-21.8c-5.7-4.5-13.3-6.8-23-6.8c-4.7,0-9.7,1.1-15,3.2
			c-5.3,2.2-9.3,4.4-12,6.8c0.3,1.3,0.5,2.6,0.5,3.8c0,1.2,0,2.2,0,3.2v166.5c-3.7,1-9.1,2-16.2,3c-7.2,1-14.4,1.5-21.8,1.5
			c-7.3,0-13.9-0.5-19.8-1.5c-5.8-1-10.8-3-14.8-6s-7.1-7.1-9.2-12.2c-2.2-5.2-3.2-11.9-3.2-20.2v-119.5c0-10-3.1-17.2-9.2-21.8
			c-6.2-4.5-13.6-6.8-22.2-6.8c-6,0-11.2,0.9-15.5,2.8c-4.3,1.8-8,3.6-11,5.2v175.5c-3.3,1-8.6,2-15.8,3c-7.2,1-14.6,1.5-22.2,1.5
			c-7.3,0-13.9-0.5-19.8-1.5c-5.8-1-10.8-3-14.8-6s-7.1-7.1-9.2-12.2c-2.2-5.2-3.2-11.9-3.2-20.2v-151c0-9,1.9-16.2,5.8-21.5
			c3.8-5.3,9.1-10.3,15.8-15c11.3-8,25.4-14.5,42.2-19.5C7109,1381.8,7126.5,1379.3,7144.9,1379.3z"/>
		<path d="M7579.9,1637.8c-19.7,0-37.9-2.8-54.8-8.2c-16.8-5.5-31.5-13.8-44-24.8s-22.3-24.8-29.5-41.5
			c-7.2-16.7-10.8-36.2-10.8-58.5c0-22,3.6-40.9,10.8-56.8c7.2-15.8,16.6-28.8,28.2-39c11.7-10.2,25-17.7,40-22.5
			c15-4.8,30.3-7.2,46-7.2c17.7,0,33.8,2.7,48.2,8c14.5,5.3,27,12.7,37.5,22c10.5,9.3,18.7,20.5,24.5,33.5c5.8,13,8.8,27.2,8.8,42.5
			c0,11.3-3.2,20-9.5,26c-6.3,6-15.2,9.8-26.5,11.5l-123.5,18.5c3.7,11,11.2,19.2,22.5,24.8c11.3,5.5,24.3,8.2,39,8.2
			c13.7,0,26.6-1.8,38.8-5.2c12.2-3.5,22.1-7.6,29.8-12.2c5.3,3.3,9.8,8,13.5,14c3.7,6,5.5,12.3,5.5,19c0,15-7,26.2-21,33.5
			c-10.7,5.7-22.7,9.5-36,11.5C7604,1636.8,7591.5,1637.8,7579.9,1637.8z M7565.9,1441.3c-8,0-14.9,1.3-20.8,4
			c-5.8,2.7-10.6,6.1-14.2,10.2c-3.7,4.2-6.4,8.8-8.2,14c-1.8,5.2-2.9,10.4-3.2,15.8l85.5-14c-1-6.7-4.7-13.3-11-20
			C7587.5,1444.6,7578.2,1441.3,7565.9,1441.3z"/>
		<path d="M7879.9,1475.8c0-10.3-2.9-17.9-8.8-22.8c-5.8-4.8-13.8-7.2-23.8-7.2c-6.7,0-13.2,0.8-19.8,2.5
			c-6.5,1.7-12.1,4.2-16.8,7.5v173.5c-3.3,1-8.6,2-15.8,3c-7.2,1-14.6,1.5-22.2,1.5c-7.3,0-13.9-0.5-19.8-1.5c-5.8-1-10.8-3-14.8-6
			s-7.1-7.1-9.2-12.2c-2.2-5.2-3.2-11.9-3.2-20.2v-150c0-9,1.9-16.3,5.8-22c3.8-5.7,9.1-10.8,15.8-15.5c11.3-8,25.6-14.5,42.8-19.5
			c17.2-5,36.2-7.5,57.2-7.5c37.7,0,66.7,8.2,87,24.8c20.3,16.5,30.5,39.4,30.5,68.8v156.5c-3.3,1-8.6,2-15.8,3
			c-7.2,1-14.6,1.5-22.2,1.5c-7.3,0-13.9-0.5-19.8-1.5c-5.8-1-10.8-3-14.8-6s-7.1-7.1-9.2-12.2c-2.2-5.2-3.2-11.9-3.2-20.2V1475.8z"
			/>
		<path d="M8102.4,1546.3c0,8.7,2.8,14.8,8.2,18.5c5.5,3.7,13.2,5.5,23.2,5.5c5,0,10.2-0.4,15.5-1.2c5.3-0.8,10-1.9,14-3.2
			c3,3.7,5.6,7.8,7.8,12.2c2.2,4.5,3.2,9.9,3.2,16.2c0,12.7-4.8,23-14.2,31s-26.2,12-50.2,12c-29.3,0-51.9-6.7-67.8-20
			c-15.8-13.3-23.8-35-23.8-65v-214c3.7-1,8.9-2.1,15.8-3.2c6.8-1.2,14.1-1.8,21.8-1.8c14.7,0,26.1,2.6,34.2,7.8
			c8.2,5.2,12.2,16.1,12.2,32.8v32h65.5c2,3.7,3.9,8.2,5.8,13.8c1.8,5.5,2.8,11.6,2.8,18.2c0,11.7-2.6,20.1-7.8,25.2
			c-5.2,5.2-12.1,7.8-20.8,7.8h-45.5V1546.3z"/>
	</g>
</g>
<g id="Layer_3">
	<g transform="translate(0.000000,3180.000000) scale(0.100000,-0.100000)">
		<path class="st7" d="M10492.7,31487.9c-1316-94-2559-550-3880-1425c-852-564-1511-1164-2008-1830c-326-436-602-929-737-1317
			c-101-288-145-528-152-829c-10-390,41-690,179-1059c100-267,178-417,480-913c109-180,201-333,204-340c4-11-87-12-469-9
			c-577,6-766-8-1067-75c-243-54-405-110-625-218c-400-196-734-490-1035-909c-201-281-448-759-625-1211c-369-942-538-2049-497-3258
			c34-994,156-1738,406-2473c188-552,481-1131,765-1512c113-151,149-192,289-335c401-407,892-660,1482-762c239-42,337-48,877-54
			l533-6l-303-505c-299-500-392-669-460-845c-41-107-90-299-113-445c-22-143-30-514-15-666c60-591,302-1141,814-1849
			c237-326,475-602,789-910c615-606,1316-1104,2256-1600c813-429,1563-687,2352-809c529-82,1089-95,1490-36
			c797,117,1442,536,1916,1245c44,66,246,397,448,735c203,338,372,619,376,623c4,5,188-292,409-660c489-814,568-927,816-1177
			c449-453,974-702,1645-782c176-22,642-24,880-5c1151,91,2197,458,3454,1209c930,556,1704,1224,2282,1967
			c554,712,842,1287,946,1890c20,115,23,165,23,425c0,279-2,304-28,453c-34,192-71,319-138,474c-70,166-149,307-459,819l-271,449
			l548,6c552,6,649,12,878,50c611,103,1149,392,1548,834c511,566,967,1527,1182,2494c85,386,138,751,170,1176
			c132,1781-114,3222-771,4525c-195,388-385,666-628,918c-368,382-885,670-1351,752c-191,34-335,40-946,40c-328,0-598,2-601,5
			c-3,4,94,169,215,368c306,502,426,741,521,1035c94,290,126,482,133,785c9,370-32,629-152,977c-152,436-487,1011-859,1475
			c-232,290-643,712-930,955c-701,597-1601,1164-2416,1525c-753,334-1461,522-2260,602c-251,25-803,25-985-1
			c-770-106-1348-429-1820-1018c-156-195-233-315-650-1026c-208-354-381-640-385-635c-4,4-182,305-395,668s-415,700-449,749
			c-308,452-644,761-1056,975c-288,149-576,237-940,287C11185.7,31492.9,10680.7,31500.9,10492.7,31487.9z M11234.7,30673.9
			c345-42,618-138,868-303c144-97,361-307,479-468c87-119,1138-1862,1133-1879c-6-17-1092-1824-1712-2846
			c-315-520-639-1053-719-1186l-146-241l-1390-6c-764-4-2023-4-2797,0c-1268,6-1409,8-1421,22c-35,41-829,1360-882,1466
			c-66,130-123,290-152,425c-26,120-26,420,0,540c37,171,149,485,261,727c222,485,609,1023,1059,1475c546,550,1178,1001,2037,1454
			c1001,527,1752,770,2585,833C10608.7,30699.9,11081.7,30691.9,11234.7,30673.9z M18052.7,30672.9c790-85,1494-324,2443-826
			c1154-611,1973-1273,2573-2082c337-453,552-861,707-1342c76-235,82-274,82-500c0-184-2-209-27-307c-33-131-86-275-143-389
			c-50-98-859-1436-884-1460c-14-14-279-15-2813-11l-2797,4l-362,597c-1453,2392-2212,3659-2206,3681c10,40,1055,1766,1130,1867
			c102,137,324,358,447,445c52,37,154,97,225,132c250,124,485,180,880,210C17419.7,30700.9,17915.7,30687.9,18052.7,30672.9z
			 M15012.7,25882.9c453-753,926-1539,1051-1746l226-376l-2120-7c-1166-3-2121-5-2123-3s113,197,255,433
			c1128,1874,1748,2905,1801,2992c51,84,65,101,75,90C14183.7,27258.9,14559.7,26636.9,15012.7,25882.9z M5522.7,22225.9
			c1276-2100,2343-3864,2343-3873c0-5-19-41-43-80c-55-89-1906-3156-2360-3910c-188-313-350-578-358-587c-14-17-66-18-822-18
			c-478,0-850,4-911,10c-443,44-765,206-1036,523c-267,310-451,584-616,914c-598,1194-781,2583-577,4383c108,947,379,1725,848,2433
			c380,574,800,860,1387,941c164,23,136,23,936,24l746,2L5522.7,22225.9z M10659.7,22973.9c2-1-223-376-500-832
			c-276-456-799-1321-1162-1922c-362-600-662-1092-665-1092c-3,1-233,380-512,843s-801,1329-1161,1924s-653,1084-652,1085
			C6011.7,22983.9,10655.7,22977.9,10659.7,22973.9z M17288.7,22102.9c289-478,914-1514,1390-2301c475-787,864-1434,864-1437
			c0-5-1364-2268-2243-3719l-532-878h-2600h-2600l-404,668c-438,723-1890,3127-2189,3624l-184,306l814,1349
			c448,741,1075,1779,1392,2306l578,957l2595-2l2595-3L17288.7,22102.9z M22160.7,22695.9c-350-578-1600-2648-1872-3100
			c-154-257-283-467-286-468c-3,0-322,525-710,1167c-388,643-906,1500-1153,1907c-246,406-452,747-458,757c-9,19,41,19,2320,19h2330
			L22160.7,22695.9z M25115.7,22954.9c357-74,586-194,814-428c85-88,255-300,373-465c387-543,663-1229,819-2035
			c135-703,192-1649,141-2349c-69-939-284-1752-666-2520c-216-434-357-645-578-865c-156-155-275-242-451-330
			c-227-113-476-180-767-204c-84-7-366-9-842-4c-636,6-717,8-729,22c-8,9-294,482-637,1051s-956,1586-1363,2260s-744,1236-750,1250
			c-10,27-25,1,1725,2885c344,567,723,1193,844,1392l219,363l885-3C24919.7,22971.9,25047.7,22968.9,25115.7,22954.9z
			 M8977.7,16522.9c1398-2315,1657-2746,1653-2751c-3-2-1043-3-2311-2l-2306,3l910,1505c501,828,1021,1688,1156,1912
			c212,350,248,405,258,390C8344.7,17570.9,8632.7,17094.9,8977.7,16522.9z M20923.7,16087.9c496-822,1015-1679,1151-1905l248-410
			l-2307-3c-1268-1-2308,0-2311,2c-3,4,594,997,1909,3173c217,359,397,649,400,645S20426.7,16909.9,20923.7,16087.9z
			 M11130.7,12950.9c21-30,881-1458,1932-3209l638-1061l-158-264c-86-145-308-518-492-829s-358-600-387-643
			c-139-206-344-422-522-550c-246-176-568-291-918-328c-146-15-608-6-816,16c-1297,137-2486,637-3745,1576
			c-742,553-1276,1112-1657,1732c-205,336-445,910-499,1197c-24,129-24,362,0,485c27,136,90,319,154,446c42,84,831,1405,860,1439
			c2,3,999,7,2215,10c1217,3,2474,6,2794,8l582,2L11130.7,12950.9z M16282.7,12972.9c0-3-201-337-447-743
			c-434-717-926-1532-1416-2347c-132-220-243-404-247-408s-33,36-65,90c-134,224-1065,1768-1542,2556c-282,467-513,850-513,853
			c0,2,952,4,2115,4S16282.7,12975.9,16282.7,12972.9z M22797.7,12961.9c25-5,819-1317,894-1475c60-128,104-256,133-392
			c31-143,31-388,0-533c-36-169-158-503-282-774c-155-337-391-697-697-1060c-131-155-484-507-663-661c-688-592-1509-1120-2250-1447
			c-866-382-1770-576-2604-559c-198,4-277,9-376,27c-298,53-551,158-782,325c-108,78-325,295-414,415c-100,134-128,178-439,705
			c-153,259-368,621-478,805c-176,296-198,338-190,360c8,21,596,1001,2411,4015c79,132,148,245,153,251c7,9,738,10,2787,7
			C21527.7,12968.9,22786.7,12964.9,22797.7,12961.9z"/>
		<path class="st7" d="M12847.7,20151.9c-228-49-412-233-460-459c-22-105-22-2535,0-2640c50-239,245-426,488-469l37-7v1461v1461
			l778-4c679-3,788-6,862-21c404-80,656-250,792-535c62-130,89-249,95-426c9-245-21-405-112-590c-84-172-203-300-364-390
			c-50-28-69-44-65-55c16-44,571-890,584-890c33,1,156,51,208,85c111,75,186,170,238,305l29,75l3,1285c2,1149,1,1293-13,1358
			c-46,204-201,375-405,445l-65,22l-1280,2C13093.7,20165.9,12907.7,20164.9,12847.7,20151.9z"/>
		<path class="st7" d="M13592.7,18433.9v-506h365c413,0,470,6,592,66c164,79,247,227,247,439c0,256-117,410-361,477
			c-71,19-111,21-460,26l-383,4V18433.9z"/>
		<path class="st7" d="M13592.7,16967.9v-390h559h559l-216,390l-217,390h-342h-343V16967.9z"/>
		<path class="st7" d="M24582.7,4457.9c-525-95-867-421-956-908c-10-54-18-176-21-319l-6-233h-223h-224v-340v-340h225h225v-1280
			v-1280h485h485v1280v1280l403,2l402,3l3,338l2,337h-405h-405v148c0,181,12,259,50,339c51,105,146,166,287,186
			c128,19,298-20,427-98c32-19,61-35,65-34c12,0,343,690,338,703c-8,20-171,100-286,140c-191,67-318,87-556,92
			C24721.7,4476.9,24670.7,4473.9,24582.7,4457.9z"/>
		<path class="st7" d="M14639.7,4197.9c-507-39-989-225-1355-522c-357-290-616-693-731-1141c-44-167-62-302-68-502
			c-22-732,291-1407,858-1845c376-290,843-454,1359-476c627-28,1291,235,1815,718l69,65l-34,40c-19,22-151,166-294,321l-259,281
			l-86-75c-169-147-400-284-596-354c-655-231-1349,32-1652,626c-107,210-142,347-150,594c-9,274,28,455,137,675
			c187,378,531,635,953,712c125,23,363,22,472-1c314-68,637-251,864-490c29-31,56-54,61-51c7,4,521,627,563,683
			c20,26-174,198-365,325C15738.7,4086.9,15169.7,4238.9,14639.7,4197.9z"/>
		<path class="st7" d="M742.7,1962.9v-2205h500h500v630v630h508l507-1l349-629l348-630h564c310,0,564,2,564,5s-209,330-465,726
			c-256,397-464,723-463,724c2,1,40,22,86,45c230,122,440,338,561,577c129,257,178,513,168,871c-6,214-24,323-77,484
			c-153,458-510,767-1043,902c-284,72-228,70-1479,73l-1128,4V1962.9z M2996.7,3304.9c300-81,472-261,516-539c16-98,8-321-14-403
			c-31-113-83-204-165-286c-83-82-147-122-259-163c-153-55-192-58-784-63l-548-5v747v746l578-3l577-4L2996.7,3304.9z"/>
		<path class="st7" d="M26009.7,3930.9c-4-3-7-215-7-470v-463h-235h-235v-335v-335h235h235v-822c0-539,4-854,11-913
			c45-368,226-632,534-776c351-165,859-137,1303,71c56,27,102,54,102,60c0,16-192,694-199,701c-3,4-49-11-101-32
			c-157-63-209-74-355-74c-124,0-132,1-177,28c-58,34-92,77-121,153c-22,59-22,62-25,827l-3,767h461h460v340v340h-460h-460v470v470
			h-478C26231.7,3937.9,26012.7,3934.9,26009.7,3930.9z"/>
		<path class="st7" d="M10297.7,3180.9c-407-33-732-121-1138-308c-81-37-150-71-152-75c-4-7,280-646,294-662c4-5,55,16,113,45
			c195,98,379,163,592,209c86,19,132,22,306,22c180,0,215-3,285-22c213-59,345-177,398-359c9-28,19-92,22-142l8-91h-485
			c-619,0-775-12-1001-76c-501-142-770-505-744-1007c15-292,114-517,308-703c194-184,463-286,793-301c424-19,810,111,1052,354l74,73
			v-190v-190h482h481l-6,1167c-7,1244-7,1243-57,1423c-26,93-94,237-150,321c-86,126-249,267-392,340c-240,122-529,181-873,177
			C10414.7,3184.9,10319.7,3182.9,10297.7,3180.9z M11020.7,1049.9l-3-169l-43-86c-117-236-406-387-742-387c-287,0-482,133-521,354
			c-20,120,7,236,74,312s165,115,342,137c17,2,225,5,463,6l434,1L11020.7,1049.9z"/>
		<path class="st7" d="M19073.7,3176.9c-217-28-433-112-592-230c-91-67-226-210-293-310l-56-84v298v297h-490h-490v-1695v-1695h490
			h490v864c0,949,1,960,61,1116c115,299,384,487,760,531c56,6,147,9,201,7l98-5v459v458l-57-1
			C19163.7,3185.9,19108.7,3181.9,19073.7,3176.9z"/>
		<path class="st7" d="M20902.7,3180.9c-365-35-603-91-905-210c-150-59-385-168-385-178c0-9,290-649,299-657c4-5,36,8,73,27
			c181,96,435,188,632,227c149,30,449,33,567,5c279-65,439-253,439-514v-83h-484c-526,0-678-8-862-45c-273-55-481-159-626-314
			c-113-120-173-228-220-401c-20-75-23-106-22-270c0-167,3-195,27-282c91-341,321-586,657-701c159-55,268-71,480-71
			c210,0,317,14,480,61c198,57,344,140,486,276l94,89v-191v-191h481h480l-6,1153c-7,1245-8,1281-62,1451c-57,183-139,320-264,446
			c-207,207-497,329-881,370C21291.7,3186.9,20985.7,3189.9,20902.7,3180.9z M21620.7,1039.9l-3-178l-34-69c-51-104-168-217-286-277
			c-108-55-162-73-279-93c-426-73-726,117-703,446c13,199,140,310,387,339c36,4,258,8,493,9l428,1L21620.7,1039.9z"/>
		<path class="st7" d="M6450.7,3161.9c-299-44-577-154-801-320c-108-79-280-261-355-374c-348-522-390-1307-101-1877
			c218-430,609-720,1116-827c163-34,285-46,470-46c428,0,807,107,1118,314c113,76,296,231,315,267c10,17-17,49-241,279l-252,259
			l-56-50c-126-114-310-216-471-262c-186-54-419-61-584-18c-302,79-521,302-621,629l-6,22h1221h1222l-5,273c-4,213-9,298-25,392
			c-69,397-198,675-418,905c-233,242-533,384-922,435C6912.7,3181.9,6584.7,3180.9,6450.7,3161.9z M6978.7,2437.9
			c132-34,218-83,314-180c69-68,94-102,127-170c48-99,73-185,80-287l6-73h-772h-771l6,28c65,295,197,495,404,615
			c59,34,179,74,260,86C6721.7,2470.9,6885.7,2460.9,6978.7,2437.9z"/>
	</g>
</g>
</svg>
