<?xml version="1.0" encoding="utf-8"?>
<!-- Generator: Adobe Illustrator 26.2.1, SVG Export Plug-In . SVG Version: 6.00 Build 0)  -->
<svg version="1.1" xmlns="http://www.w3.org/2000/svg" xmlns:xlink="http://www.w3.org/1999/xlink" x="0px" y="0px"
	 viewBox="0 0 7893.5 4653.9" style="enable-background:new 0 0 7893.5 4653.9;" xml:space="preserve">
<style type="text/css">
	.st0{display:none;}
	.st1{display:inline;fill:#778DA9;stroke:#878962;stroke-width:0.1;stroke-miterlimit:10;}
	.st2{fill:#343435;stroke:#2D2D2D;stroke-width:20;stroke-miterlimit:10;}
	.st3{display:none;fill:#343435;stroke:#2D2D2D;stroke-width:20;stroke-miterlimit:10;}
	.st4{fill:none;stroke:#2D2D2D;stroke-width:15;stroke-miterlimit:10;}
	.st5{display:inline;}
	.st6{stroke:#878962;stroke-width:0.1;stroke-miterlimit:10;}
</style>
<g id="Layer_2" class="st0">
	<rect y="0" class="st1" width="7893.5" height="4653.9"/>
</g>
<g id="Layer_1">
	<g transform="translate(0.000000,3180.000000) scale(0.100000,-0.100000)">
		
			<image style="overflow:visible;opacity:0.6;" width="3656" height="3453" xlink:href="927A9E39D4B294B0.png"  transform="matrix(10 0 0 -10 10388.7295 27325.7891)">
		</image>
		<g>
			<g>
				<path class="st2" d="M23936.1,26921.1c-1691-120.8-3288.2-706.7-4985.7-1831.1c-1094.8-724.7-1941.6-1495.7-2580.2-2351.5
					c-418.9-560.2-773.5-1193.7-947-1692.3c-129.8-370.1-186.3-678.5-195.3-1065.2c-12.8-501.1,52.7-886.6,230-1360.8
					c128.5-343.1,228.7-535.8,616.8-1173.2c140.1-231.3,258.3-427.9,262.1-436.9c5.1-14.1-111.8-15.4-602.6-11.6
					c-741.4,7.7-984.3-10.3-1371.1-96.4c-312.2-69.4-520.4-141.3-803.1-280.1c-514-251.9-943.2-629.6-1329.9-1168
					c-258.3-361.1-575.7-975.3-803.1-1556.1c-474.2-1210.4-691.3-2632.9-638.6-4186.4c43.7-1277.3,200.5-2233.3,521.7-3177.7
					c241.6-709.3,618.1-1453.3,983-1942.9c145.2-194,191.5-246.7,371.4-430.5c515.3-523,1146.2-848.1,1904.3-979.1
					c307.1-54,433-61.7,1126.9-69.4l684.9-7.7l-389.3-648.9c-384.2-642.5-503.7-859.6-591.1-1085.8
					c-52.7-137.5-115.6-384.2-145.2-571.8c-28.3-183.7-38.5-660.5-19.3-855.8c77.1-759.4,388.1-1466.1,1046-2375.9
					c304.5-418.9,610.4-773.5,1013.8-1169.3c790.3-778.7,1691-1418.6,2898.9-2055.9c1044.7-551.2,2008.4-882.8,3022.2-1039.5
					c679.7-105.4,1399.3-122.1,1914.6-46.3c1024.1,150.3,1852.9,688.7,2462,1599.8c56.5,84.8,316.1,510.1,575.7,944.4
					c260.8,434.3,478,795.4,483.1,800.5c5.1,6.4,241.6-375.2,525.6-848.1c628.3-1046,729.9-1191.2,1048.5-1512.4
					c576.9-582.1,1251.6-902,2113.8-1004.8c226.2-28.3,824.9-30.8,1130.8-6.4c1479,116.9,2823.1,588.5,4438.3,1553.5
					c1195,714.4,2189.6,1572.8,2932.3,2527.5C41553-1776,41923-1037.2,42056.7-262.3c25.7,147.8,29.6,212,29.6,546.1
					c0,358.5-2.6,390.6-36,582.1c-43.7,246.7-91.2,409.9-177.3,609.1c-89.9,213.3-191.5,394.5-589.8,1052.4l-348.2,576.9l704.2,7.7
					c709.3,7.7,833.9,15.4,1128.2,64.2c785.1,132.4,1476.4,503.7,1989.1,1071.7c656.6,727.3,1242.6,1962.1,1518.8,3204.7
					c109.2,496,177.3,965,218.4,1511.1c169.6,2288.5-146.5,4140.2-990.7,5814.5c-250.6,498.6-494.7,855.8-807,1179.6
					c-472.9,490.9-1137.2,860.9-1736,966.3c-245.4,43.7-430.5,51.4-1215.6,51.4c-421.5,0-768.4,2.6-772.3,6.4
					c-3.9,5.1,120.8,217.2,276.3,472.9c393.2,645.1,547.4,952.2,669.5,1329.9c120.8,372.6,161.9,619.4,170.9,1008.7
					c11.6,475.4-41.1,808.2-195.3,1255.4c-195.3,560.2-625.8,1299.1-1103.8,1895.3c-298.1,372.6-826.2,914.9-1195,1227.1
					c-900.8,767.1-2057.2,1495.7-3104.5,1959.6c-967.6,429.2-1877.3,670.8-2904,773.5c-322.5,32.1-1031.8,32.1-1265.7-1.3
					c-989.4-136.2-1732.1-551.2-2338.6-1308.1c-200.5-250.6-299.4-404.8-835.2-1318.4c-267.3-454.9-489.6-822.4-494.7-816
					c-5.1,5.1-233.9,391.9-507.6,858.4c-273.7,466.4-533.3,899.5-576.9,962.4c-395.8,580.8-827.5,977.9-1356.9,1252.8
					c-370.1,191.5-740.1,304.5-1207.9,368.8C24826.6,26927.5,24177.7,26937.8,23936.1,26921.1z M24889.6,25875.1
					c443.3-54,794.1-177.3,1115.3-389.3c185-124.6,463.9-394.5,615.5-601.4c111.8-152.9,1462.3-2392.6,1455.9-2414.4
					c-7.7-21.8-1403.2-2343.8-2199.9-3657c-404.8-668.2-821.1-1353.1-923.9-1524l-187.6-309.7l-1786.1-7.7
					c-981.7-5.1-2599.5-5.1-3594,0c-1629.3,7.7-1810.5,10.3-1825.9,28.3c-45,52.7-1065.2,1747.5-1133.3,1883.8
					c-84.8,167-158.1,372.6-195.3,546.1c-33.4,154.2-33.4,539.7,0,693.9c47.5,219.7,191.5,623.2,335.4,934.2
					c285.3,623.2,782.5,1314.5,1360.8,1895.3c701.6,706.7,1513.7,1286.2,2617.5,1868.3c1286.2,677.2,2251.3,989.4,3321.6,1070.4
					C24085.2,25908.5,24693,25898.2,24889.6,25875.1z M33650.4,25873.8c1015.1-109.2,1919.7-416.3,3139.2-1061.4
					c1482.8-785.1,2535.2-1635.8,3306.2-2675.3c433-582.1,709.3-1106.4,908.5-1724.4c97.7-302,105.4-352.1,105.4-642.5
					c0-236.4-2.6-268.6-34.7-394.5c-42.4-168.3-110.5-353.4-183.8-499.9c-64.2-125.9-1103.8-1845.2-1135.9-1876
					c-18-18-358.5-19.3-3614.6-14.1l-3594,5.1l-465.2,767.1c-1867.1,3073.6-2842.3,4701.7-2834.6,4730
					c12.8,51.4,1355.6,2269.2,1452,2399c131.1,176,416.3,460,574.4,571.8c66.8,47.5,197.9,124.6,289.1,169.6
					c321.2,159.3,623.2,231.3,1130.8,269.8C32837.1,25909.8,33474.4,25893.1,33650.4,25873.8z M29744.1,19718.8
					c582.1-967.6,1189.9-1977.6,1350.5-2243.5l290.4-483.1l-2724.1-9c-1498.3-3.9-2725.4-6.4-2728-3.9s145.2,253.1,327.7,556.4
					c1449.4,2408,2246.1,3732.8,2314.2,3844.6c65.5,107.9,83.5,129.8,96.4,115.6C28678.9,21486.9,29162.1,20687.7,29744.1,19718.8z
					 M17549.8,15019.7c1639.6-2698.4,3010.7-4965.1,3010.7-4976.7c0-6.4-24.4-52.7-55.3-102.8
					c-70.7-114.4-2449.1-4055.3-3032.5-5024.2c-241.6-402.2-449.7-742.7-460-754.3c-18-21.8-84.8-23.1-1056.2-23.1
					c-614.2,0-1092.2,5.1-1170.6,12.8c-569.2,56.5-983,264.7-1331.2,672c-343.1,398.3-579.5,750.4-791.5,1174.5
					c-768.4,1534.2-1003.6,3319.1-741.4,5632c138.8,1216.9,487,2216.6,1089.6,3126.3c488.3,737.6,1028,1105.1,1782.2,1209.2
					c210.7,29.6,174.8,29.6,1202.7,30.8l958.6,2.6L17549.8,15019.7z M24150.7,15980.9c2.6-1.3-286.5-483.1-642.5-1069.1
					c-354.7-585.9-1026.7-1697.4-1493.1-2469.7c-465.2-771-850.6-1403.2-854.5-1403.2c-3.9,1.3-299.4,488.3-657.9,1083.2
					c-358.5,594.9-1029.3,1707.7-1491.8,2472.3c-462.6,764.6-839.1,1392.9-837.8,1394.2
					C18178.2,15993.7,24145.6,15986,24150.7,15980.9z M32668.7,14861.7c371.4-614.2,1174.5-1945.4,1786.1-2956.7
					c610.4-1011.3,1110.2-1842.6,1110.2-1846.5c0-6.4-1752.7-2914.3-2882.2-4778.8l-683.6-1128.2h-3340.9h-3340.9l-519.1,858.4
					c-562.8,929-2428.6,4018.1-2812.8,4656.7l-236.4,393.2l1046,1733.4c575.7,952.2,1381.3,2286,1788.7,2963.1l742.7,1229.7
					l3334.5-2.6l3334.5-3.9L32668.7,14861.7z M38929.1,15623.7c-449.7-742.7-2055.9-3402.6-2405.5-3983.4
					c-197.9-330.2-363.6-600.1-367.5-601.4c-3.9,0-413.8,674.6-912.3,1499.6c-498.6,826.2-1164.2,1927.4-1481.6,2450.4
					c-316.1,521.7-580.8,959.9-588.5,972.7c-11.6,24.4,52.7,24.4,2981.1,24.4h2994L38929.1,15623.7z M42726.1,15956.5
					c458.7-95.1,753-249.3,1046-550c109.2-113.1,327.7-385.5,479.3-597.5c497.3-697.7,851.9-1579.2,1052.4-2614.9
					c173.5-903.3,246.7-2118.9,181.2-3018.4c-88.7-1206.6-364.9-2251.3-855.8-3238.1c-277.6-557.7-458.7-828.8-742.7-1111.5
					c-200.5-199.2-353.4-311-579.5-424c-291.7-145.2-611.6-231.3-985.6-262.1c-107.9-9-470.3-11.6-1081.9-5.1
					c-817.2,7.7-921.3,10.3-936.7,28.3c-10.3,11.6-377.8,619.4-818.5,1350.5c-440.7,731.1-1228.4,2038-1751.4,2904
					s-956,1588.2-963.7,1606.2c-12.9,34.7-32.1,1.3,2216.6,3707.1c442,728.6,929,1533,1084.5,1788.7l281.4,466.4l1137.2-3.9
					C42474.3,15978.3,42638.8,15974.5,42726.1,15956.5z M21989.4,7691.6c1796.4-2974.7,2129.2-3528.5,2124-3534.9
					c-3.9-2.6-1340.2-3.9-2969.6-2.6l-2963.1,3.9l1169.3,1933.9c643.8,1063.9,1311.9,2169,1485.4,2456.9
					c272.4,449.7,318.7,520.4,331.5,501.1C21176,9038.2,21546.1,8426.6,21989.4,7691.6z M37339.6,7132.6
					c637.3-1056.2,1304.2-2157.5,1479-2447.9l318.7-526.8l-2964.4-3.9c-1629.3-1.3-2965.7,0-2969.6,2.6
					c-3.9,5.1,763.3,1281.1,2453,4077.2c278.8,461.3,510.1,833.9,514,828.8S36700.9,8188.9,37339.6,7132.6z M24755.9,3101.7
					c27-38.5,1132.1-1873.5,2482.6-4123.4l819.8-1363.3l-203-339.2c-110.5-186.3-395.8-665.6-632.2-1065.2s-460-771-497.3-826.2
					c-178.6-264.7-442-542.3-670.8-706.7c-316.1-226.2-729.9-373.9-1179.6-421.5c-187.6-19.3-781.3-7.7-1048.5,20.6
					c-1666.6,176-3194.4,818.5-4812.2,2025.1c-953.4,710.6-1639.6,1428.9-2129.2,2225.6c-263.4,431.7-571.8,1169.3-641.2,1538.1
					c-30.8,165.8-30.8,465.2,0,623.2c34.7,174.8,115.6,409.9,197.9,573.1c54,107.9,1067.8,1805.4,1105.1,1849.1
					c2.6,3.9,1283.7,9,2846.2,12.8c1563.8,3.9,3179,7.7,3590.2,10.3l747.8,2.6L24755.9,3101.7z M31376,3130
					c0-3.9-258.3-433-574.4-954.7c-557.7-921.3-1189.9-1968.6-1819.5-3015.8c-169.6-282.7-312.2-519.1-317.4-524.3
					c-5.1-5.1-42.4,46.3-83.5,115.6c-172.2,287.8-1368.5,2271.8-1981.4,3284.4c-362.4,600.1-659.2,1092.2-659.2,1096.1
					c0,2.6,1223.3,5.1,2717.7,5.1C30152.8,3136.4,31376,3133.8,31376,3130z M39747.6,3115.8c32.1-6.4,1052.4-1692.3,1148.8-1895.3
					c77.1-164.5,133.6-329,170.9-503.7c39.8-183.7,39.8-498.6,0-684.9c-46.3-217.2-203-646.3-362.4-994.6
					c-199.2-433-502.4-895.6-895.6-1362.1c-168.3-199.2-621.9-651.5-851.9-849.4c-884.1-760.7-1939-1439.2-2891.2-1859.3
					c-1112.8-490.9-2274.4-740.1-3346-718.3c-254.4,5.1-355.9,11.6-483.1,34.7c-382.9,68.1-708,203-1004.8,417.6
					c-138.8,100.2-417.6,379.1-532,533.3c-128.5,172.2-164.5,228.7-564.1,905.9c-196.6,332.8-472.9,798-614.2,1034.4
					c-226.2,380.3-254.4,434.3-244.1,462.6c10.3,27,765.8,1286.2,3098,5159.1c101.5,169.6,190.2,314.8,196.6,322.5
					c9,11.6,948.3,12.8,3581.2,9C38115.7,3124.8,39733.4,3119.7,39747.6,3115.8z M28076.3,22469.9l575.7,990.7"/>
				<path class="st3" d="M26962.2,12354.7c-293-63-529.4-299.4-591.1-589.8c-28.3-134.9-28.3-3257.4,0-3392.3
					c64.2-307.1,314.8-547.4,627.1-602.6l47.5-9v1877.3v1877.3l999.7-5.1c872.5-3.9,1012.6-7.7,1107.6-27
					c519.1-102.8,842.9-321.2,1017.7-687.5c79.7-167,114.4-320,122.1-547.4c11.6-314.8-27-520.4-143.9-758.1
					c-107.9-221-260.8-385.5-467.7-501.1c-64.2-36-88.7-56.5-83.5-70.7c20.6-56.5,733.7-1143.6,750.4-1143.6
					c42.4,1.3,200.5,65.5,267.3,109.2c142.6,96.4,239,218.4,305.8,391.9l37.3,96.4l3.9,1651.2c2.6,1476.4,1.3,1661.5-16.7,1745
					c-59.1,262.1-258.3,481.9-520.4,571.8l-83.5,28.3l-1644.8,2.6C27278.3,12372.7,27039.3,12371.4,26962.2,12354.7z"/>
				<path class="st3" d="M27919.5,10147.1V9497h469c530.7,0,603.9,7.7,760.7,84.8c210.7,101.5,317.4,291.7,317.4,564.1
					c0,329-150.3,526.8-463.9,612.9c-91.2,24.4-142.6,27-591.1,33.4l-492.1,5.1V10147.1z"/>
				<path class="st3" d="M27919.5,8263.4v-501.1h718.3h718.3l-277.6,501.1l-278.8,501.1h-439.5h-440.7V8263.4z"/>
				<line class="st2" x1="24764.9" y1="16979.3" x2="25932.9" y2="16979.3"/>
				<g>
					<line class="st2" x1="29246.9" y1="22487.9" x2="28671.2" y2="21495.9"/>
					<line class="st2" x1="39755.3" y1="16999.9" x2="40972.2" y2="16999.9"/>
					<line class="st2" x1="39148.8" y1="15986" x2="40351.5" y2="15986"/>
					<line class="st2" x1="16336.8" y1="17010.1" x2="16954.9" y2="15998.9"/>
					<line class="st2" x1="17558.8" y1="16999.9" x2="18173" y2="15988.6"/>
					<line class="st2" x1="24150.7" y1="15980.9" x2="25326.4" y2="15980.9"/>
					<line class="st2" x1="31385" y1="16992.1" x2="31995.4" y2="15979.6"/>
					<line class="st2" x1="32546.6" y1="16990.9" x2="33173.7" y2="15961.6"/>
				</g>
			</g>
		</g>
	</g>
	<line class="st2" x1="3615.6" y1="2076.1" x2="3556.5" y2="2174.2"/>
	<line class="st2" x1="3676.9" y1="2177.6" x2="3617" y2="2273.7"/>
	<line class="st2" x1="3913.7" y1="2764.2" x2="3974.8" y2="2868.4"/>
	<line class="st2" x1="4030.3" y1="2763.7" x2="4093.5" y2="2869.6"/>
	<line class="st2" x1="3199.9" y1="2764.8" x2="3320.3" y2="2764.3"/>
	<line class="st2" x1="3137.6" y1="2867" x2="3257.2" y2="2868.2"/>
	<line class="st2" x1="2927.8" y1="3416.3" x2="2865.2" y2="3520"/>
	<line class="st2" x1="2866.5" y1="3316.5" x2="2805.8" y2="3418.5"/>
	<line class="st2" x1="2531.7" y1="2764.8" x2="2594.1" y2="2866.9"/>
	<line class="st2" x1="2411.3" y1="2764.3" x2="2475.6" y2="2869.8"/>
	<line class="st2" x1="1818.1" y1="2764.2" x2="1701.3" y2="2763.8"/>
	<line class="st2" x1="1754.7" y1="2868.9" x2="1638.1" y2="2869.6"/>
	<line class="st2" x1="2050.5" y1="2186" x2="2116.1" y2="2076.1"/>
	<line class="st2" x1="2116.7" y1="2275" x2="2174.9" y2="2174"/>
</g>
<g id="Layer_5">
	<g>
		
			<image style="overflow:visible;opacity:0.7;" width="682" height="742" xlink:href="927A9E39D4B294B3.png"  transform="matrix(1 0 0 1 2561.873 1823.421)">
		</image>
		<g>
			<g>
				<path class="st4" d="M3005.4,2529.2L2846.5,2320h-91.1v209.2h-166.6v-678.1h294.5c187.9,0,301.3,87.2,301.3,235.4
					c0,105.6-57.2,179.2-157.9,213.1l172.4,229.6H3005.4z M2755.5,1989.6v196.7h123c88.2,0,139.5-27.1,139.5-96.9
					c0-67.8-51.3-99.8-139.5-99.8H2755.5z"/>
			</g>
		</g>
	</g>
</g>
<g id="Layer_3" class="st0">
	<g transform="translate(0.000000,3180.000000) scale(0.100000,-0.100000)" class="st5">
		<path class="st6" d="M27838,27689.9c-1316-94-2559-550-3880-1425c-852-564-1511-1164-2008-1830c-326-436-602-929-737-1317
			c-101-288-145-528-152-829c-10-390,41-690,179-1059c100-267,178-417,480-913c109-180,201-333,204-340c4-11-87-12-469-9
			c-577,6-766-8-1067-75c-243-54-405-110-625-218c-400-196-734-490-1035-909c-201-281-448-759-625-1211c-369-942-538-2049-497-3258
			c34-994,156-1738,406-2473c188-552,481-1131,765-1512c113-151,149-192,289-335c401-407,892-660,1482-762c239-42,337-48,877-54
			l533-6l-303-505c-299-500-392-669-460-845c-41-107-90-299-113-445c-22-143-30-514-15-666c60-591,302-1141,814-1849
			c237-326,475-602,789-910c615-606,1316-1104,2256-1600c813-429,1563-687,2352-809c529-82,1089-95,1490-36
			c797,117,1442,536,1916,1245c44,66,246,397,448,735c203,338,372,619,376,623c4,5,188-292,409-660c489-814,568-927,816-1177
			c449-453,974-702,1645-782c176-22,642-24,880-5c1151,91,2197,458,3454,1209c930,556,1704,1224,2282,1967
			c554,712,842,1287,946,1890c20,115,23,165,23,425c0,279-2,304-28,453c-34,192-71,319-138,474c-70,166-149,307-459,819l-271,449
			l548,6c552,6,649,12,878,50c611,103,1149,392,1548,834c511,566,967,1527,1182,2494c85,386,138,751,170,1176
			c132,1781-114,3222-771,4525c-195,388-385,666-628,918c-368,382-885,670-1351,752c-191,34-335,40-946,40c-328,0-598,2-601,5
			c-3,4,94,169,215,368c306,502,426,741,521,1035c94,290,126,482,133,785c9,370-32,629-152,977c-152,436-487,1011-859,1475
			c-232,290-643,712-930,955c-701,597-1601,1164-2416,1525c-753,334-1461,522-2260,602c-251,25-803,25-985-1
			c-770-106-1348-429-1820-1018c-156-195-233-315-650-1026c-208-354-381-640-385-635c-4,4-182,305-395,668s-415,700-449,749
			c-308,452-644,761-1056,975c-288,149-576,237-940,287C28531,27694.9,28026,27702.9,27838,27689.9z M28580,26875.9
			c345-42,618-138,868-303c144-97,361-307,479-468c87-119,1138-1862,1133-1879c-6-17-1092-1824-1712-2846
			c-315-520-639-1053-719-1186l-146-241l-1390-6c-764-4-2023-4-2797,0c-1268,6-1409,8-1421,22c-35,41-829,1360-882,1466
			c-66,130-123,290-152,425c-26,120-26,420,0,540c37,171,149,485,261,727c222,485,609,1023,1059,1475c546,550,1178,1001,2037,1454
			c1001,527,1752,770,2585,833C27954,26901.9,28427,26893.9,28580,26875.9z M35398,26874.9c790-85,1494-324,2443-826
			c1154-611,1973-1273,2573-2082c337-453,552-861,707-1342c76-235,82-274,82-500c0-184-2-209-27-307c-33-131-86-275-143-389
			c-50-98-859-1436-884-1460c-14-14-279-15-2813-11l-2797,4l-362,597c-1453,2392-2212,3659-2206,3681c10,40,1055,1766,1130,1867
			c102,137,324,358,447,445c52,37,154,97,225,132c250,124,485,180,880,210C34765,26902.9,35261,26889.9,35398,26874.9z
			 M32358,22084.9c453-753,926-1539,1051-1746l226-376l-2120-7c-1166-3-2121-5-2123-3s113,197,255,433
			c1128,1874,1748,2905,1801,2992c51,84,65,101,75,90C31529,23460.9,31905,22838.9,32358,22084.9z M22868,18427.9
			c1276-2100,2343-3864,2343-3873c0-5-19-41-43-80c-55-89-1906-3156-2360-3910c-188-313-350-578-358-587c-14-17-66-18-822-18
			c-478,0-850,4-911,10c-443,44-765,206-1036,523c-267,310-451,584-616,914c-598,1194-781,2583-577,4383c108,947,379,1725,848,2433
			c380,574,800,860,1387,941c164,23,136,23,936,24l746,2L22868,18427.9z M28005,19175.9c2-1-223-376-500-832
			c-276-456-799-1321-1162-1922c-362-600-662-1092-665-1092c-3,1-233,380-512,843c-279,463-801,1329-1161,1924s-653,1084-652,1085
			C23357,19185.9,28001,19179.9,28005,19175.9z M34634,18304.9c289-478,914-1514,1390-2301c475-787,864-1434,864-1437
			c0-5-1364-2268-2243-3719l-532-878h-2600h-2600l-404,668c-438,723-1890,3127-2189,3624l-184,306l814,1349
			c448,741,1075,1779,1392,2306l578,957l2595-2l2595-3L34634,18304.9z M39506,18897.9c-350-578-1600-2648-1872-3100
			c-154-257-283-467-286-468c-3,0-322,525-710,1167c-388,643-906,1500-1153,1907c-246,406-452,747-458,757c-9,19,41,19,2320,19h2330
			L39506,18897.9z M42461,19156.9c357-74,586-194,814-428c85-88,255-300,373-465c387-543,663-1229,819-2035
			c135-703,192-1649,141-2349c-69-939-284-1752-666-2520c-216-434-357-645-578-865c-156-155-275-242-451-330
			c-227-113-476-180-767-204c-84-7-366-9-842-4c-636,6-717,8-729,22c-8,9-294,482-637,1051s-956,1586-1363,2260s-744,1236-750,1250
			c-10,27-25,1,1725,2885c344,567,723,1193,844,1392l219,363l885-3C42265,19173.9,42393,19170.9,42461,19156.9z M26323,12724.9
			c1398-2315,1657-2746,1653-2751c-3-2-1043-3-2311-2l-2306,3l910,1505c501,828,1021,1688,1156,1912c212,350,248,405,258,390
			C25690,13772.9,25978,13296.9,26323,12724.9z M38269,12289.9c496-822,1015-1679,1151-1905l248-410l-2307-3c-1268-1-2308,0-2311,2
			c-3,4,594,997,1909,3173c217,359,397,649,400,645S37772,13111.9,38269,12289.9z M28476,9152.9c21-30,881-1458,1932-3209l638-1061
			l-158-264c-86-145-308-518-492-829s-358-600-387-643c-139-206-344-422-522-550c-246-176-568-291-918-328c-146-15-608-6-816,16
			c-1297,137-2486,637-3745,1576c-742,553-1276,1112-1657,1732c-205,336-445,910-499,1197c-24,129-24,362,0,485
			c27,136,90,319,154,446c42,84,831,1405,860,1439c2,3,999,7,2215,10c1217,3,2474,6,2794,8l582,2L28476,9152.9z M33628,9174.9
			c0-3-201-337-447-743c-434-717-926-1532-1416-2347c-132-220-243-404-247-408s-33,36-65,90c-134,224-1065,1768-1542,2556
			c-282,467-513,850-513,853c0,2,952,4,2115,4S33628,9177.9,33628,9174.9z M40143,9163.9c25-5,819-1317,894-1475
			c60-128,104-256,133-392c31-143,31-388,0-533c-36-169-158-503-282-774c-155-337-391-697-697-1060c-131-155-484-507-663-661
			c-688-592-1509-1120-2250-1447c-866-382-1770-576-2604-559c-198,4-277,9-376,27c-298,53-551,158-782,325c-108,78-325,295-414,415
			c-100,134-128,178-439,705c-153,259-368,621-478,805c-176,296-198,338-190,360c8,21,596,1001,2411,4015c79,132,148,245,153,251
			c7,9,738,10,2787,7C38873,9170.9,40132,9166.9,40143,9163.9z"/>
		<path class="st6" d="M30193,16353.9c-228-49-412-233-460-459c-22-105-22-2535,0-2640c50-239,245-426,488-469l37-7v1461v1461l778-4
			c679-3,788-6,862-21c404-80,656-250,792-535c62-130,89-249,95-426c9-245-21-405-112-590c-84-172-203-300-364-390
			c-50-28-69-44-65-55c16-44,571-890,584-890c33,1,156,51,208,85c111,75,186,170,238,305l29,75l3,1285c2,1149,1,1293-13,1358
			c-46,204-201,375-405,445l-65,22l-1280,2C30439,16367.9,30253,16366.9,30193,16353.9z"/>
		<path class="st6" d="M30938,14635.9v-506h365c413,0,470,6,592,66c164,79,247,227,247,439c0,256-117,410-361,477
			c-71,19-111,21-460,26l-383,4V14635.9z"/>
		<path class="st6" d="M30938,13169.9v-390h559h559l-216,390l-217,390h-342h-343V13169.9z"/>
		<path class="st6" d="M41928,659.9c-525-95-867-421-956-908c-10-54-18-176-21-319l-6-233h-223h-224v-340v-340h225h225v-1280v-1280
			h485h485v1280v1280l403,2l402,3l3,338l2,337h-405h-405v148c0,181,12,259,50,339c51,105,146,166,287,186c128,19,298-20,427-98
			c32-19,61-35,65-34c12,0,343,690,338,703c-8,20-171,100-286,140c-191,67-318,87-556,92C42067,678.9,42016,675.9,41928,659.9z"/>
		<path class="st6" d="M31985,399.9c-507-39-989-225-1355-522c-357-290-616-693-731-1141c-44-167-62-302-68-502
			c-22-732,291-1407,858-1845c376-290,843-454,1359-476c627-28,1291,235,1815,718l69,65l-34,40c-19,22-151,166-294,321l-259,281
			l-86-75c-169-147-400-284-596-354c-655-231-1349,32-1652,626c-107,210-142,347-150,594c-9,274,28,455,137,675
			c187,378,531,635,953,712c125,23,363,22,472-1c314-68,637-251,864-490c29-31,56-54,61-51c7,4,521,627,563,683
			c20,26-174,198-365,325C33084,288.9,32515,440.9,31985,399.9z"/>
		<path class="st6" d="M18088-1835.1v-2205h500h500v630v630h508l507-1l349-629l348-630h564c310,0,564,2,564,5s-209,330-465,726
			c-256,397-464,723-463,724c2,1,40,22,86,45c230,122,440,338,561,577c129,257,178,513,168,871c-6,214-24,323-77,484
			c-153,458-510,767-1043,902c-284,72-228,70-1479,73l-1128,4V-1835.1z M20342-493.1c300-81,472-261,516-539c16-98,8-321-14-403
			c-31-113-83-204-165-286c-83-82-147-122-259-163c-153-55-192-58-784-63l-548-5v747v746l578-3l577-4L20342-493.1z"/>
		<path class="st6" d="M43355,132.9c-4-3-7-215-7-470v-463h-235h-235v-335v-335h235h235v-822c0-539,4-854,11-913
			c45-368,226-632,534-776c351-165,859-137,1303,71c56,27,102,54,102,60c0,16-192,694-199,701c-3,4-49-11-101-32
			c-157-63-209-74-355-74c-124,0-132,1-177,28c-58,34-92,77-121,153c-22,59-22,62-25,827l-3,767h461h460v340v340h-460h-460v470v470
			h-478C43577,139.9,43358,136.9,43355,132.9z"/>
		<path class="st6" d="M27643-617.1c-407-33-732-121-1138-308c-81-37-150-71-152-75c-4-7,280-646,294-662c4-5,55,16,113,45
			c195,98,379,163,592,209c86,19,132,22,306,22c180,0,215-3,285-22c213-59,345-177,398-359c9-28,19-92,22-142l8-91h-485
			c-619,0-775-12-1001-76c-501-142-770-505-744-1007c15-292,114-517,308-703c194-184,463-286,793-301c424-19,810,111,1052,354l74,73
			v-190v-190h482h481l-6,1167c-7,1244-7,1243-57,1423c-26,93-94,237-150,321c-86,126-249,267-392,340c-240,122-529,181-873,177
			C27760-613.1,27665-615.1,27643-617.1z M28366-2748.1l-3-169l-43-86c-117-236-406-387-742-387c-287,0-482,133-521,354
			c-20,120,7,236,74,312s165,115,342,137c17,2,225,5,463,6l434,1L28366-2748.1z"/>
		<path class="st6" d="M36419-621.1c-217-28-433-112-592-230c-91-67-226-210-293-310l-56-84v298v297h-490h-490v-1695v-1695h490h490
			v864c0,949,1,960,61,1116c115,299,384,487,760,531c56,6,147,9,201,7l98-5v459v458l-57-1C36509-612.1,36454-616.1,36419-621.1z"/>
		<path class="st6" d="M38248-617.1c-365-35-603-91-905-210c-150-59-385-168-385-178c0-9,290-649,299-657c4-5,36,8,73,27
			c181,96,435,188,632,227c149,30,449,33,567,5c279-65,439-253,439-514v-83h-484c-526,0-678-8-862-45c-273-55-481-159-626-314
			c-113-120-173-228-220-401c-20-75-23-106-22-270c0-167,3-195,27-282c91-341,321-586,657-701c159-55,268-71,480-71
			c210,0,317,14,480,61c198,57,344,140,486,276l94,89v-191v-191h481h480l-6,1153c-7,1245-8,1281-62,1451c-57,183-139,320-264,446
			c-207,207-497,329-881,370C38637-611.1,38331-608.1,38248-617.1z M38966-2758.1l-3-178l-34-69c-51-104-168-217-286-277
			c-108-55-162-73-279-93c-426-73-726,117-703,446c13,199,140,310,387,339c36,4,258,8,493,9l428,1L38966-2758.1z"/>
		<path class="st6" d="M23796-636.1c-299-44-577-154-801-320c-108-79-280-261-355-374c-348-522-390-1307-101-1877
			c218-430,609-720,1116-827c163-34,285-46,470-46c428,0,807,107,1118,314c113,76,296,231,315,267c10,17-17,49-241,279l-252,259
			l-56-50c-126-114-310-216-471-262c-186-54-419-61-584-18c-302,79-521,302-621,629l-6,22h1221h1222l-5,273c-4,213-9,298-25,392
			c-69,397-198,675-418,905c-233,242-533,384-922,435C24258-616.1,23930-617.1,23796-636.1z M24324-1360.1c132-34,218-83,314-180
			c69-68,94-102,127-170c48-99,73-185,80-287l6-73h-772h-771l6,28c65,295,197,495,404,615c59,34,179,74,260,86
			C24067-1327.1,24231-1337.1,24324-1360.1z"/>
	</g>
</g>
</svg>
