<?xml version="1.0" encoding="utf-8"?>
<!-- Generator: Adobe Illustrator 26.2.1, SVG Export Plug-In . SVG Version: 6.00 Build 0)  -->
<svg version="1.1" id="Layer_1" xmlns="http://www.w3.org/2000/svg" xmlns:xlink="http://www.w3.org/1999/xlink" x="0px" y="0px"
	 viewBox="0 0 681.1 681.1" style="enable-background:new 0 0 681.1 681.1;" xml:space="preserve">
<style type="text/css">
	.st0{fill:#F4F3F7;}
	.st1{fill:#BDBBB6;}
</style>
<circle class="st0" cx="340.5" cy="340.5" r="340.5"/>
<path class="st1" d="M251.9,243.4c140.8-98.6,292.6-124.6,339.2-58c45.8,65.4-27.3,195.9-163.6,294c2.4-1.6,4.8-3.3,7.1-4.9
	c148.5-104,227.1-248.2,175.4-322s-214-49.3-362.5,54.8s-227,248.2-175.4,322c1.6,2.3,3.3,4.5,5.1,6.6
	C39.7,467.3,115.6,338.8,251.9,243.4z"/>
<path class="st1" d="M77.2,535.8c1.2,2.3,2.6,4.4,4.1,6.5c46.6,66.5,198.5,40.5,339.2-58c2.3-1.6,4.6-3.3,6.9-4.9
	C285.5,576,132.9,600.2,77.2,535.8z"/>
<path class="st1" d="M340.5,12.2c-90.1,0-163.1,147-163.1,328.3s73,328.3,163.1,328.3s163.1-147,163.1-328.3S430.6,12.2,340.5,12.2z
	 M354.5,646.9c-81.2,0-147-139.3-147-311.2s65.8-311.2,147-311.2s147,139.3,147,311.2S435.8,646.9,354.5,646.9z"/>
<path class="st1" d="M608.5,508.6c-46.6,66.5-198.5,40.5-339.2-58.1S52.1,218.1,98.7,151.6c46.4-66.2,197-40.8,337.2,56.7L434,207
	C285.5,103,123.2,78.4,71.6,152.2S98.5,370.1,247,474.1s310.9,128.5,362.5,54.8c19.5-27.9,20.4-65.8,6-107.8
	C625.9,455.4,624.4,485.9,608.5,508.6z"/>
<path class="st1" d="M435.9,208.3c91.4,64.5,156,144.1,179.6,212.8c-20-66.2-84.8-146.5-177.6-211.4
	C437.2,209.2,436.6,208.8,435.9,208.3z"/>
<path class="st1" d="M357.1,388.2c-1.2,1.5-2.5,2.9-4.1,4c-3.5,2.5-7.8,3.8-12.1,3.8c-2.6,0-5.2-0.3-7.7-1c-2-0.6-4-1.6-5.7-2.9
	c-1.7-1.3-3.2-2.8-4.5-4.5c-1.4-1.8-2.7-3.7-3.9-5.7L302,354.5h-10.8v39.1c-2.3,0.6-4.6,1-7,1.2c-3.1,0.4-6.3,0.6-9.5,0.6
	c-2.8,0-5.5-0.2-8.2-0.7c-2.1-0.4-4.2-1.2-5.9-2.5c-1.6-1.3-2.9-3.1-3.6-5.1c-0.9-2.8-1.3-5.6-1.2-8.5v-95.8
	c-0.1-2.4,0.7-4.8,2.3-6.6c1.8-1.7,4-3,6.4-3.8c5.2-1.8,10.6-2.9,16-3.5c6.5-0.8,13-1.1,19.5-1.1c18.7,0,32.8,3.9,42.3,11.8
	c2.3,1.9,4.4,4.1,6.2,6.4l1,1.1l0,0l1.2-1.2c5.8-5.6,12.7-9.9,20.2-12.6c7.9-2.9,16.3-4.3,24.8-4.3c12.5,0,22.1,2,29,6.1
	s10.3,9.3,10.3,15.7c0.1,3.2-0.8,6.4-2.6,9.1c-1.6,2.4-3.7,4.5-6.1,6.1c-3.6-2.3-7.4-4.3-11.3-5.9c-4.4-1.7-9.2-2.5-13.9-2.4
	c-10.4,0-18.4,3.2-24,9.6s-8.3,15.4-8.3,27.1c0,11.8,3.1,20.9,9.2,27.3s14.5,9.6,24.9,9.6c4.8,0.1,9.6-0.6,14.1-2.2
	c3.8-1.5,7.5-3.2,11.1-5.1c2.3,1.9,4.1,4.2,5.4,6.8c1.3,2.9,2,6.1,1.9,9.3c0,5.6-3.1,10.3-9.3,14.1c-6.2,3.9-15.6,5.8-28.2,5.8
	c-8.7,0-17.3-1.3-25.6-3.9C367.1,394.1,361.9,391.5,357.1,388.2 M304.1,327.4c5.2,0,9.2-1.3,12.2-4s4.5-6.5,4.5-11.7s-1.7-9-5-11.7
	s-8.6-4-15.8-4c-1.6,0-3.3,0-4.9,0.2c-1.2,0.1-2.6,0.3-4.1,0.6v30.5L304.1,327.4z"/>
</svg>
