<?xml version="1.0" encoding="utf-8"?>
<!-- Generator: Adobe Illustrator 26.2.1, SVG Export Plug-In . SVG Version: 6.00 Build 0)  -->
<svg version="1.1" xmlns="http://www.w3.org/2000/svg" xmlns:xlink="http://www.w3.org/1999/xlink" x="0px" y="0px"
	 viewBox="0 0 7893.5 4653.9" style="enable-background:new 0 0 7893.5 4653.9;" xml:space="preserve">
<style type="text/css">
	.st0{display:none;}
	.st1{display:inline;fill:#778DA9;stroke:#878962;stroke-width:0.1;stroke-miterlimit:10;}
	.st2{fill:#343435;stroke:#2D2D2D;stroke-width:5;stroke-miterlimit:10;}
	.st3{display:none;fill:#343435;stroke:#2D2D2D;stroke-width:5;stroke-miterlimit:10;}
	.st4{fill:none;stroke:#2D2D2D;stroke-width:22;stroke-miterlimit:10;}
	.st5{display:inline;}
	.st6{stroke:#878962;stroke-width:0.1;stroke-miterlimit:10;}
</style>
<g id="Layer_2" class="st0">
	<rect y="0" class="st1" width="7893.5" height="4653.9"/>
</g>
<g id="Layer_1">
	<g transform="translate(0.000000,3180.000000) scale(0.100000,-0.100000)">
		
			<image style="overflow:visible;opacity:0.6;" width="2848" height="3245" xlink:href="528C2B06544D94F8.png"  transform="matrix(10 0 0 -10 25238.7285 24745.7891)">
		</image>
		<g>
			<g>
				<path class="st2" d="M35791.8,24416.7c-1316-94-2559-550-3880-1425c-852-564-1511-1164-2008-1830c-326-436-602-929-737-1317
					c-101-288-145-528-152-829c-10-390,41-690,179-1059c100-267,178-417,480-913c109-180,201-333,204-340c4-11-87-12-469-9
					c-577,6-766-8-1067-75c-243-54-405-110-625-218c-400-196-734-490-1035-909c-201-281-448-759-625-1211
					c-369-942-538-2049-497-3258c34-994,156-1738,406-2473c188-552,481-1131,765-1512c113-151,149-192,289-335
					c401-407,892-660,1482-762c239-42,337-48,877-54l533-6l-303-505c-299-500-392-669-460-845c-41-107-90-299-113-445
					c-22-143-30-514-15-666c60-591,302-1141,814-1849c237-326,475-602,789-910c615-606,1316-1104,2256-1600
					c813-429,1563-687,2352-809c529-82,1089-95,1490-36c797,117,1442,536,1916,1245c44,66,246,397,448,735c203,338,372,619,376,623
					c4,5,188-292,409-660c489-814,568-927,816-1177c449-453,974-702,1645-782c176-22,642-24,880-5c1151,91,2197,458,3454,1209
					c930,556,1704,1224,2282,1967c554,712,842,1287,946,1890c20,115,23,165,23,425c0,279-2,304-28,453c-34,192-71,319-138,474
					c-70,166-149,307-459,819l-271,449l548,6c552,6,649,12,878,50c611,103,1149,392,1548,834c511,566,967,1527,1182,2494
					c85,386,138,751,170,1176c132,1781-114,3222-771,4525c-195,388-385,666-628,918c-368,382-885,670-1351,752
					c-191,34-335,40-946,40c-328,0-598,2-601,5c-3,4,94,169,215,368c306,502,426,741,521,1035c94,290,126,482,133,785
					c9,370-32,629-152,977c-152,436-487,1011-859,1475c-232,290-643,712-930,955c-701,597-1601,1164-2416,1525
					c-753,334-1461,522-2260,602c-251,25-803,25-985-1c-770-106-1348-429-1820-1018c-156-195-233-315-650-1026
					c-208-354-381-640-385-635c-4,4-182,305-395,668s-415,700-449,749c-308,452-644,761-1056,975c-288,149-576,237-940,287
					C36484.8,24421.7,35979.8,24429.7,35791.8,24416.7z M36533.8,23602.7c345-42,618-138,868-303c144-97,361-307,479-468
					c87-119,1138-1862,1133-1879c-6-17-1092-1824-1712-2846c-315-520-639-1053-719-1186l-146-241l-1390-6c-764-4-2023-4-2797,0
					c-1268,6-1409,8-1421,22c-35,41-829,1360-882,1466c-66,130-123,290-152,425c-26,120-26,420,0,540c37,171,149,485,261,727
					c222,485,609,1023,1059,1475c546,550,1178,1001,2037,1454c1001,527,1752,770,2585,833
					C35907.8,23628.7,36380.8,23620.7,36533.8,23602.7z M43351.8,23601.7c790-85,1494-324,2443-826c1154-611,1973-1273,2573-2082
					c337-453,552-861,707-1342c76-235,82-274,82-500c0-184-2-209-27-307c-33-131-86-275-143-389c-50-98-859-1436-884-1460
					c-14-14-279-15-2813-11l-2797,4l-362,597c-1453,2392-2212,3659-2206,3681c10,40,1055,1766,1130,1867c102,137,324,358,447,445
					c52,37,154,97,225,132c250,124,485,180,880,210C42718.8,23629.7,43214.8,23616.7,43351.8,23601.7z M40311.8,18811.7
					c453-753,926-1539,1051-1746l226-376l-2120-7c-1166-3-2121-5-2123-3s113,197,255,433c1128,1874,1748,2905,1801,2992
					c51,84,65,101,75,90C39482.8,20187.7,39858.8,19565.7,40311.8,18811.7z M30821.8,15154.7c1276-2100,2343-3864,2343-3873
					c0-5-19-41-43-80c-55-89-1906-3156-2360-3910c-188-313-350-578-358-587c-14-17-66-18-822-18c-478,0-850,4-911,10
					c-443,44-765,206-1036,523c-267,310-451,584-616,914c-598,1194-781,2583-577,4383c108,947,379,1725,848,2433
					c380,574,800,860,1387,941c164,23,136,23,936,24l746,2L30821.8,15154.7z M35958.8,15902.7c2-1-223-376-500-832
					c-276-456-799-1321-1162-1922c-362-600-662-1092-665-1092c-3,1-233,380-512,843s-801,1329-1161,1924s-653,1084-652,1085
					C31310.8,15912.7,35954.8,15906.7,35958.8,15902.7z M42587.8,15031.7c289-478,914-1514,1390-2301c475-787,864-1434,864-1437
					c0-5-1364-2268-2243-3719l-532-878h-2600h-2600l-404,668c-438,723-1890,3127-2189,3624l-184,306l814,1349
					c448,741,1075,1779,1392,2306l578,957l2595-2l2595-3L42587.8,15031.7z M47459.8,15624.7c-350-578-1600-2648-1872-3100
					c-154-257-283-467-286-468c-3,0-322,525-710,1167c-388,643-906,1500-1153,1907c-246,406-452,747-458,757c-9,19,41,19,2320,19
					h2330L47459.8,15624.7z M50414.8,15883.7c357-74,586-194,814-428c85-88,255-300,373-465c387-543,663-1229,819-2035
					c135-703,192-1649,141-2349c-69-939-284-1752-666-2520c-216-434-357-645-578-865c-156-155-275-242-451-330
					c-227-113-476-180-767-204c-84-7-366-9-842-4c-636,6-717,8-729,22c-8,9-294,482-637,1051s-956,1586-1363,2260
					s-744,1236-750,1250c-10,27-25,1,1725,2885c344,567,723,1193,844,1392l219,363l885-3
					C50218.8,15900.7,50346.8,15897.7,50414.8,15883.7z M34276.8,9451.7c1398-2315,1657-2746,1653-2751c-3-2-1043-3-2311-2l-2306,3
					l910,1505c501,828,1021,1688,1156,1912c212,350,248,405,258,390C33643.8,10499.7,33931.8,10023.7,34276.8,9451.7z
					 M46222.8,9016.7c496-822,1015-1679,1151-1905l248-410l-2307-3c-1268-1-2308,0-2311,2c-3,4,594,997,1909,3173
					c217,359,397,649,400,645S45725.8,9838.7,46222.8,9016.7z M36429.8,5879.7c21-30,881-1458,1932-3209l638-1061l-158-264
					c-86-145-308-518-492-829s-358-600-387-643c-139-206-344-422-522-550c-246-176-568-291-918-328c-146-15-608-6-816,16
					c-1297,137-2486,637-3745,1576c-742,553-1276,1112-1657,1732c-205,336-445,910-499,1197c-24,129-24,362,0,485
					c27,136,90,319,154,446c42,84,831,1405,860,1439c2,3,999,7,2215,10c1217,3,2474,6,2794,8l582,2L36429.8,5879.7z M41581.8,5901.7
					c0-3-201-337-447-743c-434-717-926-1532-1416-2347c-132-220-243-404-247-408s-33,36-65,90c-134,224-1065,1768-1542,2556
					c-282,467-513,850-513,853c0,2,952,4,2115,4S41581.8,5904.7,41581.8,5901.7z M48096.8,5890.7c25-5,819-1317,894-1475
					c60-128,104-256,133-392c31-143,31-388,0-533c-36-169-158-503-282-774c-155-337-391-697-697-1060c-131-155-484-507-663-661
					c-688-592-1509-1120-2250-1447c-866-382-1770-576-2604-559c-198,4-277,9-376,27c-298,53-551,158-782,325
					c-108,78-325,295-414,415c-100,134-128,178-439,705c-153,259-368,621-478,805c-176,296-198,338-190,360c8,21,596,1001,2411,4015
					c79,132,148,245,153,251c7,9,738,10,2787,7C46826.8,5897.7,48085.8,5893.7,48096.8,5890.7z M39013.8,20952.7l448,771"/>
				<path class="st3" d="M38146.8,13080.7c-228-49-412-233-460-459c-22-105-22-2535,0-2640c50-239,245-426,488-469l37-7v1461v1461
					l778-4c679-3,788-6,862-21c404-80,656-250,792-535c62-130,89-249,95-426c9-245-21-405-112-590c-84-172-203-300-364-390
					c-50-28-69-44-65-55c16-44,571-890,584-890c33,1,156,51,208,85c111,75,186,170,238,305l29,75l3,1285c2,1149,1,1293-13,1358
					c-46,204-201,375-405,445l-65,22l-1280,2C38392.8,13094.7,38206.8,13093.7,38146.8,13080.7z"/>
				<path class="st3" d="M38891.8,11362.7v-506h365c413,0,470,6,592,66c164,79,247,227,247,439c0,256-117,410-361,477
					c-71,19-111,21-460,26l-383,4V11362.7z"/>
				<path class="st3" d="M38891.8,9896.7v-390h559h559l-216,390l-217,390h-342h-343V9896.7z"/>
				<path class="st2" d="M49881.8-2613.3c-525-95-867-421-956-908c-10-54-18-176-21-319l-6-233h-223h-224v-340v-340h225h225v-1280
					v-1280h485h485v1280v1280l403,2l402,3l3,338l2,337h-405h-405v148c0,181,12,259,50,339c51,105,146,166,287,186
					c128,19,298-20,427-98c32-19,61-35,65-34c12,0,343,690,338,703c-8,20-171,100-286,140c-191,67-318,87-556,92
					C50020.8-2594.3,49969.8-2597.3,49881.8-2613.3z"/>
				<path class="st2" d="M39938.8-2873.3c-507-39-989-225-1355-522c-357-290-616-693-731-1141c-44-167-62-302-68-502
					c-22-732,291-1407,858-1845c376-290,843-454,1359-476c627-28,1291,235,1815,718l69,65l-34,40c-19,22-151,166-294,321l-259,281
					l-86-75c-169-147-400-284-596-354c-655-231-1349,32-1652,626c-107,210-142,347-150,594c-9,274,28,455,137,675
					c187,378,531,635,953,712c125,23,363,22,472-1c314-68,637-251,864-490c29-31,56-54,61-51c7,4,521,627,563,683
					c20,26-174,198-365,325C41037.8-2984.3,40468.8-2832.3,39938.8-2873.3z"/>
				<path class="st2" d="M26041.8-5108.3v-2205h500h500v630v630h508l507-1l349-629l348-630h564c310,0,564,2,564,5s-209,330-465,726
					c-256,397-464,723-463,724c2,1,40,22,86,45c230,122,440,338,561,577c129,257,178,513,168,871c-6,214-24,323-77,484
					c-153,458-510,767-1043,902c-284,72-228,70-1479,73l-1128,4V-5108.3z M28295.8-3766.3c300-81,472-261,516-539
					c16-98,8-321-14-403c-31-113-83-204-165-286c-83-82-147-122-259-163c-153-55-192-58-784-63l-548-5v747v746l578-3l577-4
					L28295.8-3766.3z"/>
				<path class="st2" d="M51308.8-3140.3c-4-3-7-215-7-470v-463h-235h-235v-335v-335h235h235v-822c0-539,4-854,11-913
					c45-368,226-632,534-776c351-165,859-137,1303,71c56,27,102,54,102,60c0,16-192,694-199,701c-3,4-49-11-101-32
					c-157-63-209-74-355-74c-124,0-132,1-177,28c-58,34-92,77-121,153c-22,59-22,62-25,827l-3,767h461h460v340v340h-460h-460v470
					v470h-478C51530.8-3133.3,51311.8-3136.3,51308.8-3140.3z"/>
				<path class="st2" d="M35596.8-3890.3c-407-33-732-121-1138-308c-81-37-150-71-152-75c-4-7,280-646,294-662c4-5,55,16,113,45
					c195,98,379,163,592,209c86,19,132,22,306,22c180,0,215-3,285-22c213-59,345-177,398-359c9-28,19-92,22-142l8-91h-485
					c-619,0-775-12-1001-76c-501-142-770-505-744-1007c15-292,114-517,308-703c194-184,463-286,793-301c424-19,810,111,1052,354
					l74,73v-190v-190h482h481l-6,1167c-7,1244-7,1243-57,1423c-26,93-94,237-150,321c-86,126-249,267-392,340
					c-240,122-529,181-873,177C35713.8-3886.3,35618.8-3888.3,35596.8-3890.3z M36319.8-6021.3l-3-169l-43-86
					c-117-236-406-387-742-387c-287,0-482,133-521,354c-20,120,7,236,74,312s165,115,342,137c17,2,225,5,463,6l434,1L36319.8-6021.3
					z"/>
				<path class="st2" d="M44372.8-3894.3c-217-28-433-112-592-230c-91-67-226-210-293-310l-56-84v298v297h-490h-490v-1695v-1695h490
					h490v864c0,949,1,960,61,1116c115,299,384,487,760,531c56,6,147,9,201,7l98-5v459v458l-57-1
					C44462.8-3885.3,44407.8-3889.3,44372.8-3894.3z"/>
				<path class="st2" d="M46201.8-3890.3c-365-35-603-91-905-210c-150-59-385-168-385-178c0-9,290-649,299-657c4-5,36,8,73,27
					c181,96,435,188,632,227c149,30,449,33,567,5c279-65,439-253,439-514v-83h-484c-526,0-678-8-862-45c-273-55-481-159-626-314
					c-113-120-173-228-220-401c-20-75-23-106-22-270c0-167,3-195,27-282c91-341,321-586,657-701c159-55,268-71,480-71
					c210,0,317,14,480,61c198,57,344,140,486,276l94,89v-191v-191h481h480l-6,1153c-7,1245-8,1281-62,1451c-57,183-139,320-264,446
					c-207,207-497,329-881,370C46590.8-3884.3,46284.8-3881.3,46201.8-3890.3z M46919.8-6031.3l-3-178l-34-69
					c-51-104-168-217-286-277c-108-55-162-73-279-93c-426-73-726,117-703,446c13,199,140,310,387,339c36,4,258,8,493,9l428,1
					L46919.8-6031.3z"/>
				<path class="st2" d="M31749.8-3909.3c-299-44-577-154-801-320c-108-79-280-261-355-374c-348-522-390-1307-101-1877
					c218-430,609-720,1116-827c163-34,285-46,470-46c428,0,807,107,1118,314c113,76,296,231,315,267c10,17-17,49-241,279l-252,259
					l-56-50c-126-114-310-216-471-262c-186-54-419-61-584-18c-302,79-521,302-621,629l-6,22h1221h1222l-5,273c-4,213-9,298-25,392
					c-69,397-198,675-418,905c-233,242-533,384-922,435C32211.8-3889.3,31883.8-3890.3,31749.8-3909.3z M32277.8-4633.3
					c132-34,218-83,314-180c69-68,94-102,127-170c48-99,73-185,80-287l6-73h-772h-771l6,28c65,295,197,495,404,615
					c59,34,179,74,260,86C32020.8-4600.3,32184.8-4610.3,32277.8-4633.3z"/>
				<line class="st2" x1="36436.8" y1="16679.7" x2="37345.8" y2="16679.7"/>
				<g>
					<line class="st2" x1="39924.8" y1="20966.7" x2="39476.8" y2="20194.7"/>
					<line class="st2" x1="48102.8" y1="16695.7" x2="49049.8" y2="16695.7"/>
					<line class="st2" x1="47630.8" y1="15906.7" x2="48566.8" y2="15906.7"/>
					<line class="st2" x1="29877.8" y1="16703.7" x2="30358.8" y2="15916.7"/>
					<line class="st2" x1="30828.8" y1="16695.7" x2="31306.8" y2="15908.7"/>
					<line class="st2" x1="35958.8" y1="15902.7" x2="36873.8" y2="15902.7"/>
					<line class="st2" x1="41588.8" y1="16689.7" x2="42063.8" y2="15901.7"/>
					<line class="st2" x1="42492.8" y1="16688.7" x2="42980.8" y2="15887.7"/>
				</g>
			</g>
		</g>
	</g>
	<line class="st2" x1="4530.2" y1="1974.3" x2="4484.2" y2="2050.6"/>
	<line class="st2" x1="4577.9" y1="2053.3" x2="4531.3" y2="2128.1"/>
	<line class="st2" x1="4762.2" y1="2509.8" x2="4809.7" y2="2590.9"/>
	<line class="st2" x1="4852.9" y1="2509.4" x2="4902.1" y2="2591.8"/>
	<line class="st2" x1="4206.7" y1="2510.3" x2="4300.4" y2="2509.9"/>
	<line class="st2" x1="4158.2" y1="2589.8" x2="4251.3" y2="2590.7"/>
	<line class="st2" x1="3994.9" y1="3017.3" x2="3946.2" y2="3098"/>
	<line class="st2" x1="3947.2" y1="2939.6" x2="3900" y2="3019"/>
	<line class="st2" x1="3686.7" y1="2510.3" x2="3735.2" y2="2589.7"/>
	<line class="st2" x1="3593" y1="2509.9" x2="3643" y2="2592"/>
	<line class="st2" x1="3131.3" y1="2509.8" x2="3040.4" y2="2509.5"/>
	<line class="st2" x1="3082" y1="2591.3" x2="2991.2" y2="2591.8"/>
	<line class="st2" x1="3312.2" y1="2059.8" x2="3363.2" y2="1974.3"/>
	<line class="st2" x1="3363.7" y1="2129.1" x2="3409" y2="2050.5"/>
</g>
<g id="Layer_5">
	<g>
		
			<image style="overflow:visible;opacity:0.7;" width="557" height="599" xlink:href="528C2B06544D94FB.png"  transform="matrix(1 0 0 1 3700.873 1767.421)">
		</image>
		<g>
			<g>
				<path class="st4" d="M4055.3,2327l-123.6-162.8h-70.9V2327h-129.7v-527.7h229.2c146.3,0,234.5,67.9,234.5,183.2
					c0,82.2-44.5,139.5-122.9,165.9l134.2,178.7H4055.3z M3860.8,1907v153h95.7c68.6,0,108.6-21.1,108.6-75.4
					c0-52.8-40-77.7-108.6-77.7H3860.8z"/>
			</g>
		</g>
	</g>
</g>
<g id="Layer_3" class="st0">
	<g transform="translate(0.000000,3180.000000) scale(0.100000,-0.100000)" class="st5">
		<path class="st6" d="M27838,27689.9c-1316-94-2559-550-3880-1425c-852-564-1511-1164-2008-1830c-326-436-602-929-737-1317
			c-101-288-145-528-152-829c-10-390,41-690,179-1059c100-267,178-417,480-913c109-180,201-333,204-340c4-11-87-12-469-9
			c-577,6-766-8-1067-75c-243-54-405-110-625-218c-400-196-734-490-1035-909c-201-281-448-759-625-1211c-369-942-538-2049-497-3258
			c34-994,156-1738,406-2473c188-552,481-1131,765-1512c113-151,149-192,289-335c401-407,892-660,1482-762c239-42,337-48,877-54
			l533-6l-303-505c-299-500-392-669-460-845c-41-107-90-299-113-445c-22-143-30-514-15-666c60-591,302-1141,814-1849
			c237-326,475-602,789-910c615-606,1316-1104,2256-1600c813-429,1563-687,2352-809c529-82,1089-95,1490-36
			c797,117,1442,536,1916,1245c44,66,246,397,448,735c203,338,372,619,376,623c4,5,188-292,409-660c489-814,568-927,816-1177
			c449-453,974-702,1645-782c176-22,642-24,880-5c1151,91,2197,458,3454,1209c930,556,1704,1224,2282,1967
			c554,712,842,1287,946,1890c20,115,23,165,23,425c0,279-2,304-28,453c-34,192-71,319-138,474c-70,166-149,307-459,819l-271,449
			l548,6c552,6,649,12,878,50c611,103,1149,392,1548,834c511,566,967,1527,1182,2494c85,386,138,751,170,1176
			c132,1781-114,3222-771,4525c-195,388-385,666-628,918c-368,382-885,670-1351,752c-191,34-335,40-946,40c-328,0-598,2-601,5
			c-3,4,94,169,215,368c306,502,426,741,521,1035c94,290,126,482,133,785c9,370-32,629-152,977c-152,436-487,1011-859,1475
			c-232,290-643,712-930,955c-701,597-1601,1164-2416,1525c-753,334-1461,522-2260,602c-251,25-803,25-985-1
			c-770-106-1348-429-1820-1018c-156-195-233-315-650-1026c-208-354-381-640-385-635c-4,4-182,305-395,668s-415,700-449,749
			c-308,452-644,761-1056,975c-288,149-576,237-940,287C28531,27694.9,28026,27702.9,27838,27689.9z M28580,26875.9
			c345-42,618-138,868-303c144-97,361-307,479-468c87-119,1138-1862,1133-1879c-6-17-1092-1824-1712-2846
			c-315-520-639-1053-719-1186l-146-241l-1390-6c-764-4-2023-4-2797,0c-1268,6-1409,8-1421,22c-35,41-829,1360-882,1466
			c-66,130-123,290-152,425c-26,120-26,420,0,540c37,171,149,485,261,727c222,485,609,1023,1059,1475c546,550,1178,1001,2037,1454
			c1001,527,1752,770,2585,833C27954,26901.9,28427,26893.9,28580,26875.9z M35398,26874.9c790-85,1494-324,2443-826
			c1154-611,1973-1273,2573-2082c337-453,552-861,707-1342c76-235,82-274,82-500c0-184-2-209-27-307c-33-131-86-275-143-389
			c-50-98-859-1436-884-1460c-14-14-279-15-2813-11l-2797,4l-362,597c-1453,2392-2212,3659-2206,3681c10,40,1055,1766,1130,1867
			c102,137,324,358,447,445c52,37,154,97,225,132c250,124,485,180,880,210C34765,26902.9,35261,26889.9,35398,26874.9z
			 M32358,22084.9c453-753,926-1539,1051-1746l226-376l-2120-7c-1166-3-2121-5-2123-3s113,197,255,433
			c1128,1874,1748,2905,1801,2992c51,84,65,101,75,90C31529,23460.9,31905,22838.9,32358,22084.9z M22868,18427.9
			c1276-2100,2343-3864,2343-3873c0-5-19-41-43-80c-55-89-1906-3156-2360-3910c-188-313-350-578-358-587c-14-17-66-18-822-18
			c-478,0-850,4-911,10c-443,44-765,206-1036,523c-267,310-451,584-616,914c-598,1194-781,2583-577,4383c108,947,379,1725,848,2433
			c380,574,800,860,1387,941c164,23,136,23,936,24l746,2L22868,18427.9z M28005,19175.9c2-1-223-376-500-832
			c-276-456-799-1321-1162-1922c-362-600-662-1092-665-1092c-3,1-233,380-512,843c-279,463-801,1329-1161,1924s-653,1084-652,1085
			C23357,19185.9,28001,19179.9,28005,19175.9z M34634,18304.9c289-478,914-1514,1390-2301c475-787,864-1434,864-1437
			c0-5-1364-2268-2243-3719l-532-878h-2600h-2600l-404,668c-438,723-1890,3127-2189,3624l-184,306l814,1349
			c448,741,1075,1779,1392,2306l578,957l2595-2l2595-3L34634,18304.9z M39506,18897.9c-350-578-1600-2648-1872-3100
			c-154-257-283-467-286-468c-3,0-322,525-710,1167c-388,643-906,1500-1153,1907c-246,406-452,747-458,757c-9,19,41,19,2320,19h2330
			L39506,18897.9z M42461,19156.9c357-74,586-194,814-428c85-88,255-300,373-465c387-543,663-1229,819-2035
			c135-703,192-1649,141-2349c-69-939-284-1752-666-2520c-216-434-357-645-578-865c-156-155-275-242-451-330
			c-227-113-476-180-767-204c-84-7-366-9-842-4c-636,6-717,8-729,22c-8,9-294,482-637,1051s-956,1586-1363,2260s-744,1236-750,1250
			c-10,27-25,1,1725,2885c344,567,723,1193,844,1392l219,363l885-3C42265,19173.9,42393,19170.9,42461,19156.9z M26323,12724.9
			c1398-2315,1657-2746,1653-2751c-3-2-1043-3-2311-2l-2306,3l910,1505c501,828,1021,1688,1156,1912c212,350,248,405,258,390
			C25690,13772.9,25978,13296.9,26323,12724.9z M38269,12289.9c496-822,1015-1679,1151-1905l248-410l-2307-3c-1268-1-2308,0-2311,2
			c-3,4,594,997,1909,3173c217,359,397,649,400,645S37772,13111.9,38269,12289.9z M28476,9152.9c21-30,881-1458,1932-3209l638-1061
			l-158-264c-86-145-308-518-492-829s-358-600-387-643c-139-206-344-422-522-550c-246-176-568-291-918-328c-146-15-608-6-816,16
			c-1297,137-2486,637-3745,1576c-742,553-1276,1112-1657,1732c-205,336-445,910-499,1197c-24,129-24,362,0,485
			c27,136,90,319,154,446c42,84,831,1405,860,1439c2,3,999,7,2215,10c1217,3,2474,6,2794,8l582,2L28476,9152.9z M33628,9174.9
			c0-3-201-337-447-743c-434-717-926-1532-1416-2347c-132-220-243-404-247-408s-33,36-65,90c-134,224-1065,1768-1542,2556
			c-282,467-513,850-513,853c0,2,952,4,2115,4S33628,9177.9,33628,9174.9z M40143,9163.9c25-5,819-1317,894-1475
			c60-128,104-256,133-392c31-143,31-388,0-533c-36-169-158-503-282-774c-155-337-391-697-697-1060c-131-155-484-507-663-661
			c-688-592-1509-1120-2250-1447c-866-382-1770-576-2604-559c-198,4-277,9-376,27c-298,53-551,158-782,325c-108,78-325,295-414,415
			c-100,134-128,178-439,705c-153,259-368,621-478,805c-176,296-198,338-190,360c8,21,596,1001,2411,4015c79,132,148,245,153,251
			c7,9,738,10,2787,7C38873,9170.9,40132,9166.9,40143,9163.9z"/>
		<path class="st6" d="M30193,16353.9c-228-49-412-233-460-459c-22-105-22-2535,0-2640c50-239,245-426,488-469l37-7v1461v1461l778-4
			c679-3,788-6,862-21c404-80,656-250,792-535c62-130,89-249,95-426c9-245-21-405-112-590c-84-172-203-300-364-390
			c-50-28-69-44-65-55c16-44,571-890,584-890c33,1,156,51,208,85c111,75,186,170,238,305l29,75l3,1285c2,1149,1,1293-13,1358
			c-46,204-201,375-405,445l-65,22l-1280,2C30439,16367.9,30253,16366.9,30193,16353.9z"/>
		<path class="st6" d="M30938,14635.9v-506h365c413,0,470,6,592,66c164,79,247,227,247,439c0,256-117,410-361,477
			c-71,19-111,21-460,26l-383,4V14635.9z"/>
		<path class="st6" d="M30938,13169.9v-390h559h559l-216,390l-217,390h-342h-343V13169.9z"/>
		<path class="st6" d="M41928,659.9c-525-95-867-421-956-908c-10-54-18-176-21-319l-6-233h-223h-224v-340v-340h225h225v-1280v-1280
			h485h485v1280v1280l403,2l402,3l3,338l2,337h-405h-405v148c0,181,12,259,50,339c51,105,146,166,287,186c128,19,298-20,427-98
			c32-19,61-35,65-34c12,0,343,690,338,703c-8,20-171,100-286,140c-191,67-318,87-556,92C42067,678.9,42016,675.9,41928,659.9z"/>
		<path class="st6" d="M31985,399.9c-507-39-989-225-1355-522c-357-290-616-693-731-1141c-44-167-62-302-68-502
			c-22-732,291-1407,858-1845c376-290,843-454,1359-476c627-28,1291,235,1815,718l69,65l-34,40c-19,22-151,166-294,321l-259,281
			l-86-75c-169-147-400-284-596-354c-655-231-1349,32-1652,626c-107,210-142,347-150,594c-9,274,28,455,137,675
			c187,378,531,635,953,712c125,23,363,22,472-1c314-68,637-251,864-490c29-31,56-54,61-51c7,4,521,627,563,683
			c20,26-174,198-365,325C33084,288.9,32515,440.9,31985,399.9z"/>
		<path class="st6" d="M18088-1835.1v-2205h500h500v630v630h508l507-1l349-629l348-630h564c310,0,564,2,564,5s-209,330-465,726
			c-256,397-464,723-463,724c2,1,40,22,86,45c230,122,440,338,561,577c129,257,178,513,168,871c-6,214-24,323-77,484
			c-153,458-510,767-1043,902c-284,72-228,70-1479,73l-1128,4V-1835.1z M20342-493.1c300-81,472-261,516-539c16-98,8-321-14-403
			c-31-113-83-204-165-286c-83-82-147-122-259-163c-153-55-192-58-784-63l-548-5v747v746l578-3l577-4L20342-493.1z"/>
		<path class="st6" d="M43355,132.9c-4-3-7-215-7-470v-463h-235h-235v-335v-335h235h235v-822c0-539,4-854,11-913
			c45-368,226-632,534-776c351-165,859-137,1303,71c56,27,102,54,102,60c0,16-192,694-199,701c-3,4-49-11-101-32
			c-157-63-209-74-355-74c-124,0-132,1-177,28c-58,34-92,77-121,153c-22,59-22,62-25,827l-3,767h461h460v340v340h-460h-460v470v470
			h-478C43577,139.9,43358,136.9,43355,132.9z"/>
		<path class="st6" d="M27643-617.1c-407-33-732-121-1138-308c-81-37-150-71-152-75c-4-7,280-646,294-662c4-5,55,16,113,45
			c195,98,379,163,592,209c86,19,132,22,306,22c180,0,215-3,285-22c213-59,345-177,398-359c9-28,19-92,22-142l8-91h-485
			c-619,0-775-12-1001-76c-501-142-770-505-744-1007c15-292,114-517,308-703c194-184,463-286,793-301c424-19,810,111,1052,354l74,73
			v-190v-190h482h481l-6,1167c-7,1244-7,1243-57,1423c-26,93-94,237-150,321c-86,126-249,267-392,340c-240,122-529,181-873,177
			C27760-613.1,27665-615.1,27643-617.1z M28366-2748.1l-3-169l-43-86c-117-236-406-387-742-387c-287,0-482,133-521,354
			c-20,120,7,236,74,312s165,115,342,137c17,2,225,5,463,6l434,1L28366-2748.1z"/>
		<path class="st6" d="M36419-621.1c-217-28-433-112-592-230c-91-67-226-210-293-310l-56-84v298v297h-490h-490v-1695v-1695h490h490
			v864c0,949,1,960,61,1116c115,299,384,487,760,531c56,6,147,9,201,7l98-5v459v458l-57-1C36509-612.1,36454-616.1,36419-621.1z"/>
		<path class="st6" d="M38248-617.1c-365-35-603-91-905-210c-150-59-385-168-385-178c0-9,290-649,299-657c4-5,36,8,73,27
			c181,96,435,188,632,227c149,30,449,33,567,5c279-65,439-253,439-514v-83h-484c-526,0-678-8-862-45c-273-55-481-159-626-314
			c-113-120-173-228-220-401c-20-75-23-106-22-270c0-167,3-195,27-282c91-341,321-586,657-701c159-55,268-71,480-71
			c210,0,317,14,480,61c198,57,344,140,486,276l94,89v-191v-191h481h480l-6,1153c-7,1245-8,1281-62,1451c-57,183-139,320-264,446
			c-207,207-497,329-881,370C38637-611.1,38331-608.1,38248-617.1z M38966-2758.1l-3-178l-34-69c-51-104-168-217-286-277
			c-108-55-162-73-279-93c-426-73-726,117-703,446c13,199,140,310,387,339c36,4,258,8,493,9l428,1L38966-2758.1z"/>
		<path class="st6" d="M23796-636.1c-299-44-577-154-801-320c-108-79-280-261-355-374c-348-522-390-1307-101-1877
			c218-430,609-720,1116-827c163-34,285-46,470-46c428,0,807,107,1118,314c113,76,296,231,315,267c10,17-17,49-241,279l-252,259
			l-56-50c-126-114-310-216-471-262c-186-54-419-61-584-18c-302,79-521,302-621,629l-6,22h1221h1222l-5,273c-4,213-9,298-25,392
			c-69,397-198,675-418,905c-233,242-533,384-922,435C24258-616.1,23930-617.1,23796-636.1z M24324-1360.1c132-34,218-83,314-180
			c69-68,94-102,127-170c48-99,73-185,80-287l6-73h-772h-771l6,28c65,295,197,495,404,615c59,34,179,74,260,86
			C24067-1327.1,24231-1337.1,24324-1360.1z"/>
	</g>
</g>
</svg>
