<?xml version="1.0" encoding="utf-8"?>
<!-- Generator: Adobe Illustrator 26.2.1, SVG Export Plug-In . SVG Version: 6.00 Build 0)  -->
<svg version="1.1" id="Layer_1" xmlns="http://www.w3.org/2000/svg" xmlns:xlink="http://www.w3.org/1999/xlink" x="0px" y="0px"
	 viewBox="0 0 428 400.2" style="enable-background:new 0 0 428 400.2;" xml:space="preserve">
<style type="text/css">
	.st0{fill:#F5EBE0;stroke:#F5EBE0;stroke-width:0.5;stroke-miterlimit:1;}
	.st1{fill:none;stroke:#F5EBE0;stroke-width:0.5;stroke-miterlimit:1;}
	.st2{fill:none;stroke:#F5EBE0;stroke-width:0.5;stroke-miterlimit:10;}
	.st3{fill:#F5EBE0;stroke:#F5EBE0;stroke-miterlimit:10;}
</style>
<g id="Layer_1-2">
	
		<image style="overflow:visible;opacity:0.6;enable-background:new    ;" width="2848" height="2704" xlink:href="12979436BDD78CC6.png"  transform="matrix(0.1392 0 0 0.1392 14.5157 14.6229)">
	</image>
	<path class="st0" d="M161.6,19.3c-18.3,1.3-35.6,7.7-54,19.8c-11.9,7.9-21,16.2-28,25.5c-4.5,6.1-8.4,12.9-10.3,18.3
		c-1.4,4-2,7.4-2.1,11.5c-0.1,5.4,0.6,9.6,2.5,14.7c1.4,3.7,2.5,5.8,6.7,12.7c1.5,2.5,2.8,4.6,2.8,4.7c0.1,0.2-1.2,0.2-6.5,0.1
		c-8-0.1-10.7,0.1-14.9,1c-3.4,0.8-5.6,1.5-8.7,3c-5.6,2.7-10.2,6.8-14.4,12.7c-2.8,3.9-6.2,10.6-8.7,16.9
		c-5.1,13.1-7.5,28.5-6.9,45.4c0.5,13.8,2.2,24.2,5.7,34.4c2.6,7.7,6.7,15.7,10.7,21.1c1.6,2.1,2.1,2.7,4,4.7
		c5.6,5.7,12.4,9.2,20.6,10.6c3.3,0.6,4.7,0.7,12.2,0.8l7.4,0.1l-4.2,7c-4.2,7-5.5,9.3-6.4,11.8c-0.6,1.5-1.3,4.2-1.6,6.2
		c-0.3,2-0.4,7.2-0.2,9.3c0.8,8.2,4.2,15.9,11.3,25.7c3.3,4.5,6.6,8.4,11,12.7c8.6,8.4,18.3,15.4,31.4,22.3
		c11.3,6,21.8,9.6,32.8,11.3c7.4,1.1,15.2,1.3,20.7,0.5c11.1-1.6,20.1-7.5,26.7-17.3c0.6-0.9,3.4-5.5,6.2-10.2
		c2.8-4.7,5.2-8.6,5.2-8.7c0.1-0.1,2.6,4.1,5.7,9.2c6.8,11.3,7.9,12.9,11.4,16.4c6.3,6.3,13.6,9.8,22.9,10.9
		c2.5,0.3,8.9,0.3,12.3,0.1c16-1.3,30.6-6.4,48.1-16.8c12.9-7.7,23.7-17,31.8-27.4c7.7-9.9,11.7-17.9,13.2-26.3
		c0.3-1.6,0.3-2.3,0.3-5.9c0-3.9,0-4.2-0.4-6.3c-0.5-2.7-1-4.4-1.9-6.6c-1-2.3-2.1-4.3-6.4-11.4l-3.8-6.3l7.6-0.1
		c7.7-0.1,9-0.2,12.2-0.7c8.5-1.4,16-5.5,21.6-11.6c7.1-7.9,13.5-21.3,16.5-34.7c1.2-5.4,2-10.9,2.4-16.4c1.8-24.8-1.6-44.9-10.7-63
		c-2.7-5.4-5.4-9.3-8.7-12.8c-5.1-5.3-12.3-9.3-18.8-10.5c-2.7-0.5-4.7-0.6-13.2-0.6c-4.6,0-8.3,0-8.4-0.1c0,0,1.3-2.4,3-5.1
		c4.3-7,5.9-10.3,7.3-14.4c1.3-4,1.8-6.7,1.9-10.9c0.1-5.2-0.4-8.8-2.1-13.6c-2.1-6.1-6.8-14.1-12-20.5c-3.2-4-9-9.9-12.9-13.3
		c-9.8-8.3-22.3-16.2-33.6-21.2c-10.5-4.7-20.3-7.3-31.5-8.4c-3.5-0.3-11.2-0.3-13.7,0c-10.7,1.5-18.8,6-25.3,14.2
		c-2.2,2.7-3.2,4.4-9.1,14.3c-2.9,4.9-5.3,8.9-5.4,8.8c-0.1-0.1-2.5-4.2-5.5-9.3c-3-5.1-5.8-9.7-6.3-10.4c-4.3-6.3-9-10.6-14.7-13.6
		c-4-2.1-8-3.3-13.1-4C171.2,19.2,164.2,19.1,161.6,19.3z M171.9,30.6c4.8,0.6,8.6,1.9,12.1,4.2c2,1.4,5,4.3,6.7,6.5
		c1.2,1.7,15.8,25.9,15.8,26.2c-0.1,0.2-15.2,25.4-23.8,39.6c-4.4,7.2-8.9,14.7-10,16.5l-2,3.4l-19.4,0.1c-10.6,0.1-28.2,0.1-38.9,0
		c-17.7-0.1-19.6-0.1-19.8-0.3c-0.5-0.6-11.5-18.9-12.3-20.4c-0.9-1.9-1.7-3.9-2.1-5.9c-0.4-1.7-0.4-5.8,0-7.5
		c0.5-2.4,2.1-6.8,3.6-10.1c3.1-6.8,8.5-14.2,14.7-20.5c7.6-7.7,16.4-13.9,28.4-20.2c13.9-7.3,24.4-10.7,36-11.6
		C163.2,30.2,169.8,30.4,171.9,30.6z M266.9,30.6c11,1.2,20.8,4.5,34,11.5c16.1,8.5,27.5,17.7,35.8,29c4.7,6.3,7.7,12,9.8,18.7
		c1.1,3.3,1.1,3.8,1.1,7c0,2.6,0,2.9-0.4,4.3c-0.5,1.9-1.1,3.7-2,5.4c-0.7,1.4-12,20-12.3,20.3c-0.2,0.2-3.9,0.2-39.2,0.2l-38.9-0.1
		l-5-8.3c-20.2-33.3-30.8-51-30.7-51.3c0.1-0.6,14.7-24.6,15.7-26c1.4-1.9,4.5-5,6.2-6.2c1-0.7,2-1.3,3.1-1.8
		c3.5-1.7,6.8-2.5,12.3-2.9C258,30.2,265,30.4,266.9,30.6z M224.5,97.3c6.3,10.5,12.9,21.4,14.6,24.3l3.1,5.2l-29.5,0.1
		c-16.2,0-29.5,0.1-29.6,0s1.6-2.7,3.6-6c15.7-26.1,24.3-40.5,25.1-41.7c0.7-1.2,0.9-1.4,1-1.3C213,78.2,218.2,86.8,224.5,97.3z
		 M92.4,148.2c17.8,29.2,32.6,53.8,32.6,53.9c0,0.1-0.3,0.6-0.6,1.1c-0.8,1.2-26.5,43.9-32.9,54.4c-2.6,4.4-4.9,8-5,8.2
		c-0.2,0.2-0.9,0.3-11.4,0.3c-6.7,0-11.8-0.1-12.7-0.1c-6.2-0.6-10.7-2.9-14.4-7.3c-3.7-4.3-6.3-8.1-8.6-12.7
		c-8.3-16.6-10.9-36-8-61c1.5-13.2,5.3-24,11.8-33.9c5.3-8,11.1-12,19.3-13.1c2.3-0.3,1.9-0.3,13-0.3l10.4,0L92.4,148.2z
		 M163.9,137.8c0,0-3.1,5.2-7,11.6c-3.9,6.3-11.1,18.4-16.2,26.8c-5.1,8.4-9.2,15.2-9.3,15.2c0,0-3.2-5.3-7.1-11.7
		c-3.9-6.4-11.2-18.5-16.2-26.8c-5-8.3-9.1-15.1-9.1-15.1C99.2,137.7,163.9,137.8,163.9,137.8z M256.2,150c4,6.7,12.7,21.1,19.4,32
		c6.6,11,12,20,12,20c0,0.1-19,31.6-31.2,51.8L249,266h-72.4l-5.6-9.3c-6.1-10.1-26.3-43.5-30.5-50.5l-2.6-4.3l11.3-18.8
		c6.2-10.3,15-24.8,19.4-32.1l8-13.3l36.1,0l36.1,0L256.2,150z M324.1,141.7c-4.9,8-22.3,36.9-26.1,43.2c-2.1,3.6-3.9,6.5-4,6.5
		c0,0-4.5-7.3-9.9-16.3s-12.6-20.9-16.1-26.6s-6.3-10.4-6.4-10.5c-0.1-0.3,0.6-0.3,32.3-0.3h32.4L324.1,141.7z M365.2,138.1
		c5,1,8.2,2.7,11.3,6c1.2,1.2,3.6,4.2,5.2,6.5c5.4,7.6,9.2,17.1,11.4,28.3c1.9,9.8,2.7,23,2,32.7c-1,13.1-4,24.4-9.3,35.1
		c-3,6-5,9-8,12c-2.2,2.2-3.8,3.4-6.3,4.6c-3.2,1.6-6.6,2.5-10.7,2.8c-1.2,0.1-5.1,0.1-11.7,0.1c-8.9-0.1-10-0.1-10.2-0.3
		c-0.1-0.1-4.1-6.7-8.9-14.6s-13.3-22.1-19-31.5c-5.7-9.4-10.4-17.2-10.4-17.4c-0.1-0.4-0.3,0,24-40.2c4.8-7.9,10.1-16.6,11.8-19.4
		l3-5.1l12.3,0C362.5,137.9,364.3,137.9,365.2,138.1L365.2,138.1z M140.5,227.7c19.5,32.2,23.1,38.2,23,38.3c0,0-14.5,0-32.2,0
		l-32.1,0l12.7-21c7-11.5,14.2-23.5,16.1-26.6c3-4.9,3.5-5.6,3.6-5.4C131.7,213.1,135.7,219.7,140.5,227.7L140.5,227.7z
		 M306.8,233.7c6.9,11.4,14.1,23.4,16,26.5l3.5,5.7l-32.1,0c-17.7,0-32.1,0-32.2,0c0-0.1,8.3-13.9,26.6-44.2c3-5,5.5-9,5.6-9
		C294.2,212.9,299.9,222.3,306.8,233.7z M170.5,277.4c0.3,0.4,12.3,20.3,26.9,44.7l8.9,14.8l-2.2,3.7c-1.2,2-4.3,7.2-6.9,11.5
		s-5,8.4-5.4,9c-1.9,2.9-4.8,5.9-7.3,7.7c-3.4,2.5-7.9,4.1-12.8,4.6c-2,0.2-8.5,0.1-11.4-0.2c-18.1-1.9-34.6-8.9-52.1-21.9
		c-10.3-7.7-17.8-15.5-23.1-24.1c-2.9-4.7-6.2-12.7-6.9-16.7c-0.3-1.8-0.3-5,0-6.8c0.5-2.1,1.2-4.2,2.1-6.2c0.6-1.2,11.6-19.6,12-20
		c0,0,13.9-0.1,30.8-0.1s34.4-0.1,38.9-0.1l8.1,0L170.5,277.4z M242.2,277.1c0,0-2.8,4.7-6.2,10.3c-6,10-12.9,21.3-19.7,32.7
		c-1.8,3.1-3.4,5.6-3.4,5.7c-0.1,0.1-0.5-0.5-0.9-1.3c-1.9-3.1-14.8-24.6-21.5-35.6c-3.9-6.5-7.1-11.8-7.1-11.9s13.3-0.1,29.5-0.1
		S242.2,277,242.2,277.1L242.2,277.1z M332.9,277.2c0.3,0.1,11.4,18.3,12.4,20.5c0.8,1.7,1.4,3.6,1.9,5.5c0.4,2,0.4,5.4,0,7.4
		c-0.5,2.4-2.2,7-3.9,10.8c-2.2,4.7-5.4,9.7-9.7,14.8c-1.8,2.2-6.7,7.1-9.2,9.2c-9.6,8.2-21,15.6-31.3,20.1
		c-12.1,5.3-24.6,8-36.3,7.8c-2.8-0.1-3.9-0.1-5.2-0.4c-4.1-0.7-7.7-2.2-10.9-4.5c-1.5-1.1-4.5-4.1-5.8-5.8
		c-1.4-1.9-1.8-2.5-6.1-9.8c-2.1-3.6-5.1-8.6-6.7-11.2c-2.5-4.1-2.8-4.7-2.6-5c0.1-0.3,8.3-13.9,33.6-55.9c1.1-1.8,2.1-3.4,2.1-3.5
		c0.1-0.1,10.3-0.1,38.8-0.1C315.2,277.1,332.8,277.2,332.9,277.2L332.9,277.2z M206.5,67.5l6.2-10.7"/>
	<line class="st1" x1="170.6" y1="127" x2="183.2" y2="127"/>
	<line class="st1" x1="219.1" y1="67.3" x2="212.9" y2="78.1"/>
	<line class="st1" x1="333" y1="126.8" x2="346.2" y2="126.8"/>
	<line class="st1" x1="326.4" y1="137.8" x2="339.5" y2="137.8"/>
	<line class="st1" x1="79.2" y1="126.7" x2="85.9" y2="137.6"/>
	<line class="st1" x1="92.5" y1="126.8" x2="99.1" y2="137.7"/>
	<line class="st1" x1="163.9" y1="137.8" x2="176.7" y2="137.8"/>
	<line class="st1" x1="242.3" y1="126.9" x2="248.9" y2="137.8"/>
	<line class="st1" x1="254.9" y1="126.9" x2="261.7" y2="138"/>
	<line class="st2" x1="294" y1="191.4" x2="287.6" y2="202"/>
	<line class="st2" x1="300.7" y1="202.4" x2="294.2" y2="212.8"/>
	<line class="st2" x1="326.3" y1="265.9" x2="332.9" y2="277.2"/>
	<line class="st2" x1="339" y1="265.9" x2="345.8" y2="277.4"/>
	<line class="st2" x1="249" y1="266" x2="262" y2="266"/>
	<line class="st2" x1="242.2" y1="277.1" x2="255.2" y2="277.2"/>
	<line class="st2" x1="219.5" y1="336.6" x2="212.7" y2="347.8"/>
	<line class="st2" x1="212.8" y1="325.8" x2="206.3" y2="336.8"/>
	<line class="st2" x1="176.6" y1="266" x2="183.3" y2="277.1"/>
	<line class="st2" x1="163.5" y1="266" x2="170.5" y2="277.4"/>
	<line class="st2" x1="99.2" y1="265.9" x2="86.6" y2="265.9"/>
	<line class="st2" x1="92.4" y1="277.3" x2="79.7" y2="277.4"/>
	<line class="st2" x1="124.4" y1="203.3" x2="131.5" y2="191.4"/>
	<line class="st2" x1="131.6" y1="212.9" x2="137.9" y2="202"/>
</g>
<g id="Layer_5">
	
		<image style="overflow:visible;opacity:0.7;enable-background:new    ;" width="557" height="599" xlink:href="528C2B06544D94FB.png"  transform="matrix(0.1392 0 0 0.1392 178.5365 162.5677)">
	</image>
	<path class="st3" d="M227.9,240.5l-17.2-22.7h-9.9v22.7h-18.1V167h31.9c20.4,0,32.7,9.5,32.7,25.5c0,11.4-6.2,19.4-17.1,23.1
		l18.7,24.9L227.9,240.5L227.9,240.5z M200.8,182v21.3h13.3c9.6,0,15.1-2.9,15.1-10.5c0-7.4-5.6-10.8-15.1-10.8L200.8,182L200.8,182
		z"/>
</g>
</svg>
