<svg id="Layer_1" data-name="Layer 1" xmlns="http://www.w3.org/2000/svg" xmlns:xlink="http://www.w3.org/1999/xlink" viewBox="0 0 7893.6 4654"><defs><style>.cls-1,.cls-4{isolation:isolate;}.cls-1{opacity:0.6;}.cls-2,.cls-3,.cls-5{fill:#f5ebe0;}.cls-2,.cls-3{stroke:#3d3d3d;}.cls-2{stroke-miterlimit:1;stroke-width:0.5px;}.cls-3,.cls-5{stroke-miterlimit:10;}.cls-3{stroke-width:5px;}.cls-4{opacity:0.7;}.cls-5{stroke:#f5ebe0;stroke-width:22px;}</style></defs><g id="Layer_1-2" data-name="Layer 1"><image class="cls-1" width="2848" height="3245" transform="translate(2523.92 705.47)" xlink:href="528C2B06544D94F8.png"/><path class="cls-2" d="M3579.23,738.38c-131.6,9.4-255.9,55-388,142.5-85.2,56.4-151.1,116.4-200.8,183-32.6,43.6-60.2,92.9-73.7,131.7-10.1,28.8-14.5,52.8-15.2,82.9-1,39,4.1,69,17.9,105.9,10,26.7,17.8,41.7,48,91.3,10.9,18,20.1,33.3,20.4,34,.4,1.1-8.7,1.2-46.9.9-57.7-.6-76.6.8-106.7,7.5-24.3,5.4-40.5,11-62.5,21.8-40,19.6-73.4,49-103.5,90.9-20.1,28.1-44.8,75.9-62.5,121.1-36.9,94.2-53.8,204.9-49.7,325.8,3.4,99.4,15.6,173.8,40.6,247.3,18.8,55.2,48.1,113.1,76.5,151.2,11.3,15.1,14.9,19.2,28.9,33.5,40.1,40.7,89.2,66,148.2,76.2,23.9,4.2,33.7,4.8,87.7,5.4l53.3.6-30.3,50.5c-29.9,50-39.2,66.9-46,84.5-4.1,10.7-9,29.9-11.3,44.5-2.2,14.3-3,51.4-1.5,66.6,6,59.1,30.2,114.1,81.4,184.9,23.7,32.6,47.5,60.2,78.9,91,61.5,60.6,131.6,110.4,225.6,160,81.3,42.9,156.3,68.7,235.2,80.9,52.9,8.2,108.9,9.5,149,3.6,79.7-11.7,144.2-53.6,191.6-124.5,4.4-6.6,24.6-39.7,44.8-73.5s37.2-61.9,37.6-62.3,18.8,29.2,40.9,66c48.9,81.4,56.8,92.7,81.6,117.7,44.9,45.3,97.4,70.2,164.5,78.2,17.6,2.2,64.2,2.4,88,.5,115.1-9.1,219.7-45.8,345.4-120.9,93-55.6,170.4-122.4,228.2-196.7,55.4-71.2,84.2-128.7,94.6-189,2-11.5,2.3-16.5,2.3-42.5,0-27.9-.2-30.4-2.8-45.3-3.4-19.2-7.1-31.9-13.8-47.4-7-16.6-14.9-30.7-45.9-81.9l-27.1-44.9,54.8-.6c55.2-.6,64.9-1.2,87.8-5,61.1-10.3,114.9-39.2,154.8-83.4,51.1-56.6,96.7-152.7,118.2-249.4a811.72,811.72,0,0,0,17-117.6c13.2-178.1-11.4-322.2-77.1-452.5-19.5-38.8-38.5-66.6-62.8-91.8-36.8-38.2-88.5-67-135.1-75.2-19.1-3.4-33.5-4-94.6-4-32.8,0-59.8-.2-60.1-.5s9.4-16.9,21.5-36.8c30.6-50.2,42.6-74.1,52.1-103.5,9.4-29,12.6-48.2,13.3-78.5.9-37-3.2-62.9-15.2-97.7-15.2-43.6-48.7-101.1-85.9-147.5-23.2-29-64.3-71.2-93-95.5-70.1-59.7-160.1-116.4-241.6-152.5-75.3-33.4-146.1-52.2-226-60.2-25.1-2.5-80.3-2.5-98.5.1-77,10.6-134.8,42.9-182,101.8-15.6,19.5-23.3,31.5-65,102.6-20.8,35.4-38.1,64-38.5,63.5s-18.2-30.5-39.5-66.8-41.5-70-44.9-74.9c-30.8-45.2-64.4-76.1-105.6-97.5-28.8-14.9-57.6-23.7-94-28.7C3648.53,737.88,3598,737.08,3579.23,738.38Zm74.2,81.4c34.5,4.2,61.8,13.8,86.8,30.3,14.4,9.7,36.1,30.7,47.9,46.8,8.7,11.9,113.8,186.2,113.3,187.9s-109.2,182.4-171.2,284.6c-31.5,52-63.9,105.3-71.9,118.6l-14.6,24.1-139,.6c-76.4.4-202.3.4-279.7,0-126.8-.6-140.9-.8-142.1-2.2-3.5-4.1-82.9-136-88.2-146.6a186.59,186.59,0,0,1-15.2-42.5c-2.6-12-2.6-42,0-54,3.7-17.1,14.9-48.5,26.1-72.7,22.2-48.5,60.9-102.3,105.9-147.5,54.6-55,117.8-100.1,203.7-145.4,100.1-52.7,175.2-77,258.5-83.3C3590.83,817.18,3638.13,818,3653.43,819.78Zm681.8.1c79,8.5,149.4,32.4,244.3,82.6,115.4,61.1,197.3,127.3,257.3,208.2,33.7,45.3,55.2,86.1,70.7,134.2,7.6,23.5,8.2,27.4,8.2,50,0,18.4-.2,20.9-2.7,30.7a202.16,202.16,0,0,1-14.3,38.9c-5,9.8-85.9,143.6-88.4,146-1.4,1.4-27.9,1.5-281.3,1.1l-279.7-.4-36.2-59.7c-145.3-239.2-221.2-365.9-220.6-368.1,1-4,105.5-176.6,113-186.7,10.2-13.7,32.4-35.8,44.7-44.5a199.86,199.86,0,0,1,22.5-13.2c25-12.4,48.5-18,88-21C4271.93,817.08,4321.53,818.38,4335.23,819.88Zm-304,479c45.3,75.3,92.6,153.9,105.1,174.6l22.6,37.6-212,.7c-116.6.3-212.1.5-212.3.3s11.3-19.7,25.5-43.3c112.8-187.4,174.8-290.5,180.1-299.2,5.1-8.4,6.5-10.1,7.5-9C3948.33,1161.28,3985.93,1223.48,4031.23,1298.88Zm-949,365.7c127.6,210,234.3,386.4,234.3,387.3,0,.5-1.9,4.1-4.3,8-5.5,8.9-190.6,315.6-236,391-18.8,31.3-35,57.8-35.8,58.7-1.4,1.7-6.6,1.8-82.2,1.8-47.8,0-85-.4-91.1-1-44.3-4.4-76.5-20.6-103.6-52.3-26.7-31-45.1-58.4-61.6-91.4-59.8-119.4-78.1-258.3-57.7-438.3,10.8-94.7,37.9-172.5,84.8-243.3,38-57.4,80-86,138.7-94.1,16.4-2.3,13.6-2.3,93.6-2.4l74.6-.2Zm513.7-74.8c.2.1-22.3,37.6-50,83.2s-79.9,132.1-116.2,192.2-66.2,109.2-66.5,109.2-23.3-38-51.2-84.3-80.1-132.9-116.1-192.4-65.3-108.4-65.2-108.5C3131.13,1588.78,3595.53,1589.38,3595.93,1589.78Zm662.9,87.1c28.9,47.8,91.4,151.4,139,230.1s86.4,143.4,86.4,143.7c0,.5-136.4,226.8-224.3,371.9l-53.2,87.8h-520l-40.4-66.8c-43.8-72.3-189-312.7-218.9-362.4l-18.4-30.6,81.4-134.9c44.8-74.1,107.5-177.9,139.2-230.6l57.8-95.7,259.5.2,259.5.3Zm487.2-59.3c-35,57.8-160,264.8-187.2,310-15.4,25.7-28.3,46.7-28.6,46.8s-32.2-52.5-71-116.7-90.6-150-115.3-190.7-45.2-74.7-45.8-75.7c-.9-1.9,4.1-1.9,232-1.9h233Zm295.5-25.9c35.7,7.4,58.6,19.4,81.4,42.8,8.5,8.8,25.5,30,37.3,46.5,38.7,54.3,66.3,122.9,81.9,203.5,13.5,70.3,19.2,164.9,14.1,234.9-6.9,93.9-28.4,175.2-66.6,252-21.6,43.4-35.7,64.5-57.8,86.5-15.6,15.5-27.5,24.2-45.1,33-22.7,11.3-47.6,18-76.7,20.4-8.4.7-36.6.9-84.2.4-63.6-.6-71.7-.8-72.9-2.2-.8-.9-29.4-48.2-63.7-105.1s-95.6-158.6-136.3-226-74.4-123.6-75-125c-1-2.7-2.5-.1,172.5-288.5,34.4-56.7,72.3-119.3,84.4-139.2l21.9-36.3,88.5.3C5021.93,1590,5034.73,1590.28,5041.53,1591.68Zm-1613.8,643.2c139.8,231.5,165.7,274.6,165.3,275.1-.3.2-104.3.3-231.1.2l-230.6-.3,91-150.5c50.1-82.8,102.1-168.8,115.6-191.2,21.2-35,24.8-40.5,25.8-39C3364.43,2130.08,3393.23,2177.68,3427.73,2234.88Zm1194.6,43.5c49.6,82.2,101.5,167.9,115.1,190.5l24.8,41-230.7.3c-126.8.1-230.8,0-231.1-.2-.3-.4,59.4-99.7,190.9-317.3,21.7-35.9,39.7-64.9,40-64.5S4572.63,2196.18,4622.33,2278.38ZM3643,2592.08c2.1,3,88.1,145.8,193.2,320.9l63.8,106.1-15.8,26.4c-8.6,14.5-30.8,51.8-49.2,82.9s-35.8,60-38.7,64.3c-13.9,20.6-34.4,42.2-52.2,55-24.6,17.6-56.8,29.1-91.8,32.8-14.6,1.5-60.8.6-81.6-1.6-129.7-13.7-248.6-63.7-374.5-157.6-74.2-55.3-127.6-111.2-165.7-173.2-20.5-33.6-44.5-91-49.9-119.7-2.4-12.9-2.4-36.2,0-48.5a196.45,196.45,0,0,1,15.4-44.6c4.2-8.4,83.1-140.5,86-143.9.2-.3,99.9-.7,221.5-1s247.4-.6,279.4-.8l58.2-.2Zm515.2-2.2c0,.3-20.1,33.7-44.7,74.3-43.4,71.7-92.6,153.2-141.6,234.7-13.2,22-24.3,40.4-24.7,40.8s-3.3-3.6-6.5-9c-13.4-22.4-106.5-176.8-154.2-255.6-28.2-46.7-51.3-85-51.3-85.3s95.2-.4,211.5-.4S4158.23,2589.58,4158.23,2589.88Zm651.5,1.1c2.5.5,81.9,131.7,89.4,147.5a179.5,179.5,0,0,1,13.3,39.2c3.1,14.3,3.1,38.8,0,53.3-3.6,16.9-15.8,50.3-28.2,77.4-15.5,33.7-39.1,69.7-69.7,106-13.1,15.5-48.4,50.7-66.3,66.1-68.8,59.2-150.9,112-225,144.7-86.6,38.2-177,57.6-260.4,55.9-19.8-.4-27.7-.9-37.6-2.7-29.8-5.3-55.1-15.8-78.2-32.5-10.8-7.8-32.5-29.5-41.4-41.5-10-13.4-12.8-17.8-43.9-70.5-15.3-25.9-36.8-62.1-47.8-80.5-17.6-29.6-19.8-33.8-19-36s59.6-100.1,241.1-401.5c7.9-13.2,14.8-24.5,15.3-25.1.7-.9,73.8-1,278.7-.7C4682.73,2590.28,4808.63,2590.68,4809.73,2591Zm-908.3-1506.2,44.8-77.1"/><path class="cls-2" d="M4988.23,3441.38c-52.5,9.5-86.7,42.1-95.6,90.8-1,5.4-1.8,17.6-2.1,31.9l-.6,23.3h-44.7v68h45v256h97v-256l40.3-.2,40.2-.3.3-33.8.2-33.7h-81v-14.8c0-18.1,1.2-25.9,5-33.9,5.1-10.5,14.6-16.6,28.7-18.6,12.8-1.9,29.8,2,42.7,9.8,3.2,1.9,6.1,3.5,6.5,3.4,1.2,0,34.3-69,33.8-70.3-.8-2-17.1-10-28.6-14-19.1-6.7-31.8-8.7-55.6-9.2C5002.13,3439.48,4997,3439.78,4988.23,3441.38Z"/><path class="cls-2" d="M3993.93,3467.38c-50.7,3.9-98.9,22.5-135.5,52.2a217.21,217.21,0,0,0-73.1,114.1c-4.4,16.7-6.2,30.2-6.8,50.2-2.2,73.2,29.1,140.7,85.8,184.5,37.6,29,84.3,45.4,135.9,47.6,62.7,2.8,129.1-23.5,181.5-71.8l6.9-6.5-3.4-4c-1.9-2.2-15.1-16.6-29.4-32.1l-25.9-28.1-8.6,7.5c-16.9,14.7-40,28.4-59.6,35.4-65.5,23.1-134.9-3.2-165.2-62.6-10.7-21-14.2-34.7-15-59.4-.9-27.4,2.8-45.5,13.7-67.5,18.7-37.8,53.1-63.5,95.3-71.2,12.5-2.3,36.3-2.2,47.2.1,31.4,6.8,63.7,25.1,86.4,49,2.9,3.1,5.6,5.4,6.1,5.1.7-.4,52.1-62.7,56.3-68.3,2-2.6-17.4-19.8-36.5-32.5C4103.83,3478.48,4046.93,3463.28,3993.93,3467.38Z"/><path class="cls-2" d="M2604.23,3690.88v220.5h100v-126H2755l50.7.1,34.9,62.9,34.8,63h56.4c31,0,56.4-.2,56.4-.5s-20.9-33-46.5-72.6-46.4-72.3-46.3-72.4,4-2.2,8.6-4.5c23-12.2,44-33.8,56.1-57.7,12.9-25.7,17.8-51.3,16.8-87.1-.6-21.4-2.4-32.3-7.7-48.4-15.3-45.8-51-76.7-104.3-90.2-28.4-7.2-22.8-7-147.9-7.3l-112.8-.4Zm225.4-134.2q45,12.15,51.6,53.9c1.6,9.8.8,32.1-1.4,40.3a62,62,0,0,1-16.5,28.6c-8.3,8.2-14.7,12.2-25.9,16.3-15.3,5.5-19.2,5.8-78.4,6.3l-54.8.5v-149.3l57.8.3,57.7.4Z"/><path class="cls-2" d="M5130.93,3494.08c-.4.3-.7,21.5-.7,47v46.3h-47v67h47v82.2c0,53.9.4,85.4,1.1,91.3,4.5,36.8,22.6,63.2,53.4,77.6,35.1,16.5,85.9,13.7,130.3-7.1,5.6-2.7,10.2-5.4,10.2-6,0-1.6-19.2-69.4-19.9-70.1-.3-.4-4.9,1.1-10.1,3.2-15.7,6.3-20.9,7.4-35.5,7.4-12.4,0-13.2-.1-17.7-2.8-5.8-3.4-9.2-7.7-12.1-15.3-2.2-5.9-2.2-6.2-2.5-82.7l-.3-76.7h92.1v-68h-92v-94h-47.8C5153.13,3493.38,5131.23,3493.68,5130.93,3494.08Z"/><path class="cls-2" d="M3559.73,3569.08c-40.7,3.3-73.2,12.1-113.8,30.8-8.1,3.7-15,7.1-15.2,7.5-.4.7,28,64.6,29.4,66.2.4.5,5.5-1.6,11.3-4.5a239.79,239.79,0,0,1,59.2-20.9c8.6-1.9,13.2-2.2,30.6-2.2,18,0,21.5.3,28.5,2.2,21.3,5.9,34.5,17.7,39.8,35.9a73.33,73.33,0,0,1,2.2,14.2l.8,9.1H3584c-61.9,0-77.5,1.2-100.1,7.6-50.1,14.2-77,50.5-74.4,100.7,1.5,29.2,11.4,51.7,30.8,70.3,19.4,18.4,46.3,28.6,79.3,30.1,42.4,1.9,81-11.1,105.2-35.4l7.4-7.3v38h96.3l-.6-116.7c-.7-124.4-.7-124.3-5.7-142.3-2.6-9.3-9.4-23.7-15-32.1-8.6-12.6-24.9-26.7-39.2-34-24-12.2-52.9-18.1-87.3-17.7C3571.43,3568.68,3561.93,3568.88,3559.73,3569.08Zm72.3,213.1-.3,16.9-4.3,8.6c-11.7,23.6-40.6,38.7-74.2,38.7-28.7,0-48.2-13.3-52.1-35.4-2-12,.7-23.6,7.4-31.2s16.5-11.5,34.2-13.7c1.7-.2,22.5-.5,46.3-.6l43.4-.1Z"/><path class="cls-2" d="M4437.33,3569.48c-21.7,2.8-43.3,11.2-59.2,23-9.1,6.7-22.6,21-29.3,31l-5.6,8.4v-59.5h-98v339h98V3825c0-94.9.1-96,6.1-111.6,11.5-29.9,38.4-48.7,76-53.1a170.26,170.26,0,0,1,20.1-.7l9.8.5v-91.7l-5.7.1C4446.33,3568.58,4440.83,3569,4437.33,3569.48Z"/><path class="cls-2" d="M4620.23,3569.08c-36.5,3.5-60.3,9.1-90.5,21-15,5.9-38.5,16.8-38.5,17.8s29,64.9,29.9,65.7c.4.5,3.6-.8,7.3-2.7,18.1-9.6,43.5-18.8,63.2-22.7,14.9-3,44.9-3.3,56.7-.5,27.9,6.5,43.9,25.3,43.9,51.4v8.3h-48.4c-52.6,0-67.8.8-86.2,4.5-27.3,5.5-48.1,15.9-62.6,31.4-11.3,12-17.3,22.8-22,40.1-2,7.5-2.3,10.6-2.2,27,0,16.7.3,19.5,2.7,28.2,9.1,34.1,32.1,58.6,65.7,70.1,15.9,5.5,26.8,7.1,48,7.1,21,0,31.7-1.4,48-6.1,19.8-5.7,34.4-14,48.6-27.6l9.4-8.9v38.2h96.1l-.6-115.3c-.7-124.5-.8-128.1-6.2-145.1-5.7-18.3-13.9-32-26.4-44.6-20.7-20.7-49.7-32.9-88.1-37C4659.13,3568.48,4628.53,3568.18,4620.23,3569.08Zm71.8,214.1-.3,17.8-3.4,6.9c-5.1,10.4-16.8,21.7-28.6,27.7-10.8,5.5-16.2,7.3-27.9,9.3-42.6,7.3-72.6-11.7-70.3-44.6,1.3-19.9,14-31,38.7-33.9,3.6-.4,25.8-.8,49.3-.9l42.8-.1Z"/><path class="cls-2" d="M3175,3571c-29.9,4.4-57.7,15.4-80.1,32-10.8,7.9-28,26.1-35.5,37.4-34.8,52.2-39,130.7-10.1,187.7,21.8,43,60.9,72,111.6,82.7,16.3,3.4,28.5,4.6,47,4.6,42.8,0,80.7-10.7,111.8-31.4,11.3-7.6,29.6-23.1,31.5-26.7,1-1.7-1.7-4.9-24.1-27.9l-25.2-25.9-5.6,5c-12.6,11.4-31,21.6-47.1,26.2-18.6,5.4-41.9,6.1-58.4,1.8-30.2-7.9-52.1-30.2-62.1-62.9l-.6-2.2h244.3l-.5-27.3c-.4-21.3-.9-29.8-2.5-39.2-6.9-39.7-19.8-67.5-41.8-90.5-23.3-24.2-53.3-38.4-92.2-43.5C3221.23,3569,3188.43,3569.08,3175,3571Zm52.8,72.4c13.2,3.4,21.8,8.3,31.4,18,6.9,6.8,9.4,10.2,12.7,17,4.8,9.9,7.3,18.5,8,28.7l.6,7.3h-154.3l.6-2.8c6.5-29.5,19.7-49.5,40.4-61.5,5.9-3.4,17.9-7.4,26-8.6C3202.13,3640.08,3218.53,3641.08,3227.83,3643.38Z"/><line class="cls-2" x1="3643.73" y1="1512.08" x2="3734.63" y2="1512.08"/><line class="cls-2" x1="3992.53" y1="1083.38" x2="3947.73" y2="1160.58"/><line class="cls-2" x1="4810.33" y1="1510.48" x2="4905.03" y2="1510.48"/><line class="cls-2" x1="4763.13" y1="1589.38" x2="4856.73" y2="1589.38"/><line class="cls-2" x1="2987.83" y1="1509.68" x2="3035.93" y2="1588.38"/><line class="cls-2" x1="3082.93" y1="1510.48" x2="3130.73" y2="1589.18"/><line class="cls-2" x1="3595.93" y1="1589.78" x2="3687.43" y2="1589.78"/><line class="cls-2" x1="4158.93" y1="1511.08" x2="4206.43" y2="1589.88"/><line class="cls-2" x1="4249.33" y1="1511.18" x2="4298.13" y2="1591.28"/><line class="cls-3" x1="4530.25" y1="1974.35" x2="4484.25" y2="2050.65"/><line class="cls-3" x1="4577.95" y1="2053.35" x2="4531.35" y2="2128.15"/><line class="cls-3" x1="4762.25" y1="2509.85" x2="4809.75" y2="2590.95"/><line class="cls-3" x1="4852.95" y1="2509.45" x2="4902.15" y2="2591.85"/><line class="cls-3" x1="4206.75" y1="2510.35" x2="4300.45" y2="2509.95"/><line class="cls-3" x1="4158.25" y1="2589.85" x2="4251.35" y2="2590.75"/><line class="cls-3" x1="3994.95" y1="3017.35" x2="3946.25" y2="3098.05"/><line class="cls-3" x1="3947.25" y1="2939.65" x2="3900.05" y2="3019.05"/><line class="cls-3" x1="3686.75" y1="2510.35" x2="3735.25" y2="2589.75"/><line class="cls-3" x1="3593.05" y1="2509.95" x2="3643.05" y2="2592.05"/><line class="cls-3" x1="3131.35" y1="2509.85" x2="3040.45" y2="2509.55"/><line class="cls-3" x1="3082.05" y1="2591.35" x2="2991.25" y2="2591.85"/><line class="cls-3" x1="3312.25" y1="2059.85" x2="3363.25" y2="1974.35"/><line class="cls-3" x1="3363.75" y1="2129.15" x2="3409.05" y2="2050.55"/></g><g id="Layer_5" data-name="Layer 5"><image class="cls-4" width="557" height="599" transform="translate(3700.92 1767.47)" xlink:href="528C2B06544D94FB.png"/><path class="cls-5" d="M4055.35,2327.05l-123.6-162.8h-70.9v162.8h-129.7v-527.7h229.2c146.3,0,234.5,67.9,234.5,183.2,0,82.2-44.5,139.5-122.9,165.9l134.2,178.7h-150.8Zm-194.5-420v153h95.7c68.6,0,108.6-21.1,108.6-75.4,0-52.8-40-77.7-108.6-77.7h-95.7Z"/></g></svg>