<?xml version="1.0" encoding="utf-8"?>
<!-- Generator: Adobe Illustrator 26.2.1, SVG Export Plug-In . SVG Version: 6.00 Build 0)  -->
<svg version="1.1" id="Layer_1" xmlns="http://www.w3.org/2000/svg" xmlns:xlink="http://www.w3.org/1999/xlink" x="0px" y="0px"
	 viewBox="0 0 2848 3245" style="enable-background:new 0 0 2848 3245;" xml:space="preserve">
<style type="text/css">
	.st0{display:none;}
	.st1{display:inline;fill:#778DA9;stroke:#878962;stroke-width:0.1;stroke-miterlimit:10;}
	.st2{fill:#343435;stroke:#2D2D2D;stroke-width:0.5;stroke-miterlimit:1;}
	.st3{display:none;fill:#343435;stroke:#2D2D2D;stroke-width:0.5;stroke-miterlimit:1;}
	.st4{fill:none;stroke:#2D2D2D;stroke-width:0.5;stroke-miterlimit:1;}
	.st5{fill:none;stroke:#2D2D2D;stroke-width:5;stroke-miterlimit:10;}
	.st6{fill:none;stroke:#2D2D2D;stroke-width:22;stroke-miterlimit:10;}
	.st7{display:inline;}
	.st8{stroke:#878962;stroke-width:1.000000e-02;stroke-miterlimit:1;}
</style>
<g id="Layer_2_00000014624665268643531410000014971205752119939202_" class="st0">
	<rect x="-2523.9" y="-705.4" class="st1" width="7893.5" height="4653.9"/>
</g>
<g id="Layer_1_00000036235239670962657190000017752305454335525808_">
	<g transform="translate(0.000000,3180.000000) scale(0.100000,-0.100000)">
		<g>
			<g>
				<path class="st2" d="M10553.1,31470.9c-1316-94-2559-550-3880-1425c-852-564-1511-1164-2008-1830c-326-436-602-929-737-1317
					c-101-288-145-528-152-829c-10-390,41-690,179-1059c100-267,178-417,480-913c109-180,201-333,204-340c4-11-87-12-469-9
					c-577,6-766-8-1067-75c-243-54-405-110-625-218c-400-196-734-490-1035-909c-201-281-448-759-625-1211
					c-369-942-538-2049-497-3258c34-994,156-1738,406-2473c188-552,481-1131,765-1512c113-151,149-192,289-335
					c401-407,892-660,1482-762c239-42,337-48,877-54l533-6l-303-505c-299-500-392-669-460-845c-41-107-90-299-113-445
					c-22-143-30-514-15-666c60-591,302-1141,814-1849c237-326,475-602,789-910c615-606,1316-1104,2256-1600
					c813-429,1563-687,2352-809c529-82,1089-95,1490-36c797,117,1442,536,1916,1245c44,66,246,397,448,735c203,338,372,619,376,623
					c4,5,188-292,409-660c489-814,568-927,816-1177c449-453,974-702,1645-782c176-22,642-24,880-5c1151,91,2197,458,3454,1209
					c930,556,1704,1224,2282,1967c554,712,842,1287,946,1890c20,115,23,165,23,425c0,279-2,304-28,453c-34,192-71,319-138,474
					c-70,166-149,307-459,819l-271,449l548,6c552,6,649,12,878,50c611,103,1149,392,1548,834c511,566,967,1527,1182,2494
					c85,386,138,751,170,1176c132,1781-114,3222-771,4525c-195,388-385,666-628,918c-368,382-885,670-1351,752
					c-191,34-335,40-946,40c-328,0-598,2-601,5c-3,4,94,169,215,368c306,502,426,741,521,1035c94,290,126,482,133,785
					c9,370-32,629-152,977c-152,436-487,1011-859,1475c-232,290-643,712-930,955c-701,597-1601,1164-2416,1525
					c-753,334-1461,522-2260,602c-251,25-803,25-985-1c-770-106-1348-429-1820-1018c-156-195-233-315-650-1026
					c-208-354-381-640-385-635c-4,4-182,305-395,668s-415,700-449,749c-308,452-644,761-1056,975c-288,149-576,237-940,287
					C11246.1,31475.9,10741.1,31483.9,10553.1,31470.9z M11295.1,30656.9c345-42,618-138,868-303c144-97,361-307,479-468
					c87-119,1138-1862,1133-1879c-6-17-1092-1824-1712-2846c-315-520-639-1053-719-1186l-146-241l-1390-6c-764-4-2023-4-2797,0
					c-1268,6-1409,8-1421,22c-35,41-829,1360-882,1466c-66,130-123,290-152,425c-26,120-26,420,0,540c37,171,149,485,261,727
					c222,485,609,1023,1059,1475c546,550,1178,1001,2037,1454c1001,527,1752,770,2585,833
					C10669.1,30682.9,11142.1,30674.9,11295.1,30656.9z M18113.1,30655.9c790-85,1494-324,2443-826c1154-611,1973-1273,2573-2082
					c337-453,552-861,707-1342c76-235,82-274,82-500c0-184-2-209-27-307c-33-131-86-275-143-389c-50-98-859-1436-884-1460
					c-14-14-279-15-2813-11l-2797,4l-362,597c-1453,2392-2212,3659-2206,3681c10,40,1055,1766,1130,1867c102,137,324,358,447,445
					c52,37,154,97,225,132c250,124,485,180,880,210C17480.1,30683.9,17976.1,30670.9,18113.1,30655.9z M15073.1,25865.9
					c453-753,926-1539,1051-1746l226-376l-2120-7c-1166-3-2121-5-2123-3s113,197,255,433c1128,1874,1748,2905,1801,2992
					c51,84,65,101,75,90C14244.1,27241.9,14620.1,26619.9,15073.1,25865.9z M5583.1,22208.9c1276-2100,2343-3864,2343-3873
					c0-5-19-41-43-80c-55-89-1906-3156-2360-3910c-188-313-350-578-358-587c-14-17-66-18-822-18c-478,0-850,4-911,10
					c-443,44-765,206-1036,523c-267,310-451,584-616,914c-598,1194-781,2583-577,4383c108,947,379,1725,848,2433
					c380,574,800,860,1387,941c164,23,136,23,936,24l746,2L5583.1,22208.9z M10720.1,22956.9c2-1-223-376-500-832
					c-276-456-799-1321-1162-1922c-362-600-662-1092-665-1092c-3,1-233,380-512,843s-801,1329-1161,1924s-653,1084-652,1085
					C6072.1,22966.9,10716.1,22960.9,10720.1,22956.9z M17349.1,22085.9c289-478,914-1514,1390-2301c475-787,864-1434,864-1437
					c0-5-1364-2268-2243-3719l-532-878h-2600h-2600l-404,668c-438,723-1890,3127-2189,3624l-184,306l814,1349
					c448,741,1075,1779,1392,2306l578,957l2595-2l2595-3L17349.1,22085.9z M22221.1,22678.9c-350-578-1600-2648-1872-3100
					c-154-257-283-467-286-468c-3,0-322,525-710,1167c-388,643-906,1500-1153,1907c-246,406-452,747-458,757c-9,19,41,19,2320,19
					h2330L22221.1,22678.9z M25176.1,22937.9c357-74,586-194,814-428c85-88,255-300,373-465c387-543,663-1229,819-2035
					c135-703,192-1649,141-2349c-69-939-284-1752-666-2520c-216-434-357-645-578-865c-156-155-275-242-451-330
					c-227-113-476-180-767-204c-84-7-366-9-842-4c-636,6-717,8-729,22c-8,9-294,482-637,1051s-956,1586-1363,2260
					s-744,1236-750,1250c-10,27-25,1,1725,2885c344,567,723,1193,844,1392l219,363l885-3
					C24980.1,22954.9,25108.1,22951.9,25176.1,22937.9z M9038.1,16505.9c1398-2315,1657-2746,1653-2751c-3-2-1043-3-2311-2l-2306,3
					l910,1505c501,828,1021,1688,1156,1912c212,350,248,405,258,390C8405.1,17553.9,8693.1,17077.9,9038.1,16505.9z
					 M20984.1,16070.9c496-822,1015-1679,1151-1905l248-410l-2307-3c-1268-1-2308,0-2311,2c-3,4,594,997,1909,3173
					c217,359,397,649,400,645S20487.1,16892.9,20984.1,16070.9z M11191.1,12933.9c21-30,881-1458,1932-3209l638-1061l-158-264
					c-86-145-308-518-492-829s-358-600-387-643c-139-206-344-422-522-550c-246-176-568-291-918-328c-146-15-608-6-816,16
					c-1297,137-2486,637-3745,1576c-742,553-1276,1112-1657,1732c-205,336-445,910-499,1197c-24,129-24,362,0,485
					c27,136,90,319,154,446c42,84,831,1405,860,1439c2,3,999,7,2215,10c1217,3,2474,6,2794,8l582,2L11191.1,12933.9z
					 M16343.1,12955.9c0-3-201-337-447-743c-434-717-926-1532-1416-2347c-132-220-243-404-247-408s-33,36-65,90
					c-134,224-1065,1768-1542,2556c-282,467-513,850-513,853c0,2,952,4,2115,4S16343.1,12958.9,16343.1,12955.9z M22858.1,12944.9
					c25-5,819-1317,894-1475c60-128,104-256,133-392c31-143,31-388,0-533c-36-169-158-503-282-774c-155-337-391-697-697-1060
					c-131-155-484-507-663-661c-688-592-1509-1120-2250-1447c-866-382-1770-576-2604-559c-198,4-277,9-376,27
					c-298,53-551,158-782,325c-108,78-325,295-414,415c-100,134-128,178-439,705c-153,259-368,621-478,805c-176,296-198,338-190,360
					c8,21,596,1001,2411,4015c79,132,148,245,153,251c7,9,738,10,2787,7C21588.1,12951.9,22847.1,12947.9,22858.1,12944.9z
					 M13775.1,28006.9l448,771"/>
				<path class="st3" d="M12908.1,20134.9c-228-49-412-233-460-459c-22-105-22-2535,0-2640c50-239,245-426,488-469l37-7v1461v1461
					l778-4c679-3,788-6,862-21c404-80,656-250,792-535c62-130,89-249,95-426c9-245-21-405-112-590c-84-172-203-300-364-390
					c-50-28-69-44-65-55c16-44,571-890,584-890c33,1,156,51,208,85c111,75,186,170,238,305l29,75l3,1285c2,1149,1,1293-13,1358
					c-46,204-201,375-405,445l-65,22l-1280,2C13154.1,20148.9,12968.1,20147.9,12908.1,20134.9z"/>
				<path class="st3" d="M13653.1,18416.9v-506h365c413,0,470,6,592,66c164,79,247,227,247,439c0,256-117,410-361,477
					c-71,19-111,21-460,26l-383,4V18416.9z"/>
				<path class="st3" d="M13653.1,16950.9v-390h559h559l-216,390l-217,390h-342h-343V16950.9z"/>
				<path class="st2" d="M24643.1,4440.9c-525-95-867-421-956-908c-10-54-18-176-21-319l-6-233h-223h-224v-340v-340h225h225v-1280
					v-1280h485h485v1280v1280l403,2l402,3l3,338l2,337h-405h-405v148c0,181,12,259,50,339c51,105,146,166,287,186
					c128,19,298-20,427-98c32-19,61-35,65-34c12,0,343,690,338,703c-8,20-171,100-286,140c-191,67-318,87-556,92
					C24782.1,4459.9,24731.1,4456.9,24643.1,4440.9z"/>
				<path class="st2" d="M14700.1,4180.9c-507-39-989-225-1355-522c-357-290-616-693-731-1141c-44-167-62-302-68-502
					c-22-732,291-1407,858-1845c376-290,843-454,1359-476c627-28,1291,235,1815,718l69,65l-34,40c-19,22-151,166-294,321l-259,281
					l-86-75c-169-147-400-284-596-354c-655-231-1349,32-1652,626c-107,210-142,347-150,594c-9,274,28,455,137,675
					c187,378,531,635,953,712c125,23,363,22,472-1c314-68,637-251,864-490c29-31,56-54,61-51c7,4,521,627,563,683
					c20,26-174,198-365,325C15799.1,4069.9,15230.1,4221.9,14700.1,4180.9z"/>
				<path class="st2" d="M803.1,1945.9v-2205h500h500v630v630h508l507-1l349-629l348-630h564c310,0,564,2,564,5c0,3-209,330-465,726
					c-256,397-464,723-463,724c2,1,40,22,86,45c230,122,440,338,561,577c129,257,178,513,168,871c-6,214-24,323-77,484
					c-153,458-510,767-1043,902c-284,72-228,70-1479,73l-1128,4V1945.9z M3057.1,3287.9c300-81,472-261,516-539c16-98,8-321-14-403
					c-31-113-83-204-165-286c-83-82-147-122-259-163c-153-55-192-58-784-63l-548-5v747v746l578-3l577-4L3057.1,3287.9z"/>
				<path class="st2" d="M26070.1,3913.9c-4-3-7-215-7-470v-463h-235h-235v-335v-335h235h235v-822c0-539,4-854,11-913
					c45-368,226-632,534-776c351-165,859-137,1303,71c56,27,102,54,102,60c0,16-192,694-199,701c-3,4-49-11-101-32
					c-157-63-209-74-355-74c-124,0-132,1-177,28c-58,34-92,77-121,153c-22,59-22,62-25,827l-3,767h461h460v340v340h-460h-460v470
					v470h-478C26292.1,3920.9,26073.1,3917.9,26070.1,3913.9z"/>
				<path class="st2" d="M10358.1,3163.9c-407-33-732-121-1138-308c-81-37-150-71-152-75c-4-7,280-646,294-662c4-5,55,16,113,45
					c195,98,379,163,592,209c86,19,132,22,306,22c180,0,215-3,285-22c213-59,345-177,398-359c9-28,19-92,22-142l8-91h-485
					c-619,0-775-12-1001-76c-501-142-770-505-744-1007c15-292,114-517,308-703c194-184,463-286,793-301c424-19,810,111,1052,354
					l74,73v-190v-190h482h481l-6,1167c-7,1244-7,1243-57,1423c-26,93-94,237-150,321c-86,126-249,267-392,340
					c-240,122-529,181-873,177C10475.1,3167.9,10380.1,3165.9,10358.1,3163.9z M11081.1,1032.9l-3-169l-43-86
					c-117-236-406-387-742-387c-287,0-482,133-521,354c-20,120,7,236,74,312s165,115,342,137c17,2,225,5,463,6l434,1L11081.1,1032.9
					z"/>
				<path class="st2" d="M19134.1,3159.9c-217-28-433-112-592-230c-91-67-226-210-293-310l-56-84v298v297h-490h-490v-1695v-1695h490
					h490v864c0,949,1,960,61,1116c115,299,384,487,760,531c56,6,147,9,201,7l98-5v459v458l-57-1
					C19224.1,3168.9,19169.1,3164.9,19134.1,3159.9z"/>
				<path class="st2" d="M20963.1,3163.9c-365-35-603-91-905-210c-150-59-385-168-385-178c0-9,290-649,299-657c4-5,36,8,73,27
					c181,96,435,188,632,227c149,30,449,33,567,5c279-65,439-253,439-514v-83h-484c-526,0-678-8-862-45c-273-55-481-159-626-314
					c-113-120-173-228-220-401c-20-75-23-106-22-270c0-167,3-195,27-282c91-341,321-586,657-701c159-55,268-71,480-71
					c210,0,317,14,480,61c198,57,344,140,486,276l94,89v-191v-191h481h480l-6,1153c-7,1245-8,1281-62,1451c-57,183-139,320-264,446
					c-207,207-497,329-881,370C21352.1,3169.9,21046.1,3172.9,20963.1,3163.9z M21681.1,1022.9l-3-178l-34-69
					c-51-104-168-217-286-277c-108-55-162-73-279-93c-426-73-726,117-703,446c13,199,140,310,387,339c36,4,258,8,493,9l428,1
					L21681.1,1022.9z"/>
				<path class="st2" d="M6511.1,3144.9c-299-44-577-154-801-320c-108-79-280-261-355-374c-348-522-390-1307-101-1877
					c218-430,609-720,1116-827c163-34,285-46,470-46c428,0,807,107,1118,314c113,76,296,231,315,267c10,17-17,49-241,279l-252,259
					l-56-50c-126-114-310-216-471-262c-186-54-419-61-584-18c-302,79-521,302-621,629l-6,22h1221h1222l-5,273c-4,213-9,298-25,392
					c-69,397-198,675-418,905c-233,242-533,384-922,435C6973.1,3164.9,6645.1,3163.9,6511.1,3144.9z M7039.1,2420.9
					c132-34,218-83,314-180c69-68,94-102,127-170c48-99,73-185,80-287l6-73h-772h-771l6,28c65,295,197,495,404,615
					c59,34,179,74,260,86C6782.1,2453.9,6946.1,2443.9,7039.1,2420.9z"/>
				<line class="st4" x1="11198.1" y1="23733.9" x2="12107.1" y2="23733.9"/>
				<g>
					<line class="st4" x1="14686.1" y1="28020.9" x2="14238.1" y2="27248.9"/>
					<line class="st4" x1="22864.1" y1="23749.9" x2="23811.1" y2="23749.9"/>
					<line class="st4" x1="22392.1" y1="22960.9" x2="23328.1" y2="22960.9"/>
					<line class="st4" x1="4639.1" y1="23757.9" x2="5120.1" y2="22970.9"/>
					<line class="st4" x1="5590.1" y1="23749.9" x2="6068.1" y2="22962.9"/>
					<line class="st4" x1="10720.1" y1="22956.9" x2="11635.1" y2="22956.9"/>
					<line class="st4" x1="16350.1" y1="23743.9" x2="16825.1" y2="22955.9"/>
					<line class="st4" x1="17254.1" y1="23742.9" x2="17742.1" y2="22941.9"/>
				</g>
			</g>
		</g>
	</g>
	<line class="st5" x1="2006.3" y1="1268.9" x2="1960.3" y2="1345.2"/>
	<line class="st5" x1="2054" y1="1347.9" x2="2007.4" y2="1422.7"/>
	<line class="st5" x1="2238.3" y1="1804.4" x2="2285.8" y2="1885.5"/>
	<line class="st5" x1="2329" y1="1804" x2="2378.2" y2="1886.4"/>
	<line class="st5" x1="1682.8" y1="1804.9" x2="1776.5" y2="1804.5"/>
	<line class="st5" x1="1634.3" y1="1884.4" x2="1727.4" y2="1885.3"/>
	<line class="st5" x1="1471" y1="2311.9" x2="1422.3" y2="2392.6"/>
	<line class="st5" x1="1423.3" y1="2234.2" x2="1376.1" y2="2313.6"/>
	<line class="st5" x1="1162.8" y1="1804.9" x2="1211.3" y2="1884.3"/>
	<line class="st5" x1="1069.1" y1="1804.5" x2="1119.1" y2="1886.6"/>
	<line class="st5" x1="607.4" y1="1804.4" x2="516.5" y2="1804.1"/>
	<line class="st5" x1="558.1" y1="1885.9" x2="467.3" y2="1886.4"/>
	<line class="st5" x1="788.3" y1="1354.4" x2="839.3" y2="1268.9"/>
	<line class="st5" x1="839.8" y1="1423.7" x2="885.1" y2="1345.1"/>
</g>
<g id="Layer_5">
	<g>
		<g>
			<g>
				<path class="st6" d="M1531.4,1621.6l-123.6-162.8h-70.9v162.8h-129.7v-527.7h229.2c146.3,0,234.5,67.9,234.5,183.2
					c0,82.2-44.5,139.5-122.9,165.9l134.2,178.7L1531.4,1621.6L1531.4,1621.6z M1336.9,1201.6v153h95.7
					c68.6,0,108.6-21.1,108.6-75.4c0-52.8-40-77.7-108.6-77.7L1336.9,1201.6L1336.9,1201.6z"/>
			</g>
		</g>
	</g>
</g>
<g id="Layer_3" class="st0">
	<g transform="translate(0.000000,3180.000000) scale(0.100000,-0.100000)" class="st7">
		<path class="st8" d="M2599.3,34744.1c-1316-94-2559-550-3880-1425c-852-564-1511-1164-2008-1830c-326-436-602-929-737-1317
			c-101-288-145-528-152-829c-10-390,41-690,179-1059c100-267,178-417,480-913c109-180,201-333,204-340c4-11-87-12-469-9
			c-577,6-766-8-1067-75c-243-54-405-110-625-218c-400-196-734-490-1035-909c-201-281-448-759-625-1211c-369-942-538-2049-497-3258
			c34-994,156-1738,406-2473c188-552,481-1131,765-1512c113-151,149-192,289-335c401-407,892-660,1482-762c239-42,337-48,877-54
			l533-6l-303-505c-299-500-392-669-460-845c-41-107-90-299-113-445c-22-143-30-514-15-666c60-591,302-1141,814-1849
			c237-326,475-602,789-910c615-606,1316-1104,2256-1600c813-429,1563-687,2352-809c529-82,1089-95,1490-36
			c797,117,1442,536,1916,1245c44,66,246,397,448,735c203,338,372,619,376,623c4,5,188-292,409-660c489-814,568-927,816-1177
			c449-453,974-702,1645-782c176-22,642-24,880-5c1151,91,2197,458,3454,1209c930,556,1704,1224,2282,1967
			c554,712,842,1287,946,1890c20,115,23,165,23,425c0,279-2,304-28,453c-34,192-71,319-138,474c-70,166-149,307-459,819l-271,449
			l548,6c552,6,649,12,878,50c611,103,1149,392,1548,834c511,566,967,1527,1182,2494c85,386,138,751,170,1176
			c132,1781-114,3222-771,4525c-195,388-385,666-628,918c-368,382-885,670-1351,752c-191,34-335,40-946,40c-328,0-598,2-601,5
			c-3,4,94,169,215,368c306,502,426,741,521,1035c94,290,126,482,133,785c9,370-32,629-152,977c-152,436-487,1011-859,1475
			c-232,290-643,712-930,955c-701,597-1601,1164-2416,1525c-753,334-1461,522-2260,602c-251,25-803,25-985-1
			c-770-106-1348-429-1820-1018c-156-195-233-315-650-1026c-208-354-381-640-385-635c-4,4-182,305-395,668c-213,363-415,700-449,749
			c-308,452-644,761-1056,975c-288,149-576,237-940,287C3292.3,34749.1,2787.3,34757.1,2599.3,34744.1z M3341.3,33930.1
			c345-42,618-138,868-303c144-97,361-307,479-468c87-119,1138-1862,1133-1879c-6-17-1092-1824-1712-2846
			c-315-520-639-1053-719-1186l-146-241l-1390-6c-764-4-2023-4-2797,0c-1268,6-1409,8-1421,22c-35,41-829,1360-882,1466
			c-66,130-123,290-152,425c-26,120-26,420,0,540c37,171,149,485,261,727c222,485,609,1023,1059,1475c546,550,1178,1001,2037,1454
			c1001,527,1752,770,2585,833C2715.3,33956.1,3188.3,33948.1,3341.3,33930.1z M10159.3,33929.1c790-85,1494-324,2443-826
			c1154-611,1973-1273,2573-2082c337-453,552-861,707-1342c76-235,82-274,82-500c0-184-2-209-27-307c-33-131-86-275-143-389
			c-50-98-859-1436-884-1460c-14-14-279-15-2813-11l-2797,4l-362,597c-1453,2392-2212,3659-2206,3681c10,40,1055,1766,1130,1867
			c102,137,324,358,447,445c52,37,154,97,225,132c250,124,485,180,880,210C9526.3,33957.1,10022.3,33944.1,10159.3,33929.1z
			 M7119.3,29139.1c453-753,926-1539,1051-1746l226-376l-2120-7c-1166-3-2121-5-2123-3s113,197,255,433
			c1128,1874,1748,2905,1801,2992c51,84,65,101,75,90C6290.3,30515.1,6666.3,29893.1,7119.3,29139.1z M-2370.7,25482.1
			c1276-2100,2343-3864,2343-3873c0-5-19-41-43-80c-55-89-1906-3156-2360-3910c-188-313-350-578-358-587c-14-17-66-18-822-18
			c-478,0-850,4-911,10c-443,44-765,206-1036,523c-267,310-451,584-616,914c-598,1194-781,2583-577,4383c108,947,379,1725,848,2433
			c380,574,800,860,1387,941c164,23,136,23,936,24l746,2L-2370.7,25482.1z M2766.3,26230.1c2-1-223-376-500-832
			c-276-456-799-1321-1162-1922c-362-600-662-1092-665-1092c-3,1-233,380-512,843s-801,1329-1161,1924s-653,1084-652,1085
			C-1881.7,26240.1,2762.3,26234.1,2766.3,26230.1z M9395.3,25359.1c289-478,914-1514,1390-2301c475-787,864-1434,864-1437
			c0-5-1364-2268-2243-3719l-532-878h-2600h-2600l-404,668c-438,723-1890,3127-2189,3624l-184,306l814,1349
			c448,741,1075,1779,1392,2306l578,957l2595-2l2595-3L9395.3,25359.1z M14267.3,25952.1c-350-578-1600-2648-1872-3100
			c-154-257-283-467-286-468c-3,0-322,525-710,1167c-388,643-906,1500-1153,1907c-246,406-452,747-458,757c-9,19,41,19,2320,19h2330
			L14267.3,25952.1z M17222.3,26211.1c357-74,586-194,814-428c85-88,255-300,373-465c387-543,663-1229,819-2035
			c135-703,192-1649,141-2349c-69-939-284-1752-666-2520c-216-434-357-645-578-865c-156-155-275-242-451-330
			c-227-113-476-180-767-204c-84-7-366-9-842-4c-636,6-717,8-729,22c-8,9-294,482-637,1051s-956,1586-1363,2260s-744,1236-750,1250
			c-10,27-25,1,1725,2885c344,567,723,1193,844,1392l219,363l885-3C17026.3,26228.1,17154.3,26225.1,17222.3,26211.1z
			 M1084.3,19779.1c1398-2315,1657-2746,1653-2751c-3-2-1043-3-2311-2l-2306,3l910,1505c501,828,1021,1688,1156,1912
			c212,350,248,405,258,390C451.3,20827.1,739.3,20351.1,1084.3,19779.1z M13030.3,19344.1c496-822,1015-1679,1151-1905l248-410
			l-2307-3c-1268-1-2308,0-2311,2c-3,4,594,997,1909,3173c217,359,397,649,400,645S12533.3,20166.1,13030.3,19344.1z
			 M3237.3,16207.1c21-30,881-1458,1932-3209l638-1061l-158-264c-86-145-308-518-492-829s-358-600-387-643c-139-206-344-422-522-550
			c-246-176-568-291-918-328c-146-15-608-6-816,16c-1297,137-2486,637-3745,1576c-742,553-1276,1112-1657,1732
			c-205,336-445,910-499,1197c-24,129-24,362,0,485c27,136,90,319,154,446c42,84,831,1405,860,1439c2,3,999,7,2215,10
			c1217,3,2474,6,2794,8l582,2L3237.3,16207.1z M8389.3,16229.1c0-3-201-337-447-743c-434-717-926-1532-1416-2347
			c-132-220-243-404-247-408s-33,36-65,90c-134,224-1065,1768-1542,2556c-282,467-513,850-513,853c0,2,952,4,2115,4
			S8389.3,16232.1,8389.3,16229.1z M14904.3,16218.1c25-5,819-1317,894-1475c60-128,104-256,133-392c31-143,31-388,0-533
			c-36-169-158-503-282-774c-155-337-391-697-697-1060c-131-155-484-507-663-661c-688-592-1509-1120-2250-1447
			c-866-382-1770-576-2604-559c-198,4-277,9-376,27c-298,53-551,158-782,325c-108,78-325,295-414,415c-100,134-128,178-439,705
			c-153,259-368,621-478,805c-176,296-198,338-190,360c8,21,596,1001,2411,4015c79,132,148,245,153,251c7,9,738,10,2787,7
			C13634.3,16225.1,14893.3,16221.1,14904.3,16218.1z"/>
		<path class="st8" d="M4954.3,23408.1c-228-49-412-233-460-459c-22-105-22-2535,0-2640c50-239,245-426,488-469l37-7v1461v1461
			l778-4c679-3,788-6,862-21c404-80,656-250,792-535c62-130,89-249,95-426c9-245-21-405-112-590c-84-172-203-300-364-390
			c-50-28-69-44-65-55c16-44,571-890,584-890c33,1,156,51,208,85c111,75,186,170,238,305l29,75l3,1285c2,1149,1,1293-13,1358
			c-46,204-201,375-405,445l-65,22l-1280,2C5200.3,23422.1,5014.3,23421.1,4954.3,23408.1z"/>
		<path class="st8" d="M5699.3,21690.1v-506h365c413,0,470,6,592,66c164,79,247,227,247,439c0,256-117,410-361,477
			c-71,19-111,21-460,26l-383,4V21690.1z"/>
		<path class="st8" d="M5699.3,20224.1v-390h559h559l-216,390l-217,390h-342h-343V20224.1z"/>
		<path class="st8" d="M16689.3,7714.1c-525-95-867-421-956-908c-10-54-18-176-21-319l-6-233h-223h-224v-340v-340h225h225v-1280
			v-1280h485h485v1280v1280l403,2l402,3l3,338l2,337h-405h-405v148c0,181,12,259,50,339c51,105,146,166,287,186
			c128,19,298-20,427-98c32-19,61-35,65-34c12,0,343,690,338,703c-8,20-171,100-286,140c-191,67-318,87-556,92
			C16828.3,7733.1,16777.3,7730.1,16689.3,7714.1z"/>
		<path class="st8" d="M6746.3,7454.1c-507-39-989-225-1355-522c-357-290-616-693-731-1141c-44-167-62-302-68-502
			c-22-732,291-1407,858-1845c376-290,843-454,1359-476c627-28,1291,235,1815,718l69,65l-34,40c-19,22-151,166-294,321l-259,281
			l-86-75c-169-147-400-284-596-354c-655-231-1349,32-1652,626c-107,210-142,347-150,594c-9,274,28,455,137,675
			c187,378,531,635,953,712c125,23,363,22,472-1c314-68,637-251,864-490c29-31,56-54,61-51c7,4,521,627,563,683
			c20,26-174,198-365,325C7845.3,7343.1,7276.3,7495.1,6746.3,7454.1z"/>
		<path class="st8" d="M-7150.7,5219.1v-2205h500h500v630v630h508l507-1l349-629l348-630h564c310,0,564,2,564,5s-209,330-465,726
			c-256,397-464,723-463,724c2,1,40,22,86,45c230,122,440,338,561,577c129,257,178,513,168,871c-6,214-24,323-77,484
			c-153,458-510,767-1043,902c-284,72-228,70-1479,73l-1128,4V5219.1z M-4896.7,6561.1c300-81,472-261,516-539c16-98,8-321-14-403
			c-31-113-83-204-165-286c-83-82-147-122-259-163c-153-55-192-58-784-63l-548-5v747v746l578-3l577-4L-4896.7,6561.1z"/>
		<path class="st8" d="M18116.3,7187.1c-4-3-7-215-7-470v-463h-235h-235v-335v-335h235h235v-822c0-539,4-854,11-913
			c45-368,226-632,534-776c351-165,859-137,1303,71c56,27,102,54,102,60c0,16-192,694-199,701c-3,4-49-11-101-32
			c-157-63-209-74-355-74c-124,0-132,1-177,28c-58,34-92,77-121,153c-22,59-22,62-25,827l-3,767h461h460v340v340h-460h-460v470v470
			h-478C18338.3,7194.1,18119.3,7191.1,18116.3,7187.1z"/>
		<path class="st8" d="M2404.3,6437.1c-407-33-732-121-1138-308c-81-37-150-71-152-75c-4-7,280-646,294-662c4-5,55,16,113,45
			c195,98,379,163,592,209c86,19,132,22,306,22c180,0,215-3,285-22c213-59,345-177,398-359c9-28,19-92,22-142l8-91h-485
			c-619,0-775-12-1001-76c-501-142-770-505-744-1007c15-292,114-517,308-703c194-184,463-286,793-301c424-19,810,111,1052,354l74,73
			v-190v-190h482h481l-6,1167c-7,1244-7,1243-57,1423c-26,93-94,237-150,321c-86,126-249,267-392,340c-240,122-529,181-873,177
			C2521.3,6441.1,2426.3,6439.1,2404.3,6437.1z M3127.3,4306.1l-3-169l-43-86c-117-236-406-387-742-387c-287,0-482,133-521,354
			c-20,120,7,236,74,312s165,115,342,137c17,2,225,5,463,6l434,1L3127.3,4306.1z"/>
		<path class="st8" d="M11180.3,6433.1c-217-28-433-112-592-230c-91-67-226-210-293-310l-56-84v298v297h-490h-490v-1695v-1695h490
			h490v864c0,949,1,960,61,1116c115,299,384,487,760,531c56,6,147,9,201,7l98-5v459v458l-57-1
			C11270.3,6442.1,11215.3,6438.1,11180.3,6433.1z"/>
		<path class="st8" d="M13009.3,6437.1c-365-35-603-91-905-210c-150-59-385-168-385-178c0-9,290-649,299-657c4-5,36,8,73,27
			c181,96,435,188,632,227c149,30,449,33,567,5c279-65,439-253,439-514v-83h-484c-526,0-678-8-862-45c-273-55-481-159-626-314
			c-113-120-173-228-220-401c-20-75-23-106-22-270c0-167,3-195,27-282c91-341,321-586,657-701c159-55,268-71,480-71
			c210,0,317,14,480,61c198,57,344,140,486,276l94,89v-191v-191h481h480l-6,1153c-7,1245-8,1281-62,1451c-57,183-139,320-264,446
			c-207,207-497,329-881,370C13398.3,6443.1,13092.3,6446.1,13009.3,6437.1z M13727.3,4296.1l-3-178l-34-69c-51-104-168-217-286-277
			c-108-55-162-73-279-93c-426-73-726,117-703,446c13,199,140,310,387,339c36,4,258,8,493,9l428,1L13727.3,4296.1z"/>
		<path class="st8" d="M-1442.7,6418.1c-299-44-577-154-801-320c-108-79-280-261-355-374c-348-522-390-1307-101-1877
			c218-430,609-720,1116-827c163-34,285-46,470-46c428,0,807,107,1118,314c113,76,296,231,315,267c10,17-17,49-241,279l-252,259
			l-56-50c-126-114-310-216-471-262c-186-54-419-61-584-18c-302,79-521,302-621,629l-6,22h1221h1222l-5,273c-4,213-9,298-25,392
			c-69,397-198,675-418,905c-233,242-533,384-922,435C-980.7,6438.1-1308.7,6437.1-1442.7,6418.1z M-914.7,5694.1
			c132-34,218-83,314-180c69-68,94-102,127-170c48-99,73-185,80-287l6-73h-772h-771l6,28c65,295,197,495,404,615
			c59,34,179,74,260,86C-1171.7,5727.1-1007.7,5717.1-914.7,5694.1z"/>
	</g>
</g>
</svg>
