<?xml version="1.0" standalone="no"?>
<!DOCTYPE svg PUBLIC "-//W3C//DTD SVG 20010904//EN"
 "http://www.w3.org/TR/2001/REC-SVG-20010904/DTD/svg10.dtd">
<svg version="1.0" xmlns="http://www.w3.org/2000/svg"
 width="2784.000000pt" height="3180.000000pt" viewBox="0 0 2784.000000 3180.000000"
 preserveAspectRatio="xMidYMid meet">

<g transform="translate(0.000000,3180.000000) scale(0.100000,-0.100000)"
fill="#878962" stroke="#878962">
<path d="M10240 31780 c-1316 -94 -2559 -550 -3880 -1425 -852 -564 -1511
-1164 -2008 -1830 -326 -436 -602 -929 -737 -1317 -101 -288 -145 -528 -152
-829 -10 -390 41 -690 179 -1059 100 -267 178 -417 480 -913 109 -180 201
-333 204 -340 4 -11 -87 -12 -469 -9 -577 6 -766 -8 -1067 -75 -243 -54 -405
-110 -625 -218 -400 -196 -734 -490 -1035 -909 -201 -281 -448 -759 -625
-1211 -369 -942 -538 -2049 -497 -3258 34 -994 156 -1738 406 -2473 188 -552
481 -1131 765 -1512 113 -151 149 -192 289 -335 401 -407 892 -660 1482 -762
239 -42 337 -48 877 -54 l533 -6 -303 -505 c-299 -500 -392 -669 -460 -845
-41 -107 -90 -299 -113 -445 -22 -143 -30 -514 -15 -666 60 -591 302 -1141
814 -1849 237 -326 475 -602 789 -910 615 -606 1316 -1104 2256 -1600 813
-429 1563 -687 2352 -809 529 -82 1089 -95 1490 -36 797 117 1442 536 1916
1245 44 66 246 397 448 735 203 338 372 619 376 623 4 5 188 -292 409 -660
489 -814 568 -927 816 -1177 449 -453 974 -702 1645 -782 176 -22 642 -24 880
-5 1151 91 2197 458 3454 1209 930 556 1704 1224 2282 1967 554 712 842 1287
946 1890 20 115 23 165 23 425 0 279 -2 304 -28 453 -34 192 -71 319 -138 474
-70 166 -149 307 -459 819 l-271 449 548 6 c552 6 649 12 878 50 611 103 1149
392 1548 834 511 566 967 1527 1182 2494 85 386 138 751 170 1176 132 1781
-114 3222 -771 4525 -195 388 -385 666 -628 918 -368 382 -885 670 -1351 752
-191 34 -335 40 -946 40 -328 0 -598 2 -601 5 -3 4 94 169 215 368 306 502
426 741 521 1035 94 290 126 482 133 785 9 370 -32 629 -152 977 -152 436
-487 1011 -859 1475 -232 290 -643 712 -930 955 -701 597 -1601 1164 -2416
1525 -753 334 -1461 522 -2260 602 -251 25 -803 25 -985 -1 -770 -106 -1348
-429 -1820 -1018 -156 -195 -233 -315 -650 -1026 -208 -354 -381 -640 -385
-635 -4 4 -182 305 -395 668 -213 363 -415 700 -449 749 -308 452 -644 761
-1056 975 -288 149 -576 237 -940 287 -137 19 -642 27 -830 14z m742 -814
c345 -42 618 -138 868 -303 144 -97 361 -307 479 -468 87 -119 1138 -1862
1133 -1879 -6 -17 -1092 -1824 -1712 -2846 -315 -520 -639 -1053 -719 -1186
l-146 -241 -1390 -6 c-764 -4 -2023 -4 -2797 0 -1268 6 -1409 8 -1421 22 -35
41 -829 1360 -882 1466 -66 130 -123 290 -152 425 -26 120 -26 420 0 540 37
171 149 485 261 727 222 485 609 1023 1059 1475 546 550 1178 1001 2037 1454
1001 527 1752 770 2585 833 171 13 644 5 797 -13z m6818 -1 c790 -85 1494
-324 2443 -826 1154 -611 1973 -1273 2573 -2082 337 -453 552 -861 707 -1342
76 -235 82 -274 82 -500 0 -184 -2 -209 -27 -307 -33 -131 -86 -275 -143 -389
-50 -98 -859 -1436 -884 -1460 -14 -14 -279 -15 -2813 -11 l-2797 4 -362 597
c-1453 2392 -2212 3659 -2206 3681 10 40 1055 1766 1130 1867 102 137 324 358
447 445 52 37 154 97 225 132 250 124 485 180 880 210 112 9 608 -4 745 -19z
m-3040 -4790 c453 -753 926 -1539 1051 -1746 l226 -376 -2120 -7 c-1166 -3
-2121 -5 -2123 -3 -2 2 113 197 255 433 1128 1874 1748 2905 1801 2992 51 84
65 101 75 90 6 -7 382 -629 835 -1383z m-9490 -3657 c1276 -2100 2343 -3864
2343 -3873 0 -5 -19 -41 -43 -80 -55 -89 -1906 -3156 -2360 -3910 -188 -313
-350 -578 -358 -587 -14 -17 -66 -18 -822 -18 -478 0 -850 4 -911 10 -443 44
-765 206 -1036 523 -267 310 -451 584 -616 914 -598 1194 -781 2583 -577 4383
108 947 379 1725 848 2433 380 574 800 860 1387 941 164 23 136 23 936 24
l746 2 463 -762z m5137 748 c2 -1 -223 -376 -500 -832 -276 -456 -799 -1321
-1162 -1922 -362 -600 -662 -1092 -665 -1092 -3 1 -233 380 -512 843 -279 463
-801 1329 -1161 1924 -360 595 -653 1084 -652 1085 4 4 4648 -2 4652 -6z
m6629 -871 c289 -478 914 -1514 1390 -2301 475 -787 864 -1434 864 -1437 0 -5
-1364 -2268 -2243 -3719 l-532 -878 -2600 0 -2600 0 -404 668 c-438 723 -1890
3127 -2189 3624 l-184 306 814 1349 c448 741 1075 1779 1392 2306 l578 957
2595 -2 2595 -3 524 -870z m4872 593 c-350 -578 -1600 -2648 -1872 -3100 -154
-257 -283 -467 -286 -468 -3 0 -322 525 -710 1167 -388 643 -906 1500 -1153
1907 -246 406 -452 747 -458 757 -9 19 41 19 2320 19 l2330 0 -171 -282z
m2955 259 c357 -74 586 -194 814 -428 85 -88 255 -300 373 -465 387 -543 663
-1229 819 -2035 135 -703 192 -1649 141 -2349 -69 -939 -284 -1752 -666 -2520
-216 -434 -357 -645 -578 -865 -156 -155 -275 -242 -451 -330 -227 -113 -476
-180 -767 -204 -84 -7 -366 -9 -842 -4 -636 6 -717 8 -729 22 -8 9 -294 482
-637 1051 -343 569 -956 1586 -1363 2260 -407 674 -744 1236 -750 1250 -10 27
-25 1 1725 2885 344 567 723 1193 844 1392 l219 363 885 -3 c767 -3 895 -6
963 -20z m-16138 -6432 c1398 -2315 1657 -2746 1653 -2751 -3 -2 -1043 -3
-2311 -2 l-2306 3 910 1505 c501 828 1021 1688 1156 1912 212 350 248 405 258
390 7 -9 295 -485 640 -1057z m11946 -435 c496 -822 1015 -1679 1151 -1905
l248 -410 -2307 -3 c-1268 -1 -2308 0 -2311 2 -3 4 594 997 1909 3173 217 359
397 649 400 645 3 -4 413 -680 910 -1502z m-9793 -3137 c21 -30 881 -1458
1932 -3209 l638 -1061 -158 -264 c-86 -145 -308 -518 -492 -829 -184 -311
-358 -600 -387 -643 -139 -206 -344 -422 -522 -550 -246 -176 -568 -291 -918
-328 -146 -15 -608 -6 -816 16 -1297 137 -2486 637 -3745 1576 -742 553 -1276
1112 -1657 1732 -205 336 -445 910 -499 1197 -24 129 -24 362 0 485 27 136 90
319 154 446 42 84 831 1405 860 1439 2 3 999 7 2215 10 1217 3 2474 6 2794 8
l582 2 19 -27z m5152 22 c0 -3 -201 -337 -447 -743 -434 -717 -926 -1532
-1416 -2347 -132 -220 -243 -404 -247 -408 -4 -4 -33 36 -65 90 -134 224
-1065 1768 -1542 2556 -282 467 -513 850 -513 853 0 2 952 4 2115 4 1163 0
2115 -2 2115 -5z m6515 -11 c25 -5 819 -1317 894 -1475 60 -128 104 -256 133
-392 31 -143 31 -388 0 -533 -36 -169 -158 -503 -282 -774 -155 -337 -391
-697 -697 -1060 -131 -155 -484 -507 -663 -661 -688 -592 -1509 -1120 -2250
-1447 -866 -382 -1770 -576 -2604 -559 -198 4 -277 9 -376 27 -298 53 -551
158 -782 325 -108 78 -325 295 -414 415 -100 134 -128 178 -439 705 -153 259
-368 621 -478 805 -176 296 -198 338 -190 360 8 21 596 1001 2411 4015 79 132
148 245 153 251 7 9 738 10 2787 7 1527 -2 2786 -6 2797 -9z"/>
<path d="M12595 20444 c-228 -49 -412 -233 -460 -459 -22 -105 -22 -2535 0
-2640 50 -239 245 -426 488 -469 l37 -7 0 1461 0 1461 778 -4 c679 -3 788 -6
862 -21 404 -80 656 -250 792 -535 62 -130 89 -249 95 -426 9 -245 -21 -405
-112 -590 -84 -172 -203 -300 -364 -390 -50 -28 -69 -44 -65 -55 16 -44 571
-890 584 -890 33 1 156 51 208 85 111 75 186 170 238 305 l29 75 3 1285 c2
1149 1 1293 -13 1358 -46 204 -201 375 -405 445 l-65 22 -1280 2 c-1104 1
-1290 0 -1350 -13z"/>
<path d="M13340 18726 l0 -506 365 0 c413 0 470 6 592 66 164 79 247 227 247
439 0 256 -117 410 -361 477 -71 19 -111 21 -460 26 l-383 4 0 -506z"/>
<path d="M13340 17260 l0 -390 559 0 559 0 -216 390 -217 390 -342 0 -343 0 0
-390z"/>
<path d="M24330 4750 c-525 -95 -867 -421 -956 -908 -10 -54 -18 -176 -21
-319 l-6 -233 -223 0 -224 0 0 -340 0 -340 225 0 225 0 0 -1280 0 -1280 485 0
485 0 0 1280 0 1280 403 2 402 3 3 338 2 337 -405 0 -405 0 0 148 c0 181 12
259 50 339 51 105 146 166 287 186 128 19 298 -20 427 -98 32 -19 61 -35 65
-34 12 0 343 690 338 703 -8 20 -171 100 -286 140 -191 67 -318 87 -556 92
-176 3 -227 0 -315 -16z"/>
<path d="M14387 4490 c-507 -39 -989 -225 -1355 -522 -357 -290 -616 -693
-731 -1141 -44 -167 -62 -302 -68 -502 -22 -732 291 -1407 858 -1845 376 -290
843 -454 1359 -476 627 -28 1291 235 1815 718 l69 65 -34 40 c-19 22 -151 166
-294 321 l-259 281 -86 -75 c-169 -147 -400 -284 -596 -354 -655 -231 -1349
32 -1652 626 -107 210 -142 347 -150 594 -9 274 28 455 137 675 187 378 531
635 953 712 125 23 363 22 472 -1 314 -68 637 -251 864 -490 29 -31 56 -54 61
-51 7 4 521 627 563 683 20 26 -174 198 -365 325 -462 306 -1031 458 -1561
417z"/>
<path d="M490 2255 l0 -2205 500 0 500 0 0 630 0 630 508 0 507 -1 349 -629
348 -630 564 0 c310 0 564 2 564 5 0 3 -209 330 -465 726 -256 397 -464 723
-463 724 2 1 40 22 86 45 230 122 440 338 561 577 129 257 178 513 168 871 -6
214 -24 323 -77 484 -153 458 -510 767 -1043 902 -284 72 -228 70 -1479 73
l-1128 4 0 -2206z m2254 1342 c300 -81 472 -261 516 -539 16 -98 8 -321 -14
-403 -31 -113 -83 -204 -165 -286 -83 -82 -147 -122 -259 -163 -153 -55 -192
-58 -784 -63 l-548 -5 0 747 0 746 578 -3 577 -4 99 -27z"/>
<path d="M25757 4223 c-4 -3 -7 -215 -7 -470 l0 -463 -235 0 -235 0 0 -335 0
-335 235 0 235 0 0 -822 c0 -539 4 -854 11 -913 45 -368 226 -632 534 -776
351 -165 859 -137 1303 71 56 27 102 54 102 60 0 16 -192 694 -199 701 -3 4
-49 -11 -101 -32 -157 -63 -209 -74 -355 -74 -124 0 -132 1 -177 28 -58 34
-92 77 -121 153 -22 59 -22 62 -25 827 l-3 767 461 0 460 0 0 340 0 340 -460
0 -460 0 0 470 0 470 -478 0 c-263 0 -482 -3 -485 -7z"/>
<path d="M10045 3473 c-407 -33 -732 -121 -1138 -308 -81 -37 -150 -71 -152
-75 -4 -7 280 -646 294 -662 4 -5 55 16 113 45 195 98 379 163 592 209 86 19
132 22 306 22 180 0 215 -3 285 -22 213 -59 345 -177 398 -359 9 -28 19 -92
22 -142 l8 -91 -485 0 c-619 0 -775 -12 -1001 -76 -501 -142 -770 -505 -744
-1007 15 -292 114 -517 308 -703 194 -184 463 -286 793 -301 424 -19 810 111
1052 354 l74 73 0 -190 0 -190 482 0 481 0 -6 1167 c-7 1244 -7 1243 -57 1423
-26 93 -94 237 -150 321 -86 126 -249 267 -392 340 -240 122 -529 181 -873
177 -93 -1 -188 -3 -210 -5z m723 -2131 l-3 -169 -43 -86 c-117 -236 -406
-387 -742 -387 -287 0 -482 133 -521 354 -20 120 7 236 74 312 67 76 165 115
342 137 17 2 225 5 463 6 l434 1 -4 -168z"/>
<path d="M18821 3469 c-217 -28 -433 -112 -592 -230 -91 -67 -226 -210 -293
-310 l-56 -84 0 298 0 297 -490 0 -490 0 0 -1695 0 -1695 490 0 490 0 0 864
c0 949 1 960 61 1116 115 299 384 487 760 531 56 6 147 9 201 7 l98 -5 0 459
0 458 -57 -1 c-32 -1 -87 -5 -122 -10z"/>
<path d="M20650 3473 c-365 -35 -603 -91 -905 -210 -150 -59 -385 -168 -385
-178 0 -9 290 -649 299 -657 4 -5 36 8 73 27 181 96 435 188 632 227 149 30
449 33 567 5 279 -65 439 -253 439 -514 l0 -83 -484 0 c-526 0 -678 -8 -862
-45 -273 -55 -481 -159 -626 -314 -113 -120 -173 -228 -220 -401 -20 -75 -23
-106 -22 -270 0 -167 3 -195 27 -282 91 -341 321 -586 657 -701 159 -55 268
-71 480 -71 210 0 317 14 480 61 198 57 344 140 486 276 l94 89 0 -191 0 -191
481 0 480 0 -6 1153 c-7 1245 -8 1281 -62 1451 -57 183 -139 320 -264 446
-207 207 -497 329 -881 370 -89 9 -395 12 -478 3z m718 -2141 l-3 -178 -34
-69 c-51 -104 -168 -217 -286 -277 -108 -55 -162 -73 -279 -93 -426 -73 -726
117 -703 446 13 199 140 310 387 339 36 4 258 8 493 9 l428 1 -3 -178z"/>
<path d="M6198 3454 c-299 -44 -577 -154 -801 -320 -108 -79 -280 -261 -355
-374 -348 -522 -390 -1307 -101 -1877 218 -430 609 -720 1116 -827 163 -34
285 -46 470 -46 428 0 807 107 1118 314 113 76 296 231 315 267 10 17 -17 49
-241 279 l-252 259 -56 -50 c-126 -114 -310 -216 -471 -262 -186 -54 -419 -61
-584 -18 -302 79 -521 302 -621 629 l-6 22 1221 0 1222 0 -5 273 c-4 213 -9
298 -25 392 -69 397 -198 675 -418 905 -233 242 -533 384 -922 435 -142 19
-470 18 -604 -1z m528 -724 c132 -34 218 -83 314 -180 69 -68 94 -102 127
-170 48 -99 73 -185 80 -287 l6 -73 -772 0 -771 0 6 28 c65 295 197 495 404
615 59 34 179 74 260 86 89 14 253 4 346 -19z"/>
</g>
</svg>
