<?xml version="1.0" encoding="utf-8"?>
<!-- Generator: Adobe Illustrator 26.2.1, SVG Export Plug-In . SVG Version: 6.00 Build 0)  -->
<svg version="1.1" id="Layer_1" xmlns="http://www.w3.org/2000/svg" xmlns:xlink="http://www.w3.org/1999/xlink" x="0px" y="0px"
	 viewBox="0 0 700 700" style="enable-background:new 0 0 700 700;" xml:space="preserve">
<style type="text/css">
	.st0{fill:none;}
	.st1{fill:#56F4DD;}
	.st2{fill:#5DA89B;}
</style>
<g id="Layer_3">
	<g>
		<g>
			<g>
				<line class="st0" x1="278.2" y1="489.3" x2="277.1" y2="482.2"/>
			</g>
			<g>
				<line class="st0" x1="278.2" y1="209.7" x2="277.1" y2="216.8"/>
			</g>
			<g>
				<line class="st0" x1="507.8" y1="345.2" x2="502.3" y2="349.8"/>
			</g>
			<g>
				<path class="st1" d="M196.9,344.7c1.5-1.2,3.1-2.5,4.7-3.7C200,342.2,198.5,343.5,196.9,344.7z"/>
				<path class="st1" d="M207.3,336.5c1.5-1.2,3.1-2.4,4.6-3.6C210.4,334.1,208.9,335.3,207.3,336.5z"/>
				<path class="st1" d="M191.9,348.9c1.5-1.3,3.1-2.5,4.7-3.8C195,346.3,193.4,347.6,191.9,348.9z"/>
				<path class="st1" d="M202.1,340.6c1.5-1.2,3.1-2.5,4.7-3.7C205.2,338.2,203.6,339.4,202.1,340.6z"/>
				<path class="st1" d="M177.4,361.1c1.5-1.3,3-2.7,4.6-4C180.5,358.5,178.9,359.8,177.4,361.1z"/>
				<path class="st1" d="M441.1,206.3c1.9-0.7,3.8-1.4,5.7-2C445,204.9,443.1,205.6,441.1,206.3z"/>
				<path class="st1" d="M212.7,332.3c1.5-1.2,3-2.3,4.6-3.5C215.8,330,214.3,331.1,212.7,332.3z"/>
				<path class="st1" d="M182.1,357.1c1.5-1.3,3.1-2.6,4.6-3.9C185.2,354.4,183.7,355.8,182.1,357.1z"/>
				<path class="st1" d="M187,352.9c1.5-1.3,3.1-2.6,4.6-3.9C190.1,350.4,188.5,351.7,187,352.9z"/>
				<path class="st1" d="M241.1,311.6c1.4-1,2.9-2,4.3-3C244,309.6,242.5,310.6,241.1,311.6z"/>
				<path class="st1" d="M247.1,307.4c1.4-1,2.8-1.9,4.2-2.9C249.9,305.5,248.5,306.5,247.1,307.4z"/>
				<path class="st1" d="M435.2,208.4c1.9-0.7,3.8-1.4,5.7-2.1C439,207,437.1,207.7,435.2,208.4z"/>
				<path class="st1" d="M223.8,324c1.5-1.1,3-2.2,4.5-3.3C226.8,321.8,225.3,322.9,223.8,324z"/>
				<path class="st1" d="M235.2,315.7c1.4-1,2.9-2.1,4.4-3.1C238.1,313.7,236.7,314.7,235.2,315.7z"/>
				<path class="st1" d="M218.2,328.2c1.5-1.1,3-2.3,4.5-3.4C221.2,325.9,219.7,327,218.2,328.2z"/>
				<path class="st1" d="M229.5,319.9c1.5-1.1,2.9-2.1,4.4-3.2C232.4,317.7,230.9,318.8,229.5,319.9z"/>
				<path class="st1" d="M102.7,490.5c-12.1-20.9,3.2-55,37.8-93.7C101.6,438.7,84,476,96.9,498.4c17.3,30,84.8,25.9,170.5-5.1
					c-0.4-2.4-0.8-4.7-1.2-7.1C184,515.6,119.4,519.3,102.7,490.5z"/>
				<path class="st1" d="M434.9,208.6c-1.3,0.5-2.6,1-3.8,1.4l0,0C432.3,209.5,433.6,209,434.9,208.6z"/>
				<path class="st1" d="M257.1,300.7c-1.3,0.9-2.7,1.8-4,2.7C254.5,302.4,255.8,301.5,257.1,300.7L257.1,300.7z"/>
				<path class="st1" d="M172.9,365.2c1.5-1.3,3-2.7,4.5-4C175.9,362.5,174.3,363.9,172.9,365.2z"/>
				<path class="st1" d="M172.8,365.2c-12,10.7-22.8,21.3-32.4,31.6C150,386.5,160.9,375.9,172.8,365.2z"/>
				<path class="st1" d="M447,204.2c1.9-0.7,3.8-1.3,5.7-2C450.8,202.8,448.9,203.5,447,204.2z"/>
				<path class="st1" d="M452.8,202.2c1.9-0.7,3.8-1.3,5.7-1.9C456.6,200.9,454.7,201.5,452.8,202.2z"/>
				<path class="st1" d="M602.1,202.1c22.2,38.5-48.2,121.7-161.4,195.8c0,0.5-0.1,1-0.1,1.5c0,0.9-0.1,1.8-0.1,2.7
					c-0.1,1.4-0.2,2.8-0.3,4.3c119.8-77.2,194.9-165,171.6-205.2c-16.1-28-75.9-26.3-153.3-0.9c15.3-5,29.8-9.1,43.5-12.2
					C552.9,177.4,590,181.2,602.1,202.1z"/>
				<path class="st1" d="M217.3,328.8c0.3-0.2,0.6-0.4,0.9-0.7C217.9,328.4,217.6,328.6,217.3,328.8z"/>
				<path class="st1" d="M228.3,320.7c0.4-0.3,0.8-0.6,1.2-0.8C229.1,320.2,228.7,320.4,228.3,320.7z"/>
				<path class="st1" d="M222.8,324.8c0.3-0.2,0.7-0.5,1-0.7C223.4,324.3,223.1,324.5,222.8,324.8z"/>
				<path class="st1" d="M239.6,312.6c0.5-0.3,1-0.7,1.5-1C240.6,311.9,240.1,312.3,239.6,312.6z"/>
				<path class="st1" d="M458.5,200.2C458.5,200.2,458.6,200.2,458.5,200.2C458.6,200.2,458.5,200.2,458.5,200.2z"/>
				<path class="st1" d="M251.3,304.6c0.6-0.4,1.2-0.8,1.9-1.2C252.5,303.8,251.9,304.2,251.3,304.6z"/>
				<path class="st1" d="M434.9,208.6c0.1,0,0.2-0.1,0.4-0.1C435.1,208.5,435,208.5,434.9,208.6z"/>
				<path class="st1" d="M172.8,365.2C172.8,365.2,172.9,365.2,172.8,365.2C172.9,365.2,172.8,365.2,172.8,365.2z"/>
				<path class="st1" d="M140.5,396.8L140.5,396.8L140.5,396.8z"/>
				<path class="st1" d="M233.9,316.7c0.4-0.3,0.9-0.6,1.4-1C234.8,316,234.3,316.4,233.9,316.7z"/>
				<path class="st1" d="M212,332.9c0.3-0.2,0.5-0.4,0.8-0.6C212.5,332.5,212.2,332.7,212,332.9z"/>
				<path class="st1" d="M186.8,353.1c0.1-0.1,0.1-0.1,0.2-0.2C186.9,353,186.8,353.1,186.8,353.1z"/>
				<path class="st1" d="M177.4,361.2L177.4,361.2L177.4,361.2z"/>
				<path class="st1" d="M245.4,308.6c0.6-0.4,1.1-0.8,1.7-1.2C246.5,307.8,246,308.2,245.4,308.6z"/>
				<path class="st1" d="M446.9,204.2c0.1,0,0.1,0,0.2-0.1C447,204.2,446.9,204.2,446.9,204.2z"/>
				<path class="st1" d="M182,357.2l0.1-0.1C182.1,357.1,182.1,357.1,182,357.2z"/>
				<path class="st1" d="M191.6,349.1c0.1-0.1,0.2-0.2,0.3-0.2C191.8,348.9,191.7,349,191.6,349.1z"/>
				<path class="st1" d="M201.6,341c0.2-0.1,0.3-0.3,0.5-0.4C201.9,340.7,201.8,340.9,201.6,341z"/>
				<path class="st1" d="M206.7,336.9c0.2-0.2,0.4-0.3,0.6-0.5C207.1,336.6,206.9,336.8,206.7,336.9z"/>
				<path class="st1" d="M452.7,202.2C452.8,202.2,452.8,202.2,452.7,202.2C452.8,202.2,452.8,202.2,452.7,202.2z"/>
				<path class="st1" d="M196.6,345c0.1-0.1,0.3-0.2,0.4-0.3C196.8,344.8,196.7,344.9,196.6,345z"/>
				<path class="st1" d="M440.9,206.3c0.1,0,0.2-0.1,0.3-0.1C441.1,206.3,441,206.3,440.9,206.3z"/>
				<path class="st1" d="M437.1,444.5c-0.2,1.9-0.4,3.7-0.6,5.6C436.7,448.2,436.9,446.3,437.1,444.5z"/>
				<path class="st1" d="M438.4,430.6c-0.2,1.8-0.3,3.6-0.5,5.4C438.1,434.2,438.3,432.4,438.4,430.6z"/>
				<path class="st1" d="M437.8,437.6c-0.2,1.8-0.4,3.6-0.5,5.5C437.4,441.2,437.6,439.4,437.8,437.6z"/>
				<path class="st1" d="M436.4,451.3c-0.2,1.9-0.4,3.8-0.7,5.7C435.9,455,436.1,453.2,436.4,451.3z"/>
				<path class="st1" d="M439,423.6c-0.1,1.7-0.3,3.5-0.4,5.2C438.7,427.1,438.9,425.3,439,423.6z"/>
				<path class="st1" d="M428.7,502.7c-0.4,2-0.8,4-1.2,6C427.9,506.7,428.3,504.7,428.7,502.7z"/>
				<path class="st1" d="M440.2,406.8c0-0.2,0-0.3,0-0.5l0,0C440.2,406.5,440.2,406.7,440.2,406.8z"/>
				<path class="st1" d="M430.9,490.4c-0.3,2-0.7,4-1,6C430.2,494.4,430.5,492.4,430.9,490.4z"/>
				<path class="st1" d="M427.5,508.8c-0.4,2-0.8,4-1.2,5.9C426.7,512.7,427.1,510.8,427.5,508.8z"/>
				<path class="st1" d="M429.8,496.6c-0.4,2-0.7,4-1.1,6C429.1,500.6,429.4,498.6,429.8,496.6z"/>
				<path class="st1" d="M434.7,464.6c-0.3,1.9-0.5,3.9-0.8,5.8C434.2,468.5,434.5,466.6,434.7,464.6z"/>
				<path class="st1" d="M435.6,458c-0.2,1.9-0.5,3.9-0.7,5.8C435.1,461.9,435.3,459.9,435.6,458z"/>
				<path class="st1" d="M432.9,477.7c-0.3,2-0.6,4-0.9,5.9C432.3,481.7,432.6,479.7,432.9,477.7z"/>
				<path class="st1" d="M433.8,471.2c-0.3,2-0.6,3.9-0.9,5.9C433.3,475.2,433.6,473.2,433.8,471.2z"/>
				<path class="st1" d="M431.9,484.1c-0.3,2-0.6,4-1,6C431.3,488.1,431.6,486.1,431.9,484.1z"/>
				<path class="st1" d="M352.9,638.1c-33.8,0-63.2-59.4-78.7-147.2c-2.3,0.8-4.5,1.7-6.8,2.5c15.8,91.6,46.4,153.7,81.5,153.7
					c32.3,0,60.7-52.6,77.4-132.3c-3.3,15.7-7,30.4-11.2,43.8C398.9,607.8,377,638.1,352.9,638.1z"/>
				<path class="st1" d="M431,210c0-0.2-0.1-0.4-0.1-0.6C431,209.6,431,209.8,431,210L431,210z"/>
				<path class="st1" d="M259.3,299.2c1.3-0.9,2.6-1.7,4-2.6c0.3-0.2,0.6-0.4,1-0.6c7.9-133.5,44.6-234.5,88.6-234.5
					c24.1,0,46,30.3,62.2,79.5c4.7,15.1,8.8,31.8,12.4,49.8C411,107.6,382,52.4,348.9,52.4c-46.1,0-84.4,107.4-91.8,248.2
					c0,0,0.1,0,0.1-0.1C257.9,300.1,258.6,299.7,259.3,299.2z"/>
				<path class="st1" d="M427.5,190.8c0.4,2,0.8,4,1.2,6C428.3,194.8,427.9,192.8,427.5,190.8z"/>
				<path class="st1" d="M439.6,416.5c-0.1,1.7-0.3,3.4-0.4,5.1C439.3,419.9,439.4,418.2,439.6,416.5z"/>
				<path class="st1" d="M429.8,203.1c0.4,2,0.7,4,1,6C430.5,207.1,430.2,205.1,429.8,203.1z"/>
				<path class="st1" d="M428.7,196.9c0.4,2,0.7,4,1.1,6C429.4,200.9,429.1,198.9,428.7,196.9z"/>
				<path class="st1" d="M440.1,409.3c-0.1,1.7-0.2,3.3-0.3,4.9C439.8,412.6,440,411,440.1,409.3z"/>
				<path class="st1" d="M441.3,315.2c0.1,1.4,0.1,2.9,0.2,4.3C441.4,318.1,441.3,316.6,441.3,315.2z"/>
				<path class="st1" d="M437.9,263.5c0.2,1.8,0.3,3.6,0.5,5.4C438.3,267.1,438.1,265.3,437.9,263.5z"/>
				<path class="st1" d="M437.2,256.5c0.2,1.8,0.4,3.6,0.6,5.5C437.6,260.1,437.4,258.3,437.2,256.5z"/>
				<path class="st1" d="M438.6,270.7c0.1,1.7,0.3,3.5,0.4,5.2C438.9,274.2,438.7,272.4,438.6,270.7z"/>
				<path class="st1" d="M439.2,278c0.1,1.7,0.3,3.4,0.4,5.1C439.4,281.3,439.3,279.6,439.2,278z"/>
				<path class="st1" d="M436.5,249.4c0.2,1.9,0.4,3.7,0.6,5.6C436.9,253.2,436.7,251.3,436.5,249.4z"/>
				<path class="st1" d="M439.7,285.2c0.1,1.6,0.2,3.3,0.3,4.9C440,288.5,439.8,286.9,439.7,285.2z"/>
				<path class="st1" d="M434.8,235.7c0.2,1.9,0.5,3.8,0.7,5.8C435.3,239.6,435.1,237.6,434.8,235.7z"/>
				<path class="st1" d="M432,215.9c0.3,2,0.6,3.9,0.9,5.9C432.6,219.8,432.3,217.8,432,215.9z"/>
				<path class="st1" d="M435.7,242.6c0.2,1.9,0.5,3.8,0.7,5.7C436.1,246.3,435.9,244.4,435.7,242.6z"/>
				<path class="st1" d="M433,222.4c0.3,1.9,0.6,3.9,0.9,5.9C433.6,226.3,433.3,224.4,433,222.4z"/>
				<path class="st1" d="M433.9,229c0.3,1.9,0.5,3.9,0.8,5.8C434.5,232.9,434.2,231,433.9,229z"/>
				<path class="st1" d="M440.2,292.7c0.1,1.6,0.2,3.2,0.3,4.8C440.4,295.8,440.3,294.3,440.2,292.7z"/>
				<path class="st1" d="M431,210L431,210c0.3,1.8,0.6,3.6,0.9,5.4C431.6,213.6,431.3,211.8,431,210z"/>
				<path class="st1" d="M441.2,387.4c-0.1,1.5-0.1,3-0.2,4.5C441.1,390.4,441.1,388.9,441.2,387.4z"/>
				<path class="st1" d="M441.7,372.5c0,1.4-0.1,2.8-0.1,4.1C441.6,375.3,441.6,373.9,441.7,372.5z"/>
				<path class="st1" d="M441.4,380c0,1.4-0.1,2.9-0.2,4.3C441.3,382.9,441.4,381.4,441.4,380z"/>
				<path class="st1" d="M440.7,397.9c0.1-1,0.1-2.1,0.2-3.1C440.8,395.8,440.8,396.8,440.7,397.9L440.7,397.9z"/>
				<path class="st1" d="M440.6,300.1c0.1,1.5,0.2,3.1,0.2,4.6C440.8,303.2,440.7,301.6,440.6,300.1z"/>
				<path class="st1" d="M264.3,296c-0.3,0.2-0.6,0.4-1,0.6c-1.3,0.9-2.6,1.7-4,2.6c-0.7,0.5-1.4,0.9-2.1,1.4c0,0-0.1,0-0.1,0.1
					c-0.8,16-1.3,32.4-1.3,49.1c0,49.2,3.7,95.6,10.4,136.4c2.2-0.8,4.5-1.6,6.8-2.5c-6.6-40-10.3-85.6-10.3-134
					C262.7,331.4,263.2,313.4,264.3,296z"/>
				<path class="st1" d="M441.9,351.4c0-0.5,0-1.1,0-1.6s0-1.1,0-1.6c0,0.5,0,1.1,0,1.6S441.9,350.8,441.9,351.4z"/>
				<path class="st1" d="M441.9,357.4c0,1.1,0,2.1,0,3.2C441.9,359.5,441.9,358.5,441.9,357.4z"/>
				<path class="st1" d="M441,307.6c0.1,1.5,0.1,3,0.2,4.5C441.1,310.6,441.1,309.1,441,307.6z"/>
				<path class="st1" d="M441.5,322.8c0,1.4,0.1,2.8,0.1,4.2C441.6,325.6,441.6,324.2,441.5,322.8z"/>
				<path class="st1" d="M441.9,338.9c0,1.1,0,2.1,0,3.2C441.9,341,441.9,340,441.9,338.9z"/>
				<path class="st1" d="M441.7,330.7c0,1.3,0.1,2.5,0.1,3.8C441.8,333.3,441.8,332,441.7,330.7z"/>
				<path class="st1" d="M441.8,365c0,1.3,0,2.5-0.1,3.8C441.8,367.5,441.8,366.2,441.8,365z"/>
				<path class="st1" d="M433,477.1c0,0.2-0.1,0.4-0.1,0.6C432.9,477.5,432.9,477.3,433,477.1z"/>
				<path class="st1" d="M437.9,436c0,0.5-0.1,1.1-0.1,1.6C437.8,437,437.9,436.5,437.9,436z"/>
				<path class="st1" d="M434.8,463.8c0,0.3-0.1,0.6-0.1,0.9C434.8,464.4,434.8,464.1,434.8,463.8z"/>
				<path class="st1" d="M435.7,456.9c0,0.4-0.1,0.7-0.1,1.1C435.6,457.6,435.6,457.3,435.7,456.9z"/>
				<path class="st1" d="M436.5,450c0,0.4-0.1,0.8-0.1,1.2C436.4,450.9,436.4,450.4,436.5,450z"/>
				<path class="st1" d="M433.9,470.5c0,0.3-0.1,0.5-0.1,0.8C433.9,471,433.9,470.7,433.9,470.5z"/>
				<path class="st1" d="M428.7,502.6v0.1V502.6z"/>
				<path class="st1" d="M427.5,508.7L427.5,508.7L427.5,508.7z"/>
				<path class="st1" d="M429.8,496.4c0,0.1,0,0.2,0,0.2C429.8,496.5,429.8,496.5,429.8,496.4z"/>
				<path class="st1" d="M430.9,490.1c0,0.1,0,0.2-0.1,0.3C430.9,490.3,430.9,490.2,430.9,490.1z"/>
				<path class="st1" d="M432,483.6c0,0.2,0,0.3-0.1,0.5C431.9,483.9,432,483.8,432,483.6z"/>
				<path class="st1" d="M428.7,196.8v0.1C428.7,196.8,428.7,196.8,428.7,196.8z"/>
				<path class="st1" d="M438.6,428.8c-0.1,0.6-0.1,1.2-0.2,1.8C438.5,430,438.5,429.4,438.6,428.8z"/>
				<path class="st1" d="M429.8,202.9c0,0.1,0,0.1,0,0.2C429.8,203,429.8,203,429.8,202.9z"/>
				<path class="st1" d="M426.3,514.7L426.3,514.7L426.3,514.7z"/>
				<path class="st1" d="M427.5,190.7C427.5,190.8,427.5,190.8,427.5,190.7C427.5,190.8,427.5,190.8,427.5,190.7z"/>
				<path class="st1" d="M439.2,421.5c-0.1,0.7-0.1,1.4-0.2,2.1C439.1,422.9,439.1,422.2,439.2,421.5z"/>
				<path class="st1" d="M439.7,414.2c-0.1,0.7-0.1,1.5-0.2,2.2C439.6,415.7,439.7,415,439.7,414.2z"/>
				<path class="st1" d="M430.9,209.1c0,0.1,0,0.2,0.1,0.3C430.9,209.3,430.9,209.2,430.9,209.1z"/>
				<path class="st1" d="M440.2,406.8c-0.1,0.8-0.1,1.7-0.1,2.5C440.1,408.5,440.2,407.7,440.2,406.8z"/>
				<path class="st1" d="M437.2,443c0,0.5-0.1,1-0.1,1.4C437.2,444,437.2,443.5,437.2,443z"/>
				<path class="st1" d="M436.4,248.2c0,0.4,0.1,0.8,0.1,1.2C436.4,249,436.4,248.6,436.4,248.2z"/>
				<path class="st1" d="M441.7,327c0,1.2,0,2.5,0.1,3.7C441.7,329.5,441.7,328.2,441.7,327z"/>
				<path class="st1" d="M439.6,283c0.1,0.7,0.1,1.5,0.2,2.2C439.7,284.5,439.6,283.8,439.6,283z"/>
				<path class="st1" d="M441.9,351.4c0,2,0,4,0,6C441.9,355.4,441.9,353.4,441.9,351.4z"/>
				<path class="st1" d="M441.9,342.1c0,2,0,4,0,6C441.9,346.1,441.9,344.1,441.9,342.1z"/>
				<path class="st1" d="M441.2,312.1c0,1,0.1,2.1,0.1,3.1C441.3,314.2,441.2,313.1,441.2,312.1z"/>
				<path class="st1" d="M435.6,241.5c0,0.3,0.1,0.7,0.1,1.1C435.6,242.2,435.6,241.9,435.6,241.5z"/>
				<path class="st1" d="M434.7,234.9c0,0.3,0.1,0.6,0.1,0.9C434.8,235.4,434.8,235.1,434.7,234.9z"/>
				<path class="st1" d="M441.8,334.5c0,1.5,0,2.9,0.1,4.4C441.8,337.4,441.8,336,441.8,334.5z"/>
				<path class="st1" d="M440.1,290.2c0.1,0.8,0.1,1.7,0.1,2.5C440.2,291.8,440.1,291,440.1,290.2z"/>
				<path class="st1" d="M439,275.9c0.1,0.7,0.1,1.4,0.2,2C439.1,277.3,439.1,276.6,439,275.9z"/>
				<path class="st1" d="M438.4,268.9c0.1,0.6,0.1,1.2,0.2,1.8C438.5,270.1,438.5,269.5,438.4,268.9z"/>
				<path class="st1" d="M440.5,297.4c0,0.9,0.1,1.8,0.1,2.7C440.6,299.2,440.5,298.3,440.5,297.4z"/>
				<path class="st1" d="M437.8,261.9c0.1,0.5,0.1,1.1,0.1,1.6C437.9,263,437.8,262.5,437.8,261.9z"/>
				<path class="st1" d="M437.1,255c0,0.5,0.1,0.9,0.1,1.4C437.2,256,437.2,255.5,437.1,255z"/>
				<path class="st1" d="M440.9,304.7c0,1,0.1,1.9,0.1,2.9C440.9,306.7,440.9,305.7,440.9,304.7z"/>
				<path class="st1" d="M441.4,319.5c0,1.1,0.1,2.2,0.1,3.3C441.5,321.7,441.5,320.6,441.4,319.5z"/>
				<path class="st1" d="M441,391.9c0,1-0.1,1.9-0.1,2.9C440.9,393.8,440.9,392.8,441,391.9z"/>
				<path class="st1" d="M432.9,221.8c0,0.2,0.1,0.4,0.1,0.6C432.9,222.2,432.9,222,432.9,221.8z"/>
				<path class="st1" d="M441.9,360.6c0,1.5,0,2.9-0.1,4.4C441.8,363.5,441.8,362.1,441.9,360.6z"/>
				<path class="st1" d="M441.3,384.3c0,1-0.1,2.1-0.1,3.1C441.2,386.4,441.3,385.3,441.3,384.3z"/>
				<path class="st1" d="M431.9,215.4c0,0.1,0,0.3,0.1,0.4C432,215.7,431.9,215.6,431.9,215.4z"/>
				<path class="st1" d="M441.5,376.7c0,1.1-0.1,2.2-0.1,3.3C441.5,378.9,441.5,377.8,441.5,376.7z"/>
				<path class="st1" d="M433.8,228.3c0,0.2,0.1,0.5,0.1,0.7C433.9,228.8,433.9,228.5,433.8,228.3z"/>
				<path class="st1" d="M441.7,368.8c0,1.2,0,2.5-0.1,3.7C441.7,371.3,441.7,370,441.7,368.8z"/>
				<path class="st1" d="M373.3,234.8c1.6-0.7,3.1-1.5,4.7-2.2C376.4,233.3,374.8,234,373.3,234.8z"/>
				<path class="st1" d="M440.6,399.4c0-0.5,0.1-1,0.1-1.5c-13.8,9-28.2,17.9-43.2,26.5c-43.1,24.9-85.6,44.9-124.5,59.3
					c0.4,2.4,0.8,4.8,1.2,7.1c39.6-14.8,82.9-35.2,126.7-60.5c13.6-7.8,26.7-15.8,39.3-24c0.1-1.4,0.2-2.8,0.3-4.3
					C440.5,401.2,440.6,400.3,440.6,399.4z"/>
				<path class="st1" d="M308.8,268.7c-0.3,0.2-0.6,0.3-0.9,0.5s-0.5,0.3-0.8,0.5c0.3-0.2,0.5-0.3,0.8-0.5
					C308.2,269,308.5,268.9,308.8,268.7z"/>
				<path class="st1" d="M423.2,213c1.9-0.7,3.7-1.5,5.6-2.2C426.9,211.6,425.1,212.3,423.2,213z"/>
				<path class="st1" d="M411,218c1.8-0.8,3.6-1.5,5.4-2.2C414.6,216.5,412.8,217.2,411,218z"/>
				<path class="st1" d="M327.7,258c1.1-0.6,2.3-1.2,3.4-1.8C330,256.8,328.9,257.4,327.7,258z"/>
				<path class="st1" d="M392.3,226c1.7-0.8,3.4-1.5,5.1-2.2C395.7,224.5,394,225.2,392.3,226z"/>
				<path class="st1" d="M398.6,223.2c1.7-0.8,3.5-1.5,5.2-2.2C402.1,221.7,400.3,222.5,398.6,223.2z"/>
				<path class="st1" d="M417.1,215.5c1.8-0.7,3.7-1.5,5.5-2.2C420.8,214,419,214.7,417.1,215.5z"/>
				<path class="st1" d="M386,228.8c1.7-0.8,3.3-1.5,4.9-2.2C389.3,227.4,387.7,228.1,386,228.8z"/>
				<path class="st1" d="M379.7,231.8c1.6-0.8,3.2-1.5,4.9-2.2C382.9,230.3,381.3,231,379.7,231.8z"/>
				<path class="st1" d="M404.8,220.6c1.8-0.8,3.5-1.5,5.3-2.2C408.4,219.1,406.6,219.8,404.8,220.6z"/>
				<path class="st1" d="M321.1,261.7c1.1-0.6,2.2-1.2,3.3-1.8C323.3,260.5,322.2,261.1,321.1,261.7z"/>
				<path class="st1" d="M334.3,254.5c1.2-0.6,2.4-1.3,3.6-1.9C336.7,253.2,335.5,253.8,334.3,254.5z"/>
				<path class="st1" d="M340.9,251c1.3-0.7,2.6-1.3,3.9-2C343.4,249.7,342.2,250.3,340.9,251z"/>
				<path class="st1" d="M291.8,278.7c1-0.6,2-1.2,2.9-1.8C293.8,277.5,292.8,278.1,291.8,278.7z"/>
				<path class="st1" d="M353.9,244.3c1.4-0.7,2.8-1.4,4.2-2.1C356.7,242.9,355.3,243.6,353.9,244.3z"/>
				<path class="st1" d="M265.6,295.1c1.3-0.8,2.5-1.6,3.8-2.5C268.2,293.4,266.9,294.3,265.6,295.1z"/>
				<path class="st1" d="M298.7,274.5c0.8-0.5,1.7-1,2.5-1.5C300.4,273.5,299.6,274,298.7,274.5z"/>
				<path class="st1" d="M278.3,287c1.2-0.8,2.4-1.5,3.6-2.3C280.7,285.5,279.5,286.2,278.3,287z"/>
				<path class="st1" d="M347.4,247.6c1.3-0.7,2.7-1.4,4-2.1C350.1,246.2,348.8,246.9,347.4,247.6z"/>
				<path class="st1" d="M285,282.8c1.1-0.7,2.2-1.4,3.3-2C287.2,281.5,286.1,282.2,285,282.8z"/>
				<path class="st1" d="M271.9,291c1.2-0.8,2.5-1.6,3.8-2.4C274.4,289.4,273.1,290.2,271.9,291z"/>
				<path class="st1" d="M314.5,265.4c1-0.6,1.9-1.1,2.9-1.6C316.5,264.3,315.5,264.8,314.5,265.4z"/>
				<path class="st1" d="M431,210c-0.6,0.2-1.2,0.5-1.8,0.7C429.8,210.5,430.4,210.2,431,210L431,210z"/>
				<path class="st1" d="M360.4,241c1.5-0.7,2.9-1.4,4.4-2.1C363.3,239.6,361.9,240.3,360.4,241z"/>
				<path class="st1" d="M366.9,237.9c1.5-0.7,3-1.4,4.5-2.2C369.9,236.4,368.4,237.1,366.9,237.9z"/>
				<path class="st1" d="M331.1,256.2c1.1-0.6,2.1-1.2,3.2-1.7C333.3,255,332.2,255.6,331.1,256.2z"/>
				<path class="st1" d="M275.6,288.7c0.9-0.6,1.8-1.1,2.7-1.7C277.4,287.5,276.5,288.1,275.6,288.7z"/>
				<path class="st1" d="M428.8,210.9c0.2-0.1,0.3-0.1,0.5-0.2C429.1,210.8,428.9,210.8,428.8,210.9z"/>
				<path class="st1" d="M403.8,221c0.3-0.1,0.7-0.3,1-0.4C404.5,220.7,404.1,220.9,403.8,221z"/>
				<path class="st1" d="M371.4,235.7c0.6-0.3,1.3-0.6,1.9-0.9C372.6,235.1,372,235.4,371.4,235.7z"/>
				<path class="st1" d="M416.4,215.8c0.2-0.1,0.5-0.2,0.7-0.3C416.9,215.6,416.7,215.7,416.4,215.8z"/>
				<path class="st1" d="M269.4,292.6c0.8-0.5,1.6-1,2.5-1.6C271.1,291.6,270.2,292.1,269.4,292.6z"/>
				<path class="st1" d="M410.1,218.3c0.3-0.1,0.6-0.2,0.9-0.4C410.7,218.1,410.4,218.2,410.1,218.3z"/>
				<path class="st1" d="M422.6,213.3c0.2-0.1,0.4-0.2,0.6-0.2C423,213.1,422.8,213.2,422.6,213.3z"/>
				<path class="st1" d="M344.7,249c0.9-0.5,1.8-0.9,2.7-1.4C346.5,248.1,345.6,248.5,344.7,249z"/>
				<path class="st1" d="M265.6,295.1c-0.5,0.3-0.9,0.6-1.4,0.9l0,0C264.7,295.7,265.2,295.4,265.6,295.1z"/>
				<path class="st1" d="M337.9,252.6c1-0.5,2-1,2.9-1.6C339.9,251.5,338.9,252,337.9,252.6z"/>
				<path class="st1" d="M308.8,268.7c1.9-1.1,3.8-2.2,5.8-3.3C312.6,266.5,310.7,267.6,308.8,268.7z"/>
				<path class="st1" d="M301.3,273c1.9-1.1,3.9-2.3,5.8-3.4C305.1,270.8,303.2,271.9,301.3,273z"/>
				<path class="st1" d="M324.4,259.9c1.1-0.6,2.2-1.2,3.3-1.8C326.6,258.6,325.5,259.3,324.4,259.9z"/>
				<path class="st1" d="M317.4,263.8c1.2-0.7,2.5-1.4,3.7-2.1C319.9,262.4,318.7,263.1,317.4,263.8z"/>
				<path class="st1" d="M281.9,284.7c1-0.6,2-1.2,3-1.9C284,283.5,283,284.1,281.9,284.7z"/>
				<path class="st1" d="M384.5,229.5c0.5-0.2,1-0.5,1.5-0.7C385.5,229.1,385,229.3,384.5,229.5z"/>
				<path class="st1" d="M378,232.6c0.6-0.3,1.1-0.5,1.7-0.8C379.1,232,378.5,232.3,378,232.6z"/>
				<path class="st1" d="M364.8,238.9c0.7-0.3,1.4-0.7,2.1-1C366.2,238.2,365.5,238.5,364.8,238.9z"/>
				<path class="st1" d="M358.1,242.2c0.8-0.4,1.5-0.8,2.3-1.1C359.7,241.4,358.9,241.8,358.1,242.2z"/>
				<path class="st1" d="M397.4,223.8c0.4-0.2,0.8-0.3,1.2-0.5C398.2,223.4,397.8,223.6,397.4,223.8z"/>
				<path class="st1" d="M351.4,245.5c0.8-0.4,1.7-0.9,2.5-1.3C353.1,244.7,352.3,245.1,351.4,245.5z"/>
				<path class="st1" d="M288.3,280.8c1.2-0.7,2.3-1.4,3.5-2.1C290.6,279.4,289.5,280.1,288.3,280.8z"/>
				<path class="st1" d="M391,226.6c0.5-0.2,0.9-0.4,1.4-0.6C391.9,226.2,391.4,226.4,391,226.6z"/>
				<path class="st1" d="M294.8,276.9c1.3-0.8,2.7-1.6,4-2.4C297.4,275.3,296.1,276.1,294.8,276.9z"/>
			</g>
			<g>
				<path class="st1" d="M433.2,224.1c0.3,1.9,0.6,3.9,0.8,5.8C433.8,228,433.5,226,433.2,224.1z"/>
				<path class="st1" d="M435.9,244.3c0.2,1.9,0.4,3.7,0.7,5.6C436.4,248,436.2,246.1,435.9,244.3z"/>
				<path class="st1" d="M427.8,510.4c-0.4,2-0.8,3.9-1.2,5.9C427,514.4,427.4,512.4,427.8,510.4z"/>
				<path class="st1" d="M426.5,516.4c-3.3,15.7-7,30.4-11.2,43.8C419.5,546.8,423.3,532.1,426.5,516.4z"/>
				<path class="st1" d="M430,498.3c-0.4,2-0.7,4-1.1,5.9C429.3,502.2,429.7,500.3,430,498.3z"/>
				<path class="st1" d="M431.1,492c-0.3,2-0.7,4-1,5.9C430.4,496,430.8,494,431.1,492z"/>
				<path class="st1" d="M428.9,504.4c-0.4,2-0.8,4-1.1,5.9C428.2,508.4,428.5,506.4,428.9,504.4z"/>
				<path class="st1" d="M435.1,237.4c0.2,1.9,0.5,3.8,0.7,5.7C435.6,241.2,435.3,239.3,435.1,237.4z"/>
				<path class="st1" d="M434.2,230.7c0.3,1.9,0.5,3.8,0.8,5.8C434.7,234.6,434.4,232.6,434.2,230.7z"/>
				<path class="st1" d="M415.4,142.6c4.1,13.4,7.9,28.1,11.2,43.8C423.3,170.7,419.5,156,415.4,142.6z"/>
				<path class="st1" d="M427.8,192.5c0.4,2,0.8,3.9,1.1,5.9C428.5,196.4,428.2,194.4,427.8,192.5z"/>
				<path class="st1" d="M426.5,186.5c0.4,2,0.8,3.9,1.2,5.9C427.4,190.4,427,188.4,426.5,186.5z"/>
				<path class="st1" d="M430.1,204.8c0.4,2,0.7,4,1,6C430.8,208.7,430.4,206.8,430.1,204.8z"/>
				<path class="st1" d="M431.2,211.1c0.3,2,0.7,3.9,1,5.9C431.8,215.1,431.5,213.1,431.2,211.1z"/>
				<path class="st1" d="M428.9,198.6c0.4,2,0.7,4,1.1,6C429.7,202.5,429.3,200.5,428.9,198.6z"/>
				<path class="st1" d="M432.2,217.6c0.3,2,0.6,3.9,0.9,5.9C432.8,221.5,432.5,219.5,432.2,217.6z"/>
				<path class="st1" d="M437.5,258.2c0.2,1.8,0.4,3.6,0.5,5.4C437.9,261.8,437.7,260,437.5,258.2z"/>
				<path class="st1" d="M439.4,279.7c0.1,1.7,0.3,3.3,0.4,5C439.7,283,439.6,281.3,439.4,279.7z"/>
				<path class="st1" d="M438.2,265.2c0.2,1.8,0.3,3.5,0.5,5.3C438.5,268.7,438.4,267,438.2,265.2z"/>
				<path class="st1" d="M438.8,272.4c0.1,1.7,0.3,3.4,0.4,5.1C439.1,275.8,439,274.1,438.8,272.4z"/>
				<path class="st1" d="M353.1,639.7c-44.4,0-81.3-102.5-88.8-237.5c-0.1-0.1-0.2-0.2-0.4-0.2c-1.3-0.9-2.6-1.7-3.9-2.6
					c-0.7-0.5-1.4-0.9-2.1-1.4c-0.2-0.2-0.5-0.3-0.7-0.5c6.9,142.3,45.4,251.1,91.9,251.1c25.9,0,49.4-33.9,66.2-88.5
					C399.2,609.5,377.3,639.7,353.1,639.7z"/>
				<path class="st1" d="M353.1,63.1c24.1,0,46,30.3,62.2,79.5C398.4,88,375,54.1,349.1,54.1c-34.8,0-65.1,60.9-81,151.2
					c2.2,0.8,4.5,1.6,6.8,2.5C290.5,121.3,319.7,63.1,353.1,63.1z"/>
				<path class="st1" d="M436.7,251.2c0.2,1.8,0.4,3.7,0.6,5.5C437.2,254.8,437,253,436.7,251.2z"/>
				<path class="st1" d="M440,287c0.1,1.6,0.2,3.2,0.3,4.8C440.2,290.2,440.1,288.6,440,287z"/>
				<path class="st1" d="M431.2,491.7c0.2-1,0.3-2.1,0.5-3.1l0,0C431.5,489.6,431.4,490.7,431.2,491.7z"/>
				<path class="st1" d="M431.1,210.7c0,0.1,0,0.3,0.1,0.4C431.2,211,431.1,210.9,431.1,210.7z"/>
				<path class="st1" d="M433.1,223.4c0,0.2,0.1,0.4,0.1,0.7C433.2,223.9,433.2,223.7,433.1,223.4z"/>
				<path class="st1" d="M432.1,217.1c0,0.2,0.1,0.3,0.1,0.5C432.2,217.4,432.2,217.2,432.1,217.1z"/>
				<path class="st1" d="M439.3,277.6c0.1,0.7,0.1,1.4,0.2,2.1C439.4,279,439.3,278.3,439.3,277.6z"/>
				<path class="st1" d="M430,204.5c0,0.1,0,0.2,0,0.3C430.1,204.7,430.1,204.6,430,204.5z"/>
				<path class="st1" d="M439.8,284.7c0.1,0.8,0.1,1.6,0.2,2.3C439.9,286.2,439.9,285.4,439.8,284.7z"/>
				<path class="st1" d="M426.5,186.4L426.5,186.4L426.5,186.4z"/>
				<path class="st1" d="M415.4,142.6L415.4,142.6L415.4,142.6z"/>
				<path class="st1" d="M436.6,249.9c0,0.4,0.1,0.9,0.1,1.3C436.7,250.7,436.7,250.3,436.6,249.9z"/>
				<path class="st1" d="M428.9,198.4c0,0.1,0,0.1,0,0.2C428.9,198.5,428.9,198.5,428.9,198.4z"/>
				<path class="st1" d="M438.7,270.5c0.1,0.6,0.1,1.3,0.2,1.9C438.8,271.8,438.7,271.2,438.7,270.5z"/>
				<path class="st1" d="M440.3,291.9C440.3,291.9,440.3,291.8,440.3,291.9C440.3,291.8,440.3,291.9,440.3,291.9L440.3,291.9z"/>
				<path class="st1" d="M429,504.2c0,0.1,0,0.1,0,0.2C428.9,504.3,428.9,504.3,429,504.2z"/>
				<path class="st1" d="M430.1,498c0,0.1,0,0.2-0.1,0.3C430.1,498.2,430.1,498.1,430.1,498z"/>
				<path class="st1" d="M437.3,256.7c0.1,0.5,0.1,1,0.2,1.5C437.4,257.7,437.4,257.2,437.3,256.7z"/>
				<path class="st1" d="M434.1,229.9c0,0.3,0.1,0.5,0.1,0.8C434.1,230.5,434.1,230.2,434.1,229.9z"/>
				<path class="st1" d="M431.2,491.7c0,0.1,0,0.2-0.1,0.4C431.1,491.9,431.2,491.8,431.2,491.7z"/>
				<path class="st1" d="M427.8,510.3v0.1V510.3z"/>
				<path class="st1" d="M435.8,243.1c0,0.4,0.1,0.7,0.1,1.1C435.9,243.9,435.9,243.5,435.8,243.1z"/>
				<path class="st1" d="M415.4,560.2L415.4,560.2L415.4,560.2z"/>
				<path class="st1" d="M427.8,192.4v0.1C427.8,192.4,427.8,192.4,427.8,192.4z"/>
				<path class="st1" d="M435,236.5c0,0.3,0.1,0.6,0.1,0.9C435,237.1,435,236.8,435,236.5z"/>
				<path class="st1" d="M438,263.6c0.1,0.5,0.1,1.1,0.2,1.7C438.1,264.7,438.1,264.1,438,263.6z"/>
				<path class="st1" d="M426.6,516.3C426.5,516.3,426.5,516.3,426.6,516.3C426.5,516.3,426.5,516.3,426.6,516.3z"/>
				<path class="st1" d="M218,369.8c-1.5-1.2-3.1-2.3-4.6-3.5C214.9,367.5,216.4,368.6,218,369.8z"/>
				<path class="st1" d="M441.6,492.3c-1.9-0.7-3.8-1.4-5.7-2.1C437.8,490.9,439.7,491.6,441.6,492.3z"/>
				<path class="st1" d="M447.5,494.4c-1.9-0.7-3.8-1.3-5.7-2C443.7,493,445.6,493.7,447.5,494.4z"/>
				<path class="st1" d="M141.1,301.8c-34.6-38.7-49.8-72.8-37.8-93.7c16.7-28.9,81.3-25.2,163.5,4.3c0.4-2.4,0.8-4.8,1.2-7.1
					c-85.7-31-153.2-35.1-170.5-5.1c-16.1,28,15.2,78.9,75.9,133.2C161.5,322.7,150.7,312.1,141.1,301.8z"/>
				<path class="st1" d="M453.4,496.4c-1.9-0.6-3.8-1.3-5.7-2C449.6,495.1,451.5,495.8,453.4,496.4z"/>
				<path class="st1" d="M251.9,394c-1.4-0.9-2.8-1.9-4.2-2.9C249.2,392.1,250.5,393.1,251.9,394z"/>
				<path class="st1" d="M246.1,390c-1.4-1-2.9-2-4.3-3C243.2,388,244.6,389,246.1,390z"/>
				<path class="st1" d="M440.3,291.9c0.1,0.8,0.1,1.7,0.2,2.6c0.1,1.5,0.2,3.1,0.3,4.6c0,0.4,0,0.9,0.1,1.3
					c113.6,74.1,184.2,157.6,162,196.1c-12.1,20.9-49.2,24.7-100,14.1c55.8,12.7,96.8,9.4,109.8-13.1
					C635.8,457.2,560.5,369.1,440.3,291.9z"/>
				<path class="st1" d="M240.3,386c-1.5-1-2.9-2.1-4.4-3.1C237.4,383.9,238.8,384.9,240.3,386z"/>
				<path class="st1" d="M459.2,498.4c-1.9-0.6-3.8-1.3-5.7-1.9C455.4,497.1,457.3,497.7,459.2,498.4z"/>
				<path class="st1" d="M502.8,510.6c-13.7-3.1-28.3-7.2-43.5-12.2C474.5,503.4,489.1,507.5,502.8,510.6z"/>
				<path class="st1" d="M431.7,488.6c1.3,0.5,2.6,1,3.9,1.5C434.3,489.6,433,489.1,431.7,488.6L431.7,488.6z"/>
				<path class="st1" d="M253.8,395.3c1.1,0.8,2.3,1.5,3.4,2.3l0,0C256.1,396.8,255,396,253.8,395.3z"/>
				<path class="st1" d="M207.4,361.7c-1.6-1.2-3.1-2.4-4.7-3.7C204.3,359.2,205.8,360.4,207.4,361.7z"/>
				<path class="st1" d="M197.2,353.6c-1.6-1.3-3.1-2.5-4.7-3.8C194.1,351,195.7,352.3,197.2,353.6z"/>
				<path class="st1" d="M202.3,357.6c-1.6-1.2-3.1-2.5-4.7-3.7C199.2,355.1,200.7,356.4,202.3,357.6z"/>
				<path class="st1" d="M192.3,349.5c-1.6-1.3-3.1-2.6-4.6-3.9C189.2,346.9,190.7,348.2,192.3,349.5z"/>
				<path class="st1" d="M178,337.4c-1.5-1.3-3-2.7-4.5-4C175,334.7,176.5,336.1,178,337.4z"/>
				<path class="st1" d="M234.6,381.9c-1.5-1.1-3-2.1-4.4-3.2C231.6,379.8,233.1,380.9,234.6,381.9z"/>
				<path class="st1" d="M182.7,341.4c-1.5-1.3-3.1-2.6-4.6-4C179.6,338.8,181.1,340.1,182.7,341.4z"/>
				<path class="st1" d="M187.4,345.5c-1.6-1.3-3.1-2.6-4.6-3.9C184.3,342.8,185.9,344.2,187.4,345.5z"/>
				<path class="st1" d="M223.4,373.8c-1.5-1.1-3-2.3-4.5-3.4C220.4,371.6,221.9,372.7,223.4,373.8z"/>
				<path class="st1" d="M212.7,365.7c-1.6-1.2-3.1-2.4-4.6-3.6C209.6,363.3,211.1,364.5,212.7,365.7z"/>
				<path class="st1" d="M228.9,377.9c-1.5-1.1-3-2.2-4.5-3.3C225.9,375.7,227.4,376.8,228.9,377.9z"/>
				<path class="st1" d="M385.2,469.1c-1.6-0.7-3.2-1.5-4.9-2.2C382,467.6,383.6,468.3,385.2,469.1z"/>
				<path class="st1" d="M338.6,446c-1.2-0.6-2.4-1.3-3.6-1.9C336.2,444.8,337.4,445.4,338.6,446z"/>
				<path class="st1" d="M417.1,482.8c-1.8-0.7-3.6-1.5-5.4-2.2C413.5,481.4,415.3,482.1,417.1,482.8z"/>
				<path class="st1" d="M295.4,421.7c-0.9-0.6-1.9-1.1-2.8-1.7C293.6,420.6,294.5,421.1,295.4,421.7z"/>
				<path class="st1" d="M398.1,474.8c-1.7-0.7-3.4-1.5-5.1-2.2C394.7,473.4,396.4,474.1,398.1,474.8z"/>
				<path class="st1" d="M282.6,413.9c-1.2-0.7-2.4-1.5-3.6-2.2C280.2,412.4,281.4,413.1,282.6,413.9z"/>
				<path class="st1" d="M289,417.8c-1.1-0.7-2.2-1.3-3.3-2C286.8,416.5,287.9,417.1,289,417.8z"/>
				<path class="st1" d="M404.5,477.6c-1.7-0.7-3.5-1.5-5.2-2.2C401,476.1,402.7,476.9,404.5,477.6z"/>
				<path class="st1" d="M372,462.9c-1.5-0.7-3-1.4-4.5-2.2C369,461.5,370.5,462.2,372,462.9z"/>
				<path class="st1" d="M378.6,466c-1.6-0.7-3.1-1.5-4.7-2.2C375.5,464.6,377.1,465.3,378.6,466z"/>
				<path class="st1" d="M324.9,438.6c-1-0.6-2.1-1.1-3.1-1.7C322.8,437.5,323.9,438.1,324.9,438.6z"/>
				<path class="st1" d="M317.8,434.7c-0.9-0.5-1.8-1-2.6-1.5C316.1,433.7,316.9,434.2,317.8,434.7z"/>
				<path class="st1" d="M365.4,459.7c-1.5-0.7-2.9-1.4-4.4-2.1C362.5,458.3,364,459,365.4,459.7z"/>
				<path class="st1" d="M302,425.6c-0.8-0.5-1.5-0.9-2.3-1.4C300.4,424.7,301.2,425.1,302,425.6z"/>
				<path class="st1" d="M331.7,442.4c-1.1-0.6-2.2-1.2-3.3-1.8C329.5,441.2,330.6,441.8,331.7,442.4z"/>
				<path class="st1" d="M276.3,409.9c-1.2-0.8-2.5-1.6-3.7-2.3C273.9,408.4,275.1,409.2,276.3,409.9z"/>
				<path class="st1" d="M431.7,488.6L431.7,488.6c-0.6-0.2-1.2-0.4-1.8-0.7C430.5,488.1,431.1,488.4,431.7,488.6z"/>
				<path class="st1" d="M352.1,453.1c-1.3-0.7-2.7-1.4-4.1-2.1C349.4,451.7,350.8,452.4,352.1,453.1z"/>
				<path class="st1" d="M358.8,456.4c-1.4-0.7-2.8-1.4-4.2-2.1C356,455,357.4,455.7,358.8,456.4z"/>
				<path class="st1" d="M345.4,449.6c-1.3-0.7-2.6-1.3-3.9-2C342.8,448.3,344.1,448.9,345.4,449.6z"/>
				<path class="st1" d="M401.6,268.3c-43.8-25.3-87.1-45.7-126.7-60.5c-0.4,2.3-0.8,4.7-1.2,7.1c38.9,14.4,81.4,34.4,124.5,59.3
					c14.8,8.5,29,17.3,42.6,26.2c0-0.4,0-0.9-0.1-1.3c-0.1-1.5-0.2-3.1-0.3-4.6c-0.1-0.9-0.1-1.7-0.2-2.6
					C427.9,283.9,414.9,276,401.6,268.3z"/>
				<path class="st1" d="M423.3,485.3c-1.8-0.7-3.7-1.4-5.5-2.2C419.6,483.9,421.5,484.6,423.3,485.3z"/>
				<path class="st1" d="M391.6,472c-1.7-0.7-3.3-1.5-5-2.2C388.3,470.5,390,471.2,391.6,472z"/>
				<path class="st1" d="M270.1,406c-1.3-0.8-2.5-1.6-3.8-2.4C267.6,404.4,268.8,405.2,270.1,406z"/>
				<path class="st1" d="M429.4,487.7c-1.8-0.7-3.7-1.4-5.6-2.2C425.7,486.3,427.6,487,429.4,487.7z"/>
				<path class="st1" d="M410.8,480.3c-1.8-0.7-3.5-1.5-5.3-2.2C407.3,478.8,409,479.5,410.8,480.3z"/>
				<path class="st1" d="M202.8,358c-0.2-0.1-0.3-0.3-0.5-0.4C202.4,357.7,202.6,357.9,202.8,358z"/>
				<path class="st1" d="M187.6,345.7c-0.1-0.1-0.1-0.1-0.2-0.2C187.5,345.5,187.6,345.6,187.6,345.7z"/>
				<path class="st1" d="M178.1,337.5C178.1,337.5,178.1,337.4,178.1,337.5C178.1,337.4,178.1,337.5,178.1,337.5z"/>
				<path class="st1" d="M197.6,353.9c-0.1-0.1-0.3-0.2-0.4-0.3C197.4,353.7,197.5,353.8,197.6,353.9z"/>
				<path class="st1" d="M182.8,341.5l-0.1-0.1C182.7,341.5,182.8,341.5,182.8,341.5z"/>
				<path class="st1" d="M173.5,333.4L173.5,333.4L173.5,333.4z"/>
				<path class="st1" d="M192.6,349.8c-0.1-0.1-0.2-0.2-0.3-0.2C192.4,349.6,192.5,349.7,192.6,349.8z"/>
				<path class="st1" d="M208,362.2c-0.2-0.2-0.4-0.3-0.6-0.5C207.6,361.8,207.8,362,208,362.2z"/>
				<path class="st1" d="M441.8,492.3c-0.1,0-0.2-0.1-0.3-0.1C441.6,492.3,441.7,492.3,441.8,492.3z"/>
				<path class="st1" d="M447.7,494.4c-0.1,0-0.1,0-0.2-0.1C447.6,494.4,447.6,494.4,447.7,494.4z"/>
				<path class="st1" d="M247.8,391.2c-0.6-0.4-1.1-0.8-1.7-1.2C246.6,390.4,247.2,390.8,247.8,391.2z"/>
				<path class="st1" d="M253.8,395.3c-0.6-0.4-1.3-0.8-1.9-1.3C252.6,394.4,253.2,394.9,253.8,395.3z"/>
				<path class="st1" d="M213.4,366.3c-0.2-0.2-0.5-0.4-0.8-0.6C212.9,365.9,213.2,366.1,213.4,366.3z"/>
				<path class="st1" d="M502.8,510.6L502.8,510.6L502.8,510.6z"/>
				<path class="st1" d="M453.5,496.4C453.5,496.4,453.4,496.4,453.5,496.4C453.4,496.4,453.5,496.4,453.5,496.4z"/>
				<path class="st1" d="M459.2,498.4L459.2,498.4L459.2,498.4z"/>
				<path class="st1" d="M435.9,490.2c-0.1,0-0.2-0.1-0.3-0.1C435.7,490.1,435.8,490.1,435.9,490.2z"/>
				<path class="st1" d="M235.9,382.9c-0.5-0.3-0.9-0.6-1.4-1C235,382.2,235.5,382.6,235.9,382.9z"/>
				<path class="st1" d="M230.1,378.7c-0.4-0.3-0.8-0.6-1.2-0.9C229.3,378.2,229.7,378.5,230.1,378.7z"/>
				<path class="st1" d="M218.9,370.4c-0.3-0.2-0.6-0.4-0.9-0.7C218.3,370,218.6,370.2,218.9,370.4z"/>
				<path class="st1" d="M224.4,374.6c-0.3-0.3-0.7-0.5-1-0.8C223.8,374.1,224.1,374.3,224.4,374.6z"/>
				<path class="st1" d="M241.8,387c-0.5-0.3-1-0.7-1.5-1C240.8,386.3,241.3,386.7,241.8,387z"/>
				<path class="st1" d="M354.6,454.3c-0.8-0.4-1.6-0.8-2.5-1.3C353,453.5,353.8,453.9,354.6,454.3z"/>
				<path class="st1" d="M361.1,457.6c-0.8-0.4-1.5-0.8-2.3-1.1C359.6,456.8,360.3,457.2,361.1,457.6z"/>
				<path class="st1" d="M374,463.8c-0.6-0.3-1.3-0.6-1.9-0.9C372.7,463.2,373.3,463.5,374,463.8z"/>
				<path class="st1" d="M367.5,460.7c-0.7-0.3-1.4-0.7-2.1-1C366.1,460.1,366.8,460.4,367.5,460.7z"/>
				<path class="st1" d="M315.2,433.2c-2.2-1.3-4.4-2.5-6.6-3.8C310.8,430.7,313,432,315.2,433.2z"/>
				<path class="st1" d="M279,411.7c-0.9-0.6-1.8-1.1-2.7-1.7C277.2,410.5,278.1,411.1,279,411.7z"/>
				<path class="st1" d="M348.1,451c-0.9-0.5-1.8-0.9-2.7-1.4C346.3,450.1,347.2,450.5,348.1,451z"/>
				<path class="st1" d="M292.6,420c-1.2-0.7-2.5-1.5-3.7-2.2C290.2,418.5,291.4,419.3,292.6,420z"/>
				<path class="st1" d="M264.3,402.2c0.7,0.4,1.3,0.9,2,1.3C265.7,403.1,265,402.7,264.3,402.2L264.3,402.2z"/>
				<path class="st1" d="M272.6,407.6c-0.8-0.5-1.7-1.1-2.5-1.6C270.9,406.5,271.8,407.1,272.6,407.6z"/>
				<path class="st1" d="M299.7,424.2c-1.4-0.8-2.8-1.7-4.2-2.5C296.8,422.5,298.3,423.4,299.7,424.2z"/>
				<path class="st1" d="M285.7,415.8c-1-0.6-2.1-1.3-3.1-1.9C283.6,414.5,284.7,415.2,285.7,415.8z"/>
				<path class="st1" d="M335,444.1c-1.1-0.6-2.2-1.2-3.3-1.8C332.8,443,333.9,443.5,335,444.1z"/>
				<path class="st1" d="M341.5,447.6c-1-0.5-2-1.1-3-1.6C339.6,446.5,340.6,447.1,341.5,447.6z"/>
				<path class="st1" d="M308.6,429.4c-2.2-1.3-4.4-2.6-6.6-3.8C304.1,426.9,306.3,428.1,308.6,429.4z"/>
				<path class="st1" d="M328.4,440.6c-1.2-0.6-2.3-1.3-3.5-1.9C326.1,439.3,327.2,439.9,328.4,440.6z"/>
				<path class="st1" d="M321.8,436.9c-1.3-0.7-2.6-1.5-4-2.2C319.2,435.4,320.5,436.2,321.8,436.9z"/>
				<path class="st1" d="M380.3,466.8c-0.6-0.3-1.1-0.5-1.7-0.8C379.2,466.3,379.8,466.6,380.3,466.8z"/>
				<path class="st1" d="M411.7,480.6c-0.3-0.1-0.6-0.2-0.8-0.4C411.1,480.4,411.4,480.5,411.7,480.6z"/>
				<path class="st1" d="M423.9,485.6c-0.2-0.1-0.4-0.2-0.6-0.2C423.5,485.4,423.7,485.5,423.9,485.6z"/>
				<path class="st1" d="M417.8,483.1c-0.2-0.1-0.5-0.2-0.7-0.3C417.3,482.9,417.6,483,417.8,483.1z"/>
				<path class="st1" d="M429.9,487.9c-0.2-0.1-0.3-0.1-0.5-0.2C429.6,487.8,429.8,487.8,429.9,487.9z"/>
				<path class="st1" d="M399.3,475.4c-0.4-0.2-0.8-0.3-1.2-0.5C398.5,475,398.9,475.2,399.3,475.4z"/>
				<path class="st1" d="M405.5,478c-0.3-0.1-0.7-0.3-1-0.4C404.8,477.7,405.1,477.9,405.5,478z"/>
				<path class="st1" d="M393,472.6c-0.4-0.2-0.9-0.4-1.4-0.6C392.1,472.2,392.5,472.4,393,472.6z"/>
				<path class="st1" d="M386.7,469.8c-0.5-0.2-1-0.5-1.5-0.7C385.7,469.3,386.2,469.5,386.7,469.8z"/>
				<path class="st1" d="M441.4,389.1c-0.1,1.4-0.1,2.9-0.2,4.3C441.3,391.9,441.4,390.5,441.4,389.1z"/>
				<path class="st1" d="M442.1,341.2c0,0.9,0,1.7,0,2.6C442.1,342.9,442.1,342,442.1,341.2z"/>
				<path class="st1" d="M441.7,381.6c0,1.4-0.1,2.7-0.1,4.1C441.6,384.4,441.7,383,441.7,381.6z"/>
				<path class="st1" d="M441.1,396.4c-0.1,1.5-0.2,3-0.2,4.5C441,399.4,441,397.9,441.1,396.4z"/>
				<path class="st1" d="M440.3,411c-0.1,1.6-0.2,3.2-0.3,4.8C440.1,414.2,440.2,412.6,440.3,411z"/>
				<path class="st1" d="M442.1,359c0,0.9,0,1.7,0,2.6C442.1,360.8,442.1,359.9,442.1,359z"/>
				<path class="st1" d="M441.9,374.2c0,1.3-0.1,2.6-0.1,3.9C441.8,376.7,441.9,375.5,441.9,374.2z"/>
				<path class="st1" d="M442.1,366.6c0,1.2,0,2.3-0.1,3.4C442,368.9,442,367.8,442.1,366.6z"/>
				<path class="st1" d="M440.7,403.7c-0.1,1.5-0.2,3.1-0.3,4.6C440.6,406.8,440.6,405.3,440.7,403.7z"/>
				<path class="st1" d="M437.3,446.1c-0.2,1.8-0.4,3.7-0.6,5.5C437,449.8,437.2,448,437.3,446.1z"/>
				<path class="st1" d="M436.6,452.9c-0.2,1.9-0.4,3.7-0.7,5.6C436.2,456.7,436.4,454.8,436.6,452.9z"/>
				<path class="st1" d="M438,439.2c-0.2,1.8-0.4,3.6-0.5,5.4C437.7,442.8,437.9,441,438,439.2z"/>
				<path class="st1" d="M439.3,425.2c-0.1,1.7-0.3,3.4-0.4,5.1C439,428.7,439.1,427,439.3,425.2z"/>
				<path class="st1" d="M439.8,418.1c-0.1,1.7-0.2,3.3-0.4,5C439.6,421.4,439.7,419.8,439.8,418.1z"/>
				<path class="st1" d="M438.7,432.3c-0.2,1.8-0.3,3.5-0.5,5.3C438.4,435.8,438.5,434,438.7,432.3z"/>
				<path class="st1" d="M262.9,351.4c0-49.4,3.9-95.9,10.7-136.5c-2.3-0.8-4.5-1.7-6.8-2.5c-6.9,41.5-10.8,88.8-10.8,139
					c0,15.7,0.4,31.1,1.1,46.2c0.2,0.2,0.4,0.3,0.7,0.5c0.7,0.5,1.4,0.9,2.1,1.4c1.3,0.9,2.6,1.7,3.9,2.6c0.1,0.1,0.2,0.2,0.4,0.2
					C263.4,385.7,262.9,368.7,262.9,351.4z"/>
				<path class="st1" d="M435.8,459.7c-0.2,1.9-0.5,3.8-0.7,5.7C435.3,463.5,435.6,461.6,435.8,459.7z"/>
				<path class="st1" d="M435,466.3c-0.3,1.9-0.5,3.8-0.8,5.8C434.5,470.1,434.7,468.2,435,466.3z"/>
				<path class="st1" d="M441.8,324.8c0,1.3,0.1,2.6,0.1,3.9C441.9,327.3,441.8,326,441.8,324.8z"/>
				<path class="st1" d="M433.1,479.3c-0.3,2-0.6,3.9-0.9,5.9C432.5,483.3,432.8,481.3,433.1,479.3z"/>
				<path class="st1" d="M441.5,317c0,1.4,0.1,2.7,0.1,4.1C441.7,319.8,441.6,318.4,441.5,317z"/>
				<path class="st1" d="M441.2,309.4c0.1,1.4,0.1,2.9,0.2,4.3C441.4,312.3,441.3,310.9,441.2,309.4z"/>
				<path class="st1" d="M434.1,472.9c-0.3,2-0.6,3.9-0.8,5.9C433.5,476.8,433.8,474.8,434.1,472.9z"/>
				<path class="st1" d="M440.9,301.9c0.1,1.5,0.2,3,0.2,4.5C441,304.9,441,303.4,440.9,301.9z"/>
				<path class="st1" d="M431.7,488.6c0.2-0.9,0.3-1.9,0.5-2.8C432,486.7,431.8,487.6,431.7,488.6L431.7,488.6z"/>
				<path class="st1" d="M442,332.7c0,1.1,0,2.3,0.1,3.4C442,335,442,333.9,442,332.7z"/>
				<path class="st1" d="M434.2,472.1c0,0.3-0.1,0.5-0.1,0.8C434.1,472.6,434.1,472.3,434.2,472.1z"/>
				<path class="st1" d="M435.1,465.4c0,0.3-0.1,0.6-0.1,0.9C435,466,435,465.7,435.1,465.4z"/>
				<path class="st1" d="M438.8,430.3c-0.1,0.6-0.1,1.3-0.2,1.9C438.7,431.6,438.8,431,438.8,430.3z"/>
				<path class="st1" d="M438.2,437.6c-0.1,0.6-0.1,1.1-0.2,1.7C438.1,438.7,438.1,438.1,438.2,437.6z"/>
				<path class="st1" d="M437.5,444.6c-0.1,0.5-0.1,1-0.2,1.5C437.4,445.6,437.4,445.1,437.5,444.6z"/>
				<path class="st1" d="M432.2,485.2c0,0.2-0.1,0.3-0.1,0.5C432.2,485.6,432.2,485.4,432.2,485.2z"/>
				<path class="st1" d="M436.7,451.6c0,0.4-0.1,0.9-0.1,1.3C436.7,452.5,436.7,452.1,436.7,451.6z"/>
				<path class="st1" d="M435.9,458.5c0,0.4-0.1,0.8-0.1,1.1C435.9,459.3,435.9,458.9,435.9,458.5z"/>
				<path class="st1" d="M440.9,301.9c0-0.5-0.1-1-0.1-1.5l0,0C440.8,300.9,440.9,301.4,440.9,301.9z"/>
				<path class="st1" d="M439.4,423.1c-0.1,0.7-0.1,1.4-0.2,2.2C439.3,424.5,439.4,423.8,439.4,423.1z"/>
				<path class="st1" d="M433.2,478.7c0,0.2-0.1,0.4-0.1,0.6C433.2,479.1,433.2,478.9,433.2,478.7z"/>
				<path class="st1" d="M442.1,336.2c0,1.7,0,3.3,0.1,5C442.1,339.5,442.1,337.8,442.1,336.2z"/>
				<path class="st1" d="M441.9,328.6c0,1.4,0.1,2.7,0.1,4.1C442,331.4,441.9,330,441.9,328.6z"/>
				<path class="st1" d="M442,370.1c0,1.4,0,2.7-0.1,4.1C441.9,372.8,442,371.4,442,370.1z"/>
				<path class="st1" d="M441.8,378c0,1.2-0.1,2.4-0.1,3.6C441.7,380.4,441.8,379.2,441.8,378z"/>
				<path class="st1" d="M442.1,343.8c0,2.5,0,5.1,0,7.6C442.2,348.8,442.2,346.3,442.1,343.8z"/>
				<path class="st1" d="M440,415.8c-0.1,0.8-0.1,1.6-0.2,2.3C439.9,417.4,439.9,416.6,440,415.8z"/>
				<path class="st1" d="M441.7,321.2c0,1.2,0.1,2.4,0.1,3.6C441.8,323.6,441.7,322.4,441.7,321.2z"/>
				<path class="st1" d="M442.2,351.4c0,2.6,0,5.1,0,7.6C442.2,356.5,442.2,354,442.2,351.4z"/>
				<path class="st1" d="M442.1,361.6c0,1.7,0,3.3-0.1,5C442.1,365,442.1,363.3,442.1,361.6z"/>
				<path class="st1" d="M440.5,408.4c-0.1,0.9-0.1,1.7-0.2,2.6C440.4,410.1,440.4,409.2,440.5,408.4z"/>
				<path class="st1" d="M440.9,400.9c0,0.9-0.1,1.9-0.1,2.8C440.8,402.8,440.8,401.8,440.9,400.9z"/>
				<path class="st1" d="M441.1,306.4c0,1,0.1,2,0.1,3.1C441.2,308.4,441.2,307.4,441.1,306.4z"/>
				<path class="st1" d="M441.4,313.7c0,1.1,0.1,2.2,0.1,3.3C441.5,315.9,441.5,314.8,441.4,313.7z"/>
				<path class="st1" d="M441.5,385.7c0,1.1-0.1,2.2-0.1,3.3C441.5,388,441.5,386.9,441.5,385.7z"/>
				<path class="st1" d="M441.2,393.4c0,1-0.1,2-0.1,3.1C441.2,395.4,441.2,394.4,441.2,393.4z"/>
			</g>
		</g>
		<g>
			
				<image style="overflow:visible;opacity:0.4;enable-background:new    ;" width="1271" height="1267" xlink:href="1CA915CFF8001A29.png"  transform="matrix(0.2392 0 0 0.2392 199.3209 196.4394)">
			</image>
			<g>
				<g>
					<g>
						
							<image style="overflow:visible;opacity:0.79;enable-background:new    ;" width="671" height="671" xlink:href="1CA915CFF8001A2F.png"  transform="matrix(0.2382 0 0 0.2382 271.56 268.2)">
						</image>
						<g>
							<rect x="304.6" y="301.2" class="st2" width="93.6" height="93.6"/>
						</g>
					</g>
					<rect x="311.4" y="308" class="st1" width="80.1" height="80.1"/>
				</g>
			</g>
		</g>
		<g>
			
				<image style="overflow:visible;opacity:0.34;enable-background:new    ;" width="704" height="708" xlink:href="1CA915CFF8001A28.png"  transform="matrix(0.2386 0 0 0.2386 227.279 2.4017)">
			</image>
			<g>
				<g>
					<g>
						
							<image style="overflow:visible;opacity:0.79;enable-background:new    ;" width="408" height="408" xlink:href="1CA915CFF8001A26.png"  transform="matrix(0.2382 0 0 0.2382 262.68 38.28)">
						</image>
						<g>
							
								<rect x="298.6" y="74" transform="matrix(0.9717 -0.2364 0.2364 0.9717 -11.6941 76.0748)" class="st2" width="25.6" height="25.6"/>
						</g>
					</g>
					
						<rect x="300.4" y="75.8" transform="matrix(0.9717 -0.2364 0.2364 0.9717 -11.6871 76.0594)" class="st1" width="21.9" height="21.9"/>
				</g>
			</g>
		</g>
		<g>
			
				<image style="overflow:visible;opacity:0.34;enable-background:new    ;" width="708" height="708" xlink:href="1CA915CFF8001A27.png"  transform="matrix(0.238 0 0 0.238 479.76 309.84)">
			</image>
			<g>
				<g>
					<g>
						
							<image style="overflow:visible;opacity:0.79;enable-background:new    ;" width="408" height="408" xlink:href="1CA915CFF8001A37.png"  transform="matrix(0.2382 0 0 0.2382 515.4 345.48)">
						</image>
						<g>
							
								<rect x="551.1" y="381.2" transform="matrix(0.9717 -0.2364 0.2364 0.9717 -77.1612 144.4721)" class="st2" width="25.6" height="25.6"/>
						</g>
					</g>
					
						<rect x="552.9" y="383" transform="matrix(0.9717 -0.2364 0.2364 0.9717 -77.1542 144.4568)" class="st1" width="21.9" height="21.9"/>
				</g>
			</g>
		</g>
		<g>
			
				<image style="overflow:visible;opacity:0.34;enable-background:new    ;" width="713" height="713" xlink:href="1CA915CFF8001A39.png"  transform="matrix(0.2387 0 0 0.2387 47.52 429.12)">
			</image>
			<g>
				<g>
					<g>
						
							<image style="overflow:visible;opacity:0.79;enable-background:new    ;" width="429" height="429" xlink:href="1CA915CFF8001A3B.png"  transform="matrix(0.2383 0 0 0.2383 81.48 463.08)">
						</image>
						<g>
							
								<rect x="119.7" y="501.4" transform="matrix(0.7862 -0.6179 0.6179 0.7862 -289.4433 191.782)" class="st2" width="25.6" height="25.6"/>
						</g>
					</g>
					
						<rect x="121.5" y="503.2" transform="matrix(0.7862 -0.6179 0.6179 0.7862 -289.3982 191.7722)" class="st1" width="21.9" height="21.9"/>
				</g>
			</g>
		</g>
	</g>
</g>
</svg>
