<?xml version="1.0" encoding="utf-8"?>
<!-- Generator: Adobe Illustrator 26.2.1, SVG Export Plug-In . SVG Version: 6.00 Build 0)  -->
<svg version="1.1" id="Layer_1" xmlns="http://www.w3.org/2000/svg" xmlns:xlink="http://www.w3.org/1999/xlink" x="0px" y="0px"
	 viewBox="0 0 983.1 1026.7" style="enable-background:new 0 0 983.1 1026.7;" xml:space="preserve">
<style type="text/css">
	.st0{enable-background:new    ;}
	.st1{fill:#9FF4D9;}
</style>
<g>
	<g id="Layer_2_00000158730049115442178810000006528084763635989171_">
		<g id="Layer_8">
			
				<image style="overflow:visible;enable-background:new    ;" width="632" height="632" xlink:href="CE508F39D8CC6255.png"  transform="matrix(1 0 0 1 329.9025 391.8311)">
			</image>
			<g class="st0">
				<path class="st1" d="M576.5,445.3c-13.4,0-23.7,4.1-30.8,12.3c-7.1,8.2-10.7,19.8-10.7,34.7c0,15.1,4,26.8,11.9,35
					c7.9,8.2,18.6,12.3,32,12.3c7.1,0,13.2-1,18.1-2.9c5-1.9,9.7-4.1,14.2-6.5c3,2.4,5.3,5.4,6.9,8.7c1.7,3.4,2.5,7.4,2.5,11.9
					c0,7.1-4,13.2-11.9,18.1c-7.9,5-20,7.4-36.2,7.4c-11.7,0-22.6-1.7-32.9-5c-10.3-3.3-19.2-8.4-26.9-15.3
					c-7.7-6.9-13.7-15.6-18.1-26.1c-4.4-10.5-6.7-23.1-6.7-37.7c0-13.6,2.1-25.5,6.4-35.9c4.3-10.4,10.1-19.1,17.5-26.2
					c7.4-7.1,16.1-12.5,26-16.2s20.5-5.5,31.8-5.5c16,0,28.4,2.6,37.2,7.8c8.8,5.2,13.2,11.9,13.2,20.1c0,4.5-1.1,8.4-3.4,11.7
					c-2.3,3.3-4.9,5.9-7.8,7.8c-4.5-3-9.4-5.5-14.5-7.6C589.2,446.4,583.3,445.3,576.5,445.3z"/>
			</g>
			<g class="st0">
				<path class="st1" d="M437,518.7v50.1c-1.9,0.5-4.9,1-9,1.6c-4.1,0.5-8.1,0.8-12.1,0.8c-4,0-7.5-0.3-10.6-0.9
					c-3-0.6-5.6-1.7-7.6-3.3c-2-1.6-3.5-3.7-4.6-6.5c-1-2.8-1.6-6.4-1.6-11V426.6c0-3.7,1-6.5,3-8.5c2-2,4.7-3.6,8.2-4.8
					c5.9-2.1,12.8-3.6,20.6-4.6c7.8-1,16.2-1.4,25.1-1.4c24,0,42.1,5,54.3,15.1c12.2,10.1,18.3,23.8,18.3,41c0,10.8-2.8,20-8.4,27.7
					c-5.6,7.7-12.2,13.6-19.8,17.7c6.3,8.5,12.4,16.5,18.5,24c6.1,7.5,10.9,14.3,14.4,20.4c-1.7,6.1-4.9,10.7-9.5,14
					c-4.6,3.2-9.8,4.8-15.5,4.8c-3.8,0-7.1-0.4-9.9-1.3c-2.8-0.9-5.2-2.1-7.3-3.7s-4-3.5-5.7-5.7c-1.7-2.3-3.4-4.7-5-7.3l-21.9-35.2
					H437z M453.4,484c6.6,0,11.8-1.7,15.7-5.1c3.8-3.4,5.7-8.4,5.7-15c0-6.6-2.1-11.6-6.4-15c-4.3-3.4-11-5.1-20.2-5.1
					c-2.6,0-4.7,0.1-6.3,0.3c-1.6,0.2-3.3,0.4-5.2,0.8V484H453.4z"/>
			</g>
		</g>
	</g>
</g>
</svg>
