<svg id="Layer_1" data-name="Layer 1" xmlns="http://www.w3.org/2000/svg" viewBox="0 0 1250.05 678.64"><defs><style>.cls-1{stroke:#fff;stroke-miterlimit:10;}</style></defs><path class="cls-1" d="M1145.24,313.65c97.43,110.26,157,226.81,18,314.1C1042.67,703.39,948.31,503.86,829.85,538,687.54,579,717.05,505.5,625,522.62c-96.46,18-135.52,86.22-251.72,131.79-87.21,34.2-187.6,25.11-207.56,11.8-92.31-61.54,78.2-92.3,41-232-26.84-100.85-42.17-35.4-52.57,21.8C140,534.38,88.58,732.41,47.8,609.8c-44-132.42-73.08-482-14.1-576.92C73.51-31.17,171.91,25,222.83,50.78c89.3,45.18,168.69,125.4,230.1,111.59,68.59-15.44,89.74-171.8,181.41-105.13C660.56,76.31,699.73,80,742.27,78.15,813.17,75,963.05,9.59,1009.34,3.33,1095-8.26,1211.56,14,1246.52,103.39,1273.76,173,1107.57,271,1145.24,313.65Z"/></svg>