<?xml version="1.0" encoding="utf-8"?>
<!-- Generator: Adobe Illustrator 26.2.1, SVG Export Plug-In . SVG Version: 6.00 Build 0)  -->
<svg version="1.1" id="Layer_1" xmlns="http://www.w3.org/2000/svg" xmlns:xlink="http://www.w3.org/1999/xlink" x="0px" y="0px"
	 viewBox="0 0 703.8 665.2" style="enable-background:new 0 0 703.8 665.2;" xml:space="preserve">
<style type="text/css">
	.st0{fill:#F4F3F7;}
	.st1{fill:#BDBBB6;}
</style>
<circle class="st0" cx="351.9" cy="324.8" r="306.9"/>
<image style="overflow:visible;enable-background:new    ;" width="3753" height="3753" xlink:href="855D7C1EA57743C2.png"  transform="matrix(0.2172 0 0 0.2172 -55.668 -82.7684)">
</image>
<g>
	<path class="st1" d="M267.7,241.1c127.4-89.2,264.9-112.7,307-52.5C616.1,247.8,550,366,426.6,454.7c2.2-1.5,4.3-3,6.4-4.5
		c134.4-94.1,205.5-224.6,158.8-291.3s-193.7-44.6-328,49.5S58.2,433,105,499.8c1.5,2.1,3,4.1,4.6,6
		C75.6,443.8,144.3,327.5,267.7,241.1z"/>
	<path class="st1" d="M109.6,505.7c1.1,2,2.4,4,3.7,5.9c42.2,60.2,179.6,36.7,307-52.5c2.1-1.5,4.2-3,6.3-4.5
		C298.1,542.2,160,564.1,109.6,505.7z"/>
</g>
<path class="st1" d="M347.9,32c-81.5,0-147.6,133-147.6,297.1s66.1,297.1,147.6,297.1s147.6-133,147.6-297.1S429.4,32,347.9,32z
	 M360.6,606.4c-73.5,0-133-126.1-133-281.6s59.6-281.6,133-281.6s133,126.1,133,281.6S434.1,606.4,360.6,606.4L360.6,606.4z"/>
<g>
	<path class="st1" d="M590.4,481.2c-42.2,60.2-179.6,36.7-307-52.5S86.9,218.3,129,158.2c42-59.9,178.3-36.9,305.2,51.3l-1.7-1.2
		c-134.4-94.1-281.3-116.3-328-49.5S128.8,355.9,263.3,450s281.3,116.3,328,49.5c17.7-25.2,18.5-59.5,5.4-97.5
		C606.2,433,604.8,460.6,590.4,481.2z"/>
	<path class="st1" d="M434.2,209.4C517,267.8,575.4,339.8,596.8,402C578.6,342,520,269.4,436,210.6L434.2,209.4z"/>
</g>
<path class="st1" d="M356.2,280.6l1-1.1c5.2-5,11.5-8.9,18.3-11.4c7.2-2.6,14.8-3.9,22.5-3.9c11.3,0,20,1.8,26.2,5.5
	c6.2,3.7,9.3,8.4,9.3,14.2c0.1,2.9-0.8,5.8-2.4,8.3c-1.5,2.2-3.3,4.1-5.5,5.5c-3.2-2.1-6.6-3.9-10.2-5.3c-4-1.5-8.3-2.3-12.6-2.2
	c-9.5,0-16.7,2.9-21.7,8.7c-5,5.8-7.5,13.9-7.5,24.5c0,10.7,2.8,18.9,8.4,24.7c5.6,5.8,13.1,8.7,22.6,8.7c4.4,0.1,8.7-0.6,12.8-2
	c3.4-1.3,6.8-2.9,10-4.6c2.1,1.7,3.7,3.8,4.9,6.2c1.2,2.6,1.8,5.5,1.8,8.4c0,5-2.8,9.3-8.4,12.8c-5.6,3.5-14.1,5.2-25.5,5.2
	c-7.9,0.1-15.7-1.1-23.2-3.5c-5-1.6-9.7-3.9-14-6.8"/>
<path class="st1" d="M362.9,372.3c-1,1.4-2.3,2.6-3.7,3.6c-3.2,2.3-7,3.4-11,3.4c-2.4,0-4.7-0.3-7-0.9c-1.9-0.6-3.6-1.4-5.2-2.6
	c-1.5-1.2-2.9-2.5-4-4.1c-1.3-1.6-2.4-3.4-3.5-5.1l-15.5-24.9h-9.8V377c-2.1,0.5-4.2,0.9-6.3,1.1c-2.8,0.4-5.7,0.6-8.6,0.6
	c-2.5,0-5-0.2-7.4-0.6c-1.9-0.3-3.8-1.1-5.3-2.3c-1.5-1.2-2.6-2.8-3.2-4.6c-0.8-2.5-1.2-5.1-1.1-7.7v-86.7c-0.1-2.2,0.6-4.4,2.1-6
	c1.6-1.6,3.6-2.7,5.8-3.4c4.7-1.6,9.6-2.7,14.5-3.2c5.9-0.7,11.8-1,17.7-1c16.9,0,29.7,3.6,38.3,10.7c2.1,1.7,4,3.7,5.6,5.8l0.9,1
	 M314.9,317.2c4.7,0,8.3-1.2,11-3.6c2.7-2.4,4.1-5.9,4.1-10.6c0-4.7-1.5-8.2-4.5-10.6c-3-2.4-7.8-3.6-14.3-3.6c-1.5,0-2.9,0-4.4,0.2
	c-1.1,0.1-2.3,0.3-3.7,0.6v27.6L314.9,317.2z"/>
</svg>
