<?xml version="1.0" encoding="utf-8"?>
<!-- Generator: Adobe Illustrator 26.2.1, SVG Export Plug-In . SVG Version: 6.00 Build 0)  -->
<svg version="1.1" id="Layer_1" xmlns="http://www.w3.org/2000/svg" xmlns:xlink="http://www.w3.org/1999/xlink" x="0px" y="0px"
	 viewBox="0 0 700 700" style="enable-background:new 0 0 700 700;" xml:space="preserve">
<style type="text/css">
	.st0{fill:#BDBBB6;}
</style>
<g>
	<path class="st0" d="M617.9,518c-46.6,66.5-198.5,40.5-339.2-58.1S61.5,227.6,108.1,161.1c46.4-66.2,197-40.8,337.2,56.7l-1.9-1.3
		C295,112.4,132.7,87.9,81,161.7s26.9,217.9,175.4,321.9s311,128.5,362.6,54.7c19.5-27.9,20.4-65.8,6-107.8
		C635.4,464.8,633.8,495.3,617.9,518z"/>
	<path class="st0" d="M445.4,217.7c91.4,64.5,156,144.1,179.6,212.8c-20-66.2-84.8-146.5-177.6-211.4
		C446.7,218.6,446,218.2,445.4,217.7z"/>
</g>
</svg>
