<?xml version="1.0" encoding="utf-8"?>
<!-- Generator: Adobe Illustrator 26.2.1, SVG Export Plug-In . SVG Version: 6.00 Build 0)  -->
<svg version="1.1" id="Layer_1" xmlns="http://www.w3.org/2000/svg" xmlns:xlink="http://www.w3.org/1999/xlink" x="0px" y="0px"
	 viewBox="0 0 700 700" style="enable-background:new 0 0 700 700;" xml:space="preserve">
<style type="text/css">
	.st0{fill:#BDBBB6;}
</style>
<g>
	<path class="st0" d="M260.8,248.8c140.8-98.6,292.7-124.6,339.2-58c45.8,65.4-27.3,195.9-163.6,294c2.4-1.6,4.8-3.3,7.1-4.9
		C592.1,375.9,670.6,231.7,619,158s-214-49.3-362.5,54.8S29.4,460.8,81,534.6c1.6,2.3,3.3,4.5,5.1,6.6
		C48.6,472.8,124.5,344.2,260.8,248.8z"/>
	<path class="st0" d="M86.2,541.2c1.2,2.3,2.6,4.4,4.1,6.5c46.6,66.5,198.5,40.5,339.2-58c2.3-1.6,4.6-3.3,6.9-4.9
		C294.5,581.5,141.8,605.7,86.2,541.2z"/>
</g>
</svg>
