<?xml version="1.0" encoding="utf-8"?>
<!-- Generator: Adobe Illustrator 26.2.1, SVG Export Plug-In . SVG Version: 6.00 Build 0)  -->
<svg version="1.1" id="Layer_1" xmlns="http://www.w3.org/2000/svg" xmlns:xlink="http://www.w3.org/1999/xlink" x="0px" y="0px"
	 viewBox="0 0 700 700" style="enable-background:new 0 0 700 700;" xml:space="preserve">
<style type="text/css">
	.st0{fill:#BDBBB6;}
</style>
<g>
	
		<image style="overflow:visible;opacity:0.53;enable-background:new    ;" width="289" height="241" xlink:href="3B0181AC2DD66FA2.png"  transform="matrix(1 0 0 1 214 235)">
	</image>
	<g>
		<g>
			<path class="st0" d="M363,402.7c-1.2,1.5-2.5,2.9-4.1,4c-3.5,2.5-7.8,3.8-12.1,3.7c-2.6,0.1-5.2-0.3-7.7-1c-2-0.6-4-1.6-5.7-2.9
				s-3.2-2.8-4.5-4.5c-1.4-1.8-2.7-3.7-3.9-5.7L307.9,369h-10.8v39c-2.3,0.6-4.6,1-7,1.2c-3.1,0.4-6.3,0.6-9.5,0.6
				c-2.8,0-5.5-0.2-8.2-0.7c-2.1-0.4-4.2-1.2-5.9-2.5c-1.6-1.3-2.9-3.1-3.6-5.1c-0.9-2.8-1.3-5.6-1.2-8.5v-95.8
				c-0.1-2.4,0.7-4.8,2.3-6.6c1.8-1.7,4-3,6.4-3.8c5.2-1.8,10.6-2.9,16-3.6c6.5-0.8,13-1.1,19.5-1.1c18.7,0,32.8,3.9,42.3,11.8
				c2.3,1.9,4.4,4.1,6.2,6.4l1,1.1l0,0l1.2-1.2c5.8-5.6,12.7-9.9,20.2-12.6c7.9-2.9,16.3-4.3,24.8-4.3c12.5,0,22.1,2,29,6.1
				s10.3,9.3,10.3,15.7c0.1,3.2-0.8,6.4-2.6,9.1c-1.6,2.4-3.7,4.5-6.1,6.1c-3.6-2.3-7.4-4.3-11.3-5.9c-4.4-1.7-9.2-2.5-13.9-2.4
				c-10.4,0-18.4,3.2-24,9.6s-8.3,15.4-8.3,27.1c0,11.8,3.1,20.9,9.2,27.3s14.5,9.6,24.9,9.6c4.8,0.1,9.6-0.6,14.1-2.2
				c3.8-1.5,7.5-3.2,11.1-5.1c2.3,1.9,4.1,4.2,5.4,6.8c1.3,2.9,2,6.1,1.9,9.3c0,5.6-3.1,10.3-9.3,14.1c-6.2,3.9-15.6,5.8-28.2,5.8
				c-8.7,0-17.3-1.3-25.6-3.9C372.7,408.7,367.7,406,363,402.7L363,402.7z M309.9,341.9c5.2,0,9.2-1.3,12.2-4s4.5-6.5,4.5-11.7
				s-1.7-9-5-11.7s-8.6-4-15.8-4c-1.6,0-3.3,0.1-4.9,0.2c-1.2,0.1-2.6,0.3-4.1,0.6v30.5L309.9,341.9z"/>
		</g>
	</g>
</g>
</svg>
