<?xml version="1.0" encoding="utf-8"?>
<!-- Generator: Adobe Illustrator 26.2.1, SVG Export Plug-In . SVG Version: 6.00 Build 0)  -->
<svg version="1.1" id="Layer_5" xmlns="http://www.w3.org/2000/svg" xmlns:xlink="http://www.w3.org/1999/xlink" x="0px" y="0px"
	 viewBox="0 0 8192 489.9" style="enable-background:new 0 0 8192 489.9;" xml:space="preserve">
<style type="text/css">
	.st0{fill:#343435;stroke:#2D2D2D;stroke-width:11.846;stroke-miterlimit:5.923;}
</style>
<path class="st0" d="M64.3,244.2c-8.7-3-16.6-6-23.7-9c-6.6-2.8-12.8-6.5-18.4-11.1c-5.1-4.3-9.2-9.6-12-15.5
	c-2.9-6-4.3-13.4-4.3-22.1c0-16.8,6.5-30.2,19.4-40.3c12.9-10.1,31-15.1,54.3-15.1c7.9,0,15.9,0.6,23.7,1.8c7.3,1.2,13.6,3,18.8,5.5
	c5.2,2.5,9.3,5.6,12.3,9.5c3,3.9,4.5,8.6,4.4,13.5c0,5.1-1.2,9.5-3.6,13.2c-2.3,3.6-5.2,6.7-8.6,9.3c-4.3-2.8-10.2-5.2-17.5-7.3
	c-7.8-2.1-15.9-3.2-24-3.1c-8.9,0-15.4,1.2-19.5,3.7c-4.1,2.5-6.2,5.6-6.2,9.3c0,3,1.3,5.4,3.8,7.3c2.6,1.9,6.4,3.6,11.5,5.2l15.7,5
	c18.6,5.9,32.8,13.5,42.8,22.7s15,21.7,15,37.5c0,16.8-6.6,30.4-19.8,40.7c-13.2,10.4-32.7,15.6-58.3,15.5c-8.5,0.1-17-0.7-25.3-2.2
	c-7.1-1.2-13.9-3.4-20.4-6.5c-5.8-2.9-10.4-6.4-13.6-10.7c-3.2-4.2-5-9.4-4.9-14.7c0-5.7,1.7-10.6,5-14.7c3-3.8,6.7-6.9,11-9.3
	c5.5,4.3,12.3,8.1,20.3,11.3c8.4,3.2,17.3,4.8,26.2,4.7c9.7,0,16.5-1.5,20.4-4.4c3.9-3,5.9-6.4,5.9-10.4c0-3.9-1.6-7-4.7-9
	s-7.6-4.1-13.3-6.1L64.3,244.2z"/>
<path class="st0" d="M223,266.1c0,5.1,1.6,8.8,4.9,11c3.3,2.2,7.8,3.3,13.8,3.3c3.1,0,6.1-0.3,9.2-0.7c2.8-0.4,5.6-1.1,8.3-1.9
	c1.8,2.2,3.4,4.7,4.6,7.3c1.4,3,2,6.3,1.9,9.6c0,7.5-2.8,13.6-8.4,18.4c-5.6,4.7-15.5,7.1-29.8,7.1c-17.4,0-30.8-3.9-40.1-11.8
	c-9.4-7.9-14.1-20.7-14.1-38.5V142.9c2.2-0.6,5.3-1.2,9.3-1.9c4.3-0.7,8.6-1.1,12.9-1c8.7,0,15.4,1.5,20.3,4.6
	c4.8,3.1,7.3,9.5,7.3,19.4v19h38.8c1.4,2.6,2.5,5.3,3.4,8.1c1.1,3.5,1.7,7.1,1.6,10.8c0,6.9-1.5,11.9-4.6,15
	c-3.1,3.1-7.2,4.6-12.3,4.6H223V266.1z"/>
<path class="st0" d="M341.5,315.3c-3.1,0.8-6.2,1.4-9.3,1.8c-4.4,0.6-8.8,0.9-13.2,0.9c-3.9,0-7.8-0.3-11.7-0.9
	c-3.2-0.5-6.2-1.7-8.7-3.6c-2.4-1.9-4.3-4.4-5.5-7.3c-1.3-3.1-1.9-7.1-1.9-12v-88.8c0-4.5,0.8-8.4,2.5-11.7c1.8-3.4,4.3-6.4,7.3-8.7
	c3.6-2.8,7.5-5.2,11.7-7c4.9-2.2,9.9-4,15-5.5c5.4-1.6,11-2.8,16.6-3.7c5.7-0.9,11.4-1.3,17.2-1.3c9.5,0,17,1.8,22.5,5.5
	c5.5,3.7,8.3,9.6,8.3,17.9c0,2.8-0.4,5.5-1.2,8.1c-0.7,2.5-1.7,4.9-3,7.3c-4.1,0-8.4,0.2-12.7,0.6c-4.3,0.4-8.6,1-12.7,1.8
	c-4.1,0.8-8,1.6-11.7,2.5c-3.2,0.7-6.3,1.8-9.3,3.1L341.5,315.3z"/>
<path class="st0" d="M483.3,320.3c-11,0.1-21.9-1.6-32.4-4.9c-9.6-3-18.5-8-26.1-14.7c-7.4-6.5-13.2-14.7-17.5-24.6
	c-4.2-9.9-6.4-21.4-6.4-34.6c0-13,2.1-24.2,6.4-33.6c4.2-9.4,9.8-17.1,16.7-23.1c6.9-6,15-10.6,23.7-13.3c8.8-2.8,18-4.3,27.2-4.3
	c10.5,0,20,1.6,28.6,4.7c8.2,2.9,15.7,7.3,22.2,13c6.2,5.5,11.1,12.3,14.5,19.8c3.5,7.9,5.3,16.5,5.2,25.2c0,6.7-1.9,11.8-5.6,15.4
	s-9,5.8-15.7,6.8l-73.1,11c2.2,6.5,6.6,11.4,13.3,14.7c6.7,3.3,14.4,4.9,23.1,4.9c7.8,0,15.5-1,23-3.1c7.2-2.1,13.1-4.5,17.6-7.3
	c3.3,2.1,6,4.9,8,8.3c2.1,3.4,3.2,7.3,3.3,11.3c0,8.9-4.1,15.5-12.4,19.8c-6.7,3.5-13.9,5.8-21.3,6.8
	C498.2,319.7,490.8,320.3,483.3,320.3z M475,203.9c-4.7,0-8.8,0.8-12.3,2.4c-3.2,1.4-6.1,3.5-8.4,6.1c-2.1,2.4-3.8,5.2-4.9,8.3
	c-1.1,3-1.7,6.1-1.9,9.3l50.6-8.3c-0.6-3.9-2.8-7.9-6.5-11.8C487.9,205.9,482.3,203.9,475,203.9z"/>
<path class="st0" d="M629,167.2c10.7,0,20.4,1.1,29.2,3.3c8.8,2.2,16.3,5.5,22.5,9.9c6.1,4.3,11.1,10.1,14.4,16.9
	c3.4,6.8,5,14.9,5,24.1v66.3c0,5.1-1.4,9.3-4.3,12.6c-2.9,3.3-6.4,6.2-10.2,8.4c-12.8,7.7-30.9,11.5-54.2,11.5
	c-10.5,0-19.9-1-28.3-3c-8.4-2-15.6-4.9-21.6-8.9c-5.9-3.8-10.6-9-13.9-15.1c-3.3-6.1-4.9-13.2-4.9-21.3c0-13.6,4-24.1,12.1-31.4
	c8.1-7.3,20.6-11.8,37.6-13.6l38.8-4.1v-2.1c0-5.7-2.5-9.8-7.6-12.3c-5-2.5-12.3-3.7-21.8-3.7c-7.4,0-14.7,0.8-21.9,2.4
	c-6.6,1.4-13,3.4-19.2,5.9c-2.6-1.8-4.7-4.5-6.5-8.1c-1.8-3.5-2.7-7.4-2.7-11.4c0-5.1,1.2-9.2,3.7-12.3c2.5-3.1,6.3-5.7,11.4-7.8
	c5.7-2.2,12.5-3.8,20.3-4.7C614.3,167.7,621.6,167.2,629,167.2z M631.4,283.6c3.7,0,7.4-0.4,11.1-1c4-0.7,7.1-1.6,9-2.8v-23.7
	l-21.3,1.8c-5.5,0.4-10.1,1.6-13.6,3.6c-3.6,2-5.3,4.9-5.3,8.9c-0.1,3.8,1.6,7.3,4.6,9.6C618.9,282.4,624.1,283.6,631.4,283.6z"/>
<path class="st0" d="M799.9,167.2c8.1,0,16.1,1.1,23.8,3.4c7.4,2,14.3,5.5,20.3,10.2c6.2-4.1,12.9-7.4,20-9.8
	c7.4-2.6,16.3-3.8,26.8-3.8c7.5,0,14.9,1,22.1,3c7,1.9,13.5,5,19.2,9.3c5.6,4.2,10.1,9.9,13.5,16.9c3.4,7,5,15.5,5,25.6v93.3
	c-3.1,0.8-6.2,1.4-9.3,1.8c-4.4,0.6-8.8,0.9-13.2,0.9c-3.9,0-7.8-0.3-11.7-0.9c-3.2-0.5-6.2-1.7-8.7-3.6c-2.4-1.9-4.3-4.4-5.5-7.3
	c-1.3-3.1-1.9-7.1-1.9-12v-70.8c0-5.9-1.7-10.2-5-12.9c-3.4-2.7-7.9-4-13.6-4c-3.1,0.1-6.1,0.7-8.9,1.9c-3.2,1.3-5.5,2.6-7.1,4
	c0.2,0.7,0.3,1.5,0.3,2.2v100.5c-3.2,0.8-6.4,1.4-9.6,1.8c-4.3,0.6-8.6,0.9-12.9,0.9c-3.9,0-7.8-0.3-11.7-0.9
	c-3.2-0.5-6.2-1.7-8.7-3.6c-2.4-1.9-4.3-4.4-5.5-7.3c-1.3-3.1-1.9-7.1-1.9-12v-70.8c0-5.9-1.8-10.2-5.5-12.9c-3.7-2.7-8-4-13.2-4
	c-3.1-0.1-6.3,0.5-9.2,1.6c-2.2,0.9-4.4,2-6.5,3.1v103.9c-3.1,0.8-6.2,1.4-9.3,1.8c-4.4,0.6-8.8,0.9-13.2,0.9
	c-3.9,0-7.8-0.3-11.7-0.9c-3.2-0.5-6.2-1.7-8.7-3.6c-2.4-1.9-4.3-4.4-5.5-7.3c-1.3-3.1-1.9-7.1-1.9-12v-89.4c0-5.3,1.1-9.6,3.4-12.7
	c2.6-3.5,5.7-6.5,9.3-8.9c6.7-4.7,15.1-8.6,25-11.5C778.8,168.7,789.3,167.2,799.9,167.2z"/>
<path class="st0" d="M1032.7,315.3c-2.2,0.4-5.4,0.9-9.6,1.6c-4.3,0.7-8.6,1-12.9,1c-3.9,0-7.8-0.3-11.7-0.9
	c-3.2-0.5-6.2-1.7-8.7-3.6c-2.4-1.9-4.3-4.4-5.5-7.3c-1.3-3.1-1.9-7.1-1.9-12V122.5c2.2-0.4,5.4-0.9,9.6-1.6c4.3-0.7,8.6-1,12.9-1
	c3.9,0,7.8,0.3,11.7,0.9c3.2,0.5,6.2,1.7,8.7,3.6c2.4,1.9,4.3,4.4,5.5,7.3c1.3,3.1,1.9,7.1,1.9,12V315.3z"/>
<path class="st0" d="M1063.2,131.7c0-7.5,2.5-13.8,7.6-19c5-5.1,11.7-7.7,20-7.7c8.3,0,15,2.6,20,7.7c5,5.1,7.6,11.5,7.6,19
	c0,7.5-2.5,13.8-7.6,19c-5,5.1-11.7,7.7-20,7.7c-8.3,0-15-2.6-20-7.7C1065.7,145.5,1063.2,139.2,1063.2,131.7z M1115.9,315.3
	c-2.2,0.4-5.4,0.9-9.6,1.6c-4.3,0.7-8.6,1-12.9,1c-3.9,0-7.8-0.3-11.7-0.9c-3.2-0.5-6.2-1.7-8.7-3.6c-2.4-1.9-4.3-4.4-5.5-7.3
	c-1.3-3.1-1.9-7.1-1.9-12V173.7c2.2-0.4,5.4-0.9,9.6-1.6c4.3-0.7,8.6-1,12.9-1c3.9,0,7.8,0.3,11.7,0.9c3.2,0.5,6.2,1.7,8.7,3.6
	c2.4,1.9,4.3,4.4,5.5,7.3c1.3,3.1,1.9,7.1,1.9,12V315.3z"/>
<path class="st0" d="M1239.1,224.4c0-6.1-1.7-10.6-5.2-13.5c-3.5-2.9-8.1-4.3-14.1-4.3c-3.9,0-7.9,0.5-11.7,1.5
	c-3.6,0.9-6.9,2.4-9.9,4.4v102.8c-3.1,0.8-6.2,1.4-9.3,1.8c-4.4,0.6-8.8,0.9-13.2,0.9c-3.9,0-7.8-0.3-11.7-0.9
	c-3.2-0.5-6.2-1.7-8.7-3.6c-2.4-1.9-4.3-4.4-5.5-7.3c-1.3-3.1-1.9-7.1-1.9-12v-88.8c0-5.3,1.1-9.7,3.4-13c2.5-3.6,5.7-6.7,9.3-9.2
	c6.7-4.7,15.2-8.6,25.3-11.5c10.2-3,21.5-4.4,33.9-4.4c22.3,0,39.5,4.9,51.5,14.7c12,9.8,18.1,23.3,18.1,40.7v92.7
	c-3.1,0.8-6.2,1.4-9.3,1.8c-4.4,0.6-8.8,0.9-13.2,0.9c-3.9,0-7.8-0.3-11.7-0.9c-3.2-0.5-6.2-1.7-8.7-3.6c-2.4-1.9-4.3-4.4-5.5-7.3
	c-1.3-3.1-1.9-7.1-1.9-12V224.4z"/>
<path class="st0" d="M1319.3,131.7c0-7.5,2.5-13.8,7.6-19c5-5.1,11.7-7.7,20-7.7c8.3,0,15,2.6,20,7.7c5,5.1,7.6,11.5,7.6,19
	c0,7.5-2.5,13.8-7.6,19c-5,5.1-11.7,7.7-20,7.7c-8.3,0-15-2.6-20-7.7C1321.8,145.5,1319.3,139.2,1319.3,131.7z M1372,315.3
	c-2.2,0.4-5.4,0.9-9.6,1.6c-4.3,0.7-8.6,1-12.9,1c-3.9,0-7.8-0.3-11.7-0.9c-3.2-0.5-6.2-1.7-8.7-3.6c-2.4-1.9-4.3-4.4-5.5-7.3
	c-1.3-3.1-1.9-7.1-1.9-12V173.7c2.2-0.4,5.4-0.9,9.6-1.6c4.3-0.7,8.6-1,12.9-1c3.9,0,7.8,0.3,11.7,0.9c3.2,0.5,6.2,1.7,8.7,3.6
	c2.4,1.9,4.3,4.4,5.5,7.3c1.3,3.1,1.9,7.1,1.9,12V315.3z"/>
<path class="st0" d="M1495.2,224.4c0-6.1-1.7-10.6-5.2-13.5c-3.5-2.9-8.1-4.3-14.1-4.3c-3.9,0-7.9,0.5-11.7,1.5
	c-3.6,0.9-6.9,2.4-9.9,4.4v102.8c-3.1,0.8-6.2,1.4-9.3,1.8c-4.4,0.6-8.8,0.9-13.2,0.9c-3.9,0-7.8-0.3-11.7-0.9
	c-3.2-0.5-6.2-1.7-8.7-3.6c-2.4-1.9-4.3-4.4-5.5-7.3c-1.3-3.1-1.9-7.1-1.9-12v-88.8c0-5.3,1.1-9.7,3.4-13c2.5-3.6,5.7-6.7,9.3-9.2
	c6.7-4.7,15.2-8.6,25.3-11.5c10.2-3,21.5-4.4,33.9-4.4c22.3,0,39.5,4.9,51.5,14.7c12,9.8,18.1,23.3,18.1,40.7v92.7
	c-3.1,0.8-6.2,1.4-9.3,1.8c-4.4,0.6-8.8,0.9-13.2,0.9c-3.9,0-7.8-0.3-11.7-0.9c-3.2-0.5-6.2-1.7-8.7-3.6c-2.4-1.9-4.3-4.4-5.5-7.3
	c-1.3-3.1-1.9-7.1-1.9-12V224.4z"/>
<path class="st0" d="M1646.9,167.2c11.3,0,21.5,1.4,30.7,4.3c9.2,2.9,16.9,6.6,23.2,11.1c3.6,2.5,6.8,5.6,9.3,9.2
	c2.3,3.4,3.4,7.7,3.4,13v103.7c0,10.5-2,19.5-5.9,27.1c-3.8,7.5-9.4,14-16.1,19c-6.8,5-14.8,8.7-24,11.1c-9.6,2.4-19.5,3.6-29.5,3.6
	c-18,0-32.1-2.4-42.3-7.3c-10.3-4.8-15.4-12.7-15.4-23.5c-0.1-4.2,0.9-8.3,2.8-12c1.9-3.5,4-6.1,6.4-7.8c6.2,3.3,12.7,6,19.4,8
	c7.3,2.2,14.8,3.3,22.4,3.3c10.7,0,19.2-1.8,25.5-5.3c6.3-3.6,9.5-9.3,9.5-17.2v-4.7c-8.1,3.6-18,5.3-29.6,5.3
	c-8.6,0-17.2-1.3-25.3-4c-7.8-2.6-15-6.8-21-12.4c-6-5.6-10.9-12.9-14.5-21.8c-3.7-8.9-5.5-19.4-5.5-31.7c0-12,1.9-22.5,5.8-31.4
	c3.6-8.5,9-16,16-22.1c7.1-6,15.4-10.4,24.3-13C1626.2,168.6,1636.5,167.1,1646.9,167.2z M1665.2,210.2c-1.9-1-4-1.8-6.1-2.4
	c-3.2-0.9-6.6-1.3-9.9-1.2c-9.7,0-16.9,2.7-21.8,8.1c-4.8,5.4-7.3,13.2-7.3,23.2c0,11.5,2.4,19.7,7.3,24.7c4.8,5,11,7.6,18.5,7.6
	c8.1,0,14.5-1.9,19.2-5.6V210.2z"/>
<path class="st0" d="M1859.2,257.5v56.9c-3.4,0.8-6.8,1.4-10.2,1.8c-4.6,0.6-9.2,0.9-13.8,0.9c-4,0-8-0.3-12-1
	c-3.1-0.5-6.1-1.8-8.6-3.7c-2.4-1.9-4.2-4.5-5.2-7.4c-1.2-3.2-1.8-7.3-1.8-12.4V153c0-4.1,1.1-7.4,3.4-9.6c2.3-2.3,5.4-4.1,9.3-5.5
	c7.6-2.6,15.4-4.3,23.4-5.2c9.4-1.1,18.9-1.7,28.4-1.6c27.2,0,47.8,5.7,61.6,17.2c13.8,11.5,20.7,26.9,20.7,46.5
	c0,12.2-3.2,22.7-9.5,31.4c-6.3,8.7-13.8,15.4-22.5,20.1c7.1,9.7,14.1,18.8,21,27.2c6.9,8.5,12.3,16.2,16.3,23.1
	c-2,6.9-5.6,12.2-10.8,15.8c-5.2,3.6-11.3,5.5-17.6,5.5c-3.8,0.1-7.6-0.4-11.3-1.5c-3-0.9-5.8-2.3-8.3-4.1c-2.5-1.9-4.6-4.1-6.5-6.5
	c-2-2.7-3.9-5.4-5.6-8.3l-24.9-40H1859.2z M1877.9,218.1c7.5,0,13.4-1.9,17.8-5.8c4.3-3.8,6.5-9.5,6.5-17c0-7.5-2.4-13.2-7.3-17
	c-4.8-3.8-12.5-5.8-23-5.8c-2.4,0-4.7,0.1-7.1,0.3c-1.8,0.2-3.8,0.5-5.9,0.9v44.4H1877.9z"/>
<path class="st0" d="M2055.9,320.3c-11,0.1-21.9-1.6-32.4-4.9c-9.6-3-18.5-8-26.1-14.7c-7.4-6.5-13.2-14.7-17.5-24.6
	c-4.2-9.9-6.4-21.4-6.4-34.6c0-13,2.1-24.2,6.4-33.6c4.2-9.4,9.8-17.1,16.7-23.1c6.9-6,15-10.6,23.7-13.3c8.8-2.8,18-4.3,27.2-4.3
	c10.5,0,20,1.6,28.6,4.7c8.2,2.9,15.7,7.3,22.2,13c6.2,5.5,11.1,12.3,14.5,19.8c3.5,7.9,5.3,16.5,5.2,25.2c0,6.7-1.9,11.8-5.6,15.4
	c-3.8,3.6-9,5.8-15.7,6.8l-73.1,11c2.2,6.5,6.6,11.4,13.3,14.7c6.7,3.3,14.4,4.9,23.1,4.9c7.8,0,15.5-1,23-3.1
	c7.2-2.1,13.1-4.5,17.6-7.3c3.3,2.1,6,4.9,8,8.3c2.1,3.4,3.2,7.3,3.3,11.3c0,8.9-4.1,15.5-12.4,19.8c-6.7,3.5-13.9,5.8-21.3,6.8
	C2070.7,319.7,2063.3,320.3,2055.9,320.3z M2047.6,203.9c-4.7,0-8.8,0.8-12.3,2.4c-3.2,1.4-6.1,3.5-8.4,6.1
	c-2.1,2.4-3.8,5.2-4.9,8.3c-1.1,3-1.7,6.1-1.9,9.3l50.6-8.3c-0.6-3.9-2.8-7.9-6.5-11.8C2060.4,205.9,2054.9,203.9,2047.6,203.9z"/>
<path class="st0" d="M2201.6,167.2c9.8-0.1,19.6,1,29.2,3.3c8.8,2.2,16.3,5.5,22.5,9.9c6.1,4.3,11.1,10.1,14.4,16.9
	c3.4,6.8,5,14.9,5,24.1v66.3c0,5.1-1.4,9.3-4.3,12.6c-2.9,3.3-6.4,6.2-10.2,8.4c-12.8,7.7-30.9,11.5-54.2,11.5
	c-10.5,0-19.9-1-28.3-3c-8.4-2-15.6-4.9-21.6-8.9c-5.9-3.8-10.6-9-13.9-15.1c-3.3-6.1-4.9-13.2-4.9-21.3c0-13.6,4-24.1,12.1-31.4
	c8.1-7.3,20.6-11.8,37.6-13.6l38.8-4.1v-2.1c0-5.7-2.5-9.8-7.6-12.3c-5-2.5-12.3-3.7-21.8-3.7c-7.4,0-14.7,0.8-21.9,2.4
	c-6.6,1.4-13,3.4-19.2,5.9c-2.6-1.8-4.7-4.5-6.5-8.1c-1.8-3.5-2.7-7.4-2.7-11.4c0-5.1,1.2-9.2,3.7-12.3c2.5-3.1,6.3-5.7,11.4-7.8
	c5.7-2.2,12.5-3.8,20.3-4.7C2186.8,167.7,2194.2,167.2,2201.6,167.2z M2203.9,283.6c3.7,0,7.4-0.4,11.1-1c4-0.7,7.1-1.6,9-2.8v-23.7
	l-21.3,1.8c-5.5,0.4-10.1,1.6-13.6,3.6c-3.6,2-5.3,4.9-5.3,8.9c-0.1,3.8,1.6,7.3,4.6,9.6C2191.4,282.4,2196.6,283.6,2203.9,283.6z"
	/>
<path class="st0" d="M2384.6,206.9c-4.8,0-9.5,0.8-14.1,2.4c-4.3,1.5-8.2,3.9-11.5,7c-3.4,3.2-6,7.1-7.8,11.4c-2,4.5-3,9.9-3,16
	c0,12.2,3.5,21.4,10.5,27.5c7,6.1,15.5,9.2,25.6,9.2c5.9,0,11.1-0.7,15.4-2.1c3.9-1.2,7.8-2.7,11.5-4.4c3.9,2.8,6.9,5.8,8.9,9
	c2,3.3,3,7.2,3,11.7c0,8.1-3.9,14.4-11.5,18.8c-7.7,4.4-18.4,6.7-32,6.7c-12.4,0-23.7-1.8-33.8-5.5c-10.1-3.7-18.7-8.8-25.9-15.4
	c-7.2-6.6-12.9-14.8-16.7-23.8c-3.9-9.3-5.9-19.5-5.9-30.8c0-13,2.1-24.4,6.4-34.2c4.2-9.8,10-17.8,17.3-24.1
	c7.4-6.4,16-11.2,25.3-14.2c9.8-3.2,20-4.8,30.4-4.7c14.2,0,25.2,2.6,32.9,7.7c7.7,5.1,11.5,11.7,11.5,19.8c0,3.7-0.9,7.3-2.7,10.5
	c-1.7,3.1-3.8,5.9-6.2,8.4c-3.9-1.8-8-3.3-12.1-4.6C2395,207.6,2389.8,206.8,2384.6,206.9z"/>
<path class="st0" d="M2498.6,266.1c0,5.1,1.6,8.8,4.9,11c3.3,2.2,7.8,3.3,13.8,3.3c3.1,0,6.1-0.3,9.2-0.7c2.8-0.4,5.6-1.1,8.3-1.9
	c1.8,2.2,3.3,4.7,4.6,7.3c1.4,3,2,6.3,1.9,9.6c0,7.5-2.8,13.6-8.4,18.4c-5.6,4.7-15.5,7.1-29.8,7.1c-17.4,0-30.8-3.9-40.1-11.8
	c-9.4-7.9-14.1-20.7-14.1-38.5V142.9c2.2-0.6,5.3-1.2,9.3-1.9c4.3-0.7,8.6-1.1,12.9-1c8.7,0,15.4,1.5,20.3,4.6
	c4.8,3.1,7.3,9.5,7.3,19.4v19h38.8c1.4,2.6,2.5,5.3,3.4,8.1c1.1,3.5,1.7,7.1,1.6,10.8c0,6.9-1.5,11.9-4.6,15
	c-3.1,3.1-7.2,4.6-12.3,4.6h-26.9L2498.6,266.1z"/>
<path class="st0" d="M2697.9,320.3c-3.4,0-7.2-0.1-11.6-0.3c-4.3-0.2-8.8-0.6-13.5-1.2c-4.6-0.6-9.3-1.3-13.9-2.2
	c-4.4-0.8-8.7-2.1-12.9-3.7c-10.9-4.1-16.3-11.4-16.3-21.6V153c0-4.1,1.1-7.4,3.4-9.6c2.3-2.3,5.4-4.1,9.3-5.5
	c8.8-2.8,17.8-4.7,26.9-5.5c9.5-0.9,18-1.3,25.5-1.3c15.4,0,29.4,1.9,41.9,5.6c12.5,3.8,23.3,9.5,32.3,17.3
	c9,7.8,15.9,17.6,20.9,29.5c4.9,11.8,7.4,25.9,7.4,42.1c0,15.8-2.4,29.6-7.1,41.3c-4.7,11.7-11.5,21.6-20.3,29.6
	c-8.8,8-19.3,14-31.5,17.9C2726.3,318.3,2712.7,320.3,2697.9,320.3z M2681.3,277.1c2.2,0.4,4.8,0.7,8,1s6.1,0.4,8.9,0.4
	c6.3,0.1,12.6-0.9,18.5-3c5.5-1.9,10.5-5,14.5-9.2c4-4.1,7.2-9.5,9.5-16.1c2.3-6.6,3.4-14.6,3.4-23.8c0-17.8-4.1-31.1-12.4-40.1
	c-8.3-9-19.3-13.5-33.2-13.5c-2.8,0-5.6,0.1-8.4,0.3c-2.9,0.2-5.8,0.5-8.7,0.9V277.1z"/>
<path class="st0" d="M2899.3,320.3c-11,0.1-21.9-1.6-32.4-4.9c-9.6-3-18.5-8-26.1-14.7c-7.4-6.5-13.2-14.7-17.5-24.6
	c-4.2-9.9-6.4-21.4-6.4-34.6c0-13,2.1-24.2,6.4-33.6c4.2-9.4,9.8-17.1,16.7-23.1c6.9-6,15-10.6,23.7-13.3c8.8-2.8,18-4.3,27.2-4.3
	c10.5,0,20,1.6,28.6,4.7c8.2,2.9,15.7,7.3,22.2,13c6.2,5.5,11.1,12.3,14.5,19.8c3.5,7.9,5.3,16.5,5.2,25.2c0,6.7-1.9,11.8-5.6,15.4
	c-3.8,3.6-9,5.8-15.7,6.8l-73.1,11c2.2,6.5,6.6,11.4,13.3,14.7c6.7,3.3,14.4,4.9,23.1,4.9c7.8,0,15.5-1,23-3.1
	c7.2-2.1,13.1-4.5,17.6-7.3c3.3,2.1,6,4.9,8,8.3c2.1,3.4,3.2,7.3,3.3,11.3c0,8.9-4.1,15.5-12.4,19.8c-6.7,3.5-13.9,5.8-21.3,6.8
	C2914.1,319.7,2906.7,320.3,2899.3,320.3z M2891,203.9c-4.7,0-8.8,0.8-12.3,2.4c-3.2,1.4-6.1,3.5-8.4,6.1c-2.1,2.4-3.8,5.2-4.9,8.3
	c-1.1,3-1.7,6.1-1.9,9.3l50.6-8.3c-0.6-3.9-2.8-7.9-6.5-11.8C2903.8,205.9,2898.3,203.9,2891,203.9z"/>
<path class="st0" d="M3080.8,311.7c-2.8,2.2-6.8,4-12.1,5.3c-5.9,1.4-12,2.1-18.1,2.1c-7.7,0-14.4-1-20-3c-5.6-2-9.5-5.1-11.7-9.5
	c-1.8-3.4-3.9-8-6.4-14.1c-2.5-6-5.1-12.7-7.8-20.1c-2.8-7.4-5.6-15.4-8.6-23.8c-3-8.5-5.8-16.9-8.4-25.2c-2.7-8.3-5.1-16.3-7.3-24
	c-2.2-7.7-3.9-14.5-5.3-20.4c2.8-2.8,6.5-5.2,11.1-7.3c4.8-2.1,10-3.2,15.3-3.1c6.9,0,12.6,1.4,17,4.3c4.4,2.9,7.7,8.2,9.9,16.1
	l11.5,45.3c2.2,8.9,4.2,16.9,6.2,24.1c2,7.2,3.5,12.8,4.4,16.7h1.5c3.8-14.6,7.7-30.8,11.8-48.6s7.9-35.2,11.3-52.4
	c3.6-1.9,7.4-3.3,11.4-4.1c4-1,8.2-1.5,12.3-1.5c6.9,0,12.7,1.5,17.5,4.4c4.7,3,7.1,8.1,7.1,15.4c0,3.2-0.7,7.7-2.2,13.8
	c-1.5,6-3.4,12.8-5.6,20.4c-2.3,7.6-4.9,15.6-8,24.1c-3.1,8.5-6.2,16.8-9.3,24.9c-3.2,8.1-6.3,15.7-9.3,22.7
	C3085.9,301.4,3083.2,307.2,3080.8,311.7z"/>
<path class="st0" d="M3220.6,320.3c-11,0.1-21.9-1.5-32.4-4.9c-9.6-3-18.5-8-26.1-14.7c-7.4-6.5-13.2-14.7-17.5-24.6
	c-4.2-9.9-6.4-21.4-6.4-34.6c0-13,2.1-24.2,6.4-33.6c4.2-9.4,9.8-17.1,16.7-23.1c6.9-6,15-10.6,23.7-13.3c8.8-2.8,18-4.3,27.2-4.3
	c10.5,0,20,1.6,28.6,4.7c8.2,2.9,15.7,7.3,22.2,13c6.2,5.5,11.1,12.3,14.5,19.8c3.5,7.9,5.3,16.5,5.2,25.2c0,6.7-1.9,11.8-5.6,15.4
	c-3.8,3.6-9,5.8-15.7,6.8l-73.1,11c2.2,6.5,6.6,11.4,13.3,14.7c6.7,3.3,14.4,4.9,23.1,4.9c7.8,0,15.5-1,23-3.1
	c7.2-2.1,13.1-4.5,17.6-7.3c3.3,2.1,6,4.9,8,8.3c2.1,3.4,3.2,7.3,3.3,11.3c0,8.9-4.1,15.5-12.4,19.8c-6.7,3.5-13.9,5.8-21.3,6.8
	C3235.5,319.7,3228,320.3,3220.6,320.3z M3212.3,203.9c-4.7,0-8.8,0.8-12.3,2.4c-3.2,1.4-6.1,3.5-8.4,6.1c-2.2,2.4-3.8,5.2-4.9,8.3
	c-1.1,3-1.7,6.1-1.9,9.3l50.6-8.3c-0.6-3.9-2.8-7.9-6.5-11.8C3225.1,205.9,3219.6,203.9,3212.3,203.9z"/>
<path class="st0" d="M3358.3,315.3c-2.2,0.4-5.4,0.9-9.6,1.6c-4.3,0.7-8.6,1-12.9,1c-3.9,0-7.8-0.3-11.7-0.9
	c-3.2-0.5-6.2-1.7-8.7-3.6c-2.4-1.9-4.3-4.4-5.5-7.3c-1.3-3.1-1.9-7.1-1.9-12V122.5c2.2-0.4,5.4-0.9,9.6-1.6c4.3-0.7,8.6-1,12.9-1
	c3.9,0,7.8,0.3,11.7,0.9c3.2,0.5,6.2,1.7,8.7,3.6c2.4,1.9,4.3,4.4,5.5,7.3c1.3,3.1,1.9,7.1,1.9,12V315.3z"/>
<path class="st0" d="M3538.9,243.6c0,12.2-1.9,23.1-5.6,32.7c-3.8,9.6-9,17.6-15.8,24.1c-7,6.6-15.3,11.7-24.4,14.8
	c-9.5,3.4-20,5-31.7,5c-11.6,0-22.2-1.8-31.7-5.3c-9.1-3.3-17.4-8.5-24.4-15.3c-6.9-6.8-12.4-15-15.8-24.1c-3.7-9.5-5.6-20.1-5.6-32
	c0-11.7,1.9-22.2,5.6-31.7c3.5-9.1,8.9-17.3,15.8-24.1c7-6.7,15.3-11.9,24.4-15.3c9.5-3.6,20-5.3,31.7-5.3c11.6,0,22.2,1.8,31.7,5.5
	c9.1,3.4,17.4,8.7,24.4,15.4c6.9,6.8,12.4,15,15.8,24.1C3537.1,221.7,3538.9,232.2,3538.9,243.6z M3435.3,243.6
	c0,12,2.3,21.3,7,27.7c4.6,6.4,11.1,9.6,19.4,9.6c8.3,0,14.7-3.3,19.1-9.8c4.4-6.5,6.7-15.7,6.7-27.5s-2.3-21-6.8-27.4
	c-4.5-6.4-11-9.6-19.2-9.6s-14.7,3.2-19.2,9.6C3437.6,222.6,3435.3,231.8,3435.3,243.6z"/>
<path class="st0" d="M3629.6,167.2c11.2-0.1,22.3,1.5,33,4.6c10.2,3.1,18.9,7.8,26.2,14.1c7.3,6.3,13,14.3,17.2,23.8
	c4.1,9.6,6.2,21,6.2,34.2c0,12.6-1.8,23.7-5.3,33.2s-8.6,17.4-15.1,23.8c-6.7,6.5-14.7,11.4-23.5,14.4c-9.2,3.2-19.4,4.7-30.7,4.7
	c-8.1,0.1-16.1-1.2-23.7-3.8v49.2c-3.1,0.8-6.3,1.5-9.5,1.9c-4.4,0.7-8.9,1-13.3,1c-3.9,0-7.8-0.3-11.7-0.9
	c-3.2-0.5-6.2-1.7-8.7-3.6c-2.4-1.9-4.3-4.4-5.3-7.3c-1.2-3.1-1.8-7.1-1.8-12V202.5c0-5.3,1.1-9.7,3.4-13c2.5-3.6,5.7-6.7,9.3-9.2
	c6.1-3.9,13.7-7.1,22.8-9.5C3608.1,168.4,3618.3,167.2,3629.6,167.2z M3630.2,280.3c20.3,0,30.5-12.1,30.5-36.4
	c0-12.6-2.5-22-7.6-28.1c-5-6.1-12.3-9.2-21.8-9.2c-3.4,0-6.8,0.4-10.1,1.3c-2.7,0.8-5.2,1.8-7.7,3.1v65.2c2.5,1.2,5,2.2,7.7,3
	C3624.2,280,3627.2,280.4,3630.2,280.3z"/>
<path class="st0" d="M3805.8,167.2c8.1,0,16.1,1.1,23.8,3.4c7.4,2,14.3,5.5,20.3,10.2c6.2-4.1,12.9-7.4,20-9.8
	c7.4-2.6,16.3-3.8,26.8-3.8c7.5,0,14.9,1,22.1,3c7,1.9,13.5,5,19.2,9.3c5.6,4.2,10.1,9.9,13.5,16.9c3.4,7,5,15.5,5,25.6v93.3
	c-3.1,0.8-6.2,1.4-9.3,1.8c-4.4,0.6-8.8,0.9-13.2,0.9c-3.9,0-7.8-0.3-11.7-0.9c-3.2-0.5-6.2-1.7-8.7-3.6c-2.4-1.9-4.3-4.4-5.5-7.3
	c-1.3-3.1-1.9-7.1-1.9-12v-70.8c0-5.9-1.7-10.2-5-12.9c-3.4-2.7-7.9-4-13.6-4c-3.1,0.1-6.1,0.7-8.9,1.9c-3.2,1.3-5.5,2.6-7.1,4
	c0.2,0.7,0.3,1.5,0.3,2.2v100.5c-3.2,0.8-6.4,1.4-9.6,1.8c-4.3,0.6-8.6,0.9-12.9,0.9c-3.9,0-7.8-0.3-11.7-0.9
	c-3.2-0.5-6.2-1.7-8.7-3.6c-2.4-1.9-4.3-4.4-5.5-7.3c-1.3-3.1-1.9-7.1-1.9-12v-70.8c0-5.9-1.8-10.2-5.5-12.9c-3.7-2.7-8-4-13.2-4
	c-3.1-0.1-6.3,0.5-9.2,1.6c-2.2,0.9-4.4,2-6.5,3.1v103.9c-3.1,0.8-6.2,1.4-9.3,1.8c-4.4,0.6-8.8,0.9-13.2,0.9
	c-3.9,0-7.8-0.3-11.7-0.9c-3.2-0.5-6.2-1.7-8.7-3.6c-2.4-1.9-4.3-4.4-5.5-7.3c-1.3-3.1-1.9-7.1-1.9-12v-89.4c0-5.3,1.1-9.6,3.4-12.7
	c2.6-3.5,5.7-6.5,9.3-8.9c6.7-4.7,15.1-8.6,25-11.5C3784.7,168.7,3795.2,167.2,3805.8,167.2z"/>
<path class="st0" d="M4063.4,320.3c-11,0.1-21.9-1.5-32.4-4.9c-9.6-3-18.5-8-26.1-14.7c-7.4-6.5-13.2-14.7-17.5-24.6
	c-4.2-9.9-6.4-21.4-6.4-34.6c0-13,2.1-24.2,6.4-33.6c4.2-9.4,9.8-17.1,16.7-23.1c6.9-6,15-10.6,23.7-13.3c8.8-2.8,18-4.3,27.2-4.3
	c10.5,0,20,1.6,28.6,4.7c8.2,2.9,15.7,7.3,22.2,13c6.2,5.5,11.1,12.3,14.5,19.8c3.5,7.9,5.3,16.5,5.2,25.2c0,6.7-1.9,11.8-5.6,15.4
	c-3.8,3.6-9,5.8-15.7,6.8l-73.1,11c2.2,6.5,6.6,11.4,13.3,14.7c6.7,3.3,14.4,4.9,23.1,4.9c7.8,0,15.5-1,23-3.1
	c7.2-2.1,13.1-4.5,17.6-7.3c3.3,2.1,6,4.9,8,8.3c2.1,3.4,3.2,7.3,3.3,11.3c0,8.9-4.1,15.5-12.4,19.8c-6.7,3.5-13.9,5.8-21.3,6.8
	C4078.3,319.7,4070.9,320.3,4063.4,320.3z M4055.1,203.9c-4.7,0-8.8,0.8-12.3,2.4c-3.2,1.4-6.1,3.5-8.4,6.1
	c-2.2,2.4-3.8,5.2-4.9,8.3c-1.1,3-1.7,6.1-1.9,9.3l50.6-8.3c-0.6-3.9-2.8-7.9-6.5-11.8C4068,205.9,4062.4,203.9,4055.1,203.9z"/>
<path class="st0" d="M4241.1,224.4c0-6.1-1.7-10.6-5.2-13.5c-3.5-2.9-8.1-4.3-14.1-4.3c-3.9,0-7.9,0.5-11.7,1.5
	c-3.6,0.9-6.9,2.4-9.9,4.4v102.8c-3.1,0.8-6.2,1.4-9.3,1.8c-4.4,0.6-8.8,0.9-13.2,0.9c-3.9,0-7.8-0.3-11.7-0.9
	c-3.2-0.5-6.2-1.7-8.7-3.6c-2.4-1.9-4.3-4.4-5.5-7.3c-1.3-3.1-1.9-7.1-1.9-12v-88.8c0-5.3,1.1-9.7,3.4-13c2.5-3.6,5.7-6.7,9.3-9.2
	c6.7-4.7,15.2-8.6,25.3-11.5c10.2-3,21.5-4.4,33.9-4.4c22.3,0,39.5,4.9,51.5,14.7c12,9.8,18.1,23.3,18.1,40.7v92.7
	c-3.1,0.8-6.2,1.4-9.3,1.8c-4.4,0.6-8.8,0.9-13.2,0.9c-3.9,0-7.8-0.3-11.7-0.9c-3.2-0.5-6.2-1.7-8.7-3.6c-2.4-1.9-4.3-4.4-5.5-7.3
	c-1.3-3.1-1.9-7.1-1.9-12V224.4z"/>
<path class="st0" d="M4372.9,266.1c0,5.1,1.6,8.8,4.9,11c3.3,2.2,7.8,3.3,13.8,3.3c3.1,0,6.1-0.3,9.2-0.7c2.8-0.4,5.6-1.1,8.3-1.9
	c1.8,2.2,3.4,4.7,4.6,7.3c1.4,3,2,6.3,1.9,9.6c0,7.5-2.8,13.6-8.4,18.4c-5.6,4.7-15.5,7.1-29.8,7.1c-17.4,0-30.8-3.9-40.1-11.8
	c-9.4-7.9-14.1-20.7-14.1-38.5V142.9c2.2-0.6,5.3-1.2,9.3-1.9c4.3-0.7,8.6-1.1,12.9-1c8.7,0,15.4,1.5,20.3,4.6
	c4.8,3.1,7.3,9.5,7.3,19.4v19h38.8c1.4,2.6,2.5,5.3,3.4,8.1c1.1,3.5,1.7,7.1,1.6,10.8c0,6.9-1.5,11.9-4.6,15
	c-3.1,3.1-7.2,4.6-12.3,4.6h-26.9V266.1z"/>
<path class="st0" d="M4500.8,171.7c0-10.1,1.7-18.7,5.2-25.9c3.2-6.9,8.1-13,14.1-17.8c6.2-4.8,13.3-8.3,20.9-10.2
	c8.4-2.2,17-3.3,25.6-3.3c14.6,0,25.4,1.9,32.3,5.8s10.4,10.4,10.4,19.7c0.1,3.7-0.8,7.4-2.5,10.7c-1.7,3.2-3.5,5.5-5.5,7.1
	c-3.8-1-7.7-1.8-11.7-2.5c-4.7-0.7-9.4-1.1-14.1-1c-8.5,0-15.1,1.4-19.8,4.3c-4.7,2.9-7.1,7.8-7.1,15v9.5h48.6
	c1.4,2.6,2.5,5.3,3.4,8.1c1.1,3.5,1.7,7.1,1.6,10.8c0,6.9-1.5,11.9-4.6,15c-3.1,3.1-7.2,4.6-12.3,4.6h-34.1v93.9
	c-3.1,0.8-6.2,1.4-9.3,1.8c-4.4,0.6-8.8,0.9-13.2,0.9c-3.9,0-7.8-0.3-11.7-0.9c-3.2-0.5-6.2-1.7-8.7-3.6c-2.4-1.9-4.3-4.4-5.5-7.3
	c-1.3-3.1-1.9-7.1-1.9-12V171.7z"/>
<path class="st0" d="M4672,315.3c-3.1,0.8-6.2,1.4-9.3,1.8c-4.4,0.6-8.8,0.9-13.2,0.9c-3.9,0-7.8-0.3-11.7-0.9
	c-3.2-0.5-6.2-1.7-8.7-3.6c-2.4-1.9-4.3-4.4-5.5-7.3c-1.3-3.1-1.9-7.1-1.9-12v-88.8c0-4.5,0.8-8.4,2.5-11.7c1.8-3.4,4.3-6.4,7.3-8.7
	c3.6-2.8,7.5-5.2,11.7-7c4.9-2.2,9.9-4,15-5.5c5.4-1.6,11-2.8,16.6-3.7c5.7-0.9,11.4-1.3,17.2-1.3c9.5,0,17,1.8,22.5,5.5
	c5.5,3.7,8.3,9.6,8.3,17.9c0,2.8-0.4,5.5-1.2,8.1c-0.7,2.5-1.7,4.9-3,7.3c-4.1,0-8.4,0.2-12.7,0.6c-4.3,0.4-8.6,1-12.7,1.8
	c-4.1,0.8-8,1.6-11.7,2.5c-3.2,0.7-6.3,1.8-9.3,3.1V315.3z"/>
<path class="st0" d="M4886.7,243.6c0,12.2-1.9,23.1-5.6,32.7c-3.8,9.6-9,17.6-15.8,24.1c-7,6.6-15.3,11.7-24.4,14.8
	c-9.5,3.4-20,5-31.7,5c-11.6,0-22.2-1.8-31.7-5.3c-9.1-3.3-17.4-8.5-24.4-15.3c-6.9-6.8-12.4-15-15.8-24.1c-3.8-9.5-5.6-20.1-5.6-32
	c0-11.7,1.9-22.2,5.6-31.7c3.5-9.1,8.9-17.3,15.8-24.1c7-6.7,15.3-11.9,24.4-15.3c9.5-3.6,20-5.3,31.7-5.3s22.2,1.8,31.7,5.5
	c9.1,3.4,17.4,8.7,24.4,15.4c6.9,6.8,12.3,15.1,15.8,24.1C4884.8,221.7,4886.7,232.2,4886.7,243.6z M4783.1,243.6
	c0,12,2.3,21.3,7,27.7c4.6,6.4,11.1,9.6,19.4,9.6c8.3,0,14.7-3.3,19.1-9.8c4.4-6.5,6.7-15.7,6.7-27.5s-2.3-21-6.8-27.4
	c-4.5-6.4-11-9.6-19.2-9.6c-8.3,0-14.7,3.2-19.2,9.6C4785.3,222.6,4783.1,231.8,4783.1,243.6L4783.1,243.6z"/>
<path class="st0" d="M4980.3,167.2c8.1,0,16.1,1.1,23.8,3.4c7.4,2.1,14.3,5.5,20.3,10.2c6.2-4.1,12.9-7.4,20-9.8
	c7.4-2.6,16.3-3.8,26.8-3.8c7.5,0,14.9,1,22.1,3c7,1.9,13.5,5,19.2,9.3c5.6,4.2,10.1,9.9,13.5,16.9c3.4,7,5,15.5,5,25.6v93.3
	c-3.1,0.8-6.2,1.4-9.3,1.8c-4.4,0.6-8.8,0.9-13.2,0.9c-3.9,0-7.8-0.3-11.7-0.9c-3.2-0.5-6.2-1.7-8.7-3.6c-2.4-1.9-4.3-4.4-5.5-7.3
	c-1.3-3.1-1.9-7.1-1.9-12v-70.8c0-5.9-1.7-10.2-5-12.9s-7.9-4-13.6-4c-3.1,0.1-6.1,0.7-8.9,1.9c-3.2,1.3-5.5,2.6-7.1,4
	c0.2,0.7,0.3,1.5,0.3,2.2v100.5c-3.2,0.8-6.4,1.4-9.6,1.8c-4.3,0.6-8.6,0.9-12.9,0.9c-3.9,0-7.8-0.3-11.7-0.9
	c-3.2-0.5-6.2-1.7-8.7-3.6c-2.4-1.9-4.3-4.4-5.5-7.3c-1.3-3.1-1.9-7.1-1.9-12v-70.8c0-5.9-1.8-10.2-5.5-12.9s-8-4-13.2-4
	c-3.1-0.1-6.3,0.5-9.2,1.6c-2.2,0.9-4.4,2-6.5,3.1v103.9c-3.1,0.8-6.2,1.4-9.3,1.8c-4.4,0.6-8.8,0.9-13.2,0.9
	c-3.9,0-7.8-0.3-11.7-0.9c-3.2-0.5-6.2-1.7-8.7-3.6c-2.4-1.9-4.3-4.4-5.5-7.3c-1.3-3.1-1.9-7.1-1.9-12v-89.4c0-5.3,1.1-9.6,3.4-12.7
	c2.6-3.5,5.7-6.5,9.3-8.9c6.7-4.7,15.1-8.6,25-11.5C4959.2,168.7,4969.7,167.2,4980.3,167.2z"/>
<path class="st0" d="M5293,320.3c-3.4,0-7.2-0.1-11.5-0.3c-4.3-0.2-8.8-0.6-13.5-1.2c-4.6-0.6-9.3-1.3-13.9-2.2
	c-4.4-0.8-8.7-2.1-12.9-3.7c-10.9-4.1-16.3-11.4-16.3-21.6V153c0-4.1,1.1-7.4,3.4-9.6c2.3-2.3,5.4-4.1,9.3-5.5
	c8.8-2.8,17.8-4.7,26.9-5.5c9.5-0.9,18-1.3,25.5-1.3c15.4,0,29.4,1.9,41.9,5.6c12.5,3.8,23.3,9.5,32.3,17.3
	c9,7.8,15.9,17.6,20.9,29.5c4.9,11.8,7.4,25.9,7.4,42.1c0,15.8-2.4,29.6-7.1,41.3c-4.7,11.7-11.5,21.6-20.3,29.6
	c-8.8,8-19.3,14-31.5,17.9C5321.4,318.3,5307.8,320.3,5293,320.3z M5276.4,277.1c2.2,0.4,4.8,0.7,8,1s6.1,0.4,8.9,0.4
	c6.3,0.1,12.6-0.9,18.5-3c5.5-1.9,10.5-5,14.5-9.2c4-4.1,7.2-9.5,9.5-16.1c2.3-6.6,3.4-14.6,3.4-23.8c0-17.8-4.1-31.1-12.4-40.1
	c-8.3-9-19.3-13.5-33.2-13.5c-2.8,0-5.6,0.1-8.4,0.3c-2.9,0.2-5.8,0.5-8.7,0.9V277.1z"/>
<path class="st0" d="M5494.4,320.3c-11,0.1-21.9-1.6-32.4-4.9c-9.6-3-18.5-8-26.1-14.7c-7.4-6.5-13.2-14.7-17.5-24.6
	c-4.2-9.9-6.4-21.4-6.4-34.6c0-13,2.1-24.2,6.4-33.6c4.2-9.4,9.8-17.1,16.7-23.1c6.9-6,15-10.6,23.7-13.3c8.8-2.8,18-4.3,27.2-4.3
	c10.5,0,20,1.6,28.6,4.7c8.2,2.9,15.7,7.3,22.2,13c6.2,5.5,11.1,12.3,14.5,19.8c3.5,7.9,5.3,16.5,5.2,25.2c0,6.7-1.9,11.8-5.6,15.4
	s-9,5.8-15.7,6.8l-73.1,11c2.2,6.5,6.6,11.4,13.3,14.7c6.7,3.3,14.4,4.9,23.1,4.9c7.8,0,15.5-1,23-3.1c7.2-2.1,13.1-4.5,17.6-7.3
	c3.3,2.1,6,4.9,8,8.3c2.1,3.4,3.2,7.3,3.3,11.3c0,8.9-4.1,15.5-12.4,19.8c-6.7,3.5-13.9,5.8-21.3,6.8
	C5509.3,319.7,5501.8,320.3,5494.4,320.3z M5486.1,203.9c-4.7,0-8.8,0.8-12.3,2.4c-3.2,1.4-6.1,3.5-8.4,6.1
	c-2.1,2.4-3.8,5.2-4.9,8.3c-1.1,3-1.7,6.1-1.9,9.3l50.6-8.3c-0.6-3.9-2.8-7.9-6.5-11.8C5498.9,205.9,5493.4,203.9,5486.1,203.9z"/>
<path class="st0" d="M5702.3,272.6c0,15-5.6,26.8-16.9,35.2c-11.3,8.5-27.8,12.7-49.8,12.7c-7.7,0-15.5-0.6-23.1-1.8
	c-7.1-1.2-13.2-3-18.2-5.5c-5-2.5-9-5.6-11.8-9.3c-2.9-3.8-4.4-8.5-4.3-13.3c0-4.7,1-8.7,3-12c1.9-3.1,4.3-5.9,7.1-8.1
	c6.3,3.4,12.9,6.2,19.7,8.4c7.4,2.5,15.9,3.7,25.6,3.7c6.1,0,10.8-0.9,14.1-2.7s4.9-4.1,4.9-7.1c0.1-2.7-1.3-5.1-3.6-6.5
	c-2.4-1.6-6.3-2.9-11.8-3.8l-8.9-1.8c-17.2-3.4-30-8.6-38.4-15.8s-12.6-17.5-12.6-30.9c-0.2-13.9,6.6-26.9,18.1-34.6
	c5.7-3.9,12.6-7,20.6-9.2c8.7-2.3,17.6-3.4,26.5-3.3c6.9,0,13.8,0.5,20.6,1.6c5.8,0.9,11.4,2.5,16.7,4.9c4.7,2.2,8.5,5,11.3,8.4
	c2.8,3.5,4.2,7.8,4.1,12.3c0,4.5-0.8,8.4-2.5,11.7c-1.6,3.1-3.7,5.9-6.4,8.1c-2.3-1.3-4.6-2.3-7.1-3.1c-3.2-1.1-6.6-2.1-10.4-3
	c-3.8-0.9-7.6-1.6-11.4-2.2c-3.5-0.6-7-0.9-10.5-0.9c-6.5,0-11.5,0.7-15.1,2.2s-5.3,3.8-5.3,7c0,2.2,1,4,3,5.3
	c2,1.4,5.7,2.7,11.3,3.8l9.2,2.1c19,4.3,32.4,10.3,40.4,17.9C5698.3,250.8,5702.3,260.6,5702.3,272.6z"/>
<path class="st0" d="M5725.4,131.7c0-7.5,2.5-13.8,7.6-19c5-5.1,11.7-7.7,20-7.7c8.3,0,15,2.6,20,7.7c5,5.1,7.6,11.5,7.6,19
	c0,7.5-2.5,13.8-7.6,19c-5,5.1-11.7,7.7-20,7.7c-8.3,0-15-2.6-20-7.7C5727.9,145.5,5725.4,139.2,5725.4,131.7z M5778.1,315.3
	c-2.2,0.4-5.4,0.9-9.6,1.6c-4.3,0.7-8.6,1-12.9,1c-3.9,0-7.8-0.3-11.7-0.9c-3.2-0.5-6.2-1.7-8.7-3.6c-2.4-1.9-4.3-4.4-5.5-7.3
	c-1.3-3.1-1.9-7.1-1.9-12V173.7c2.2-0.4,5.4-0.9,9.6-1.6c4.3-0.7,8.6-1,12.9-1c3.9,0,7.8,0.3,11.7,0.9c3.2,0.5,6.2,1.7,8.7,3.6
	c2.4,1.9,4.3,4.4,5.5,7.3c1.3,3.1,1.9,7.1,1.9,12V315.3z"/>
<path class="st0" d="M5880.3,167.2c11.3,0,21.5,1.4,30.7,4.3c9.2,2.9,16.9,6.6,23.2,11.1c3.6,2.5,6.8,5.6,9.3,9.2
	c2.3,3.4,3.4,7.7,3.4,13v103.7c0,10.5-2,19.5-5.9,27.1c-3.8,7.5-9.4,14-16.1,19c-6.8,5-14.8,8.7-24,11.1c-9.6,2.4-19.5,3.6-29.5,3.6
	c-18,0-32.1-2.4-42.3-7.3c-10.3-4.8-15.4-12.7-15.4-23.5c-0.1-4.2,0.9-8.3,2.8-12c1.9-3.5,4-6.1,6.4-7.8c6.2,3.3,12.7,6,19.4,8
	c7.3,2.2,14.8,3.3,22.4,3.3c10.7,0,19.2-1.8,25.5-5.3c6.3-3.6,9.5-9.3,9.5-17.2v-4.7c-8.1,3.6-18,5.3-29.6,5.3
	c-8.6,0-17.2-1.3-25.3-4c-7.8-2.6-15-6.8-21-12.4c-6-5.6-10.9-12.9-14.5-21.8c-3.7-8.9-5.5-19.4-5.5-31.7c0-12,1.9-22.5,5.8-31.4
	c3.6-8.5,9-16,16-22.1c7.1-6,15.4-10.4,24.3-13C5859.6,168.6,5869.9,167.1,5880.3,167.2z M5898.6,210.2c-1.9-1-4-1.8-6.1-2.4
	c-3.2-0.9-6.6-1.3-9.9-1.2c-9.7,0-16.9,2.7-21.8,8.1c-4.8,5.4-7.3,13.2-7.3,23.2c0,11.5,2.4,19.7,7.3,24.7c4.8,5,11,7.6,18.5,7.6
	c8.1,0,14.5-1.9,19.2-5.6V210.2z"/>
<path class="st0" d="M6069.2,224.4c0-6.1-1.7-10.6-5.2-13.5c-3.5-2.9-8.1-4.3-14.1-4.3c-3.9,0-7.9,0.5-11.7,1.5
	c-3.6,0.9-6.9,2.4-9.9,4.4v102.8c-3.1,0.8-6.2,1.4-9.3,1.8c-4.4,0.6-8.8,0.9-13.2,0.9c-3.9,0-7.8-0.3-11.7-0.9
	c-3.2-0.5-6.2-1.7-8.7-3.6c-2.4-1.9-4.3-4.4-5.5-7.3c-1.3-3.1-1.9-7.1-1.9-12v-88.8c0-5.3,1.1-9.7,3.4-13c2.5-3.6,5.7-6.7,9.3-9.2
	c6.7-4.7,15.2-8.6,25.3-11.5c10.2-3,21.5-4.4,33.9-4.4c22.3,0,39.5,4.9,51.5,14.7c12,9.8,18.1,23.3,18.1,40.7v92.7
	c-3.1,0.8-6.2,1.4-9.3,1.8c-4.4,0.6-8.8,0.9-13.2,0.9c-3.9,0-7.8-0.3-11.7-0.9c-3.2-0.5-6.2-1.7-8.7-3.6c-2.4-1.9-4.3-4.4-5.5-7.3
	c-1.3-3.1-1.9-7.1-1.9-12V224.4z"/>
<path class="st0" d="M6260.2,266.1c0,5.1,1.6,8.8,4.9,11c3.3,2.2,7.8,3.3,13.8,3.3c3.1,0,6.1-0.3,9.2-0.7c2.8-0.4,5.6-1.1,8.3-1.9
	c1.8,2.2,3.4,4.7,4.6,7.3c1.4,3,2,6.3,1.9,9.6c0,7.5-2.8,13.6-8.4,18.4c-5.6,4.7-15.5,7.1-29.8,7.1c-17.4,0-30.8-3.9-40.1-11.8
	c-9.4-7.9-14.1-20.7-14.1-38.5V142.9c2.2-0.6,5.3-1.2,9.3-1.9c4.3-0.7,8.6-1.1,12.9-1c8.7,0,15.4,1.5,20.3,4.6
	c4.8,3.1,7.3,9.5,7.3,19.4v19h38.8c1.4,2.6,2.5,5.3,3.4,8.1c1.1,3.5,1.7,7.1,1.6,10.8c0,6.9-1.5,11.9-4.6,15
	c-3.1,3.1-7.2,4.6-12.3,4.6h-26.9V266.1z"/>
<path class="st0" d="M6475.5,243.6c0,12.2-1.9,23.1-5.6,32.7c-3.8,9.6-9,17.6-15.8,24.1c-7,6.6-15.3,11.7-24.4,14.8
	c-9.5,3.4-20,5-31.7,5c-11.6,0-22.2-1.8-31.7-5.3c-9.1-3.3-17.4-8.5-24.4-15.3c-6.9-6.8-12.4-15-15.8-24.1c-3.8-9.5-5.6-20.1-5.6-32
	c0-11.7,1.9-22.2,5.6-31.7c3.5-9.1,8.9-17.3,15.8-24.1c7-6.7,15.3-11.9,24.4-15.3c9.5-3.6,20-5.3,31.7-5.3s22.2,1.8,31.7,5.5
	c9.1,3.4,17.4,8.7,24.4,15.4c6.9,6.8,12.3,15.1,15.8,24.1C6473.7,221.7,6475.5,232.2,6475.5,243.6z M6371.9,243.6
	c0,12,2.3,21.3,7,27.7c4.6,6.4,11.1,9.6,19.4,9.6c8.3,0,14.7-3.3,19.1-9.8c4.4-6.5,6.7-15.7,6.7-27.5s-2.3-21-6.8-27.4
	c-4.5-6.4-11-9.6-19.2-9.6c-8.3,0-14.7,3.2-19.2,9.6C6374.1,222.6,6371.9,231.8,6371.9,243.6z"/>
<path class="st0" d="M6631.3,320.3c-3.4,0-7.2-0.1-11.5-0.3c-4.3-0.2-8.8-0.6-13.5-1.2c-4.6-0.6-9.3-1.3-13.9-2.2
	c-4.4-0.8-8.7-2.1-12.9-3.7c-10.9-4.1-16.3-11.4-16.3-21.6V153c0-4.1,1.1-7.4,3.4-9.6c2.3-2.3,5.4-4.1,9.3-5.5
	c8.8-2.8,17.8-4.7,26.9-5.5c9.5-0.9,18-1.3,25.5-1.3c15.4,0,29.4,1.9,41.9,5.6c12.5,3.8,23.3,9.5,32.3,17.3
	c9,7.8,15.9,17.6,20.9,29.5c4.9,11.8,7.4,25.9,7.4,42.1c0,15.8-2.4,29.6-7.1,41.3c-4.7,11.7-11.5,21.6-20.3,29.6
	c-8.8,8-19.3,14-31.5,17.9C6659.6,318.3,6646.1,320.3,6631.3,320.3z M6614.7,277.1c2.2,0.4,4.8,0.7,8,1s6.1,0.4,8.9,0.4
	c6.3,0.1,12.6-0.9,18.5-3c5.5-1.9,10.5-5,14.5-9.2c4-4.1,7.2-9.5,9.5-16.1c2.3-6.6,3.4-14.6,3.4-23.8c0-17.8-4.1-31.1-12.4-40.1
	c-8.3-9-19.3-13.5-33.2-13.5c-2.8,0-5.6,0.1-8.4,0.3c-2.9,0.2-5.8,0.5-8.7,0.9V277.1z"/>
<path class="st0" d="M6832.7,320.3c-11,0.1-21.9-1.6-32.4-4.9c-9.6-3-18.5-8-26.1-14.7c-7.4-6.5-13.2-14.7-17.5-24.6
	c-4.2-9.9-6.4-21.4-6.4-34.6c0-13,2.1-24.2,6.4-33.6c4.2-9.4,9.8-17.1,16.7-23.1c6.9-6,15-10.6,23.7-13.3c8.8-2.8,18-4.3,27.2-4.3
	c10.5,0,20,1.6,28.6,4.7c8.2,2.9,15.7,7.3,22.2,13c6.2,5.5,11.1,12.3,14.5,19.8c3.5,7.9,5.3,16.5,5.2,25.2c0,6.7-1.9,11.8-5.6,15.4
	c-3.8,3.6-9,5.8-15.7,6.8l-73.1,11c2.2,6.5,6.6,11.4,13.3,14.7c6.7,3.3,14.4,4.9,23.1,4.9c7.8,0,15.5-1,23-3.1
	c7.2-2.1,13.1-4.5,17.6-7.3c3.3,2.1,6,4.9,8,8.3c2.1,3.4,3.2,7.3,3.3,11.3c0,8.9-4.1,15.5-12.4,19.8c-6.7,3.5-13.9,5.8-21.3,6.8
	C6847.5,319.7,6840.1,320.3,6832.7,320.3z M6824.4,203.9c-4.7,0-8.8,0.8-12.3,2.4c-3.2,1.4-6.1,3.5-8.4,6.1
	c-2.1,2.4-3.8,5.2-4.9,8.3c-1.1,3-1.7,6.1-1.9,9.3l50.6-8.3c-0.6-3.9-2.8-7.9-6.5-11.8C6837.2,205.9,6831.7,203.9,6824.4,203.9z"/>
<path class="st0" d="M6985.2,167.2c11.2-0.1,22.3,1.5,33,4.6c10.2,3.1,18.9,7.8,26.2,14.1c7.3,6.3,13,14.3,17.2,23.8
	c4.1,9.6,6.2,21,6.2,34.2c0,12.6-1.8,23.7-5.3,33.2c-3.6,9.5-8.6,17.4-15.1,23.8c-6.7,6.5-14.7,11.4-23.5,14.4
	c-9.2,3.2-19.4,4.7-30.7,4.7c-8.1,0.1-16.1-1.2-23.7-3.8v49.2c-3.1,0.8-6.3,1.5-9.5,1.9c-4.4,0.7-8.9,1-13.3,1
	c-3.9,0-7.8-0.3-11.7-0.9c-3.2-0.5-6.2-1.7-8.7-3.6c-2.4-1.9-4.3-4.4-5.3-7.3c-1.2-3.1-1.8-7.1-1.8-12V202.5c0-5.3,1.1-9.7,3.4-13
	c2.5-3.6,5.7-6.7,9.3-9.2c6.1-3.9,13.7-7.1,22.8-9.5C6963.8,168.4,6973.9,167.2,6985.2,167.2z M6985.8,280.3
	c20.3,0,30.5-12.1,30.5-36.4c0-12.6-2.5-22-7.6-28.1c-5-6.1-12.3-9.2-21.8-9.2c-3.4,0-6.8,0.4-10.1,1.3c-2.7,0.8-5.2,1.8-7.7,3.1
	v65.2c2.5,1.2,5,2.2,7.7,3C6979.8,280,6982.8,280.4,6985.8,280.3z"/>
<path class="st0" d="M7143.6,315.3c-2.2,0.4-5.4,0.9-9.6,1.6c-4.3,0.7-8.6,1-12.9,1c-3.9,0-7.8-0.3-11.7-0.9
	c-3.2-0.5-6.2-1.7-8.7-3.6c-2.4-1.9-4.3-4.4-5.5-7.3c-1.3-3.1-1.9-7.1-1.9-12V122.5c2.2-0.4,5.4-0.9,9.6-1.6c4.3-0.7,8.6-1,12.9-1
	c3.9,0,7.8,0.3,11.7,0.9c3.2,0.5,6.2,1.7,8.7,3.6c2.4,1.9,4.3,4.4,5.5,7.3c1.3,3.1,1.9,7.1,1.9,12V315.3z"/>
<path class="st0" d="M7324.3,243.6c0,12.2-1.9,23.1-5.6,32.7c-3.8,9.6-9,17.6-15.8,24.1c-7,6.6-15.3,11.7-24.4,14.8
	c-9.5,3.4-20,5-31.7,5c-11.6,0-22.2-1.8-31.7-5.3c-9.1-3.3-17.4-8.5-24.4-15.3c-6.9-6.8-12.4-15-15.8-24.1c-3.8-9.5-5.6-20.1-5.6-32
	c0-11.7,1.9-22.2,5.6-31.7c3.5-9.1,8.9-17.3,15.8-24.1c7-6.7,15.3-11.9,24.4-15.3c9.5-3.6,20-5.3,31.7-5.3c11.6,0,22.2,1.8,31.7,5.5
	c9.1,3.4,17.4,8.7,24.4,15.4c6.9,6.8,12.4,15,15.8,24.1C7322.4,221.7,7324.3,232.2,7324.3,243.6z M7220.6,243.6
	c0,12,2.3,21.3,7,27.7c4.6,6.4,11.1,9.6,19.4,9.6c8.3,0,14.7-3.3,19.1-9.8c4.4-6.5,6.7-15.7,6.7-27.5s-2.3-21-6.8-27.4
	c-4.5-6.4-11-9.6-19.2-9.6s-14.7,3.2-19.2,9.6C7222.9,222.6,7220.6,231.8,7220.6,243.6z"/>
<path class="st0" d="M7367.5,278.9c-2.2-4.9-4.5-10.5-7-16.6c-2.5-6.1-5-13.1-7.7-21c-2.7-7.9-5.4-16.9-8.3-27.1
	c-2.9-10.2-5.9-21.9-9-35.1c2.8-2.8,6.5-5.2,11.1-7.3c4.8-2.1,10-3.2,15.3-3.1c6.9,0,12.6,1.4,17.2,4.3c4.5,2.9,7.9,8.2,10.1,16.1
	l23.4,81.4h1.2c2.4-6.7,4.7-14,7-21.9c2.3-7.9,4.5-16,6.7-24.4c2.2-8.4,4.2-16.8,6.1-25.2c1.9-8.4,3.5-16.6,4.9-24.7
	c7.2-3.8,15.3-5.7,23.4-5.6c6.9,0,12.6,1.5,17.2,4.4c4.5,3,6.8,8.1,6.8,15.4c-0.1,6.2-0.8,12.4-2.1,18.5c-1.4,7-3.2,14.5-5.5,22.4
	c-2.3,7.9-4.9,16-8,24.4c-3.1,8.4-6.3,16.6-9.6,24.7c-3.4,8.1-6.8,15.7-10.4,23c-3.6,7.2-7,13.7-10.4,19.4
	c-5.5,9.7-10.7,17.6-15.4,23.7s-9.3,10.9-13.6,14.4c-4.3,3.5-8.7,5.8-13,7.1c-4.4,1.3-9,1.9-13.6,1.9c-8.3,0-15-2.5-20.1-7.4
	c-5.1-4.9-8.2-11.4-9.2-19.2c6.3-4.9,12.6-10.4,19-16.4c6.1-5.8,11.8-12,17.2-18.5c-3.4-1-7-3.3-10.8-7S7372.1,288.9,7367.5,278.9z"
	/>
<path class="st0" d="M7575.1,167.2c8.1,0,16.1,1.1,23.8,3.4c7.4,2,14.3,5.5,20.3,10.2c6.2-4.1,12.9-7.4,20-9.8
	c7.4-2.6,16.3-3.8,26.8-3.8c7.5,0,14.9,1,22.1,3c7,1.9,13.5,5,19.2,9.3c5.6,4.2,10.1,9.9,13.5,16.9c3.4,7,5,15.5,5,25.6v93.3
	c-3.1,0.8-6.2,1.4-9.3,1.8c-4.4,0.6-8.8,0.9-13.2,0.9c-3.9,0-7.8-0.3-11.7-0.9c-3.2-0.5-6.2-1.7-8.7-3.6c-2.4-1.9-4.3-4.4-5.5-7.3
	c-1.3-3.1-1.9-7.1-1.9-12v-70.8c0-5.9-1.7-10.2-5-12.9s-7.9-4-13.6-4c-3.1,0.1-6.1,0.7-8.9,1.9c-3.2,1.3-5.5,2.6-7.1,4
	c0.2,0.7,0.3,1.5,0.3,2.2v100.5c-3.2,0.8-6.4,1.4-9.6,1.8c-4.3,0.6-8.6,0.9-12.9,0.9c-3.9,0-7.8-0.3-11.7-0.9
	c-3.2-0.5-6.2-1.7-8.7-3.6c-2.4-1.9-4.3-4.4-5.5-7.3c-1.3-3.1-1.9-7.1-1.9-12v-70.8c0-5.9-1.8-10.2-5.5-12.9c-3.7-2.7-8-4-13.2-4
	c-3.1-0.1-6.3,0.5-9.2,1.6c-2.2,0.9-4.4,2-6.5,3.1v103.9c-3.1,0.8-6.2,1.4-9.3,1.8c-4.4,0.6-8.8,0.9-13.2,0.9
	c-3.9,0-7.8-0.3-11.7-0.9c-3.2-0.5-6.2-1.7-8.7-3.6c-2.4-1.9-4.3-4.4-5.5-7.3c-1.3-3.1-1.9-7.1-1.9-12v-89.4c0-5.3,1.1-9.6,3.4-12.7
	c2.6-3.5,5.7-6.5,9.3-8.9c6.7-4.7,15.1-8.6,25-11.5C7554,168.7,7564.6,167.2,7575.1,167.2z"/>
<path class="st0" d="M7832.8,320.3c-11,0.1-21.9-1.6-32.4-4.9c-9.6-3-18.5-8-26.1-14.7c-7.4-6.5-13.2-14.7-17.5-24.6
	c-4.2-9.9-6.4-21.4-6.4-34.6c0-13,2.1-24.2,6.4-33.6c4.2-9.4,9.8-17.1,16.7-23.1c6.9-6,15-10.6,23.7-13.3c8.8-2.8,18-4.3,27.2-4.3
	c10.5,0,20,1.6,28.6,4.7c8.2,2.9,15.7,7.3,22.2,13c6.2,5.5,11.1,12.3,14.5,19.8c3.5,7.9,5.3,16.5,5.2,25.2c0,6.7-1.9,11.8-5.6,15.4
	c-3.8,3.6-9,5.8-15.7,6.8l-73.1,11c2.2,6.5,6.6,11.4,13.3,14.7c6.7,3.3,14.4,4.9,23.1,4.9c7.8,0,15.5-1,23-3.1
	c7.2-2.1,13.1-4.5,17.6-7.3c3.3,2.1,6,4.9,8,8.3c2.1,3.4,3.2,7.3,3.3,11.3c0,8.9-4.1,15.5-12.4,19.8c-6.7,3.5-13.9,5.8-21.3,6.8
	C7847.6,319.7,7840.2,320.3,7832.8,320.3z M7824.5,203.9c-4.7,0-8.8,0.8-12.3,2.4c-3.2,1.4-6.1,3.5-8.4,6.1
	c-2.1,2.4-3.8,5.2-4.9,8.3c-1.1,3-1.7,6.1-1.9,9.3l50.6-8.3c-0.6-3.9-2.8-7.9-6.5-11.8C7837.3,205.9,7831.8,203.9,7824.5,203.9z"/>
<path class="st0" d="M8010.5,224.4c0-6.1-1.7-10.6-5.2-13.5c-3.5-2.9-8.1-4.3-14.1-4.3c-3.9,0-7.9,0.5-11.7,1.5
	c-3.6,0.9-6.9,2.4-9.9,4.4v102.8c-3.1,0.8-6.2,1.4-9.3,1.8c-4.4,0.6-8.8,0.9-13.2,0.9c-3.9,0-7.8-0.3-11.7-0.9
	c-3.2-0.5-6.1-1.7-8.7-3.6c-2.4-1.9-4.3-4.4-5.5-7.3c-1.3-3.1-1.9-7.1-1.9-12v-88.8c0-5.3,1.1-9.7,3.4-13c2.5-3.6,5.7-6.7,9.3-9.2
	c6.7-4.7,15.2-8.6,25.3-11.5c10.2-3,21.5-4.4,33.9-4.4c22.3,0,39.5,4.9,51.5,14.7c12,9.8,18.1,23.3,18.1,40.7v92.7
	c-3.1,0.8-6.2,1.4-9.3,1.8c-4.4,0.6-8.8,0.9-13.2,0.9c-3.9,0-7.8-0.3-11.7-0.9c-3.2-0.5-6.1-1.7-8.7-3.6c-2.4-1.9-4.3-4.4-5.5-7.3
	c-1.3-3.1-1.9-7.1-1.9-12V224.4z"/>
<path class="st0" d="M8142.2,266.1c0,5.1,1.6,8.8,4.9,11c3.3,2.2,7.8,3.3,13.8,3.3c3.1,0,6.1-0.3,9.2-0.7c2.8-0.4,5.6-1.1,8.3-1.9
	c1.8,2.2,3.4,4.7,4.6,7.3c1.4,3,2,6.3,1.9,9.6c0,7.5-2.8,13.6-8.4,18.4c-5.6,4.7-15.5,7.1-29.8,7.1c-17.4,0-30.8-3.9-40.1-11.8
	c-9.4-7.9-14.1-20.7-14.1-38.5V142.9c2.2-0.6,5.3-1.2,9.3-1.9c4.3-0.7,8.6-1.1,12.9-1c8.7,0,15.4,1.5,20.3,4.6
	c4.8,3.1,7.3,9.5,7.3,19.4v19h38.8c1.4,2.6,2.5,5.3,3.4,8.1c1.1,3.5,1.7,7.1,1.6,10.8c0,6.9-1.5,11.9-4.6,15s-7.2,4.6-12.3,4.6
	h-26.9V266.1z"/>
</svg>
