<svg xmlns="http://www.w3.org/2000/svg" xmlns:xlink="http://www.w3.org/1999/xlink" viewBox="0 0 789.72 775.08"><defs><style>.cls-1{fill:#3f3f3f;filter:url(#filter);}.cls-2{fill:#56f4dd;}.cls-3{filter:url(#filter-2);}.cls-10,.cls-4,.cls-6,.cls-8{fill:#5da89b;}.cls-4{filter:url(#filter-3);}.cls-5{filter:url(#filter-4);}.cls-6{filter:url(#filter-5);}.cls-7{filter:url(#filter-6);}.cls-8{filter:url(#filter-7);}.cls-9{filter:url(#filter-8);}.cls-10{filter:url(#filter-9);}</style><filter id="filter" x="36.84" y="22.44" width="752.88" height="752.64" filterUnits="userSpaceOnUse"><feOffset input="SourceAlpha"/><feGaussianBlur stdDeviation="25" result="blur"/><feFlood flood-color="#c2ffef"/><feComposite operator="in" in2="blur"/><feComposite in="SourceGraphic"/></filter><filter id="filter-2"><feOffset input="SourceAlpha"/><feGaussianBlur stdDeviation="25" result="blur-2"/><feFlood flood-color="#c2ffef"/><feComposite operator="in" in2="blur-2"/><feComposite in="SourceGraphic"/></filter><filter id="filter-3" x="330.12" y="316.44" width="159.84" height="159.84" filterUnits="userSpaceOnUse"><feOffset input="SourceAlpha"/><feGaussianBlur stdDeviation="11" result="blur-3"/><feFlood flood-color="#a4f7e3"/><feComposite operator="in" in2="blur-3"/><feComposite in="SourceGraphic"/></filter><filter id="filter-4"><feOffset input="SourceAlpha"/><feGaussianBlur stdDeviation="14" result="blur-4"/><feFlood flood-color="#c2ffef"/><feComposite operator="in" in2="blur-4"/><feComposite in="SourceGraphic"/></filter><filter id="filter-5" x="321.24" y="86.52" width="97.2" height="97.2" filterUnits="userSpaceOnUse"><feOffset input="SourceAlpha"/><feGaussianBlur stdDeviation="11" result="blur-5"/><feFlood flood-color="#a4f7e3"/><feComposite operator="in" in2="blur-5"/><feComposite in="SourceGraphic"/></filter><filter id="filter-6"><feOffset input="SourceAlpha"/><feGaussianBlur stdDeviation="14" result="blur-6"/><feFlood flood-color="#c2ffef"/><feComposite operator="in" in2="blur-6"/><feComposite in="SourceGraphic"/></filter><filter id="filter-7" x="573.96" y="393.72" width="97.2" height="97.2" filterUnits="userSpaceOnUse"><feOffset input="SourceAlpha"/><feGaussianBlur stdDeviation="11" result="blur-7"/><feFlood flood-color="#a4f7e3"/><feComposite operator="in" in2="blur-7"/><feComposite in="SourceGraphic"/></filter><filter id="filter-8"><feOffset input="SourceAlpha"/><feGaussianBlur stdDeviation="14" result="blur-8"/><feFlood flood-color="#c2ffef"/><feComposite operator="in" in2="blur-8"/><feComposite in="SourceGraphic"/></filter><filter id="filter-9" x="140.04" y="511.32" width="102.24" height="102.24" filterUnits="userSpaceOnUse"><feOffset input="SourceAlpha"/><feGaussianBlur stdDeviation="11" result="blur-9"/><feFlood flood-color="#a4f7e3"/><feComposite operator="in" in2="blur-9"/><feComposite in="SourceGraphic"/></filter></defs><g id="Layer_4" data-name="Layer 4"><g id="Layer_5" data-name="Layer 5"><rect x="58.56" y="48.24" width="700" height="700"/></g></g><g id="Layer_3" data-name="Layer 3"><circle class="cls-1" cx="413.3" cy="398.81" r="301.26"/><line class="cls-2" x1="336.8" y1="537.53" x2="335.61" y2="530.42"/><line class="cls-2" x1="336.8" y1="257.93" x2="335.61" y2="265.05"/><line class="cls-2" x1="566.39" y1="393.41" x2="560.82" y2="397.99"/><path class="cls-2" d="M255.5,393l4.66-3.74Z"/><path class="cls-2" d="M265.91,384.7l4.63-3.58Z"/><path class="cls-2" d="M250.45,397.09c1.54-1.27,3.1-2.54,4.66-3.81Q252.76,395.19,250.45,397.09Z"/><path class="cls-2" d="M260.64,388.84c1.55-1.22,3.1-2.45,4.67-3.67C263.74,386.39,262.19,387.62,260.64,388.84Z"/><path class="cls-2" d="M236,409.38q2.26-2,4.58-4Q238.27,407.38,236,409.38Z"/><path class="cls-2" d="M499.71,254.5c1.91-.7,3.81-1.37,5.71-2C503.52,253.13,501.62,253.8,499.71,254.5Z"/><path class="cls-2" d="M271.3,380.54c1.52-1.16,3-2.32,4.58-3.48C274.34,378.22,272.82,379.38,271.3,380.54Z"/><path class="cls-2" d="M240.69,405.3q2.3-2,4.63-3.93Q243,403.34,240.69,405.3Z"/><path class="cls-2" d="M245.54,401.18q2.29-1.92,4.63-3.86Q247.83,399.26,245.54,401.18Z"/><path class="cls-2" d="M299.66,359.83c1.42-1,2.85-2,4.29-3C302.51,357.84,301.08,358.84,299.66,359.83Z"/><path class="cls-2" d="M305.66,355.68c1.39-.95,2.77-1.9,4.18-2.85C308.43,353.78,307.05,354.73,305.66,355.68Z"/><path class="cls-2" d="M493.79,256.67q2.83-1.06,5.67-2.08Q496.63,255.61,493.79,256.67Z"/><path class="cls-2" d="M282.33,372.26c1.5-1.1,3-2.2,4.51-3.3C285.32,370.06,283.83,371.16,282.33,372.26Z"/><path class="cls-2" d="M293.81,364q2.16-1.54,4.35-3.08Q296,362.41,293.81,364Z"/><path class="cls-2" d="M276.77,376.4l4.54-3.39Z"/><path class="cls-2" d="M288,368.11c1.48-1.06,2.95-2.13,4.44-3.19C291,366,289.49,367.05,288,368.11Z"/><path class="cls-2" d="M161.26,538.69C149.2,517.8,164.45,483.7,199,445c-38.89,41.92-56.51,79.16-43.55,101.6,17.31,30,84.8,25.92,170.49-5.07q-.6-3.54-1.19-7.14C242.54,563.88,177.93,567.56,161.26,538.69Z"/><path class="cls-2" d="M493.42,256.81l-3.84,1.44h0Z"/><path class="cls-2" d="M315.7,348.89l-4,2.69,4-2.69Z"/><path class="cls-2" d="M231.42,413.43c1.49-1.33,3-2.67,4.52-4C234.41,410.76,232.91,412.1,231.42,413.43Z"/><path class="cls-2" d="M231.4,413.44c-12,10.72-22.81,21.3-32.36,31.6C208.59,434.74,219.42,424.16,231.4,413.44Z"/><path class="cls-2" d="M505.57,252.41c1.92-.68,3.82-1.33,5.72-2C509.39,251.08,507.49,251.73,505.57,252.41Z"/><path class="cls-2" d="M511.38,250.4c1.92-.65,3.82-1.29,5.72-1.91C515.2,249.11,513.3,249.75,511.38,250.4Z"/><path class="cls-2" d="M660.66,250.36c22.21,38.47-48.17,121.73-161.39,195.75,0,.51-.06,1-.08,1.52-.05.89-.09,1.79-.14,2.68-.08,1.43-.17,2.84-.25,4.26,119.8-77.16,194.88-165,171.64-205.23-16.14-28-75.87-26.31-153.31-.86,15.26-5,29.84-9.11,43.54-12.23C611.44,225.62,648.6,229.47,660.66,250.36Z"/><path class="cls-2" d="M275.88,377.06l.89-.66Z"/><path class="cls-2" d="M286.84,369l1.17-.85Z"/><path class="cls-2" d="M281.31,373l1-.75Z"/><path class="cls-2" d="M298.16,360.88l1.5-1.05Z"/><path class="cls-2" d="M517.1,248.49h0Z"/><path class="cls-2" d="M309.84,352.83c.61-.42,1.24-.83,1.86-1.25C311.08,352,310.45,352.41,309.84,352.83Z"/><path class="cls-2" d="M493.42,256.81l.37-.14Z"/><path class="cls-2" d="M231.4,413.44h0Z"/><polygon class="cls-2" points="199.04 445.04 199.04 445.04 199.04 445.04 199.04 445.04"/><path class="cls-2" d="M292.45,364.92l1.36-1Z"/><path class="cls-2" d="M270.54,381.12l.76-.58Z"/><path class="cls-2" d="M245.32,401.37l.22-.19Z"/><path class="cls-2" d="M235.94,409.42l.06,0Z"/><path class="cls-2" d="M304,356.85l1.71-1.17Z"/><path class="cls-2" d="M505.42,252.46l.15-.05Z"/><path class="cls-2" d="M240.58,405.4l.11-.1Z"/><path class="cls-2" d="M250.17,397.32l.28-.23Z"/><path class="cls-2" d="M260.16,389.22l.48-.38Z"/><path class="cls-2" d="M265.31,385.17l.6-.47Z"/><path class="cls-2" d="M511.29,250.43l.09,0Z"/><path class="cls-2" d="M255.11,393.28l.39-.32Z"/><path class="cls-2" d="M499.46,254.59l.25-.09Z"/><path class="cls-2" d="M495.66,492.7c-.19,1.87-.4,3.72-.61,5.57C495.26,496.42,495.47,494.57,495.66,492.7Z"/><path class="cls-2" d="M497,478.86c-.16,1.8-.33,3.58-.49,5.37C496.67,482.44,496.84,480.66,497,478.86Z"/><path class="cls-2" d="M496.36,485.81q-.27,2.74-.55,5.46Q496.1,488.55,496.36,485.81Z"/><path class="cls-2" d="M494.92,499.51q-.33,2.83-.67,5.66Q494.6,502.35,494.92,499.51Z"/><path class="cls-2" d="M497.59,471.83c-.14,1.74-.29,3.47-.43,5.19C497.3,475.3,497.45,473.57,497.59,471.83Z"/><path class="cls-2" d="M487.23,551c-.37,2-.76,4-1.15,5.95C486.47,555,486.86,553,487.23,551Z"/><path class="cls-2" d="M498.77,455.06l0-.49h0Z"/><path class="cls-2" d="M489.43,538.63c-.33,2-.68,4-1,6C488.75,542.63,489.1,540.64,489.43,538.63Z"/><path class="cls-2" d="M486.07,557q-.6,3-1.21,5.92Q485.48,560,486.07,557Z"/><path class="cls-2" d="M488.36,544.86q-.54,3-1.1,6Q487.82,547.87,488.36,544.86Z"/><path class="cls-2" d="M493.28,512.88c-.25,2-.52,3.89-.79,5.81C492.76,516.77,493,514.83,493.28,512.88Z"/><path class="cls-2" d="M494.12,506.24c-.23,1.93-.48,3.85-.73,5.76C493.64,510.09,493.89,508.17,494.12,506.24Z"/><path class="cls-2" d="M491.45,525.93q-.45,3-.91,5.93Q491,528.92,491.45,525.93Z"/><path class="cls-2" d="M492.39,519.46c-.28,2-.56,3.94-.86,5.9C491.83,523.4,492.11,521.44,492.39,519.46Z"/><path class="cls-2" d="M490.46,532.33c-.31,2-.64,4-1,6C489.82,536.33,490.15,534.34,490.46,532.33Z"/><path class="cls-2" d="M411.46,686.32c-33.79,0-63.24-59.37-78.69-147.25-2.28.85-4.54,1.69-6.79,2.5,15.85,91.65,46.39,153.73,81.48,153.73,32.28,0,60.72-52.56,77.4-132.35-3.29,15.73-7,30.41-11.18,43.83C457.49,656.06,435.58,686.32,411.46,686.32Z"/><path class="cls-2" d="M489.58,258.25l-.09-.56.09.56Z"/><path class="cls-2" d="M317.89,347.45l4-2.61,1-.63c7.89-133.53,44.57-234.55,88.65-234.55,24.12,0,46,30.26,62.22,79.54A499,499,0,0,1,486.07,239c-16.5-83.11-45.54-138.29-78.61-138.29-46.15,0-84.44,107.38-91.76,248.21l.1-.07Z"/><path class="cls-2" d="M486.08,239q.59,3,1.16,6Q486.67,242,486.08,239Z"/><path class="cls-2" d="M498.13,464.72c-.12,1.69-.25,3.37-.38,5.06C497.88,468.09,498,466.41,498.13,464.72Z"/><path class="cls-2" d="M488.4,251.35q.53,3,1,6Q488.92,254.33,488.4,251.35Z"/><path class="cls-2" d="M487.26,245.12q.56,3,1.1,6Q487.82,248.1,487.26,245.12Z"/><path class="cls-2" d="M498.62,457.55c-.11,1.66-.22,3.3-.34,4.94C498.4,460.85,498.51,459.21,498.62,457.55Z"/><path class="cls-2" d="M499.86,363.44l.15,4.32Z"/><path class="cls-2" d="M496.5,311.75c.17,1.78.34,3.57.5,5.38C496.84,315.32,496.67,313.53,496.5,311.75Z"/><path class="cls-2" d="M495.81,304.7c.18,1.82.37,3.64.55,5.47C496.18,308.34,496,306.52,495.81,304.7Z"/><path class="cls-2" d="M497.15,318.94c.15,1.74.3,3.47.44,5.21C497.45,322.41,497.3,320.68,497.15,318.94Z"/><path class="cls-2" d="M497.75,326.19c.13,1.69.26,3.38.38,5.07C498,329.57,497.88,327.88,497.75,326.19Z"/><path class="cls-2" d="M495.05,297.69c.21,1.86.42,3.72.61,5.59C495.47,301.41,495.26,299.55,495.05,297.69Z"/><path class="cls-2" d="M498.28,333.49c.12,1.64.23,3.28.34,4.94C498.51,336.77,498.4,335.13,498.28,333.49Z"/><path class="cls-2" d="M493.39,284c.25,1.92.5,3.85.73,5.79C493.89,287.81,493.64,285.88,493.39,284Z"/><path class="cls-2" d="M490.54,264.1q.46,3,.91,5.95Q491,267.05,490.54,264.1Z"/><path class="cls-2" d="M494.25,290.8q.35,2.82.67,5.68Q494.59,293.62,494.25,290.8Z"/><path class="cls-2" d="M491.54,270.65c.29,2,.57,3.9.85,5.88C492.11,274.55,491.83,272.6,491.54,270.65Z"/><path class="cls-2" d="M492.49,277.27q.4,2.91.79,5.83C493,281.15,492.76,279.21,492.49,277.27Z"/><path class="cls-2" d="M498.77,340.91c.09,1.59.19,3.17.28,4.76C499,344.08,498.86,342.5,498.77,340.91Z"/><path class="cls-2" d="M489.58,258.26h0c.3,1.79.6,3.58.89,5.39C490.18,261.84,489.88,260.05,489.58,258.26Z"/><path class="cls-2" d="M499.75,435.65c-.06,1.49-.13,3-.2,4.46C499.62,438.63,499.69,437.14,499.75,435.65Z"/><path class="cls-2" d="M500.22,420.74l-.12,4.15Z"/><path class="cls-2" d="M500,428.22l-.15,4.32Z"/><path class="cls-2" d="M499.27,446.11c.05-1,.11-2.06.15-3.1,0,1-.1,2.07-.15,3.11Z"/><path class="cls-2" d="M499.19,348.35c.08,1.54.16,3.07.23,4.62C499.35,351.42,499.27,349.89,499.19,348.35Z"/><path class="cls-2" d="M322.81,344.21l-1,.63-4,2.61-2.09,1.37-.1.07q-1.24,24-1.27,49.1c0,49.19,3.74,95.57,10.36,136.44,2.24-.81,4.5-1.62,6.77-2.47-6.59-40-10.32-85.6-10.32-134C321.24,379.61,321.78,361.64,322.81,344.21Z"/><path class="cls-2" d="M500.48,399.64c0-.55,0-1.1,0-1.65s0-1.1,0-1.65c0,.55,0,1.1,0,1.65S500.48,399.09,500.48,399.64Z"/><path class="cls-2" d="M500.46,405.63c0,1.07,0,2.14,0,3.21C500.43,407.77,500.45,406.7,500.46,405.63Z"/><path class="cls-2" d="M499.55,355.86c.07,1.49.14,3,.2,4.47C499.69,358.84,499.62,357.35,499.55,355.86Z"/><path class="cls-2" d="M500.1,371.09l.12,4.15Z"/><path class="cls-2" d="M500.42,387.14c0,1.07,0,2.14,0,3.22C500.45,389.28,500.43,388.21,500.42,387.14Z"/><path class="cls-2" d="M500.29,379c0,1.28.06,2.55.08,3.82C500.35,381.5,500.32,380.23,500.29,379Z"/><path class="cls-2" d="M500.37,413.21c0,1.28-.05,2.54-.08,3.82C500.32,415.75,500.35,414.49,500.37,413.21Z"/><path class="cls-2" d="M491.53,525.36c0,.19,0,.38-.08.57C491.48,525.74,491.51,525.55,491.53,525.36Z"/><path class="cls-2" d="M496.51,484.23l-.15,1.58Z"/><path class="cls-2" d="M493.39,512c0,.3-.07.59-.11.88C493.32,512.59,493.36,512.3,493.39,512Z"/><path class="cls-2" d="M494.25,505.17c0,.35-.08.71-.13,1.07C494.17,505.88,494.21,505.52,494.25,505.17Z"/><path class="cls-2" d="M495.05,498.27c0,.41-.09.83-.13,1.24C495,499.1,495,498.68,495.05,498.27Z"/><path class="cls-2" d="M492.49,518.69c0,.26-.07.51-.1.77C492.42,519.2,492.46,519,492.49,518.69Z"/><path class="cls-2" d="M487.26,550.84l0,.14Z"/><path class="cls-2" d="M486.08,556.93v0Z"/><path class="cls-2" d="M488.4,544.61a2.17,2.17,0,0,0,0,.25A2.17,2.17,0,0,1,488.4,544.61Z"/><path class="cls-2" d="M489.49,538.31l-.06.32Z"/><path class="cls-2" d="M490.54,531.86c0,.16-.05.32-.08.47C490.49,532.18,490.51,532,490.54,531.86Z"/><path class="cls-2" d="M487.24,245l0,.11Z"/><path class="cls-2" d="M497.16,477c-.06.61-.11,1.23-.16,1.84C497.05,478.25,497.1,477.63,497.16,477Z"/><path class="cls-2" d="M488.36,251.13a1.7,1.7,0,0,0,0,.22A1.7,1.7,0,0,1,488.36,251.13Z"/><path class="cls-2" d="M484.86,563h0Z"/><path class="cls-2" d="M486.07,239v0Z"/><path class="cls-2" d="M497.75,469.78c-.05.68-.1,1.37-.16,2.05C497.65,471.15,497.7,470.46,497.75,469.78Z"/><path class="cls-2" d="M498.28,462.49l-.15,2.23Z"/><path class="cls-2" d="M489.43,257.34l.06.35Z"/><path class="cls-2" d="M498.77,455.06c0,.83-.1,1.67-.15,2.49C498.67,456.73,498.72,455.89,498.77,455.06Z"/><path class="cls-2" d="M495.81,491.27l-.15,1.43Z"/><path class="cls-2" d="M494.92,296.48c0,.4.09.81.13,1.21C495,297.29,495,296.88,494.92,296.48Z"/><path class="cls-2" d="M500.22,375.24c0,1.23,0,2.48.07,3.71C500.27,377.72,500.25,376.47,500.22,375.24Z"/><path class="cls-2" d="M498.13,331.26l.15,2.23Z"/><path class="cls-2" d="M500.48,399.64q0,3,0,6Q500.48,402.65,500.48,399.64Z"/><path class="cls-2" d="M500.46,390.36c0,2,0,4,0,6C500.48,394.34,500.47,392.35,500.46,390.36Z"/><path class="cls-2" d="M499.75,360.33c0,1,.07,2.07.11,3.11C499.82,362.4,499.79,361.36,499.75,360.33Z"/><path class="cls-2" d="M494.12,289.75c.05.34.09.7.13,1.05C494.21,290.45,494.17,290.09,494.12,289.75Z"/><path class="cls-2" d="M493.28,283.1c0,.29.07.58.11.86C493.35,283.68,493.32,283.39,493.28,283.1Z"/><path class="cls-2" d="M500.37,382.77c0,1.45,0,2.91.05,4.37C500.4,385.68,500.39,384.22,500.37,382.77Z"/><path class="cls-2" d="M498.62,338.43l.15,2.48Z"/><path class="cls-2" d="M497.59,324.15c.06.68.11,1.37.16,2C497.7,325.52,497.65,324.83,497.59,324.15Z"/><path class="cls-2" d="M497,317.13l.15,1.81Z"/><path class="cls-2" d="M499.05,345.67c.05.89.09,1.79.14,2.68C499.14,347.46,499.1,346.56,499.05,345.67Z"/><path class="cls-2" d="M496.36,310.17c.05.52.09,1.05.14,1.58C496.45,311.22,496.41,310.69,496.36,310.17Z"/><path class="cls-2" d="M495.66,303.28l.15,1.42Z"/><path class="cls-2" d="M499.42,353c.05,1,.09,1.93.13,2.89C499.51,354.9,499.47,353.93,499.42,353Z"/><path class="cls-2" d="M500,367.76c0,1.1.06,2.22.09,3.33C500.07,370,500,368.86,500,367.76Z"/><path class="cls-2" d="M499.55,440.11c0,1-.08,1.94-.13,2.9C499.47,442.05,499.51,441.08,499.55,440.11Z"/><path class="cls-2" d="M491.45,270.05l.09.6Z"/><path class="cls-2" d="M500.42,408.84c0,1.46,0,2.92-.05,4.37C500.39,411.76,500.4,410.3,500.42,408.84Z"/><path class="cls-2" d="M499.86,432.54c0,1-.07,2.08-.11,3.11C499.79,434.62,499.82,433.57,499.86,432.54Z"/><path class="cls-2" d="M490.47,263.65c0,.15,0,.3.07.45C490.51,264,490.49,263.8,490.47,263.65Z"/><path class="cls-2" d="M500.1,424.89c0,1.11-.06,2.23-.09,3.33C500,427.12,500.07,426,500.1,424.89Z"/><path class="cls-2" d="M492.39,276.53c0,.25.07.5.1.74C492.46,277,492.42,276.78,492.39,276.53Z"/><path class="cls-2" d="M500.29,417c0,1.24,0,2.48-.07,3.71C500.25,419.51,500.27,418.27,500.29,417Z"/><path class="cls-2" d="M431.85,283l4.67-2.2Z"/><path class="cls-2" d="M499.19,447.63c0-.51.05-1,.08-1.51q-20.7,13.51-43.2,26.54C413,497.55,370.42,517.55,331.56,532q.58,3.59,1.21,7.11c39.62-14.81,82.87-35.21,126.71-60.52q20.34-11.74,39.32-24c.08-1.42.17-2.83.25-4.26C499.1,449.42,499.14,448.52,499.19,447.63Z"/><path class="cls-2" d="M367.32,316.93l-.87.5-.81.47.81-.47Z"/><path class="cls-2" d="M481.77,261.28c1.87-.74,3.72-1.46,5.57-2.17C485.49,259.82,483.64,260.54,481.77,261.28Z"/><path class="cls-2" d="M469.56,266.22c1.81-.76,3.62-1.49,5.42-2.23C473.18,264.73,471.37,265.46,469.56,266.22Z"/><path class="cls-2" d="M386.29,306.28l3.39-1.83Z"/><path class="cls-2" d="M450.89,274.24,456,272Z"/><path class="cls-2" d="M457.15,271.49l5.22-2.25Z"/><path class="cls-2" d="M475.69,263.71q2.76-1.12,5.5-2.2Q478.45,262.59,475.69,263.71Z"/><path class="cls-2" d="M444.57,277.09l4.95-2.23Z"/><path class="cls-2" d="M438.23,280c1.62-.76,3.24-1.5,4.85-2.24C441.47,278.51,439.85,279.25,438.23,280Z"/><path class="cls-2" d="M463.38,268.81l5.3-2.23Z"/><path class="cls-2" d="M379.69,309.92l3.28-1.81Z"/><path class="cls-2" d="M392.88,302.72l3.61-1.92Z"/><path class="cls-2" d="M399.44,299.24c1.28-.68,2.57-1.35,3.85-2C402,297.89,400.72,298.56,399.44,299.24Z"/><path class="cls-2" d="M350.37,326.92l2.95-1.78Z"/><path class="cls-2" d="M412.49,292.51c1.41-.72,2.81-1.42,4.22-2.12C415.3,291.09,413.9,291.79,412.49,292.51Z"/><path class="cls-2" d="M324.2,343.31q1.89-1.23,3.79-2.45Q326.09,342.08,324.2,343.31Z"/><path class="cls-2" d="M357.31,322.78l2.54-1.51Z"/><path class="cls-2" d="M336.89,335.22,340.5,333Z"/><path class="cls-2" d="M406,295.83l4-2.05Z"/><path class="cls-2" d="M343.55,331.08l3.32-2Z"/><path class="cls-2" d="M330.46,339.28l3.75-2.39Z"/><path class="cls-2" d="M373.07,313.64,376,312Z"/><path class="cls-2" d="M489.58,258.25l-1.77.68,1.77-.67Z"/><path class="cls-2" d="M419,289.26l4.36-2.14Z"/><path class="cls-2" d="M425.42,286.1l4.5-2.17Z"/><path class="cls-2" d="M389.68,304.45l3.2-1.73Z"/><path class="cls-2" d="M334.21,336.89l2.68-1.67Z"/><path class="cls-2" d="M487.34,259.11l.47-.18Z"/><path class="cls-2" d="M462.37,269.24l1-.43Z"/><path class="cls-2" d="M429.92,283.93l1.93-.92Z"/><path class="cls-2" d="M475,264l.71-.28Z"/><path class="cls-2" d="M328,340.86l2.47-1.58Z"/><path class="cls-2" d="M468.68,266.58l.88-.36Z"/><path class="cls-2" d="M481.19,261.51l.58-.23Z"/><path class="cls-2" d="M403.29,297.23l2.68-1.4Z"/><path class="cls-2" d="M324.2,343.31l-1.39.9h0Z"/><path class="cls-2" d="M396.49,300.8l2.95-1.56Z"/><path class="cls-2" d="M367.32,316.93q2.88-1.67,5.75-3.29Q370.21,315.26,367.32,316.93Z"/><path class="cls-2" d="M359.85,321.27q2.88-1.69,5.79-3.37Q362.73,319.58,359.85,321.27Z"/><path class="cls-2" d="M383,308.11l3.32-1.83Z"/><path class="cls-2" d="M376,312l3.71-2.08Z"/><path class="cls-2" d="M340.5,333l3.05-1.88Z"/><path class="cls-2" d="M443.08,277.77l1.49-.68Z"/><path class="cls-2" d="M436.52,280.81l1.71-.8Z"/><path class="cls-2" d="M423.33,287.12l2.09-1Z"/><path class="cls-2" d="M416.71,290.39l2.26-1.13Z"/><path class="cls-2" d="M456,272l1.18-.52Z"/><path class="cls-2" d="M410,293.78l2.49-1.27Z"/><path class="cls-2" d="M346.87,329l3.5-2.12Z"/><path class="cls-2" d="M449.52,274.86l1.37-.62Z"/><path class="cls-2" d="M353.32,325.14l4-2.36Z"/><path class="cls-2" d="M491.79,272.34q.43,2.9.84,5.83Q492.23,275.23,491.79,272.34Z"/><path class="cls-2" d="M494.5,292.5q.35,2.79.66,5.62Q494.85,295.29,494.5,292.5Z"/><path class="cls-2" d="M486.31,558.67q-.58,3-1.2,5.89Q485.73,561.64,486.31,558.67Z"/><path class="cls-2" d="M485.1,564.61c-3.29,15.72-7,30.39-11.17,43.81C478.07,595,481.81,580.33,485.1,564.61Z"/><path class="cls-2" d="M488.6,546.51c-.35,2-.72,4-1.09,5.94C487.88,550.49,488.25,548.51,488.6,546.51Z"/><path class="cls-2" d="M489.68,540.29q-.51,3-1,5.93Q489.18,543.28,489.68,540.29Z"/><path class="cls-2" d="M487.48,552.63c-.37,2-.76,4-1.14,5.92C486.72,556.59,487.11,554.62,487.48,552.63Z"/><path class="cls-2" d="M493.64,285.66q.38,2.85.73,5.72C494.13,289.46,493.89,287.56,493.64,285.66Z"/><path class="cls-2" d="M492.74,279q.4,2.86.79,5.77Q493.14,281.83,492.74,279Z"/><path class="cls-2" d="M473.93,190.86c4.14,13.42,7.88,28.09,11.17,43.82C481.81,218.94,478.07,204.28,473.93,190.86Z"/><path class="cls-2" d="M486.33,240.71q.59,2.94,1.15,5.94Q486.91,243.65,486.33,240.71Z"/><path class="cls-2" d="M485.11,234.69q.61,2.94,1.2,5.92Q485.73,237.63,485.11,234.69Z"/><path class="cls-2" d="M488.65,253q.53,3,1,6Q489.17,256,488.65,253Z"/><path class="cls-2" d="M489.74,259.37c.33,2,.65,3.94,1,5.92C490.39,263.31,490.07,261.33,489.74,259.37Z"/><path class="cls-2" d="M487.51,246.8q.56,3,1.09,6Q488.06,249.77,487.51,246.8Z"/><path class="cls-2" d="M490.79,265.8q.46,2.93.91,5.89Q491.25,268.72,490.79,265.8Z"/><path class="cls-2" d="M496.06,306.41c.18,1.79.37,3.59.54,5.4C496.43,310,496.24,308.2,496.06,306.41Z"/><path class="cls-2" d="M498,327.93c.13,1.65.26,3.31.38,5C498.26,331.24,498.13,329.58,498,327.93Z"/><path class="cls-2" d="M496.76,313.47c.16,1.76.33,3.52.49,5.29C497.09,317,496.92,315.23,496.76,313.47Z"/><path class="cls-2" d="M497.41,320.67c.14,1.7.29,3.41.43,5.12C497.7,324.08,497.55,322.37,497.41,320.67Z"/><path class="cls-2" d="M411.7,688c-44.39,0-81.3-102.5-88.82-237.49l-.36-.24-3.93-2.58-2.12-1.41-.68-.45c6.94,142.28,45.45,251.14,91.91,251.14,25.92,0,49.36-33.88,66.22-88.52C457.74,657.71,435.83,688,411.7,688Z"/><path class="cls-2" d="M411.7,111.31c24.13,0,46,30.26,62.22,79.54-16.86-54.64-40.3-88.52-66.22-88.52-34.75,0-65.06,60.93-81,151.19,2.25.81,4.52,1.65,6.79,2.49C349,169.53,378.24,111.31,411.7,111.31Z"/><path class="cls-2" d="M495.3,299.4q.31,2.75.61,5.52Q495.61,302.15,495.3,299.4Z"/><path class="cls-2" d="M498.54,335.24c.11,1.6.22,3.21.32,4.83C498.76,338.45,498.65,336.84,498.54,335.24Z"/><path class="cls-2" d="M489.74,539.92l.51-3.09h0Z"/><path class="cls-2" d="M489.68,259l.06.39Z"/><path class="cls-2" d="M491.7,271.69l.09.65Z"/><path class="cls-2" d="M490.71,265.29c0,.17.05.34.08.51C490.76,265.63,490.74,265.46,490.71,265.29Z"/><path class="cls-2" d="M497.84,325.79c.05.71.11,1.43.16,2.14C498,327.22,497.89,326.5,497.84,325.79Z"/><path class="cls-2" d="M488.6,252.77c0,.09,0,.17,0,.26C488.63,252.94,488.62,252.86,488.6,252.77Z"/><path class="cls-2" d="M498.38,332.9c.05.78.1,1.56.16,2.34C498.48,334.46,498.43,333.68,498.38,332.9Z"/><path class="cls-2" d="M485.1,234.68h0Z"/><polygon class="cls-2" points="473.92 190.85 473.92 190.85 473.93 190.86 473.92 190.85"/><path class="cls-2" d="M495.16,298.12c0,.42.1.85.14,1.28C495.26,299,495.21,298.54,495.16,298.12Z"/><path class="cls-2" d="M487.48,246.65l0,.15Z"/><path class="cls-2" d="M497.25,318.76c.05.64.1,1.28.16,1.91C497.35,320,497.3,319.4,497.25,318.76Z"/><path class="cls-2" d="M498.87,340.12v0Z"/><path class="cls-2" d="M487.51,552.45l0,.18Z"/><path class="cls-2" d="M488.65,546.22c0,.1,0,.2,0,.29C488.62,546.42,488.63,546.32,488.65,546.22Z"/><path class="cls-2" d="M495.91,304.92l.15,1.49Z"/><path class="cls-2" d="M492.63,278.17c0,.26.08.53.11.8C492.71,278.7,492.67,278.43,492.63,278.17Z"/><path class="cls-2" d="M489.74,539.92l-.06.37Z"/><path class="cls-2" d="M486.34,558.55l0,.12Z"/><path class="cls-2" d="M494.37,291.38c0,.37.09.75.13,1.12C494.46,292.13,494.41,291.75,494.37,291.38Z"/><polygon class="cls-2" points="473.92 608.42 473.93 608.42 473.92 608.42 473.92 608.42"/><path class="cls-2" d="M486.31,240.61l0,.1Z"/><path class="cls-2" d="M493.53,284.74c0,.3.07.61.11.92C493.6,285.35,493.57,285,493.53,284.74Z"/><path class="cls-2" d="M496.6,311.81c.06.55.1,1.1.16,1.66C496.7,312.91,496.66,312.36,496.6,311.81Z"/><path class="cls-2" d="M485.11,564.56v0Z"/><path class="cls-2" d="M276.55,418c-1.54-1.16-3.06-2.32-4.58-3.48C273.49,415.7,275,416.86,276.55,418Z"/><path class="cls-2" d="M500.12,540.49q-2.82-1-5.67-2.08Q497.3,539.48,500.12,540.49Z"/><path class="cls-2" d="M506.07,542.61q-2.83-1-5.69-2Q503.23,541.62,506.07,542.61Z"/><path class="cls-2" d="M199.71,350.05c-34.59-38.67-49.84-72.77-37.78-93.66,16.67-28.87,81.28-25.18,163.52,4.26q.6-3.58,1.22-7.13c-85.7-31-153.19-35.08-170.51-5.08-16.14,27.95,15.15,78.86,75.91,133.2C220.09,370.92,209.26,360.34,199.71,350.05Z"/><path class="cls-2" d="M512,544.65c-1.9-.64-3.8-1.3-5.72-2C508.16,543.35,510.06,544,512,544.65Z"/><path class="cls-2" d="M310.5,442.25l-4.17-2.85Z"/><path class="cls-2" d="M304.62,438.23c-1.44-1-2.87-2-4.29-3C301.75,436.24,303.18,437.24,304.62,438.23Z"/><path class="cls-2" d="M498.87,340.12l.15,2.56c.09,1.54.19,3.08.27,4.63,0,.42,0,.85.07,1.28,113.56,74.12,184.22,157.6,162,196.13-12.06,20.89-49.22,24.74-100,14.11,55.75,12.71,96.81,9.36,109.77-13.09C694.38,505.43,619,417.38,498.87,340.12Z"/><path class="cls-2" d="M298.83,434.2q-2.19-1.53-4.35-3.08Q296.64,432.67,298.83,434.2Z"/><path class="cls-2" d="M517.76,546.59q-2.84-.93-5.71-1.91Q514.93,545.66,517.76,546.59Z"/><path class="cls-2" d="M561.33,558.83c-13.69-3.12-28.27-7.21-43.53-12.23C533.06,551.62,547.64,555.71,561.33,558.83Z"/><path class="cls-2" d="M490.25,536.83l3.85,1.45-3.85-1.46Z"/><path class="cls-2" d="M312.38,443.51l3.41,2.29h0Z"/><path class="cls-2" d="M266,409.91c-1.56-1.22-3.11-2.45-4.65-3.67C262.86,407.46,264.41,408.69,266,409.91Z"/><path class="cls-2" d="M255.78,401.8q-2.35-1.91-4.66-3.81Q253.43,399.9,255.78,401.8Z"/><path class="cls-2" d="M260.83,405.86q-2.35-1.87-4.66-3.74Q258.48,404,260.83,405.86Z"/><path class="cls-2" d="M250.84,397.76q-2.34-1.93-4.63-3.86Q248.51,395.82,250.84,397.76Z"/><path class="cls-2" d="M236.61,385.65c-1.53-1.33-3-2.66-4.52-4C233.58,383,235.08,384.32,236.61,385.65Z"/><path class="cls-2" d="M293.12,430.16q-2.22-1.57-4.41-3.17Q290.9,428.58,293.12,430.16Z"/><path class="cls-2" d="M241.25,389.69c-1.54-1.33-3.07-2.65-4.57-4Z"/><path class="cls-2" d="M246,393.71q-2.34-2-4.63-3.93Q243.65,391.75,246,393.71Z"/><path class="cls-2" d="M282,422.07l-4.54-3.39Z"/><path class="cls-2" d="M271.21,414l-4.62-3.57Z"/><path class="cls-2" d="M287.5,426.12,283,422.83Z"/><path class="cls-2" d="M443.75,517.31c-1.61-.74-3.23-1.48-4.85-2.24C440.52,515.83,442.14,516.57,443.75,517.31Z"/><path class="cls-2" d="M397.11,494.26l-3.56-1.9Z"/><path class="cls-2" d="M475.62,531.08l-5.4-2.22Z"/><path class="cls-2" d="M354,469.93c-.93-.55-1.86-1.12-2.78-1.68C352.13,468.81,353.06,469.38,354,469.93Z"/><path class="cls-2" d="M456.64,523.08l-5.08-2.24Z"/><path class="cls-2" d="M341.17,462.12l-3.57-2.23Z"/><path class="cls-2" d="M347.54,466l-3.26-2Z"/><path class="cls-2" d="M463,525.83c-1.73-.74-3.46-1.48-5.2-2.24C459.56,524.35,461.29,525.09,463,525.83Z"/><path class="cls-2" d="M430.59,511.15l-4.5-2.17Z"/><path class="cls-2" d="M437.19,514.27l-4.68-2.2Z"/><path class="cls-2" d="M383.49,486.89l-3.13-1.73Z"/><path class="cls-2" d="M376.39,482.93l-2.64-1.48Z"/><path class="cls-2" d="M424,508l-4.36-2.14Z"/><path class="cls-2" d="M360.52,473.81l-2.29-1.36Z"/><path class="cls-2" d="M390.3,490.61,387,488.8Z"/><path class="cls-2" d="M334.87,458.18c-1.23-.77-2.45-1.56-3.67-2.34C332.42,456.62,333.64,457.41,334.87,458.18Z"/><path class="cls-2" d="M490.25,536.82h0l-1.77-.67Z"/><path class="cls-2" d="M410.69,501.32l-4.05-2.07Z"/><path class="cls-2" d="M417.38,504.69c-1.41-.7-2.81-1.4-4.22-2.12C414.57,503.29,416,504,417.38,504.69Z"/><path class="cls-2" d="M404,497.86l-3.86-2Z"/><path class="cls-2" d="M460.15,316.53c-43.83-25.31-87.08-45.7-126.69-60.52-.43,2.35-.83,4.72-1.24,7.11,38.87,14.41,81.41,34.41,124.52,59.3q22.15,12.79,42.62,26.17c0-.43,0-.86-.07-1.28-.08-1.55-.18-3.09-.27-4.63l-.15-2.56Q480.2,328.12,460.15,316.53Z"/><path class="cls-2" d="M481.85,533.57l-5.49-2.19Z"/><path class="cls-2" d="M450.2,520.23c-1.65-.74-3.3-1.48-5-2.24C446.9,518.75,448.55,519.49,450.2,520.23Z"/><path class="cls-2" d="M328.65,454.22l-3.76-2.44Z"/><path class="cls-2" d="M488,536c-1.85-.71-3.7-1.42-5.56-2.16C484.3,534.54,486.15,535.25,488,536Z"/><path class="cls-2" d="M469.38,528.51c-1.77-.74-3.55-1.48-5.33-2.24C465.83,527,467.61,527.77,469.38,528.51Z"/><path class="cls-2" d="M261.32,406.24l-.49-.38Z"/><path class="cls-2" d="M246.21,393.9l-.22-.19Z"/><path class="cls-2" d="M236.68,385.72l-.07-.07Z"/><path class="cls-2" d="M256.17,402.12l-.39-.32Z"/><path class="cls-2" d="M241.36,389.78l-.11-.09Z"/><path class="cls-2" d="M232.09,381.65h0Z"/><path class="cls-2" d="M251.12,398l-.28-.23Z"/><path class="cls-2" d="M266.59,410.39l-.62-.48Z"/><path class="cls-2" d="M500.38,540.58l-.26-.09Z"/><path class="cls-2" d="M506.24,542.68l-.17-.07Z"/><path class="cls-2" d="M306.33,439.4l-1.71-1.17Z"/><path class="cls-2" d="M312.38,443.51l-1.88-1.26Z"/><path class="cls-2" d="M272,414.54l-.76-.58Z"/><polygon class="cls-2" points="561.34 558.83 561.34 558.83 561.33 558.83 561.34 558.83"/><path class="cls-2" d="M512.05,544.68l-.09,0Z"/><path class="cls-2" d="M517.8,546.6h0Z"/><path class="cls-2" d="M494.45,538.41l-.35-.13Z"/><path class="cls-2" d="M294.48,431.12l-1.36-1Z"/><path class="cls-2" d="M288.71,427l-1.21-.87Z"/><path class="cls-2" d="M277.44,418.68l-.89-.66Z"/><path class="cls-2" d="M283,422.83l-1-.76Z"/><path class="cls-2" d="M300.33,435.25l-1.5-1.05Z"/><path class="cls-2" d="M413.16,502.57l-2.47-1.25Z"/><path class="cls-2" d="M419.64,505.82l-2.26-1.13Z"/><path class="cls-2" d="M432.51,512.07l-1.92-.92Z"/><path class="cls-2" d="M426.09,509,424,508Z"/><path class="cls-2" d="M373.75,481.45c-2.21-1.26-4.42-2.52-6.63-3.8C369.33,478.93,371.54,480.19,373.75,481.45Z"/><path class="cls-2" d="M337.6,459.89l-2.73-1.71Z"/><path class="cls-2" d="M406.64,499.25,404,497.86Z"/><path class="cls-2" d="M351.21,468.25c-1.23-.73-2.46-1.47-3.67-2.21C348.75,466.78,350,467.52,351.21,468.25Z"/><path class="cls-2" d="M322.88,450.48l2,1.3-2-1.3Z"/><path class="cls-2" d="M331.2,455.84l-2.55-1.62Z"/><path class="cls-2" d="M358.23,472.45c-1.41-.84-2.83-1.67-4.24-2.52C355.4,470.78,356.82,471.61,358.23,472.45Z"/><path class="cls-2" d="M344.28,464l-3.11-1.91Z"/><path class="cls-2" d="M393.55,492.36l-3.25-1.75Z"/><path class="cls-2" d="M400.11,495.85l-3-1.59Z"/><path class="cls-2" d="M367.12,477.65q-3.31-1.9-6.6-3.84Q363.8,475.75,367.12,477.65Z"/><path class="cls-2" d="M387,488.8l-3.47-1.91Z"/><path class="cls-2" d="M380.36,485.16c-1.32-.73-2.64-1.48-4-2.23C377.72,483.68,379,484.43,380.36,485.16Z"/><path class="cls-2" d="M438.9,515.07l-1.71-.8Z"/><path class="cls-2" d="M470.22,528.86l-.84-.35Z"/><path class="cls-2" d="M482.44,533.8l-.59-.23Z"/><path class="cls-2" d="M476.36,531.38l-.74-.3Z"/><path class="cls-2" d="M488.48,536.15,488,536Z"/><path class="cls-2" d="M457.82,523.59l-1.18-.51Z"/><path class="cls-2" d="M464.05,526.27l-1-.44Z"/><path class="cls-2" d="M451.56,520.84l-1.36-.61Z"/><path class="cls-2" d="M445.24,518l-1.49-.68Z"/><path class="cls-2" d="M500,437.3c-.06,1.44-.12,2.87-.19,4.3C499.87,440.17,499.93,438.74,500,437.3Z"/><path class="cls-2" d="M500.67,389.42l0,2.58Z"/><path class="cls-2" d="M500.26,429.88l-.15,4.11Z"/><path class="cls-2" d="M499.67,444.67c-.07,1.49-.15,3-.23,4.47C499.52,447.65,499.6,446.16,499.67,444.67Z"/><path class="cls-2" d="M498.86,459.21c-.1,1.61-.21,3.22-.32,4.82C498.65,462.43,498.76,460.82,498.86,459.21Z"/><path class="cls-2" d="M500.7,407.28l0,2.58Z"/><path class="cls-2" d="M500.46,422.4c0,1.3-.07,2.58-.1,3.88C500.39,425,500.43,423.7,500.46,422.4Z"/><path class="cls-2" d="M500.61,414.86c0,1.16,0,2.3-.07,3.45C500.57,417.16,500.59,416,500.61,414.86Z"/><path class="cls-2" d="M499.29,452c-.08,1.55-.18,3.08-.27,4.62C499.11,455.05,499.21,453.52,499.29,452Z"/><path class="cls-2" d="M495.91,494.36l-.6,5.5Z"/><path class="cls-2" d="M495.16,501.16c-.21,1.88-.43,3.74-.66,5.6C494.73,504.9,495,503,495.16,501.16Z"/><path class="cls-2" d="M496.6,487.47c-.17,1.8-.35,3.59-.54,5.38C496.25,491.06,496.43,489.27,496.6,487.47Z"/><path class="cls-2" d="M497.84,473.48c-.14,1.71-.29,3.41-.43,5.11C497.55,476.89,497.7,475.19,497.84,473.48Z"/><path class="cls-2" d="M498.38,466.37c-.12,1.66-.25,3.31-.38,5C498.13,469.68,498.26,468,498.38,466.37Z"/><path class="cls-2" d="M497.25,480.51c-.16,1.77-.33,3.53-.49,5.29C496.92,484,497.09,482.28,497.25,480.51Z"/><path class="cls-2" d="M321.48,399.64c0-49.4,3.89-95.88,10.74-136.52-2.27-.85-4.52-1.66-6.77-2.47-6.87,41.48-10.77,88.78-10.77,139,0,15.7.38,31.12,1.11,46.16l.68.45,2.12,1.41,3.93,2.58.36.24C322,434,321.48,417,321.48,399.64Z"/><path class="cls-2" d="M494.37,507.89q-.36,2.88-.72,5.71Q494,510.77,494.37,507.89Z"/><path class="cls-2" d="M493.53,514.54q-.39,2.9-.78,5.75Q493.14,517.44,493.53,514.54Z"/><path class="cls-2" d="M500.36,373c0,1.3.07,2.59.1,3.89C500.43,375.58,500.39,374.29,500.36,373Z"/><path class="cls-2" d="M491.7,527.58q-.45,3-.91,5.89Q491.26,530.54,491.7,527.58Z"/><path class="cls-2" d="M500.11,365.28l.15,4.12Z"/><path class="cls-2" d="M499.8,357.67c.07,1.43.13,2.86.19,4.3C499.93,360.53,499.87,359.1,499.8,357.67Z"/><path class="cls-2" d="M492.63,521.11q-.4,2.94-.84,5.85Q492.23,524.05,492.63,521.11Z"/><path class="cls-2" d="M499.44,350.13c.08,1.49.16,3,.23,4.48C499.6,353.11,499.52,351.62,499.44,350.13Z"/><path class="cls-2" d="M490.25,536.82c.15-.94.31-1.89.46-2.83-.15,1-.31,1.88-.46,2.83Z"/><path class="cls-2" d="M500.54,381c0,1.14,0,2.29.07,3.44C500.59,383.26,500.57,382.11,500.54,381Z"/><path class="cls-2" d="M492.75,520.29l-.12.82Z"/><path class="cls-2" d="M493.65,513.6l-.12.94Z"/><path class="cls-2" d="M497.41,478.59c-.06.64-.11,1.28-.16,1.92C497.3,479.87,497.35,479.23,497.41,478.59Z"/><path class="cls-2" d="M496.76,485.8c-.05.55-.1,1.11-.16,1.67C496.66,486.91,496.71,486.35,496.76,485.8Z"/><path class="cls-2" d="M496.06,492.85l-.15,1.51Z"/><path class="cls-2" d="M490.79,533.47c0,.17-.05.34-.08.52C490.74,533.81,490.76,533.64,490.79,533.47Z"/><path class="cls-2" d="M495.31,499.86l-.15,1.3Z"/><path class="cls-2" d="M494.5,506.76c0,.37-.09.76-.13,1.13C494.41,507.52,494.46,507.13,494.5,506.76Z"/><path class="cls-2" d="M499.44,350.13c0-.51-.05-1-.08-1.54h0C499.39,349.11,499.41,349.62,499.44,350.13Z"/><path class="cls-2" d="M498,471.33c-.05.72-.11,1.44-.16,2.15C497.89,472.77,498,472.05,498,471.33Z"/><path class="cls-2" d="M491.79,527l-.09.62Z"/><path class="cls-2" d="M500.61,384.41c0,1.66,0,3.34.06,5C500.65,387.75,500.64,386.07,500.61,384.41Z"/><path class="cls-2" d="M500.46,376.88c0,1.35.06,2.72.08,4.09C500.52,379.6,500.49,378.23,500.46,376.88Z"/><path class="cls-2" d="M500.54,418.31c0,1.36-.05,2.73-.08,4.09C500.49,421,500.52,419.67,500.54,418.31Z"/><path class="cls-2" d="M500.36,426.28c0,1.2-.07,2.4-.1,3.6C500.29,428.68,500.32,427.48,500.36,426.28Z"/><path class="cls-2" d="M500.7,392q0,3.79,0,7.64Q500.73,395.8,500.7,392Z"/><path class="cls-2" d="M498.54,464c-.06.78-.11,1.57-.16,2.34C498.43,465.6,498.48,464.81,498.54,464Z"/><path class="cls-2" d="M500.26,369.4c0,1.19.06,2.4.1,3.59C500.32,371.8,500.29,370.59,500.26,369.4Z"/><path class="cls-2" d="M500.73,399.64q0,3.83,0,7.64Q500.73,403.47,500.73,399.64Z"/><path class="cls-2" d="M500.67,409.86c0,1.67,0,3.34-.06,5C500.64,413.2,500.65,411.53,500.67,409.86Z"/><path class="cls-2" d="M499,456.59c0,.87-.1,1.75-.16,2.62C498.92,458.34,499,457.46,499,456.59Z"/><path class="cls-2" d="M499.44,449.14c-.05.94-.09,1.89-.15,2.83C499.35,451,499.39,450.08,499.44,449.14Z"/><path class="cls-2" d="M499.67,354.61c.05,1,.09,2,.13,3.06C499.76,356.65,499.72,355.63,499.67,354.61Z"/><path class="cls-2" d="M500,362l.12,3.31Z"/><path class="cls-2" d="M500.11,434,500,437.3Z"/><path class="cls-2" d="M499.8,441.6c0,1-.08,2-.13,3.07C499.72,443.65,499.76,442.62,499.8,441.6Z"/><g class="cls-3"><rect class="cls-4" x="363.21" y="349.49" width="93.58" height="93.58"/><rect class="cls-2" x="369.95" y="356.23" width="80.1" height="80.1"/></g><g class="cls-5"><rect class="cls-6" x="357.13" y="122.23" width="25.64" height="25.64" transform="translate(-21.44 91.29) rotate(-13.67)"/><rect class="cls-2" x="358.98" y="124.07" width="21.95" height="21.95" transform="translate(-21.44 91.29) rotate(-13.67)"/></g><g class="cls-7"><rect class="cls-8" x="609.64" y="429.43" width="25.64" height="25.64" transform="translate(-86.91 159.69) rotate(-13.67)"/><rect class="cls-2" x="611.48" y="431.28" width="21.95" height="21.95" transform="translate(-86.91 159.69) rotate(-13.67)"/></g><g class="cls-9"><rect class="cls-10" x="178.29" y="549.64" width="25.64" height="25.64" transform="translate(-306.72 238.34) rotate(-38.17)"/><rect class="cls-2" x="180.14" y="551.49" width="21.95" height="21.95" transform="translate(-306.72 238.34) rotate(-38.17)"/></g></g></svg>